<svg width="40" height="222" viewBox="0 0 40 222" fill="none" xmlns="http://www.w3.org/2000/svg">
<path d="M11.8501 213.83C12.5362 215.536 13.5914 217.069 14.9399 218.319C16.2885 219.569 17.897 220.505 19.6501 221.06C21.4048 220.513 23.0163 219.583 24.3686 218.338C25.7208 217.093 26.7801 215.564 27.4701 213.86L11.8501 213.83Z" fill="#DDA11B"/>
<path d="M7.07031 210.04C7.38477 211.426 7.86489 212.769 8.50031 214.04C8.85495 214.743 9.39827 215.333 10.0694 215.745C10.7406 216.156 11.513 216.373 12.3003 216.37H27.0103C27.7967 216.374 28.5689 216.161 29.2414 215.753C29.9139 215.345 30.4603 214.759 30.8203 214.06C31.4665 212.791 31.9535 211.448 32.2703 210.06L7.07031 210.04Z" fill="#C97520"/>
<path d="M36.2897 205.77L36.0797 208.47C35.9986 209.575 35.5678 210.626 34.8497 211.47C34.3566 212.051 33.744 212.519 33.0537 212.841C32.3635 213.164 31.6117 213.334 30.8497 213.34L8.19973 213.32C6.99417 213.323 5.8242 212.912 4.88638 212.154C3.94855 211.397 3.30002 210.339 3.04973 209.16C2.99769 208.943 2.96093 208.722 2.93973 208.5L2.71973 205.79L36.2897 205.77Z" fill="#DDA11B"/>
<path d="M36.2897 205.77L36.0797 208.47C35.9986 209.575 35.5678 210.626 34.8497 211.47C32.5043 210.119 29.8647 209.36 27.1597 209.26H3.04973C2.99769 209.043 2.96093 208.822 2.93973 208.6L2.71973 205.89L36.2897 205.77Z" fill="#C97520"/>
<path d="M25.9101 156.73V161.42H13.6401V156.73C13.6401 156.473 13.6772 156.217 13.7501 155.97C13.9198 155.389 14.2743 154.88 14.7598 154.519C15.2453 154.158 15.8352 153.965 16.4401 153.97H23.1201C23.861 153.973 24.5706 154.269 25.0936 154.794C25.6165 155.319 25.9101 156.029 25.9101 156.77V156.73Z" fill="#EFD122"/>
<path d="M25.9101 156.73V161.42H13.6401V156.73C13.6401 156.473 13.6772 156.217 13.7501 155.97H20.3301C22.1801 155.97 23.8601 155.97 25.1301 154.8C25.6303 155.318 25.9099 156.01 25.9101 156.73Z" fill="#DDA11B"/>
<path d="M37 169.98L2.47998 169.92C2.58694 169.181 2.74058 168.45 2.93998 167.73C3.08998 167.18 3.28998 166.54 3.53998 165.87C4.90998 162.18 7.91998 157.32 14.29 157.32H25.29C27.0799 157.309 28.8417 157.764 30.4022 158.641C31.9628 159.518 33.2681 160.786 34.19 162.32C35.2793 164.013 36.0896 165.87 36.59 167.82C36.7747 168.53 36.9117 169.252 37 169.98Z" fill="#EFD122"/>
<path d="M1.87011 171.267L1.80566 204.837L37.5456 204.906L37.6101 171.336L1.87011 171.267Z" fill="#EFD122"/>
<path d="M1.81122 200.925L1.80371 204.835L37.5437 204.904L37.5512 200.994L1.81122 200.925Z" fill="#DDA11B"/>
<path d="M4.51033 170.283L4.49219 179.733L18.1422 179.759L18.1603 170.309L4.51033 170.283Z" fill="#C97520"/>
<path d="M21.3326 170.313L21.3145 179.763L34.9644 179.789L34.9826 170.339L21.3326 170.313Z" fill="#C97520"/>
<path d="M18.1402 179.76V203.57H4.49023V179.75C4.49139 179.529 4.53716 179.311 4.6248 179.108C4.71244 178.905 4.84014 178.722 5.00023 178.57C5.15193 178.417 5.33266 178.295 5.53185 178.213C5.73104 178.131 5.94467 178.089 6.16023 178.09C6.16001 177.382 6.38596 176.693 6.80512 176.123C7.22427 175.552 7.81469 175.131 8.49023 174.92L11.3502 174.01L14.2102 174.93C14.8828 175.143 15.4687 175.567 15.8802 176.14C16.303 176.721 16.5275 177.422 16.5202 178.14C16.9483 178.145 17.3573 178.318 17.66 178.62C17.9627 178.923 18.135 179.332 18.1402 179.76Z" fill="white"/>
<path d="M15.4203 203.21H7.82031V183.86C7.82296 182.851 8.22554 181.885 8.93976 181.172C9.65399 180.46 10.6216 180.06 11.6303 180.06C12.6391 180.063 13.6056 180.465 14.3179 181.18C15.0303 181.894 15.4303 182.861 15.4303 183.87L15.4203 203.21Z" fill="#EDE0D1"/>
<path d="M35.0001 179.79V203.61H21.3501V179.79C21.3488 179.572 21.3904 179.356 21.4727 179.154C21.5549 178.952 21.676 178.768 21.8293 178.613C21.9825 178.458 22.1647 178.335 22.3656 178.25C22.5665 178.166 22.7821 178.121 23.0001 178.12C22.9999 177.412 23.2259 176.723 23.645 176.153C24.0642 175.582 24.6546 175.161 25.3301 174.95L28.1901 174.04L31.0501 174.96C31.7227 175.176 32.3091 175.601 32.7243 176.173C33.1396 176.745 33.3623 177.433 33.3601 178.14C33.5763 178.14 33.7904 178.183 33.99 178.266C34.1897 178.349 34.3709 178.471 34.5233 178.624C34.6758 178.777 34.7963 178.959 34.8782 179.159C34.96 179.359 35.0014 179.574 35.0001 179.79Z" fill="white"/>
<path d="M31.8102 203.24H24.2002V183.89C24.2028 182.881 24.6054 181.915 25.3196 181.202C26.0339 180.49 27.0015 180.09 28.0102 180.09C28.5092 180.091 29.0031 180.191 29.4636 180.383C29.9242 180.575 30.3423 180.856 30.6943 181.21C31.0462 181.564 31.325 181.984 31.5148 182.445C31.7045 182.907 31.8015 183.401 31.8002 183.9L31.8102 203.24Z" fill="#EDE0D1"/>
<g style="mix-blend-mode:multiply">
<path d="M4.46996 193.32C8.85464 194.869 13.4605 195.699 18.11 195.78V203.61H4.45996L4.46996 193.32Z" fill="#EDE0D1"/>
</g>
<g style="mix-blend-mode:multiply">
<path d="M34.94 192.82V203.61H21.29V195.77C25.9711 195.542 30.5828 194.546 34.94 192.82Z" fill="#EDE0D1"/>
</g>
<path d="M26.9997 169.96C26.9997 169.96 26.3697 157.32 22.0697 157.32H17.4697C13.1697 157.32 12.4697 169.94 12.4697 169.94L26.9997 169.96Z" fill="#DDA11B"/>
<path d="M17.4701 157.32C16.6939 157.347 15.9479 157.627 15.3464 158.119C14.745 158.61 14.3212 159.285 14.1401 160.04C13.2428 163.137 12.5546 166.291 12.0801 169.48H13.0001C13.0001 169.48 14.2801 161.84 14.8101 160.29C14.9596 159.608 15.2832 158.975 15.7493 158.455C16.2154 157.935 16.8082 157.544 17.4701 157.32Z" fill="#E0A351"/>
<path d="M22 157.32C22 157.32 24.33 157.19 25.31 160.06C26.1932 163.157 26.8615 166.311 27.31 169.5H26.41C26.41 169.5 25.16 161.86 24.64 160.31C24.4918 159.628 24.1713 158.995 23.7092 158.471C23.2471 157.948 22.6587 157.552 22 157.32Z" fill="#E0A351"/>
<g style="mix-blend-mode:multiply" opacity="0.31">
<path d="M37 169.98L2.47998 169.92C2.69648 168.554 3.05165 167.214 3.53998 165.92C10.25 166.29 23.86 166.4 34.16 162.35C35.6257 164.669 36.5929 167.267 37 169.98Z" fill="#C97520"/>
</g>
<g style="mix-blend-mode:multiply" opacity="0.31">
<path d="M37 169.98L2.47998 169.92C2.58694 169.181 2.74058 168.45 2.93998 167.73L36.56 167.8C36.7557 168.516 36.9027 169.244 37 169.98Z" fill="#C97520"/>
</g>
<path d="M39.4301 172.22L0.0600586 172.14C0.0600586 171.61 0.190565 171.088 0.440059 170.62C0.589706 170.33 0.78561 170.067 1.02006 169.84C1.31821 169.527 1.67642 169.277 2.0733 169.105C2.47017 168.933 2.8976 168.843 3.33006 168.84L36.1701 168.91C36.602 168.911 37.0295 168.998 37.4277 169.166C37.8259 169.333 38.187 169.578 38.4901 169.885C38.7932 170.193 39.0323 170.558 39.1937 170.959C39.355 171.359 39.4353 171.788 39.4301 172.22Z" fill="#EFD122"/>
<path d="M39.4301 172.22L0.0600586 172.14C0.0600586 171.61 0.190565 171.088 0.440059 170.62L31.7801 170.68C33.6101 170.68 35.1301 170.07 35.7801 168.95H36.2101C37.0686 168.963 37.8876 169.313 38.49 169.925C39.0925 170.537 39.4302 171.361 39.4301 172.22Z" fill="#DDA11B"/>
<path d="M39.37 203.26C39.3648 204.126 39.0169 204.956 38.4023 205.566C37.7878 206.177 36.9565 206.52 36.09 206.52L3.26005 206.46C2.7379 206.457 2.22394 206.33 1.76116 206.088C1.29838 205.846 0.900244 205.497 0.600051 205.07C0.206216 204.519 -0.00374313 203.857 5.05177e-05 203.18L39.37 203.26Z" fill="#EFD122"/>
<path d="M39.3701 203.26C39.3648 204.126 39.0169 204.956 38.4024 205.566C37.7878 206.177 36.9566 206.52 36.0901 206.52L3.2601 206.46C2.73795 206.458 2.22399 206.33 1.76121 206.088C1.29843 205.846 0.900291 205.497 0.600098 205.07L33.9901 205.14C36.0901 205.14 36.9901 204.53 37.3901 203.25L39.3701 203.26Z" fill="#DDA11B"/>
<path d="M19.7897 147.81C19.1841 147.808 18.5915 147.986 18.087 148.321C17.5824 148.656 17.1887 149.133 16.9555 149.692C16.7224 150.251 16.6604 150.867 16.7773 151.461C16.8942 152.055 17.1849 152.601 17.6124 153.03C18.04 153.459 18.5852 153.752 19.1791 153.871C19.7729 153.989 20.3887 153.929 20.9484 153.698C21.5081 153.467 21.9866 153.075 22.3233 152.571C22.66 152.068 22.8397 151.476 22.8397 150.87C22.841 150.469 22.7631 150.071 22.6104 149.7C22.4577 149.329 22.2333 148.991 21.9499 148.707C21.6666 148.423 21.3299 148.197 20.9592 148.043C20.5885 147.889 20.1911 147.81 19.7897 147.81ZM19.7897 152.5C19.4649 152.5 19.1475 152.404 18.8776 152.223C18.6077 152.042 18.3975 151.786 18.2736 151.485C18.1498 151.185 18.1179 150.855 18.182 150.536C18.2461 150.218 18.4033 149.926 18.6337 149.697C18.864 149.468 19.1572 149.313 19.476 149.25C19.7947 149.188 20.1248 149.222 20.4243 149.348C20.7238 149.473 20.9792 149.685 21.1582 149.956C21.3372 150.227 21.4317 150.545 21.4297 150.87C21.4297 151.086 21.3869 151.299 21.3038 151.498C21.2206 151.698 21.0987 151.878 20.9453 152.03C20.7918 152.181 20.6097 152.301 20.4096 152.382C20.2096 152.463 19.9955 152.503 19.7797 152.5H19.7897Z" fill="#EFD122"/>
<path d="M19.7803 150.34L20.1003 -15" stroke="#DDA11B" stroke-width="1.35" stroke-miterlimit="10" stroke-linecap="round"/>
</svg>
