<svg width="343" height="177" viewBox="0 0 343 177" fill="none" xmlns="http://www.w3.org/2000/svg">
<g opacity="0.4" filter="url(#filter0_f_158_5034)">
<path d="M289 110.583C289 125.265 236.719 122.852 171.825 122.852C106.932 122.852 54 125.265 54 110.583C54 95.9021 106.606 84 171.5 84C236.393 84 289 95.9021 289 110.583Z" fill="#FF9D00"/>
</g>
<path d="M243.796 103.648L207.453 63.3646H137.832L97.8779 104.198L104.116 108.027L168.044 80.0032L234.601 105.4L243.796 103.648Z" fill="#54290B"/>
<path d="M243.796 103.648L207.453 63.3646H137.832L97.8779 104.198L104.116 108.027L168.044 80.0032L234.601 105.4L243.796 103.648Z" fill="#54290B"/>
<path d="M186.61 75.2808L288.103 33.4579L284.884 25.6466L171.373 17.5094L57.8625 25.6466L54.6436 33.4579L156.136 75.2808H186.61Z" fill="#82A024"/>
<path d="M284.894 27.1448L97.8838 104.206L101.103 112.018L288.113 34.9564L284.894 27.1448Z" fill="#54290B"/>
<path d="M241.636 112.015L244.855 104.166L57.2181 26.4753L54 34.324L241.636 112.015Z" fill="#54290B"/>
<path d="M89.3253 47.9014C89.2786 47.9427 89.2396 47.9939 89.1968 48.0399C90.5694 48.7377 91.9314 49.4553 93.2918 50.1761C93.3178 50.0598 93.3369 49.9412 93.3377 49.818C93.343 49.5089 93.2803 49.2128 93.1632 48.9358C93.0676 48.6604 92.9169 48.4056 92.7195 48.1814C92.3254 47.7338 91.7523 47.4063 91.0912 47.3359C90.4302 47.2648 89.8043 47.4767 89.3253 47.9014Z" fill="#33170B"/>
<path d="M89.0683 44.505C88.7767 45.9366 89.7683 47.2143 91.0913 47.3352C92.4165 47.4561 93.5565 46.567 93.8052 45.3742C93.9781 44.1668 93.2681 42.9411 91.9651 42.5776C90.7064 42.2241 89.2856 43.0612 89.0683 44.505Z" fill="#33170B"/>
<path d="M93.9159 42.2792C92.7001 41.7788 91.4928 41.2623 90.2915 40.7352C90.4484 41.6181 91.0895 42.3595 91.9664 42.5784C92.6757 42.7559 93.362 42.6182 93.9159 42.2792Z" fill="#33170B"/>
<path d="M125.064 56.1212C126.029 57.0088 127.498 57.0677 128.388 56.2765C128.43 56.2429 128.46 56.2015 128.498 56.1656C127.12 55.5933 125.744 55.0187 124.368 54.441C124.35 55.063 124.579 55.6744 125.064 56.1212Z" fill="#33170B"/>
<path d="M121.575 56.513C121.095 57.0945 120.97 57.8459 121.081 58.4756C121.194 59.1122 121.569 59.6463 122.147 59.9737C122.725 60.3012 123.39 60.3785 123.973 60.2737C124.563 60.1689 125.038 59.8643 125.418 59.416C126.079 58.4886 126.029 57.0693 125.064 56.1213C124.136 55.2039 122.484 55.2666 121.575 56.513Z" fill="#33170B"/>
<path d="M120.314 59.8237C119.802 60.0211 119.311 60.4189 119.019 60.9867C120.489 61.6286 121.936 62.3088 123.361 63.0235C123.529 62.4925 123.55 61.9385 123.338 61.3899C123.129 60.8382 122.722 60.3042 122.148 59.9744C121.569 59.6416 120.921 59.5934 120.314 59.8237Z" fill="#33170B"/>
<path d="M265.005 33.6606L261.775 25.4607C261.775 25.4607 261.449 25.5372 260.857 25.6734L261.449 25.4607L236.159 5.33386C221.952 11.7946 201.91 6.82434 184.913 9.55816C176.458 10.9178 172.74 14.491 170.794 17.739C168.847 14.491 165.129 10.9178 156.674 9.55816C139.676 6.8251 119.635 11.7946 105.428 5.33386L80.1376 25.4607L76.9072 33.6606L156.964 61.6477C158.662 67.1627 164.883 71.1812 170.957 71.1812C177.029 71.1812 183.314 67.1627 185.011 61.6477L265.005 33.6606Z" fill="#82A024"/>
<path d="M265.005 33.6606L261.775 25.4607C261.775 25.4607 261.449 25.5372 260.857 25.6734L261.449 25.4607L236.159 5.33386C221.952 11.7946 201.91 6.82434 184.913 9.55816C176.458 10.9178 172.74 14.491 170.794 17.739C168.847 14.491 165.129 10.9178 156.674 9.55816C139.676 6.8251 119.635 11.7946 105.428 5.33386L80.1376 25.4607L76.9072 33.6606L156.964 61.6477C158.662 67.1627 164.883 71.1812 170.957 71.1812C177.029 71.1812 183.314 67.1627 185.011 61.6477L265.005 33.6606Z" fill="#82A024"/>
<path d="M236.159 3.09814C221.952 9.55893 201.91 4.58862 184.913 7.32244C176.457 8.68208 172.739 12.2553 170.793 15.5033C168.846 12.2553 165.128 8.68208 156.673 7.32244C139.676 4.58939 119.634 9.55893 105.427 3.09814L80.1367 23.225L170.792 55.8418L261.447 23.225L236.159 3.09814Z" fill="#FFF0D3"/>
<path d="M170.5 15.0389C168.48 11.9209 164.728 8.6171 156.673 7.32173C139.676 4.58868 119.634 9.5582 105.427 3.09741L80.1372 23.2243L170.5 55.7363V15.0389Z" fill="#FFF0D3"/>
<path d="M162.849 37.4044L162.652 36.9102C162.63 36.8597 160.214 31.8373 133.418 29.6881C106.414 27.522 95.1003 22.2854 94.9893 22.2326L94.834 22.1592L108.86 7.8374L108.918 7.84277C118.375 8.68978 131.07 9.15572 144.666 9.15572C157.692 9.15572 164.377 13.9478 164.443 13.996L164.497 14.0358L162.849 37.4044ZM95.251 22.0827C96.7024 22.7162 108.2 27.4202 133.437 29.444C156.849 31.3224 161.724 35.3126 162.668 36.4909L164.243 14.1551C163.583 13.7014 156.985 9.40057 144.666 9.40057C131.09 9.40057 118.411 8.93613 108.953 8.09143L95.251 22.0827Z" fill="#54290B"/>
<path d="M177.421 37.3823L177.384 36.8727L175.773 14.0365L175.828 13.9968C175.894 13.9486 182.579 9.15651 195.604 9.15651C209.2 9.15651 221.896 8.69055 231.353 7.84354L231.41 7.8382L245.437 22.1599L245.281 22.2334C245.17 22.2862 233.855 27.5228 206.852 29.6889C180.056 31.8381 177.64 36.8605 177.618 36.911L177.421 37.3823ZM176.027 14.1559L177.602 36.4917C178.546 35.3134 183.422 31.3232 206.833 29.4448C232.077 27.4202 243.567 22.717 245.02 22.0835L231.317 8.09299C221.859 8.93693 209.18 9.40213 195.604 9.40213C183.279 9.40137 176.687 13.7022 176.027 14.1559Z" fill="#54290B"/>
<path d="M265.005 31.4242L261.775 23.2243C261.775 23.2243 229.884 30.7104 216.676 31.3003C202.761 31.9216 176.671 34.9033 170.956 51.1784C165.242 34.9033 139.151 31.9216 125.237 31.3003C112.028 30.7104 80.1381 23.2243 80.1381 23.2243L76.9077 31.4242L158.08 59.4113C159.778 64.9263 164.883 68.9448 170.956 68.9448C177.029 68.9448 182.135 64.9263 183.833 59.4113L265.005 31.4242Z" fill="#FFF0D3"/>
<path d="M177.214 54.3789C174.587 56.1303 171.96 58.7578 171.084 62.2606C168.457 53.5028 160.575 50.0001 152.693 47.3734C129.535 39.4787 100.685 39.1719 76.9758 31.2513L76.9077 31.4249L158.08 59.412C159.778 64.9271 164.883 68.9455 170.956 68.9455C177.029 68.9455 182.135 64.9271 183.833 59.412L265.005 31.4249L263.919 28.6697C237.084 42.5331 204.565 40.7037 177.214 54.3789Z" fill="white"/>
<g opacity="0.5">
<path d="M177.214 54.3789C174.587 56.1303 171.96 58.7578 171.084 62.2606C168.457 53.5028 160.575 50.0001 152.693 47.3734C129.535 39.4787 100.685 39.1719 76.9758 31.2513L76.9077 31.4249L158.08 59.412C159.778 64.9271 164.883 68.9455 170.956 68.9455C177.029 68.9455 182.135 64.9271 183.833 59.412L265.005 31.4249L263.919 28.6697C237.084 42.5331 204.565 40.7037 177.214 54.3789Z" fill="#FF9D00"/>
</g>
<g opacity="0.4">
<path d="M101.225 27.8571C101.016 27.7982 100.8 27.7584 100.58 27.7584C100.492 27.7584 100.403 27.763 100.309 27.7737C99.6468 27.8617 99.0148 28.2367 98.5787 28.7983C98.1334 29.3415 97.9482 30.063 98.0729 30.7769C98.1242 31.0807 98.2359 31.3607 98.3889 31.6147C98.291 31.6025 98.1923 31.5933 98.0928 31.5933C97.8885 31.5933 97.6827 31.6193 97.4807 31.6698C96.8403 31.8312 96.281 32.288 95.9053 32.956C95.5396 33.5995 95.4661 34.3432 95.701 34.9905C95.7362 35.0945 95.7837 35.1909 95.8441 35.3088L95.8846 35.3876L96.2848 35.5643C97.04 35.8964 97.796 36.2292 98.5596 36.5483L98.6996 36.562L98.7753 36.546C98.8251 36.5353 98.874 36.5246 98.9268 36.5062C99.5359 36.282 100.034 35.8727 100.331 35.3547C100.698 34.7066 100.635 34.0042 100.516 33.5291C100.45 33.262 100.335 33.0164 100.192 32.7884C100.316 32.806 100.441 32.8152 100.567 32.8152C100.72 32.8152 100.871 32.8022 101.019 32.7769C101.627 32.6683 102.168 32.3469 102.588 31.8396C102.971 31.35 103.135 30.7126 103.05 30.0508C103.02 29.7707 102.938 29.5068 102.827 29.2573C103.072 29.3315 103.325 29.379 103.581 29.379H103.582C104.258 29.379 104.886 29.1219 105.349 28.6598C105.409 28.6016 105.446 28.5282 105.499 28.4647C104.046 28.1081 102.592 27.799 101.138 27.5909C101.164 27.6804 101.189 27.7714 101.225 27.8571Z" fill="#FF9D00"/>
<path d="M159.304 7.73869C158.552 7.47548 157.978 7.25588 157.381 7.00874C156.558 6.89397 155.73 6.78916 154.901 6.69963L154.7 6.67822L154.639 6.87102C154.55 7.14877 154.511 7.37754 154.516 7.6002C154.533 7.91008 154.612 8.20311 154.734 8.47627C154.541 8.4273 154.345 8.39363 154.14 8.39363C154.04 8.39363 153.94 8.39976 153.849 8.41124C153.193 8.46556 152.605 8.7586 152.21 9.21845C151.84 9.5727 151.642 10.1282 151.636 10.8237C151.634 11.0762 151.673 11.3233 151.732 11.5644C151.527 11.4496 151.306 11.3455 151.052 11.2629C150.805 11.1879 150.561 11.1512 150.324 11.1512C150.005 11.1512 149.696 11.2162 149.366 11.3555C148.619 11.722 148.127 12.5192 148.018 13.3938C147.844 13.1903 147.647 13.0051 147.417 12.8574C146.986 12.5827 146.523 12.4374 146.078 12.4374C145.944 12.4374 145.81 12.4504 145.685 12.4764C144.791 12.6225 144.074 13.289 143.761 14.1467C143.32 13.3372 142.487 12.774 141.542 12.774C141.541 12.774 141.541 12.774 141.54 12.774C140.562 12.7901 139.725 13.3571 139.309 14.175C138.938 13.3142 138.111 12.6983 137.103 12.6478L136.974 12.6447C135.998 12.6447 135.151 13.2094 134.738 14.0204C134.619 13.7534 134.461 13.5024 134.254 13.2905C133.788 12.8123 133.162 12.5498 132.492 12.5498L132.392 12.5522C131.657 12.5659 130.992 12.8612 130.519 13.3838C130.322 13.6004 130.179 13.8483 130.075 14.1107C129.639 13.3662 128.815 12.8613 127.867 12.8613C127.772 12.8613 127.675 12.8659 127.567 12.8781C126.842 12.986 126.193 13.3754 125.786 13.9454C125.626 14.1704 125.518 14.4175 125.443 14.6731C124.995 14.0533 124.261 13.6631 123.407 13.6631C123.215 13.6631 123.021 13.683 122.824 13.7243C122.124 13.8835 121.542 14.3066 121.185 14.9172C121.036 15.1727 120.944 15.4512 120.894 15.7351C120.696 15.5109 120.461 15.3173 120.185 15.172C119.852 15.0013 119.467 14.911 119.074 14.911C118.78 14.911 118.483 14.96 118.196 15.0556C117.524 15.2676 116.99 15.7351 116.693 16.3717C116.563 16.6502 116.496 16.9463 116.475 17.2439C116.029 16.8399 115.436 16.5989 114.807 16.5989C114.424 16.5989 114.054 16.6877 113.712 16.8598C113.075 17.1621 112.581 17.6954 112.351 18.3274C112.252 18.6258 112.217 18.9326 112.232 19.2356C111.82 18.9349 111.323 18.7497 110.782 18.7497C110.314 18.7497 109.852 18.8798 109.437 19.13C108.811 19.5302 108.374 20.153 108.239 20.8385C108.186 21.1071 108.189 21.3764 108.228 21.6389C107.876 21.4422 107.474 21.3305 107.042 21.3305C106.474 21.3305 105.921 21.5157 105.432 21.8738C104.86 22.3451 104.502 23.0192 104.449 23.7231C104.428 23.9978 104.464 24.264 104.532 24.5196C104.251 24.4033 103.949 24.3352 103.63 24.3352C102.958 24.3352 102.305 24.6076 101.786 25.1049C101.275 25.6175 100.998 26.3177 101.028 27.0239C101.036 27.2205 101.079 27.4095 101.135 27.5939C102.589 27.802 104.043 28.1111 105.496 28.4677C106.028 27.8311 106.19 26.952 105.945 26.1386C106.281 26.2901 106.647 26.3705 107.02 26.3705C107.58 26.3705 108.117 26.1815 108.519 25.8471C109.284 25.2924 109.607 24.3206 109.437 23.3902C109.848 23.6381 110.314 23.7896 110.793 23.7896C111.249 23.7896 111.686 23.6642 112.05 23.43C112.868 22.9358 113.294 22.0268 113.238 21.104C113.458 21.2685 113.699 21.4063 113.965 21.4927C114.249 21.5937 114.54 21.645 114.83 21.645C115.184 21.645 115.523 21.5685 115.843 21.4162C116.705 20.9786 117.217 20.1346 117.266 19.2333C117.737 19.6763 118.364 19.9372 119.038 19.9372C119.301 19.9372 119.563 19.8974 119.82 19.8178C120.41 19.622 120.908 19.1805 121.219 18.5783C121.352 18.3289 121.43 18.0626 121.475 17.7902C121.951 18.3473 122.64 18.6885 123.404 18.6885C123.588 18.6885 123.773 18.6678 123.948 18.6281C124.878 18.436 125.577 17.6877 125.812 16.7734C126.278 17.449 127.032 17.8958 127.85 17.8958C127.964 17.8958 128.079 17.8874 128.183 17.8714C129.124 17.7742 129.896 17.1077 130.226 16.2332C130.664 17.0366 131.491 17.5844 132.428 17.5844H132.48C133.448 17.5408 134.273 16.9654 134.682 16.1567C135.053 17.019 135.871 17.6242 136.886 17.6778L137.011 17.6808C137.977 17.6808 138.822 17.1177 139.24 16.3097C139.359 16.5813 139.518 16.8361 139.727 17.0511C140.2 17.5385 140.84 17.8071 141.532 17.8071L141.573 17.8063C142.32 17.7887 143.018 17.4804 143.488 16.9601C143.674 16.7527 143.811 16.5163 143.912 16.2661C144.339 16.9876 145.143 17.4765 146.07 17.4765C146.217 17.4765 146.368 17.4643 146.524 17.4391C147.29 17.3052 147.949 16.8644 148.331 16.2301C148.478 15.9861 148.567 15.7213 148.617 15.4528C149.046 15.905 149.661 16.1766 150.346 16.1766C150.749 16.1766 151.15 16.0825 151.528 15.9011C152.209 15.605 152.765 14.9738 152.977 14.2592C153.076 13.9493 153.091 13.6126 153.031 13.2828C153.318 13.4206 153.634 13.5001 153.973 13.5063H154.005C154.671 13.5063 155.359 13.1818 155.957 12.5789C156.421 12.0433 156.657 11.3455 156.604 10.6561C156.571 10.373 156.484 10.1052 156.366 9.85352C156.586 9.9132 156.812 9.95374 157.043 9.95374C157.092 9.95374 157.142 9.95223 157.183 9.94993C157.898 9.9331 158.422 9.73644 158.756 9.37683C158.971 9.21156 159.132 8.99656 159.247 8.7234C159.357 8.47474 159.427 8.2498 159.465 8.01644L159.499 7.81138L159.304 7.73869Z" fill="#FF9D00"/>
<path d="M155.355 38.7028C154.889 38.2414 154.255 37.9629 153.581 37.9629C153.295 37.9629 153.013 38.0127 152.745 38.1098C151.805 38.445 151.188 39.2836 151.076 40.2101C150.61 39.7266 149.963 39.4335 149.261 39.4335C148.988 39.4335 148.717 39.4779 148.456 39.5659C147.807 39.7855 147.283 40.243 146.982 40.8544C146.853 41.1145 146.782 41.3907 146.748 41.6692C146.284 41.191 145.64 40.9018 144.94 40.9018C144.655 40.9018 144.373 40.95 144.097 41.0464C143.437 41.2867 142.915 41.7649 142.627 42.3923C142.507 42.6517 142.445 42.9248 142.418 43.1995C141.96 42.7527 141.339 42.4841 140.676 42.4841C140.348 42.4841 140.026 42.5499 139.719 42.6785C139.056 42.9562 138.548 43.4665 138.291 44.1154C138.187 44.3748 138.14 44.6433 138.128 44.9126C137.682 44.5239 137.102 44.2967 136.483 44.2967C136.096 44.2967 135.722 44.3855 135.374 44.5584C134.735 44.8621 134.247 45.4169 134.034 46.081C133.944 46.3641 133.915 46.6587 133.929 46.9479C133.524 46.6564 133.038 46.4766 132.512 46.4766C132.032 46.4766 131.554 46.6143 131.131 46.8752C130.454 47.293 130.017 47.9808 129.932 48.7643L129.912 48.9487L130.082 49.0199C131.42 49.5784 132.759 50.1339 134.1 50.6856L134.271 50.756L134.387 50.6129C134.803 50.0987 134.995 49.4575 134.954 48.8194C135.394 49.1461 135.928 49.3351 136.487 49.3351C136.861 49.3351 137.22 49.2548 137.561 49.0926C138.429 48.6587 138.94 47.7972 138.973 46.8897C139.432 47.2991 140.028 47.5386 140.659 47.5386C140.981 47.5386 141.294 47.4758 141.591 47.3511C142.503 46.964 143.076 46.1231 143.158 45.2103C143.623 45.6678 144.253 45.944 144.924 45.9448C145.211 45.9448 145.494 45.8943 145.762 45.7964C146.704 45.4666 147.323 44.628 147.433 43.6984C147.898 44.1804 148.545 44.4727 149.244 44.4727C149.518 44.4727 149.789 44.4275 150.05 44.3396C150.7 44.1207 151.223 43.6639 151.524 43.0534C151.653 42.7932 151.725 42.5178 151.758 42.2385C152.221 42.7167 152.863 43.0067 153.56 43.0075C153.847 43.0075 154.132 42.9577 154.407 42.8598C155.067 42.6211 155.589 42.1452 155.879 41.52C155.998 41.2607 156.062 40.9883 156.088 40.7136C156.546 41.162 157.166 41.4321 157.825 41.4321C158.156 41.4321 158.479 41.3639 158.784 41.2323C159.447 40.9584 159.955 40.4511 160.214 39.8046C160.261 39.6868 160.294 39.5659 160.32 39.4442C158.99 38.4779 157.528 37.6882 155.936 37.321C155.614 37.7204 155.402 38.1963 155.355 38.7028Z" fill="#FF9D00"/>
<path d="M179.518 19.7099C179.339 19.4437 179.102 19.2302 178.831 19.0672C179.121 18.9471 179.385 18.7696 179.605 18.5339C180.094 18.0152 180.347 17.2516 180.281 16.488C180.205 15.6984 179.831 15.0067 179.262 14.5943C179.006 14.3976 178.712 14.2691 178.401 14.201C178.635 13.9952 178.833 13.7434 178.975 13.4435C179.272 12.7717 179.259 11.9622 178.945 11.2858C178.635 10.5735 178.037 10.0218 177.347 9.81143C177.124 9.74257 176.896 9.70813 176.671 9.70813C176.225 9.70813 175.787 9.84585 175.405 10.1068C174.881 10.4648 174.485 11.0066 174.289 11.6332C174.104 12.2315 174.123 12.8176 174.347 13.3356C174.595 13.8613 175.022 14.2691 175.575 14.5116C175.81 14.6218 176.062 14.6868 176.319 14.7305C176.088 14.9133 175.901 15.1115 175.765 15.2882C175.383 15.817 175.21 16.3839 175.266 16.9279C175.348 17.7596 175.909 18.4903 176.688 18.9004C175.855 19.1866 175.195 19.8293 174.992 20.6312C174.746 21.43 175.056 22.3412 175.704 22.9954C175.433 23.0054 175.166 23.0467 174.909 23.1316C174.351 23.316 173.892 23.6841 173.533 24.2434C173.113 25.0345 173.18 25.984 173.631 26.753C173.455 26.7178 173.277 26.6926 173.096 26.6926C172.369 26.6926 171.68 26.9902 171.197 27.5212C170.795 28.0262 170.592 28.6138 170.609 29.2221C170.618 29.5029 170.677 29.773 170.768 30.0316C170.449 29.9031 170.107 29.8304 169.761 29.8304C169.182 29.8304 168.636 30.0247 168.231 30.3706C167.5 30.9306 167.198 31.8939 167.369 32.8129C166.951 32.5581 166.477 32.4043 165.98 32.4043C165.531 32.4043 165.099 32.5252 164.731 32.7524C164.196 33.0845 163.813 33.63 163.656 34.2811C163.581 34.5551 163.561 34.8275 163.572 35.096C163.125 34.7532 162.576 34.5558 162 34.5558C161.627 34.5558 161.271 34.6392 160.936 34.8053C160.082 35.2575 159.578 36.1266 159.543 37.0318C159.082 36.6163 158.481 36.3738 157.844 36.3738C157.525 36.3738 157.214 36.4358 156.916 36.5589C156.515 36.7334 156.194 37.005 155.937 37.321C157.529 37.6883 158.991 38.4779 160.321 39.4443C160.353 39.2996 160.373 39.1543 160.38 39.0081C160.819 39.3922 161.389 39.6172 161.995 39.6172C162.39 39.6172 162.772 39.5223 163.125 39.3364C163.783 39.0097 164.262 38.4611 164.474 37.79C164.557 37.5261 164.583 37.2568 164.575 36.9897C164.82 37.1718 165.094 37.3141 165.393 37.3929C165.572 37.435 165.758 37.4572 165.947 37.4572C166.435 37.4572 166.923 37.3157 167.357 37.0463C167.989 36.6554 168.429 36.0379 168.568 35.3531C168.621 35.0884 168.618 34.8244 168.582 34.5665C168.927 34.7578 169.321 34.8657 169.742 34.8657H169.742C170.33 34.8657 170.9 34.666 171.399 34.2804C171.978 33.7907 172.328 33.1013 172.362 32.3897C172.375 32.1074 172.329 31.835 172.247 31.5749C172.504 31.669 172.775 31.7264 173.057 31.7264L173.139 31.7248C173.873 31.7003 174.55 31.3713 174.987 30.8312C175.488 30.2772 175.725 29.548 175.64 28.8303C175.605 28.5342 175.508 28.2573 175.374 28.0032C175.494 28.0224 175.616 28.0315 175.74 28.0315C176.645 28.0315 177.487 27.5128 177.93 26.691C178.307 26.0889 178.392 25.3031 178.156 24.5892C178.056 24.2877 177.897 24.0238 177.697 23.7965C178.69 23.707 179.553 22.9488 179.881 21.8255C179.964 21.4453 179.977 21.0543 179.92 20.6809C179.847 20.3259 179.707 19.9892 179.518 19.7099Z" fill="#FF9D00"/>
</g>
<path d="M140.532 94.9441C141.372 93.9364 142.972 93.8285 144.001 94.8538C145.056 95.8492 144.991 97.4797 143.991 98.3298C142.965 99.2044 141.535 99.1408 140.639 98.3023C139.774 97.4354 139.668 95.9793 140.532 94.9441Z" fill="#FF9D00"/>
<path opacity="0.5" d="M140.691 97.2708C140.827 97.9357 141.458 98.4078 142.139 98.3956C142.805 98.3917 143.479 97.8791 143.616 97.1905C143.759 96.4995 143.287 95.7528 142.631 95.4965C141.965 95.2486 141.166 95.5829 140.841 96.1828C140.656 96.5171 140.607 96.912 140.691 97.2708Z" fill="white"/>
<path d="M136.671 92.0243C137.413 90.9118 138.957 90.6562 140.094 91.5086C141.221 92.3801 141.414 93.931 140.532 94.944C139.668 95.9379 138.178 96.1177 137.19 95.3518C136.186 94.5989 135.937 93.1245 136.671 92.0243Z" fill="#FF9D00"/>
<g opacity="0.5">
<path d="M137.097 94.3274C137.335 94.9548 138.025 95.3618 138.693 95.2723C139.365 95.1736 139.959 94.5699 139.997 93.8775C140.038 93.185 139.51 92.4727 138.812 92.3296C138.12 92.1743 137.381 92.5737 137.121 93.2156C136.977 93.5691 136.97 93.9769 137.097 94.3274Z" fill="white"/>
</g>
<path d="M132.557 89.4679C133.205 88.3164 134.72 87.917 135.906 88.6592C137.101 89.3876 137.426 90.9347 136.671 92.0242C135.91 93.1206 134.462 93.4175 133.371 92.7542C132.29 92.077 131.9 90.6348 132.557 89.4679Z" fill="#FF9D00"/>
<path opacity="0.5" d="M133.185 91.728C133.472 92.3486 134.208 92.6967 134.878 92.5284C135.539 92.3677 136.062 91.7089 136.036 91.0096C136.005 90.3202 135.407 89.6874 134.714 89.588C134.016 89.4969 133.305 89.969 133.104 90.6263C132.99 90.9889 133.021 91.3929 133.185 91.728Z" fill="white"/>
<path d="M128.279 87.1985C128.869 86.0003 130.341 85.5328 131.562 86.174C132.779 86.8312 133.226 88.3087 132.557 89.4679C131.896 90.6133 130.443 91.0441 129.307 90.4304C128.16 89.8283 127.693 88.3868 128.279 87.1985Z" fill="#FF9D00"/>
<path opacity="0.5" d="M129.043 89.4235C129.381 90.015 130.147 90.318 130.799 90.1137C131.453 89.9048 131.925 89.2024 131.844 88.5146C131.764 87.8275 131.137 87.2245 130.434 87.1878C129.734 87.1442 129.058 87.6477 128.894 88.3194C128.804 88.6898 128.859 89.0938 129.043 89.4235Z" fill="white"/>
<path d="M123.901 85.1243C124.446 83.9169 125.895 83.3744 127.128 83.9643C128.366 84.5413 128.875 86.0141 128.278 87.1978C127.678 88.3899 126.257 88.8719 125.069 88.3187C123.89 87.7548 123.352 86.3416 123.901 85.1243Z" fill="#FF9D00"/>
<path opacity="0.5" d="M124.759 87.318C125.119 87.9048 125.91 88.1703 126.556 87.9293C127.198 87.6921 127.631 86.9653 127.517 86.2805C127.404 85.5949 126.746 85.0432 126.051 85.0257C125.355 85.0088 124.694 85.549 124.56 86.2231C124.484 86.5964 124.56 86.9943 124.759 87.318Z" fill="white"/>
<path d="M119.477 83.151C120.015 81.9352 121.442 81.3905 122.671 81.9368C123.898 82.4815 124.451 83.91 123.901 85.1243C123.353 86.3325 121.926 86.8757 120.708 86.3348C119.493 85.7946 118.938 84.3676 119.477 83.151Z" fill="#FF9D00"/>
<path opacity="0.5" d="M120.369 85.3394C120.747 85.9186 121.555 86.1726 122.197 85.914C122.839 85.6554 123.244 84.9132 123.109 84.236C122.975 83.5589 122.314 83.0218 121.62 83.0233C120.925 83.0248 120.275 83.5658 120.149 84.2452C120.08 84.6186 120.161 85.0195 120.369 85.3394Z" fill="white"/>
<path d="M115.062 81.1578C115.628 79.9482 117.033 79.4325 118.253 79.9681C119.467 80.5098 120.015 81.9352 119.476 83.151C118.938 84.3676 117.505 84.9085 116.277 84.3607C115.047 83.8205 114.5 82.3576 115.062 81.1578Z" fill="#FF9D00"/>
<path opacity="0.5" d="M115.936 83.363C116.315 83.9429 117.13 84.2016 117.774 83.9437C118.417 83.6866 118.818 82.9422 118.684 82.2642C118.548 81.5863 117.893 81.0507 117.2 81.0515C116.506 81.0561 115.855 81.5833 115.722 82.2627C115.648 82.6384 115.726 83.0439 115.936 83.363Z" fill="white"/>
<path d="M110.7 79.053C111.309 77.8686 112.739 77.3873 113.907 77.9649C115.1 78.5197 115.617 79.9489 115.063 81.1578C114.508 82.3668 113.058 82.8817 111.825 82.3079C110.594 81.7003 110.092 80.2343 110.7 79.053Z" fill="#FF9D00"/>
<path opacity="0.5" d="M111.507 81.2887C111.868 81.9031 112.691 82.1625 113.342 81.9207C113.994 81.6758 114.407 80.9375 114.285 80.2596C114.165 79.5763 113.515 79.0468 112.834 79.0185C112.152 78.9933 111.478 79.5036 111.324 80.1777C111.239 80.5496 111.305 80.9559 111.507 81.2887Z" fill="white"/>
<path d="M106.44 76.7468C107.12 75.6037 108.58 75.1867 109.7 75.8164C110.815 76.4553 111.307 77.8517 110.7 79.0529C110.107 80.2259 108.612 80.7393 107.404 80.0506C106.191 79.3697 105.76 77.8899 106.44 76.7468Z" fill="#FF9D00"/>
<path opacity="0.5" d="M107.132 79.0123C107.472 79.6244 108.27 79.9932 108.941 79.756C109.608 79.5349 110.049 78.8126 109.954 78.1339C109.85 77.466 109.259 76.8714 108.579 76.8148C107.899 76.759 107.196 77.2334 107.005 77.896C106.9 78.2617 106.946 78.6695 107.132 79.0123Z" fill="white"/>
<path d="M102.367 74.1301C103.131 73.0765 104.624 72.7574 105.69 73.4437C106.226 73.7903 106.567 74.3336 106.699 74.9388C106.846 75.5241 106.777 76.173 106.44 76.7476C106.104 77.3207 105.56 77.7078 104.946 77.8586C104.342 77.9871 103.667 77.8716 103.08 77.4913C101.897 76.7285 101.57 75.2296 102.367 74.1301Z" fill="#FF9D00"/>
<path opacity="0.5" d="M102.877 76.44C103.174 77.0796 103.968 77.479 104.643 77.3222C105.318 77.1668 105.799 76.4752 105.76 75.7781C105.719 75.0803 105.172 74.4598 104.495 74.3603C103.819 74.2616 103.075 74.6825 102.831 75.3244C102.698 75.6794 102.714 76.0873 102.877 76.44Z" fill="white"/>
<path d="M98.6123 71.0764C99.0614 70.586 99.6621 70.3235 100.253 70.2815C100.552 70.2577 100.835 70.3029 101.126 70.3817C101.423 70.4552 101.703 70.5852 101.954 70.7773C102.944 71.5363 103.127 73.0398 102.367 74.1309C101.605 75.2219 100.069 75.404 98.9382 74.5333C98.6582 74.3175 98.434 74.0597 98.271 73.7804C98.1127 73.4943 98.0338 73.1599 98.0071 72.8431C97.9581 72.1996 98.1639 71.5669 98.6123 71.0764Z" fill="#FF9D00"/>
<path opacity="0.5" d="M98.8318 73.4752C99.0705 74.1332 99.8402 74.6037 100.534 74.5088C101.23 74.4163 101.773 73.7705 101.798 73.0788C101.822 72.3856 101.335 71.7314 100.665 71.5753C99.9848 71.4346 99.2388 71.7238 98.9121 72.3489C98.7361 72.6917 98.6933 73.1201 98.8318 73.4752Z" fill="white"/>
<path d="M95.2506 67.5959C96.2966 66.7741 97.7954 66.8422 98.5889 67.755C99.4864 68.5952 99.4979 70.0818 98.6118 71.0757C97.7281 72.0681 96.1519 72.0765 95.1045 71.0803C94.1358 69.9816 94.2047 68.4176 95.2506 67.5959Z" fill="#FF9D00"/>
<path opacity="0.5" d="M95.1633 69.9793C95.2712 70.7176 96.008 71.2631 96.7211 71.2471C97.435 71.2348 98.0532 70.6587 98.1581 69.9846C98.2751 69.296 97.816 68.6479 97.233 68.3587C96.6247 68.094 95.8014 68.3059 95.4005 68.8675C95.1817 69.1789 95.0929 69.5844 95.1633 69.9793Z" fill="white"/>
<path d="M92.5292 63.5957C93.7029 62.9484 95.1329 63.2828 95.7986 64.2927C96.5209 65.2629 96.2531 66.7603 95.2515 67.5966C94.2109 68.4642 92.6891 68.1896 91.8207 67.009C91.0127 65.787 91.3731 64.2308 92.5292 63.5957Z" fill="#FF9D00"/>
<path opacity="0.5" d="M92.0427 65.9409C92.0274 66.6823 92.6923 67.3388 93.3748 67.4558C94.0734 67.5668 94.7697 67.0916 94.9877 66.4352C95.2119 65.7718 94.912 65.0357 94.3458 64.6784C93.7934 64.315 92.9494 64.3892 92.462 64.8796C92.195 65.152 92.0397 65.5384 92.0427 65.9409Z" fill="white"/>
<path d="M90.4818 59.2123C91.7504 58.7563 93.0802 59.3293 93.5997 60.4235C94.1353 61.5107 93.651 62.9339 92.53 63.5957C91.3594 64.2843 89.8812 63.7809 89.2377 62.4656C88.6126 61.1435 89.2461 59.653 90.4818 59.2123Z" fill="#FF9D00"/>
<path opacity="0.5" d="M89.6164 61.4533C89.5123 62.1687 90.0311 62.9377 90.6906 63.1611C91.3586 63.3845 92.1222 63.028 92.4458 62.4151C92.7695 61.7984 92.6218 61.0088 92.0916 60.578C91.608 60.1289 90.7656 60.0662 90.2047 60.4724C89.8956 60.6982 89.6799 61.0555 89.6164 61.4533Z" fill="white"/>
<path d="M89.1475 54.5626C89.7994 54.4302 90.4467 54.5695 90.9608 54.8755C91.4804 55.1831 91.8354 55.6659 92.0381 56.2482C92.2202 56.8366 92.1261 57.4494 91.8354 57.9896C91.5592 58.5229 91.1077 58.9759 90.4811 59.2116C89.8629 59.4442 89.1827 59.4036 88.6188 59.1098C88.0709 58.8129 87.6195 58.2681 87.4083 57.578C87.1757 56.8932 87.3203 56.1801 87.6402 55.6338C87.9653 55.0852 88.4956 54.695 89.1475 54.5626Z" fill="#FF9D00"/>
<path opacity="0.5" d="M87.9348 56.6414C87.742 57.3255 88.1092 58.1709 88.7282 58.4946C89.3495 58.8213 90.1598 58.591 90.5791 58.0355C90.9968 57.4769 90.9823 56.6713 90.5278 56.1617C90.1001 55.6475 89.2959 55.4486 88.6731 55.7646C88.3311 55.939 88.061 56.2589 87.9348 56.6414Z" fill="white"/>
<path d="M88.5459 49.7621C89.21 49.7315 89.8275 49.9679 90.2873 50.3497C90.7418 50.7346 91.0394 51.2648 91.1443 51.8731C91.2315 52.4837 91.0371 53.0767 90.6699 53.5656C90.3317 54.0469 89.7992 54.4271 89.148 54.5618C88.4969 54.6965 87.8473 54.548 87.3186 54.1731C86.8205 53.7951 86.4655 53.1876 86.3652 52.4738C86.2474 51.7614 86.4777 51.082 86.8901 50.5908C87.2964 50.098 87.8817 49.7935 88.5459 49.7621Z" fill="#FF9D00"/>
<path opacity="0.5" d="M87.0278 51.6298C86.7379 52.2749 86.9597 53.167 87.5206 53.5825C88.0814 54.001 88.9177 53.9 89.4196 53.4157C89.9208 52.9283 90.034 52.1287 89.6668 51.5541C89.3033 50.9818 88.5573 50.6604 87.8878 50.8769C87.5267 50.9978 87.1985 51.2725 87.0278 51.6298Z" fill="white"/>
<path d="M88.6837 44.9273C89.3448 44.9977 89.9178 45.3259 90.3119 45.7735C90.5085 45.9977 90.66 46.2532 90.7557 46.5287C90.8727 46.8057 90.9355 47.1018 90.9301 47.4109C90.9248 48.0276 90.6241 48.5846 90.2063 49.0116C89.7962 49.4354 89.2109 49.7308 88.5467 49.7637C87.8826 49.7966 87.2644 49.551 86.8022 49.0995C86.3477 48.6512 86.1082 47.9962 86.1159 47.2755C86.1228 46.9159 86.197 46.5754 86.3255 46.2724C86.4755 45.9709 86.679 45.7062 86.9185 45.495C87.3967 45.0681 88.0226 44.8569 88.6837 44.9273Z" fill="#FF9D00"/>
<path opacity="0.5" d="M86.9015 46.5417C86.5136 47.1347 86.5932 48.0498 87.0821 48.5456C87.5725 49.0453 88.4157 49.0728 88.9834 48.6711C89.555 48.2664 89.7929 47.4928 89.5198 46.8692C89.2306 46.2472 88.5565 45.8172 87.8572 45.9289C87.4868 45.9924 87.1058 46.2135 86.9015 46.5417Z" fill="white"/>
<path d="M89.5574 40.1697C90.8596 40.5331 91.5697 41.7588 91.3975 42.9662C91.1488 44.1591 90.0088 45.0481 88.6836 44.9272C87.3599 44.8071 86.3691 43.5286 86.6606 42.097C86.8779 40.6524 88.2987 39.8162 89.5574 40.1697Z" fill="#FF9D00"/>
<path opacity="0.5" d="M87.5526 41.4933C87.0759 42.0197 87.0109 42.9364 87.4164 43.5003C87.8281 44.0688 88.6766 44.2272 89.2757 43.9142C89.9047 43.6013 90.2612 42.8744 90.089 42.2172C89.9031 41.5591 89.2811 41.0266 88.5825 41.032C88.1953 41.0358 87.8089 41.2011 87.5526 41.4933Z" fill="white"/>
<path d="M91.1568 35.6049C92.3749 36.1627 92.9067 37.4909 92.5409 38.6516C92.101 39.7856 90.8599 40.4956 89.5577 40.1697C88.2791 39.8506 87.475 38.4282 87.9945 37.0601C88.4429 35.6684 89.9571 35.0547 91.1568 35.6049Z" fill="#FF9D00"/>
<path opacity="0.5" d="M88.9737 36.6026C88.4182 37.0487 88.2078 37.9431 88.5185 38.5629C88.8574 39.1949 89.6608 39.478 90.2989 39.2599C90.9554 39.0441 91.4351 38.3861 91.367 37.7105C91.2928 37.0349 90.7351 36.4021 90.0533 36.3019C89.6654 36.2445 89.2836 36.3578 88.9737 36.6026Z" fill="white"/>
<path d="M93.4495 31.3468C94.0081 31.708 94.367 32.2566 94.5093 32.8297C94.6523 33.4058 94.6416 34.0393 94.3386 34.5742C94.0333 35.1082 93.5337 35.4778 92.9859 35.6798C92.4235 35.8718 91.764 35.8718 91.1557 35.6048C90.5466 35.3378 90.1082 34.842 89.9024 34.2337C89.6805 33.6193 89.7425 32.9169 90.099 32.2872C90.4533 31.6575 90.9843 31.2045 91.6063 31.0469C92.233 30.8893 92.8918 30.9857 93.4495 31.3468Z" fill="#FF9D00"/>
<path opacity="0.5" d="M91.1443 31.9918C90.5268 32.3461 90.1558 33.1862 90.3845 33.8564C90.6248 34.5359 91.3685 34.9391 92.0364 34.8251C92.6914 34.7011 93.2951 34.1418 93.3311 33.4624C93.3762 32.7906 92.9079 32.0668 92.2545 31.8633C91.8934 31.7516 91.4878 31.7975 91.1443 31.9918Z" fill="white"/>
<path d="M96.3578 27.4799C96.8613 27.919 97.1291 28.5067 97.1926 29.1027C97.2714 29.7125 97.139 30.3223 96.7572 30.812C96.3594 31.291 95.8398 31.6047 95.2522 31.7095C94.6631 31.8113 94.0096 31.7072 93.4503 31.3476C92.891 30.988 92.5368 30.4317 92.4304 29.802C92.321 29.1723 92.4564 28.4669 92.9117 27.9122C93.3516 27.346 93.963 27.0009 94.5804 26.9183C95.2132 26.8471 95.859 27.0445 96.3578 27.4799Z" fill="#FF9D00"/>
<path opacity="0.5" d="M93.9897 27.7829C93.3309 28.0407 92.8145 28.7883 92.9675 29.5067C93.0968 30.2114 93.7678 30.7256 94.4488 30.7179C95.1122 30.695 95.7801 30.2183 95.9324 29.561C96.0831 28.9053 95.7296 28.1241 95.1114 27.8257C94.7694 27.662 94.36 27.6451 93.9897 27.7829Z" fill="white"/>
<path d="M99.7673 24.0445C100.618 25.0338 100.606 26.5541 99.7123 27.4065C98.8408 28.2795 97.3824 28.3499 96.3579 27.4791C95.3541 26.6283 95.2837 25.0261 96.3013 24.0062C97.3396 23.01 98.8829 23.0184 99.7673 24.0445Z" fill="#FF9D00"/>
<path opacity="0.5" d="M97.3885 24.0338C96.6838 24.1792 96.1054 24.8762 96.1482 25.6001C96.175 26.3109 96.7649 26.9153 97.4436 27.0056C97.7833 27.0508 98.1253 26.9658 98.4077 26.7883C98.703 26.6231 98.9486 26.3729 99.071 26.0576C99.3151 25.431 99.0718 24.6131 98.498 24.2335C98.1789 24.0247 97.7741 23.9504 97.3885 24.0338Z" fill="white"/>
<path d="M103.586 21.0681C104.328 22.1722 104.115 23.6642 103.108 24.3964C102.152 25.1875 100.66 25.0338 99.7674 24.0444C98.8775 23.0582 99.0428 21.505 100.151 20.5945C101.305 19.7498 102.845 19.964 103.586 21.0681Z" fill="#FF9D00"/>
<path opacity="0.5" d="M101.227 20.7636C100.501 20.8034 99.8714 21.4575 99.8086 22.163C99.7421 22.8661 100.248 23.5425 100.912 23.7223C101.584 23.9083 102.302 23.5502 102.643 22.9794C102.969 22.3918 102.829 21.5539 102.305 21.1056C102.015 20.8584 101.622 20.7322 101.227 20.7636Z" fill="white"/>
<path d="M107.732 18.5669C108.352 19.7567 107.942 21.1737 106.873 21.8195C105.824 22.4944 104.339 22.1393 103.587 21.0681C102.81 19.9617 103.175 18.469 104.377 17.7C105.596 16.964 107.124 17.397 107.732 18.5669Z" fill="#FF9D00"/>
<path opacity="0.5" d="M105.415 17.9778C104.697 17.9449 104.004 18.5302 103.852 19.2074C103.701 19.8929 104.122 20.6244 104.762 20.8845C105.407 21.1462 106.185 20.9052 106.567 20.3397C106.961 19.798 106.92 18.9541 106.45 18.4468C106.189 18.1683 105.811 17.9954 105.415 17.9778Z" fill="white"/>
<path d="M112.122 16.5279C112.617 17.7873 112.035 19.1041 110.916 19.6726C110.346 19.9442 109.711 19.9472 109.13 19.7407C108.562 19.554 108.046 19.1538 107.731 18.5669C107.418 17.9808 107.375 17.3152 107.577 16.71C107.788 16.1269 108.247 15.6089 108.883 15.3067C110.156 14.667 111.646 15.3113 112.122 16.5279Z" fill="#FF9D00"/>
<path opacity="0.5" d="M109.881 15.6877C109.183 15.6036 108.418 16.0741 108.193 16.7321C107.966 17.3909 108.302 18.1644 108.912 18.4988C109.524 18.8324 110.334 18.6939 110.774 18.1698C111.209 17.635 111.273 16.8247 110.855 16.26C110.627 15.9563 110.264 15.7275 109.881 15.6877Z" fill="white"/>
<path d="M116.7 14.9547C116.882 15.5943 116.789 16.2439 116.508 16.7719C116.23 17.3113 115.773 17.7612 115.172 17.9609C113.971 18.3343 112.635 17.7704 112.122 16.5286C111.618 15.3128 112.254 13.8322 113.609 13.4053C114.277 13.1826 114.962 13.2262 115.522 13.5124C116.087 13.8085 116.518 14.315 116.7 14.9547Z" fill="#FF9D00"/>
<path opacity="0.5" d="M114.563 13.898C113.876 13.7343 113.063 14.1076 112.769 14.7374C112.481 15.3892 112.734 16.1972 113.299 16.576C113.867 16.9555 114.696 16.9279 115.191 16.4566C115.686 15.9899 115.819 15.1436 115.468 14.5545C115.273 14.2293 114.943 13.9883 114.563 13.898Z" fill="white"/>
<path d="M121.415 13.8529C121.63 15.1444 120.815 16.436 119.585 16.69C118.36 16.967 117.081 16.2416 116.7 14.9539C116.325 13.6914 117.118 12.3111 118.501 11.9967C119.89 11.7075 121.191 12.5215 121.415 13.8529Z" fill="#FF9D00"/>
<path opacity="0.5" d="M119.402 12.5966C118.732 12.3509 117.883 12.6279 117.534 13.2569C117.179 13.8697 117.346 14.6976 117.871 15.1391C118.133 15.3594 118.469 15.4704 118.806 15.4735C119.147 15.4941 119.488 15.4061 119.761 15.2041C120.304 14.7994 120.525 13.9769 120.236 13.3517C120.074 13.0067 119.77 12.7297 119.402 12.5966Z" fill="white"/>
<path d="M126.221 13.2675C126.302 14.5996 125.353 15.7542 124.106 15.8835C122.864 16.0717 121.659 15.1612 121.415 13.8536C121.17 12.546 122.11 11.3126 123.514 11.1037C124.927 10.9545 126.141 11.9438 126.221 13.2675Z" fill="#FF9D00"/>
<path opacity="0.5" d="M124.348 11.7922C123.705 11.4518 122.839 11.7104 122.422 12.2674C122.004 12.8328 122.085 13.6737 122.561 14.1718C123.041 14.6798 123.849 14.7518 124.433 14.4197C125.015 14.083 125.322 13.2934 125.099 12.6392C124.975 12.2789 124.702 11.969 124.348 11.7922Z" fill="white"/>
<path d="M131.061 13.1834C131.028 14.5331 129.929 15.5202 128.679 15.576C127.426 15.5997 126.325 14.5737 126.22 13.2676C126.113 11.9225 127.177 10.7878 128.601 10.7603C130.025 10.7021 131.095 11.8743 131.061 13.1834Z" fill="#FF9D00"/>
<path opacity="0.5" d="M129.357 11.5117C128.753 11.152 127.863 11.2737 127.389 11.7848C126.913 12.2959 126.906 13.1391 127.326 13.6915C127.75 14.2439 128.545 14.4444 129.161 14.1422C129.777 13.8392 130.166 13.1154 130.011 12.4321C129.924 12.0625 129.689 11.7129 129.357 11.5117Z" fill="white"/>
<path d="M135.903 13.3633C135.867 14.6946 134.706 15.7413 133.381 15.6747C132.039 15.6043 131.043 14.5163 131.062 13.1834C131.081 11.8567 132.254 10.7932 133.584 10.8628C134.932 10.9301 135.938 12.035 135.903 13.3633Z" fill="#FF9D00"/>
<path opacity="0.5" d="M134.269 11.6669C133.703 11.2652 132.853 11.3234 132.351 11.7985C131.841 12.2813 131.753 13.1237 132.128 13.6968C132.504 14.2745 133.313 14.5362 133.957 14.2806C134.6 14.0258 135.007 13.2844 134.876 12.6065C134.803 12.2316 134.581 11.8881 134.269 11.6669Z" fill="white"/>
<path d="M140.744 13.3326C140.851 14.6816 139.77 15.7788 138.337 15.8124C136.916 15.8331 135.861 14.6793 135.903 13.3633C135.945 12.0204 137.057 11.0166 138.31 10.9959C139.551 10.9645 140.639 12.0304 140.744 13.3326Z" fill="#FF9D00"/>
<path opacity="0.5" d="M139.002 11.7527C138.437 11.3892 137.648 11.5155 137.157 11.9822C136.677 12.4658 136.587 13.3059 136.979 13.882C137.365 14.4704 138.211 14.69 138.859 14.3817C139.505 14.0833 139.845 13.3166 139.658 12.6494C139.556 12.2806 139.314 11.9524 139.002 11.7527Z" fill="white"/>
<path d="M145.506 12.5017C145.917 13.768 145.043 15.1659 143.552 15.426C142.069 15.667 140.816 14.654 140.744 13.3326C140.671 11.999 141.588 10.8666 142.747 10.6776C143.326 10.559 143.909 10.7312 144.4 11.0449C144.889 11.3586 145.315 11.8651 145.506 12.5017Z" fill="#FF9D00"/>
<path opacity="0.5" d="M143.525 11.3096C142.932 11.0702 142.194 11.2485 141.804 11.8131C141.413 12.3564 141.411 13.1949 141.88 13.7221C142.342 14.2195 143.248 14.3495 143.845 13.9241C144.446 13.5102 144.63 12.6968 144.318 12.0763C144.149 11.7328 143.856 11.4527 143.525 11.3096Z" fill="white"/>
<path d="M149.837 10.3967C150.232 10.9124 150.393 11.6156 150.194 12.23C150.01 12.8528 149.522 13.4993 148.803 13.8123C147.348 14.5078 145.853 13.7848 145.506 12.5024C145.154 11.2216 145.77 9.93535 146.727 9.46556C147.24 9.24903 147.757 9.21232 148.324 9.38295C148.894 9.56887 149.425 9.85579 149.837 10.3967Z" fill="#FF9D00"/>
<path opacity="0.5" d="M147.629 9.8895C146.985 9.77396 146.421 10.1864 146.167 10.7816C145.936 11.3976 146.122 12.2277 146.704 12.6134C146.993 12.8008 147.374 12.8896 147.737 12.8215C148.098 12.7503 148.451 12.5644 148.691 12.2913C149.168 11.7121 149.067 10.852 148.582 10.3715C148.315 10.1007 147.963 9.92546 147.629 9.8895Z" fill="white"/>
<path d="M153.166 6.89703C153.674 7.32703 153.963 7.92078 154.032 8.51682C154.081 9.13581 153.883 9.80684 153.409 10.3547C152.85 10.9178 152.18 11.2575 151.506 11.2476C150.821 11.2353 150.234 10.9293 149.837 10.396C149.44 9.86268 149.279 9.22073 149.283 8.66754C149.288 8.10364 149.42 7.52674 149.812 7.15182C150.211 6.68815 150.778 6.41806 151.391 6.36757C152.022 6.29029 152.658 6.46779 153.166 6.89703Z" fill="#FF9D00"/>
<path opacity="0.5" d="M150.829 7.14499C150.182 7.373 149.765 7.8887 149.806 8.56967C149.849 9.23687 150.322 9.93545 151.003 10.0655C151.653 10.1879 152.521 9.69289 152.695 9.0058C152.898 8.32024 152.55 7.55282 151.929 7.24906C151.587 7.08074 151.184 7.04323 150.829 7.14499Z" fill="white"/>
<path d="M156.806 3.75926C157.116 4.34995 157.156 4.98499 157.088 5.56114C157.053 5.84883 156.962 6.09215 156.858 6.32781C156.757 6.5673 156.615 6.76701 156.416 6.91927C156.04 7.3202 155.502 7.45943 154.901 7.47397C154.305 7.5084 153.674 7.32554 153.166 6.89706C152.657 6.46859 152.373 5.8695 152.339 5.23062C152.324 4.59479 152.653 3.88551 153.209 3.32696C153.533 3.06223 153.889 2.86482 154.242 2.74316C154.597 2.6261 154.969 2.62075 155.297 2.66436C155.956 2.74929 156.5 3.17241 156.806 3.75926Z" fill="#FF9D00"/>
<path opacity="0.5" d="M154.379 3.37829C153.573 3.48694 152.947 4.28727 152.944 5.00497C152.933 5.72878 153.55 6.30034 154.236 6.40669C154.579 6.45948 154.919 6.39369 155.197 6.2399C155.336 6.16339 155.458 6.06009 155.563 5.94303C155.676 5.84127 155.768 5.71806 155.835 5.57422C156.077 4.99042 156.01 4.17478 155.496 3.69734C155.21 3.43873 154.795 3.29871 154.379 3.37829Z" fill="white"/>
<path d="M161.431 2.4302C161.49 3.09205 161.287 3.72174 160.97 4.19306C160.657 4.70187 160.217 5.02018 159.709 5.18775C159.182 5.31399 158.666 5.26424 158.136 4.99721C157.632 4.76461 157.119 4.34533 156.806 3.75924C156.493 3.17315 156.466 2.5113 156.747 1.88771C157.032 1.30774 157.624 0.747669 158.398 0.552561C159.166 0.311544 159.936 0.483691 160.481 0.82188C161.035 1.19833 161.371 1.76836 161.431 2.4302Z" fill="#FF9D00"/>
<path opacity="0.5" d="M159.393 1.09345C158.671 0.868499 157.719 1.25259 157.407 1.9305C157.082 2.58928 157.403 3.36743 157.974 3.75229C158.261 3.94663 158.589 4.02315 158.903 4.01014C159.226 4.01397 159.533 3.91067 159.78 3.69261C160.278 3.30622 160.531 2.48522 160.26 1.85398C160.107 1.50585 159.793 1.22582 159.393 1.09345Z" fill="white"/>
<path d="M166.241 2.77606C165.89 4.06761 164.753 4.89165 163.672 4.80749C163.392 4.79678 163.13 4.71643 162.885 4.58176C162.641 4.46317 162.414 4.29791 162.211 4.0852C161.807 3.65061 161.495 3.09664 161.43 2.43097C161.366 1.77296 161.59 1.12414 162.065 0.682662C162.299 0.458478 162.595 0.268718 162.93 0.144001C163.263 0.0353521 163.638 -0.0151573 164.027 0.00397098C164.802 0.0774238 165.472 0.425576 165.864 0.962699C166.264 1.48682 166.4 2.1234 166.241 2.77606Z" fill="#FF9D00"/>
<path opacity="0.5" d="M164.762 0.857868C164.168 0.386546 163.17 0.450071 162.651 0.949703C162.123 1.46311 162.127 2.30628 162.523 2.85871C162.721 3.12727 163.005 3.32697 163.311 3.43867C163.618 3.54273 163.949 3.53661 164.257 3.44173C164.866 3.21984 165.371 2.54042 165.322 1.85333C165.294 1.46234 165.091 1.10883 164.762 0.857868Z" fill="white"/>
<path d="M170.652 4.70957C170.268 5.26429 169.735 5.59023 169.181 5.78381C168.903 5.87792 168.627 5.9246 168.365 5.91312C168.095 5.91082 167.825 5.87333 167.579 5.75474C166.606 5.33315 165.962 4.08904 166.241 2.77607C166.509 1.48758 168.001 0.698724 169.489 1.33378C169.848 1.50058 170.166 1.711 170.411 1.97498C170.652 2.24966 170.83 2.55341 170.934 2.86405C171.147 3.48304 171.026 4.17091 170.652 4.70957Z" fill="#FF9D00"/>
<path opacity="0.5" d="M169.915 2.37971C169.702 2.07518 169.358 1.83569 168.984 1.71556C168.603 1.61686 168.199 1.62759 167.871 1.77373C167.209 2.07748 166.937 2.89541 167.137 3.532C167.334 4.20456 167.936 4.64451 168.577 4.65292C169.225 4.63073 169.915 4.1969 170.11 3.52129C170.209 3.15708 170.15 2.72019 169.915 2.37971Z" fill="white"/>
<path d="M174.047 8.12433C173.5 8.49236 172.842 8.62395 172.27 8.58187C171.703 8.52908 171.17 8.34163 170.794 7.95294C170.418 7.55966 170.213 7.05697 170.187 6.46629C170.154 5.8978 170.278 5.26349 170.652 4.7103C171.023 4.16247 171.606 3.8174 172.275 3.77532C172.923 3.74395 173.667 3.99415 174.22 4.56723C174.774 5.13496 175.047 5.85953 174.984 6.52366C174.932 7.18703 174.603 7.75018 174.047 8.12433Z" fill="#FF9D00"/>
<path opacity="0.5" d="M174.221 5.69958C174.154 5.3216 173.914 4.98036 173.602 4.73705C173.3 4.48302 172.914 4.34531 172.545 4.3698C171.812 4.40729 171.274 5.05534 171.211 5.73631C171.164 6.41116 171.533 7.06228 172.135 7.29948C172.724 7.53973 173.565 7.36299 173.986 6.81898C174.215 6.51675 174.304 6.11046 174.221 5.69958Z" fill="white"/>
<path d="M176.007 12.5277C175.362 12.6899 174.708 12.5874 174.19 12.3441C173.646 12.1053 173.248 11.7205 173.012 11.2224C172.793 10.7166 172.793 10.1581 172.964 9.60563C173.135 9.05856 173.496 8.50001 174.046 8.12433C174.594 7.74942 175.244 7.64996 175.88 7.84507C176.51 8.03711 177.099 8.54364 177.412 9.26363C177.744 9.97826 177.705 10.7533 177.445 11.3432C177.161 11.9454 176.652 12.3655 176.007 12.5277Z" fill="#FF9D00"/>
<path opacity="0.5" d="M177.02 10.3157C177.138 9.57348 176.625 8.70888 175.926 8.49158C175.238 8.26127 174.485 8.68055 174.194 9.28807C174.039 9.59871 173.997 9.94226 174.06 10.2544C174.113 10.572 174.249 10.8711 174.502 11.0861C174.969 11.5223 175.81 11.65 176.395 11.2843C176.716 11.0793 176.946 10.7281 177.02 10.3157Z" fill="white"/>
<path d="M176.421 17.3311C175.094 17.1942 174.119 16.2018 174.012 15.1192C173.955 14.5629 174.155 14.0265 174.494 13.559C174.853 13.0923 175.366 12.6929 176.007 12.5269C176.652 12.3601 177.314 12.4825 177.831 12.8781C178.366 13.266 178.735 13.9294 178.81 14.7045C178.877 15.4803 178.61 16.1965 178.163 16.6701C177.717 17.1483 177.079 17.3832 176.421 17.3311Z" fill="#FF9D00"/>
<path opacity="0.5" d="M178.092 15.5652C178.448 14.9041 178.238 13.9316 177.665 13.497C177.07 13.0586 176.237 13.1956 175.759 13.673C175.271 14.1589 175.153 14.9056 175.457 15.4787C175.782 16.0449 176.506 16.4359 177.188 16.2775C177.555 16.188 177.903 15.9302 178.092 15.5652Z" fill="white"/>
<path d="M175.3 22.0221C174.113 21.511 173.384 20.2134 173.711 19.1537C173.978 18.1062 175.086 17.2684 176.421 17.3319C177.077 17.3786 177.682 17.7068 178.044 18.2454C178.227 18.514 178.359 18.8339 178.432 19.1843C178.486 19.5317 178.474 19.9104 178.392 20.2907C177.951 21.7918 176.556 22.56 175.3 22.0221Z" fill="#FF9D00"/>
<path opacity="0.5" d="M177.415 20.8622C177.989 20.3702 178.096 19.3702 177.681 18.7764C177.265 18.1735 176.432 18.0381 175.82 18.338C175.519 18.4895 175.282 18.7382 175.121 19.0213C174.973 19.3067 174.916 19.6334 174.951 19.9532C175.047 20.589 175.653 21.195 176.339 21.2524C176.717 21.2815 177.111 21.1422 177.415 20.8622Z" fill="white"/>
<path d="M172.952 26.2435C171.881 25.4492 171.605 24.0498 172.144 23.0322C172.465 22.5333 172.89 22.1653 173.455 21.9786C174.014 21.7934 174.681 21.7774 175.299 22.0222C175.918 22.2671 176.364 22.746 176.567 23.362C176.769 23.9725 176.752 24.7377 176.354 25.3712C175.628 26.7171 174.016 27.0338 172.952 26.2435Z" fill="#FF9D00"/>
<path opacity="0.5" d="M175.292 25.6666C175.919 25.31 176.347 24.4638 176.077 23.7591C175.841 23.0689 175.086 22.691 174.417 22.8073C173.773 22.9396 173.2 23.4867 173.138 24.147C173.087 24.8089 173.526 25.548 174.175 25.7752C174.533 25.8976 174.94 25.8609 175.292 25.6666Z" fill="white"/>
<path d="M169.776 29.8893C169.317 29.4073 169.09 28.7837 169.072 28.1861C169.054 27.5863 169.263 27.0247 169.638 26.5526C170.441 25.6711 171.853 25.4921 172.952 26.2442C174.048 26.9948 174.256 28.6246 173.259 29.7286C172.796 30.3017 172.12 30.5703 171.484 30.591C170.845 30.6116 170.233 30.3714 169.776 29.8893Z" fill="#FF9D00"/>
<path opacity="0.5" d="M172.181 29.7983C172.862 29.5841 173.392 28.8136 173.331 28.1189C173.266 27.4142 172.607 26.8549 171.934 26.8235C171.233 26.7753 170.565 27.213 170.383 27.8656C170.187 28.5045 170.444 29.288 171.044 29.6468C171.374 29.8412 171.789 29.8986 172.181 29.7983Z" fill="white"/>
<path d="M166.023 32.9444C165.287 31.8534 165.477 30.3621 166.445 29.6215C167.369 28.8342 168.86 28.9581 169.776 29.8893C170.724 30.8564 170.593 32.4188 169.477 33.363C168.325 34.2521 166.774 34.0577 166.023 32.9444Z" fill="#FF9D00"/>
<path opacity="0.5" d="M168.395 33.2237C169.128 33.174 169.741 32.4746 169.798 31.7807C169.853 31.0767 169.323 30.421 168.651 30.2558C167.969 30.0844 167.262 30.4455 166.943 31.0308C166.63 31.6192 166.779 32.4563 167.307 32.8985C167.601 33.1426 167.998 33.2627 168.395 33.2237Z" fill="white"/>
<path d="M161.877 35.4449C161.561 34.855 161.524 34.2161 161.683 33.6316C161.829 33.0279 162.175 32.4946 162.71 32.164C163.768 31.5091 165.253 31.8603 166.023 32.9445C166.794 34.0287 166.435 35.5222 165.218 36.2751C164.615 36.6485 163.932 36.7525 163.333 36.6102C162.724 36.448 162.189 36.0272 161.877 35.4449Z" fill="#FF9D00"/>
<path opacity="0.5" d="M164.181 36.008C164.886 36.0141 165.599 35.4586 165.749 34.7807C165.902 34.1005 165.479 33.3729 164.833 33.1089C164.185 32.8465 163.399 33.0714 163.02 33.6407C162.643 34.2084 162.694 35.0684 163.161 35.568C163.42 35.8435 163.791 36.0049 164.181 36.008Z" fill="white"/>
<path d="M157.508 37.533C156.983 36.3065 157.547 34.943 158.666 34.3516C159.8 33.7869 161.24 34.2781 161.878 35.4449C162.516 36.6118 162.012 38.0678 160.751 38.6937C159.497 39.3487 158.029 38.7519 157.508 37.533Z" fill="#FF9D00"/>
<path opacity="0.5" d="M159.753 38.3249C160.449 38.3991 161.199 37.9194 161.415 37.256C161.633 36.5926 161.294 35.8199 160.683 35.4939C160.069 35.1687 159.26 35.3225 158.825 35.8558C158.393 36.3914 158.362 37.2438 158.783 37.7886C159.015 38.0893 159.369 38.2836 159.753 38.3249Z" fill="white"/>
<path d="M153.008 39.3226C152.539 38.0586 153.202 36.735 154.381 36.2208C155.572 35.7273 156.972 36.3157 157.508 37.533C158.044 38.7503 157.44 40.1681 156.159 40.6976C154.882 41.2492 153.464 40.5522 153.008 39.3226Z" fill="#FF9D00"/>
<path opacity="0.5" d="M155.197 40.2591C155.881 40.3823 156.652 39.9592 156.913 39.3127C157.175 38.6661 156.901 37.8673 156.317 37.4985C155.731 37.1305 154.907 37.2315 154.433 37.7342C153.963 38.2446 153.866 39.0586 154.259 39.6394C154.474 39.9516 154.819 40.1956 155.197 40.2591Z" fill="white"/>
<path d="M148.438 40.9317C148.007 39.6685 148.696 38.3157 149.935 37.8735C151.165 37.4274 152.541 38.0763 153.007 39.3219C153.473 40.5675 152.809 41.9547 151.524 42.4199C150.244 42.8767 148.867 42.1858 148.438 40.9317Z" fill="#FF9D00"/>
<path opacity="0.5" d="M150.587 41.9341C151.262 42.0986 152.041 41.7076 152.329 41.0764C152.618 40.4428 152.387 39.6295 151.821 39.2354C151.254 38.8406 150.418 38.9072 149.921 39.3892C149.416 39.859 149.306 40.6968 149.676 41.2806C149.881 41.6012 150.213 41.8407 150.587 41.9341Z" fill="white"/>
<path d="M143.849 42.4811C143.418 41.2225 144.107 39.8521 145.382 39.4206C146.641 38.9959 148.01 39.6723 148.439 40.931C148.868 42.1896 148.182 43.5592 146.907 43.9892C145.646 44.4161 144.28 43.7398 143.849 42.4811Z" fill="#FF9D00"/>
<path opacity="0.5" d="M145.984 43.4864C146.649 43.6578 147.426 43.2944 147.724 42.6685C148.024 42.0426 147.813 41.2239 147.255 40.8176C146.695 40.4114 145.853 40.4603 145.34 40.9332C144.829 41.4053 144.717 42.2446 145.083 42.8292C145.285 43.1513 145.615 43.3923 145.984 43.4864Z" fill="white"/>
<path d="M139.281 44.094C138.814 42.8491 139.476 41.4589 140.761 40.9906C142.04 40.543 143.421 41.2255 143.848 42.4811C144.278 43.7428 143.597 45.1009 142.351 45.537C141.124 45.9854 139.749 45.3389 139.281 44.094Z" fill="#FF9D00"/>
<path opacity="0.5" d="M141.431 45.0504C142.092 45.2027 142.847 44.8347 143.143 44.2157C143.436 43.5921 143.225 42.7734 142.661 42.3687C142.099 41.9624 141.244 42.0144 140.74 42.5079C140.235 42.9945 140.143 43.8362 140.521 44.4123C140.731 44.7306 141.064 44.964 141.431 45.0504Z" fill="white"/>
<path d="M134.784 45.8921C134.246 44.6763 134.846 43.2547 136.127 42.7183C137.405 42.1796 138.824 42.8614 139.281 44.094C139.749 45.3549 139.096 46.6893 137.909 47.1928C136.723 47.6909 135.323 47.1079 134.784 45.8921Z" fill="#FF9D00"/>
<path opacity="0.5" d="M136.977 46.7466C137.647 46.8797 138.352 46.4536 138.632 45.8399C138.9 45.2125 138.666 44.4007 138.088 44.0113C137.507 43.6088 136.654 43.7243 136.169 44.2385C135.684 44.7496 135.633 45.5936 136.041 46.1506C136.265 46.4582 136.608 46.6762 136.977 46.7466Z" fill="white"/>
<path d="M130.414 47.9763C129.772 46.8248 130.255 45.3129 131.528 44.7092C132.791 44.081 134.262 44.6816 134.785 45.8921C135.317 47.1232 134.751 48.482 133.619 49.0482C132.473 49.59 131.068 49.1477 130.414 47.9763Z" fill="#FF9D00"/>
<path opacity="0.5" d="M132.656 48.6519C133.333 48.7453 134.017 48.3099 134.237 47.658C134.466 47.0237 134.187 46.2265 133.582 45.8684C132.981 45.5111 132.127 45.6848 131.669 46.2135C131.214 46.7552 131.236 47.6106 131.685 48.1301C131.932 48.4193 132.288 48.6099 132.656 48.6519Z" fill="white"/>
<path d="M126.315 50.5502C125.519 49.4859 125.823 47.9097 127.05 47.1538C128.272 46.4009 129.79 46.7995 130.414 47.9763C131.037 49.1485 130.652 50.5923 129.597 51.2419C128.544 51.8892 127.112 51.616 126.315 50.5502Z" fill="#FF9D00"/>
<path opacity="0.5" d="M128.612 50.9557C129.282 50.9672 129.895 50.463 130.057 49.8111C130.209 49.15 129.86 48.378 129.227 48.0918C128.593 47.7965 127.743 48.0428 127.353 48.645C126.957 49.2365 127.07 50.0651 127.581 50.5341C127.862 50.7935 128.24 50.9473 128.612 50.9557Z" fill="white"/>
<path d="M122.656 53.7133C121.664 52.799 121.727 51.2029 122.838 50.2182C123.402 49.7591 124.079 49.5456 124.708 49.6091C125.347 49.6849 125.925 50.0116 126.315 50.5502C126.705 51.0889 126.842 51.7316 126.77 52.32C126.708 52.9214 126.456 53.4853 125.98 53.8686C125.09 54.6598 123.621 54.6009 122.656 53.7133Z" fill="#FF9D00"/>
<path opacity="0.5" d="M124.978 53.734C125.61 53.6245 126.17 53.0912 126.21 52.4034C126.255 51.7247 125.808 51.0024 125.145 50.815C124.492 50.6336 123.655 50.9856 123.364 51.6505C123.069 52.3146 123.326 53.1142 123.907 53.4891C124.226 53.6972 124.62 53.786 124.978 53.734Z" fill="white"/>
<path d="M119.74 57.5658C119.161 57.2383 118.787 56.7035 118.674 56.0676C118.562 55.4379 118.687 54.6866 119.167 54.1051C120.076 52.8594 121.728 52.7967 122.657 53.7133C123.623 54.6613 123.672 56.0814 123.011 57.008C122.632 57.4564 122.155 57.7609 121.567 57.8657C120.983 57.9698 120.318 57.8932 119.74 57.5658Z" fill="#FF9D00"/>
<path opacity="0.5" d="M121.994 57.063C122.627 56.8564 122.993 56.2137 122.9 55.5412C122.826 54.8885 122.256 54.2619 121.554 54.1938C120.85 54.1157 120.151 54.7018 119.968 55.3904C119.813 56.1058 120.272 56.8404 120.915 57.0668C121.272 57.1954 121.669 57.1916 121.994 57.063Z" fill="white"/>
<path d="M117.987 62.0624C117.337 61.9201 116.819 61.5161 116.522 60.9262C116.379 60.6347 116.267 60.2889 116.264 59.9407C116.264 59.5941 116.33 59.2276 116.468 58.8688C116.72 58.135 117.308 57.6461 117.906 57.4158C118.512 57.1855 119.16 57.2337 119.739 57.5665C120.313 57.8963 120.721 58.4303 120.929 58.982C121.144 59.5398 121.121 60.1022 120.946 60.6408C120.845 60.9071 120.685 61.1351 120.478 61.3302C120.275 61.5253 120.071 61.6967 119.806 61.826C119.291 62.0839 118.636 62.2047 117.987 62.0624Z" fill="#FF9D00"/>
<path opacity="0.5" d="M119.998 60.9583C120.551 60.5971 120.675 59.8802 120.46 59.278C120.211 58.6705 119.503 58.2015 118.811 58.3201C118.473 58.3821 118.128 58.5756 117.915 58.8717C117.704 59.1679 117.578 59.5412 117.592 59.9031C117.599 60.6285 118.271 61.2115 118.946 61.2467C119.322 61.2689 119.688 61.1564 119.998 60.9583Z" fill="white"/>
<path d="M117.809 66.8697C117.153 66.9753 116.518 66.787 116.019 66.3295C115.484 65.8773 115.272 65.1558 115.263 64.357C115.263 63.5567 115.696 62.8856 116.172 62.4694C116.654 62.0486 117.348 61.9177 117.987 62.0624C119.255 62.386 120.134 63.5154 120.075 64.5582C120.096 65.0946 119.755 65.5919 119.41 66.0043C119.027 66.4152 118.465 66.7641 117.809 66.8697Z" fill="#FF9D00"/>
<path opacity="0.5" d="M119.301 65.1505C119.491 64.8942 119.561 64.5973 119.521 64.3012C119.5 64.0051 119.409 63.7067 119.186 63.4603C118.75 62.9714 117.932 62.7304 117.319 63.0617C117.012 63.2262 116.773 63.5277 116.636 63.8773C116.509 64.2278 116.545 64.6333 116.678 64.9738C116.951 65.6677 117.731 65.9768 118.392 65.7733C118.75 65.6647 119.094 65.4321 119.301 65.1505Z" fill="white"/>
<path d="M119.43 71.4016C118.86 71.7275 118.16 71.8094 117.579 71.5508C116.992 71.3021 116.422 70.7742 116.137 70.0396C115.905 69.2753 115.964 68.5002 116.256 67.9317C116.578 67.3494 117.16 66.9684 117.809 66.8705C118.473 66.7695 119.08 66.9363 119.584 67.2087C120.121 67.4818 120.52 67.8697 120.662 68.3893C120.864 68.8965 120.851 69.4505 120.614 70.0037C120.366 70.5584 120.014 71.068 119.43 71.4016Z" fill="#FF9D00"/>
<path opacity="0.5" d="M120.187 69.234C120.268 68.6318 120.059 67.9968 119.438 67.7137C118.835 67.4336 117.985 67.514 117.553 68.0488C117.337 68.3158 117.239 68.6839 117.255 69.0595C117.268 69.436 117.39 69.8185 117.681 70.0642C118.229 70.5814 119.065 70.5822 119.604 70.1476C119.903 69.9096 120.115 69.5714 120.187 69.234Z" fill="white"/>
<path d="M122.365 75.2365C121.43 76.1623 119.789 76.1049 118.873 74.873C118.39 74.3038 118.245 73.5501 118.363 72.9074C118.476 72.2647 118.85 71.7283 119.43 71.4008C120.008 71.0734 120.671 70.9976 121.248 71.0971C121.824 71.2027 122.304 71.4888 122.693 71.9387C123.368 72.8653 123.321 74.293 122.365 75.2365Z" fill="#FF9D00"/>
<path opacity="0.5" d="M122.489 72.9274C122.466 72.2579 121.871 71.7697 121.259 71.655C120.616 71.5608 119.851 71.9304 119.599 72.5899C119.319 73.2671 119.7 74.0911 120.334 74.4339C120.961 74.7889 121.78 74.5548 122.18 73.9909C122.391 73.6887 122.512 73.29 122.489 72.9274Z" fill="white"/>
<path d="M125.992 78.4393C125.209 79.4945 123.625 79.6842 122.531 78.7209C121.997 78.232 121.681 77.6091 121.661 76.9657C121.642 76.3153 121.886 75.6971 122.366 75.238C122.847 74.7789 123.464 74.554 124.049 74.5379C124.641 74.5203 125.253 74.6802 125.703 75.0957C126.613 75.9014 126.796 77.3597 125.992 78.4393Z" fill="#FF9D00"/>
<path opacity="0.5" d="M125.705 76.1247C125.522 75.4797 124.896 75.0253 124.208 75.0811C123.527 75.1354 122.88 75.6802 122.789 76.3642C122.698 77.0422 123.192 77.7882 123.863 78.0093C124.555 78.2029 125.324 77.8386 125.618 77.2174C125.781 76.8746 125.812 76.4736 125.705 76.1247Z" fill="white"/>
<path d="M129.995 81.1647C129.29 82.3017 127.781 82.6093 126.616 81.8464C125.454 81.0285 125.168 79.5059 125.993 78.4393C126.795 77.4018 128.283 77.1279 129.307 77.8517C130.381 78.5541 130.691 80.0407 129.995 81.1647Z" fill="#FF9D00"/>
<path opacity="0.5" d="M129.463 78.8754C129.183 78.2572 128.479 77.8747 127.812 78.0086C127.145 78.1447 126.586 78.7813 126.586 79.4738C126.588 80.1594 127.148 80.8556 127.847 80.9566C128.543 81.0714 129.267 80.6375 129.497 79.9864C129.625 79.626 129.612 79.2198 129.463 78.8754Z" fill="white"/>
<path d="M134.124 83.6973C133.425 84.8289 131.954 85.1901 130.803 84.4923C129.653 83.7945 129.281 82.2833 129.995 81.1647C130.712 80.0415 132.173 79.6903 133.31 80.3805C134.446 81.0691 134.823 82.5664 134.124 83.6973Z" fill="#FF9D00"/>
<path opacity="0.5" d="M133.52 81.4118C133.22 80.789 132.445 80.4355 131.784 80.6077C131.119 80.7799 130.616 81.4601 130.661 82.1517C130.706 82.8465 131.294 83.4647 131.982 83.5504C132.672 83.6369 133.386 83.1831 133.597 82.5259C133.715 82.1624 133.686 81.7554 133.52 81.4118Z" fill="white"/>
<path d="M138.193 86.3248C137.414 87.4159 135.971 87.6974 134.876 87.0081C133.791 86.3087 133.428 84.832 134.124 83.6973C134.819 82.5649 136.315 82.2053 137.479 82.9559C138.648 83.692 138.961 85.2521 138.193 86.3248Z" fill="#FF9D00"/>
<path opacity="0.5" d="M137.678 83.9988C137.383 83.3661 136.598 82.9804 135.923 83.1403C135.248 83.3041 134.75 83.9919 134.793 84.6783C134.832 85.3715 135.391 85.9912 136.073 86.0892C136.751 86.1879 137.478 85.7785 137.721 85.1274C137.854 84.7709 137.839 84.3546 137.678 83.9988Z" fill="white"/>
<path d="M141.992 89.3241C141.091 90.2775 139.597 90.4336 138.657 89.6524C137.665 88.9056 137.452 87.4128 138.193 86.3248C138.95 85.2138 140.488 84.9996 141.632 85.8642C142.753 86.79 142.918 88.344 141.992 89.3241Z" fill="#FF9D00"/>
<path opacity="0.5" d="M141.737 86.9515C141.515 86.2483 140.725 85.8076 140.035 85.9055C139.339 86.0065 138.804 86.6592 138.787 87.3509C138.764 88.051 139.284 88.6738 139.921 88.8544C140.566 89.0265 141.35 88.6952 141.663 88.0816C141.836 87.7419 141.864 87.3295 141.737 86.9515Z" fill="white"/>
<path d="M145.167 92.9692C144.046 93.6976 142.634 93.5132 141.866 92.6425C141.107 91.7611 141.107 90.3211 141.992 89.3241C142.872 88.3318 144.503 88.3318 145.495 89.4756C146.495 90.6157 146.278 92.25 145.167 92.9692Z" fill="#FF9D00"/>
<path opacity="0.5" d="M145.412 90.5729C145.31 89.8452 144.607 89.2071 143.89 89.1948C143.176 89.1727 142.556 89.7435 142.426 90.4206C142.307 91.0947 142.654 91.8024 143.258 92.0817C143.848 92.3671 144.689 92.2056 145.122 91.6723C145.36 91.3762 145.468 90.9753 145.412 90.5729Z" fill="white"/>
<path d="M147.285 97.3044C146.648 97.4934 145.991 97.42 145.466 97.2057C144.91 96.9923 144.491 96.6319 144.232 96.1261C143.741 95.1361 144.083 93.7435 145.168 92.9692C146.245 92.1972 147.844 92.5836 148.549 93.9891C148.898 94.6762 148.904 95.4513 148.671 96.0527C148.414 96.6724 147.923 97.1154 147.285 97.3044Z" fill="#FF9D00"/>
<path opacity="0.5" d="M148.196 95.0465C148.233 94.6792 148.12 94.2867 147.918 93.9585C147.701 93.6402 147.389 93.393 147.048 93.2913C146.353 93.0946 145.608 93.517 145.336 94.1329C145.049 94.7649 145.215 95.5132 145.713 95.9333C146.208 96.3464 147.045 96.4367 147.616 96.0435C147.926 95.8239 148.141 95.4627 148.196 95.0465Z" fill="white"/>
<path d="M147.341 97.7367C147.341 98.8056 146.474 99.6725 145.405 99.6725C144.336 99.6725 143.469 98.8056 143.469 97.7367C143.469 96.6678 144.335 95.8009 145.405 95.8009C146.474 95.8017 147.341 96.6678 147.341 97.7367Z" fill="#FF9D00"/>
<path opacity="0.5" d="M145.979 96.4222C145.514 96.12 144.839 96.198 144.454 96.5974C144.069 96.9968 144.018 97.6747 144.338 98.1277C144.658 98.5806 145.313 98.7597 145.818 98.5317C146.324 98.3036 146.623 97.6938 146.495 97.1544C146.424 96.8568 146.235 96.589 145.979 96.4222Z" fill="white"/>
<path d="M145.369 113.034C145.087 113.104 144.804 113.175 144.522 113.245C144.959 113.777 144.724 114.579 144.393 115.182C143.621 116.585 142.452 117.72 141.304 118.837C140.155 119.953 138.991 121.096 138.236 122.509C137.481 123.921 137.185 125.669 137.843 127.129C138.48 126.946 139.178 127.178 139.706 127.578C140.234 127.979 140.623 128.53 141.003 129.073C140.858 128.402 141.249 127.742 141.643 127.181C142.888 125.411 144.361 123.776 145.269 121.812C146.534 119.076 146.572 115.799 145.369 113.034Z" fill="#82A024"/>
<path d="M145.961 113.749C145.851 113.668 145.746 113.582 145.644 113.493C145.742 113.957 145.814 114.424 145.851 114.894C145.805 116.361 145.337 117.956 144.447 119.656C143.903 120.695 143.255 121.696 142.629 122.665C142.071 123.527 141.493 124.419 140.99 125.336C140.744 125.785 140.535 126.224 140.345 126.659C140.168 126.937 140.002 127.245 139.844 127.563C139.932 127.622 140.022 127.678 140.106 127.741C140.217 127.411 140.339 127.078 140.488 126.737C140.592 126.573 140.697 126.416 140.801 126.269C141.283 125.591 141.833 124.945 142.365 124.32C143.045 123.521 143.748 122.695 144.318 121.79C145.613 119.737 146.2 117.296 146.013 114.893C146.025 114.503 146.007 114.121 145.961 113.749ZM144.18 121.704C143.616 122.598 142.917 123.42 142.241 124.214C141.793 124.741 141.334 125.285 140.91 125.85C140.984 125.705 141.053 125.561 141.134 125.414C141.634 124.503 142.209 123.613 142.766 122.753C143.395 121.781 144.046 120.776 144.592 119.731C145.243 118.487 145.67 117.297 145.876 116.17C145.805 118.119 145.229 120.04 144.18 121.704Z" fill="#82A024"/>
<path d="M143.581 118.65C144.535 117.34 145.565 115.474 145.628 113.479C145.574 113.432 145.519 113.386 145.468 113.336C145.452 115.342 144.411 117.234 143.449 118.554C142.888 119.323 142.257 120.06 141.646 120.774C140.778 121.788 139.881 122.835 139.17 123.992C138.537 125.021 138.125 126.081 137.933 127.106C137.988 127.112 138.043 127.122 138.098 127.132C138.284 126.128 138.687 125.088 139.308 124.077C140.013 122.932 140.906 121.888 141.769 120.88C142.382 120.164 143.016 119.424 143.581 118.65Z" fill="#82A024"/>
<path d="M139.039 127.178C139.112 127.196 139.186 127.221 139.26 127.249C140.339 124.815 141.689 122.503 143.298 120.383C141.646 122.493 139.957 124.693 139.039 127.178Z" fill="#82A024"/>
<path d="M146.126 99.1653C146.126 99.6259 145.753 100 145.292 100C144.832 100 144.458 99.6266 144.458 99.1653C144.458 98.7047 144.831 98.3305 145.292 98.3305C145.754 98.3305 146.126 98.7039 146.126 99.1653Z" fill="#FF9D00"/>
<path opacity="0.5" d="M144.567 99.1079C144.563 99.2671 144.614 99.4346 144.736 99.5379C144.83 99.6182 144.96 99.6511 145.084 99.6443C145.208 99.6374 145.328 99.5922 145.437 99.5326C145.578 99.4553 145.707 99.3459 145.772 99.1997C145.869 98.9786 145.789 98.6985 145.599 98.5509C145.408 98.4032 145.126 98.3917 144.917 98.5111C144.707 98.6289 144.575 98.8661 144.567 99.1079Z" fill="white"/>
<g opacity="0.5">
<path d="M144.745 98.8692C144.718 98.9556 144.709 99.0551 144.756 99.1324C144.814 99.2272 144.944 99.2602 145.051 99.2326C145.159 99.2051 145.249 99.1308 145.326 99.0505C145.391 98.9832 145.452 98.9044 145.462 98.811C145.475 98.6932 145.393 98.5769 145.283 98.5333C145.172 98.4904 145.042 98.5149 144.945 98.5822C144.848 98.6503 144.781 98.7559 144.745 98.8692Z" fill="white"/>
</g>
<path d="M146.126 112.547C146.126 113.007 145.753 113.381 145.292 113.381C144.832 113.381 144.458 113.008 144.458 112.547C144.458 112.086 144.831 111.712 145.292 111.712C145.754 111.712 146.126 112.086 146.126 112.547Z" fill="#FF9D00"/>
<path opacity="0.5" d="M144.567 112.489C144.563 112.649 144.614 112.816 144.736 112.919C144.83 112.999 144.96 113.032 145.084 113.025C145.208 113.018 145.328 112.973 145.437 112.913C145.578 112.836 145.707 112.727 145.772 112.58C145.869 112.359 145.789 112.078 145.599 111.931C145.408 111.783 145.126 111.772 144.917 111.891C144.707 112.01 144.575 112.248 144.567 112.489Z" fill="white"/>
<g opacity="0.5">
<path d="M144.745 112.251C144.718 112.337 144.709 112.437 144.756 112.514C144.814 112.609 144.944 112.641 145.051 112.614C145.159 112.587 145.249 112.512 145.326 112.432C145.391 112.365 145.452 112.286 145.462 112.192C145.475 112.075 145.393 111.958 145.283 111.915C145.172 111.872 145.042 111.896 144.945 111.964C144.848 112.032 144.781 112.138 144.745 112.251Z" fill="white"/>
</g>
<path d="M144.64 100.71C143.758 101.554 143.497 102.881 143.603 104.098C143.709 105.319 144.131 106.488 144.414 107.681C144.685 108.823 144.82 110.052 144.437 111.156H146.148C145.764 110.052 145.9 108.823 146.171 107.681C146.453 106.488 146.875 105.32 146.982 104.098C147.088 102.881 146.826 101.554 145.944 100.71H144.64Z" fill="#FF9D00"/>
<path opacity="0.5" d="M144.441 107.263C144.617 108.048 144.726 108.847 144.768 109.65C144.787 110.022 144.841 110.47 145.179 110.625C145.198 109.398 145.34 108.174 145.601 106.976C145.903 105.585 146.369 104.174 146.141 102.768C146.018 102.014 145.626 101.227 144.91 100.959C144.024 101.645 143.708 102.861 143.767 103.979C143.826 105.096 144.198 106.17 144.441 107.263Z" fill="white"/>
<g opacity="0.5">
<path d="M144.839 101.173C144.079 101.944 143.862 103.113 143.948 104.193C144.035 105.273 144.383 106.312 144.6 107.372C144.616 107.455 144.634 107.54 144.684 107.607C144.734 107.674 144.827 107.718 144.903 107.685C145.019 107.634 145.014 107.471 144.994 107.347C144.845 106.445 144.892 105.511 145.13 104.629C145.294 104.018 145.55 103.425 145.594 102.794C145.636 102.164 145.405 101.456 144.839 101.173Z" fill="white"/>
</g>
<path d="M146.868 100.246C146.868 100.536 146.162 100.772 145.292 100.772C144.421 100.772 143.715 100.537 143.715 100.246C143.715 99.9564 144.421 99.7208 145.292 99.7208C146.162 99.7215 146.868 99.9564 146.868 100.246Z" fill="#FF9D00"/>
<path opacity="0.5" d="M145.883 100.142C145.883 100.27 145.463 100.374 144.944 100.374C144.425 100.374 144.005 100.27 144.005 100.142C144.005 100.015 144.425 99.9105 144.944 99.9105C145.462 99.9105 145.883 100.015 145.883 100.142Z" fill="white"/>
<g opacity="0.5">
<path d="M144.365 100.085C144.366 100.121 144.395 100.152 144.428 100.165C144.461 100.179 144.499 100.181 144.535 100.181C144.672 100.184 144.81 100.187 144.948 100.19C144.998 100.191 145.05 100.191 145.094 100.168C145.138 100.145 145.171 100.091 145.152 100.045C145.133 99.9985 145.076 99.9832 145.027 99.9755C144.856 99.9503 144.682 99.9495 144.512 99.974C144.478 99.9786 144.444 99.9847 144.415 100.002C144.387 100.02 144.363 100.051 144.365 100.085Z" fill="white"/>
</g>
<path d="M146.868 111.465C146.868 111.755 146.162 111.99 145.292 111.99C144.421 111.99 143.715 111.755 143.715 111.465C143.715 111.175 144.421 110.939 145.292 110.939C146.162 110.94 146.868 111.175 146.868 111.465Z" fill="#FF9D00"/>
<path opacity="0.5" d="M144.944 111.593C145.463 111.593 145.883 111.489 145.883 111.361C145.883 111.233 145.463 111.129 144.944 111.129C144.426 111.129 144.005 111.233 144.005 111.361C144.005 111.489 144.426 111.593 144.944 111.593Z" fill="white"/>
<g opacity="0.5">
<path d="M144.365 111.303C144.366 111.339 144.395 111.37 144.428 111.384C144.461 111.397 144.499 111.399 144.535 111.399C144.672 111.402 144.81 111.404 144.948 111.407C144.998 111.408 145.05 111.409 145.094 111.386C145.138 111.363 145.171 111.309 145.152 111.263C145.133 111.216 145.076 111.201 145.027 111.193C144.856 111.168 144.682 111.168 144.512 111.192C144.478 111.196 144.444 111.202 144.415 111.22C144.386 111.238 144.363 111.27 144.365 111.303Z" fill="white"/>
</g>
<path d="M146.466 113.505C146.466 113.721 145.941 113.896 145.292 113.896C144.643 113.896 144.117 113.721 144.117 113.505C144.117 113.288 144.643 113.113 145.292 113.113C145.941 113.113 146.466 113.288 146.466 113.505Z" fill="#FF9D00"/>
<path opacity="0.5" d="M145.732 113.426C145.732 113.522 145.419 113.599 145.033 113.599C144.646 113.599 144.333 113.522 144.333 113.426C144.333 113.331 144.646 113.253 145.033 113.253C145.419 113.254 145.732 113.332 145.732 113.426Z" fill="white"/>
<g opacity="0.5">
<path d="M144.601 113.384C144.602 113.411 144.624 113.434 144.648 113.444C144.673 113.454 144.701 113.455 144.728 113.456C144.83 113.458 144.933 113.459 145.035 113.462C145.073 113.462 145.111 113.462 145.145 113.446C145.178 113.429 145.202 113.388 145.188 113.354C145.174 113.319 145.132 113.308 145.094 113.302C144.967 113.283 144.838 113.283 144.711 113.301C144.686 113.305 144.66 113.309 144.639 113.322C144.617 113.336 144.6 113.359 144.601 113.384Z" fill="white"/>
</g>
<path d="M268.673 119.816C295.915 119.816 318 114.704 318 108.397C318 102.091 295.915 96.9785 268.673 96.9785C241.43 96.9785 219.345 102.091 219.345 108.397C219.345 114.704 241.43 119.816 268.673 119.816Z" fill="#EFE5CE"/>
<path d="M312.023 108.987C312.743 108.664 313.128 107.859 312.916 107.098C309.647 95.2853 312.38 81.6261 304.825 71.5853C300.84 66.2882 294.451 62.8421 287.766 60.9239C281.529 59.1343 274.977 58.5481 268.459 58.0523C267.702 57.9781 266.963 57.9269 266.256 57.91C266.095 57.9062 265.93 57.907 265.765 57.9077C265.601 57.9077 265.435 57.9062 265.275 57.91C264.567 57.9276 263.829 57.9789 263.071 58.0523C256.553 58.5481 250.001 59.1343 243.764 60.9239C237.079 62.8421 230.691 66.2882 226.705 71.5853C219.295 81.4341 221.782 94.7627 218.795 106.416C218.497 107.578 219.051 108.796 220.143 109.291C250.746 123.154 281.362 122.783 312.023 108.987Z" fill="#105B46"/>
<g opacity="0.5">
<path d="M250.613 59.4097C248.301 59.7938 246.012 60.2782 243.764 60.9232C237.079 62.8413 230.691 66.2875 226.705 71.5845C219.295 81.4333 221.782 94.7619 218.795 106.416C218.497 107.577 219.051 108.795 220.143 109.29C221.933 110.101 223.722 110.858 225.511 111.572C226.255 98.8424 225.638 85.6882 230.916 74.1423C234.455 66.2752 242.061 61.9683 250.613 59.4097Z" fill="#105B46"/>
</g>
<path d="M304.62 78.6513C309.526 88.4281 309.946 99.215 309.87 109.927C310.587 109.619 311.305 109.31 312.024 108.987C312.744 108.664 313.128 107.859 312.917 107.097C309.647 95.2845 312.381 81.6253 304.826 71.5845C300.84 66.2875 294.452 62.8413 287.767 60.9231C287.628 60.8834 287.488 60.852 287.35 60.8137C294.627 65.1734 300.791 71.0214 304.62 78.6513Z" fill="#105B46"/>
<path d="M219.258 108.377C219.178 108.342 219.108 108.294 219.034 108.252C219.279 108.696 219.653 109.068 220.144 109.29C250.746 123.155 281.363 122.783 312.023 108.987C312.42 108.809 312.71 108.482 312.859 108.099C281.624 121.869 250.433 122.232 219.258 108.377Z" fill="white"/>
<path d="M310.059 85.4762C309.33 80.6926 308.046 76.1209 305.193 72.1017C278.885 81.1119 251.163 85.9935 225.376 73.5585C223.417 76.8165 222.352 80.3911 221.69 84.1166C249.997 100.125 281.096 95.0243 310.059 85.4762Z" fill="#82A024"/>
<path d="M263.234 63.4044C263.266 63.3952 263.299 63.386 263.332 63.3761C263.747 61.7793 264.259 60.2107 264.911 58.7363C262.975 58.7532 261.039 58.8595 259.111 59.0424C260.663 60.3117 261.969 61.832 263.234 63.4044Z" fill="#82A024"/>
<path d="M258.245 59.1273C254.792 59.4992 251.369 60.135 248.021 61.0425C251.785 61.3225 255.536 62.0058 259.245 62.6018C260.268 62.7663 261.281 62.9744 262.287 63.2024C261.064 61.7127 259.786 60.288 258.245 59.1273Z" fill="white"/>
<path d="M269.978 58.8848C269.054 58.8243 268.13 58.7761 267.203 58.7524C266.674 58.7394 266.143 58.7417 265.614 58.7409C265.021 60.125 264.585 61.5765 264.197 63.0387C265.97 61.4334 267.89 60.008 269.978 58.8848Z" fill="white"/>
<path d="M271.141 58.9667C269.051 59.9705 267.118 61.2942 265.331 62.8168C270.773 61.3371 276.399 60.5781 282.05 60.7028C278.461 59.8558 274.814 59.2689 271.141 58.9667Z" fill="#82A024"/>
<path d="M250.238 63.4289C253.755 63.3509 257.278 63.3608 260.794 63.5215C259.907 63.3402 259.014 63.1718 258.109 63.0333C254.167 62.4319 250.215 61.7158 246.229 61.5566C243.334 62.4327 240.507 63.5223 237.769 64.81C241.829 63.8077 246.077 63.5207 250.238 63.4289Z" fill="#82A024"/>
<path d="M250.716 64.0265C245.343 64.1451 239.812 64.5032 234.725 66.3609C233.175 67.2599 231.697 68.3464 230.669 69.7114C237.707 66.7565 245.338 65.0495 252.833 64.2621C253.823 64.1581 254.817 64.0732 255.813 63.9967C254.114 63.9791 252.416 63.989 250.716 64.0265Z" fill="white"/>
<path d="M275.07 62.6867C278.156 62.5222 281.217 62.2812 284.312 62.3562C285.757 62.3914 287.197 62.4664 288.636 62.5689C287.426 62.168 286.208 61.793 284.981 61.4518C278.837 60.9812 272.682 61.5681 266.735 63.0494C269.51 62.8053 272.287 62.8352 275.07 62.6867Z" fill="white"/>
<path d="M298.211 66.4474C295.812 65.2912 293.353 64.256 290.85 63.3424C288.669 63.1404 286.483 63.002 284.291 62.9645C281.193 62.9117 278.139 63.1626 275.049 63.295C272.34 63.4113 269.622 63.3707 266.921 63.6263C270.824 63.6462 274.726 63.8023 278.588 64.0724C282.96 64.3784 287.354 64.8742 291.683 65.5651C294.405 65.9997 297.138 66.5621 299.677 67.6218C299.388 67.1115 298.773 66.7182 298.211 66.4474Z" fill="#82A024"/>
<path d="M239.739 71.0068C242.209 69.8721 244.647 68.6739 247.224 67.7909C250.92 66.5238 254.754 65.3165 258.63 64.4113C256.431 64.5253 254.239 64.6982 252.061 64.9584C244.581 65.8521 237.009 67.6241 230.056 70.6556C229.773 71.1766 229.555 71.7336 229.418 72.3304C231.1 72.8875 232.796 73.4101 234.5 73.9043C236.104 72.7153 237.914 71.8446 239.739 71.0068Z" fill="#82A024"/>
<path d="M248.428 68.0258C245.523 68.9799 242.792 70.2714 240.021 71.5469C238.367 72.3082 236.726 73.0894 235.243 74.1216C237.095 74.648 238.958 75.1362 240.831 75.58C246.043 71.2432 251.936 67.7213 258.208 65.1887C254.902 65.9882 251.632 66.9737 248.428 68.0258Z" fill="white"/>
<path d="M258.214 69.5637C259.663 67.7419 261.221 65.9339 262.911 64.2629C262.791 64.2636 262.67 64.2636 262.55 64.2659C262.496 64.2759 262.442 64.2858 262.388 64.2958C254.845 66.774 247.75 70.6999 241.588 75.7559C245.241 76.5968 248.932 77.2587 252.643 77.7201C254.294 74.8592 256.174 72.13 258.214 69.5637Z" fill="#82A024"/>
<path d="M258.084 70.7183C256.367 72.9823 254.764 75.3465 253.327 77.8041C256.045 78.1224 258.774 78.3336 261.511 78.4094C261.494 75.7039 261.618 73.0014 262.005 70.3204C262.25 68.6225 262.548 66.8329 262.94 65.0463C261.17 66.8383 259.555 68.7802 258.084 70.7183Z" fill="white"/>
<path d="M264.319 64.3616C264.212 64.3531 264.104 64.3462 263.997 64.3378C265.553 66.2384 267.165 68.0877 268.534 70.1352C270.187 72.6089 271.605 75.2226 272.779 77.9411C276.975 77.4668 281.133 76.6519 285.169 75.4552C281.35 72.5561 277.381 69.8713 273.094 67.722C270.246 66.295 267.328 65.194 264.319 64.3616Z" fill="white"/>
<path d="M267.993 70.4168C266.68 68.4994 265.181 66.7434 263.712 64.9515C263.18 67.0938 262.713 69.2439 262.473 71.4475C262.22 73.7689 262.132 76.0926 262.142 78.4171C262.895 78.4324 263.647 78.4461 264.401 78.4415C266.992 78.4262 269.588 78.2839 272.17 78.0131C271.019 75.355 269.628 72.8017 267.993 70.4168Z" fill="#82A024"/>
<path d="M288.963 68.2178C291.381 68.9876 293.677 70.022 295.906 71.1942C296.81 70.7328 297.704 70.2531 298.584 69.7435C299.139 69.4229 299.745 69.0113 299.837 68.377C299.838 68.3724 299.836 68.3678 299.837 68.3632C296.813 67.0143 293.47 66.4045 290.208 65.9607C285.944 65.3807 281.67 64.8489 277.373 64.6064C274.765 64.4595 272.14 64.3462 269.511 64.285C276 65.1665 282.711 66.2285 288.963 68.2178Z" fill="white"/>
<path d="M288.276 68.6486C282.2 66.8291 275.75 65.7059 269.467 64.891C268.78 64.8022 268.092 64.7234 267.404 64.6484C269.297 65.3019 271.153 66.0708 272.957 66.9752C277.551 69.2783 281.779 72.1536 285.851 75.2524C289.074 74.26 292.216 73.0244 295.237 71.5316C293.005 70.3793 290.703 69.3754 288.276 68.6486Z" fill="#82A024"/>
<path d="M311.127 99.4691C310.407 99.0704 310.048 98.8684 309.333 98.4568C307.446 102.194 306.458 104.042 304.396 107.685C301.486 105.892 300.055 104.943 297.249 102.953C295.154 106.444 294.064 108.165 291.803 111.544C288.969 109.403 287.58 108.285 284.866 105.964C282.585 109.193 281.404 110.778 278.967 113.877C276.237 111.406 274.904 110.127 272.306 107.492C269.858 110.442 268.597 111.883 266.004 114.686C263.403 111.901 262.137 110.469 259.681 107.538C257.09 110.192 255.76 111.48 253.036 113.971C250.589 110.889 249.402 109.313 247.11 106.102C244.402 108.443 243.016 109.571 240.189 111.733C237.918 108.371 236.823 106.658 234.717 103.184C231.916 105.195 230.488 106.155 227.582 107.97C225.51 104.345 224.517 102.505 222.618 98.7835C221.544 99.4078 221.004 99.7124 219.917 100.308C219.864 100.592 219.836 100.734 219.783 101.018C220.878 100.422 221.422 100.116 222.505 99.4905C224.412 103.216 225.409 105.057 227.49 108.684C230.404 106.871 231.836 105.913 234.645 103.903C236.759 107.381 237.858 109.093 240.138 112.456C242.972 110.296 244.361 109.168 247.077 106.828C249.376 110.041 250.566 111.617 253.021 114.699C255.752 112.209 257.085 110.92 259.682 108.267C262.147 111.198 263.416 112.629 266.025 115.414C268.626 112.609 269.891 111.168 272.345 108.218C274.951 110.852 276.288 112.13 279.026 114.6C281.471 111.499 282.655 109.914 284.943 106.684C287.665 109.003 289.057 110.12 291.898 112.258C294.165 108.877 295.258 107.156 297.358 103.662C300.171 105.65 301.605 106.597 304.521 108.388C306.587 104.744 307.576 102.895 309.468 99.1553C310.181 99.5593 310.538 99.7583 311.257 100.148C311.205 99.8769 311.179 99.7414 311.127 99.4691Z" fill="white"/>
<path d="M310.28 94.9999C280.436 107.404 250.768 107.404 220.924 94.9999C220.872 95.2792 220.845 95.4192 220.792 95.6984C250.725 108.14 280.48 108.14 310.413 95.6984C310.359 95.4192 310.332 95.2792 310.28 94.9999Z" fill="white"/>
<path d="M312.533 106.876C281.288 119.947 249.917 119.948 218.672 106.876C218.619 107.155 218.592 107.296 218.54 107.575C249.873 120.683 281.332 120.683 312.666 107.575C312.613 107.296 312.586 107.155 312.533 106.876Z" fill="white"/>
<path d="M227.656 105.502C228.429 104.321 229.388 103.262 230.486 102.377C228.814 102.164 227.169 101.723 225.615 101.07C226.296 102.547 226.976 104.025 227.656 105.502Z" fill="#82A024"/>
<path d="M239.955 108.583C240.855 107.542 241.855 106.587 242.935 105.735C241.343 105.66 239.758 105.458 238.199 105.131C238.784 106.282 239.369 107.432 239.955 108.583Z" fill="#82A024"/>
<path d="M250.273 107.166C251.118 108.505 251.962 109.844 252.806 111.184C253.626 109.938 254.635 108.818 255.789 107.873C254.187 107.863 251.846 107.466 250.273 107.166Z" fill="#82A024"/>
<path d="M263.653 108.197C264.426 109.355 265.247 110.482 266.114 111.57C266.948 110.387 267.783 109.205 268.617 108.022C266.963 108.081 265.308 108.139 263.653 108.197Z" fill="#82A024"/>
<path d="M278.986 111.027C279.489 109.622 280.156 108.276 280.97 107.025C279.423 107.217 277.876 107.409 276.329 107.601C277.215 108.742 278.101 109.885 278.986 111.027Z" fill="#82A024"/>
<path d="M291.697 108.796C291.809 107.287 293.35 106.258 293.737 104.796C291.854 105.146 289.971 105.494 288.087 105.844C289.356 106.744 290.562 107.731 291.697 108.796Z" fill="#82A024"/>
<path d="M306.111 101.125C304.543 101.587 302.975 102.05 301.408 102.512C302.451 103.291 303.495 104.07 304.538 104.849C305.145 103.645 305.672 102.4 306.111 101.125Z" fill="#82A024"/>
<path d="M262.381 86.5491C263.708 87.8621 264.381 88.5109 265.744 89.7917C267.112 88.5017 267.787 87.8475 269.116 86.5246C267.753 85.2782 267.08 84.6462 265.753 83.3654C264.423 84.6554 263.748 85.2927 262.381 86.5491Z" fill="#FF9D00"/>
<path d="M239.154 83.9958C240.621 85.8895 241.369 86.826 242.897 88.6784C244.714 87.3861 245.611 86.7242 247.379 85.3722C245.846 83.5711 245.095 82.6591 243.622 80.8159C241.859 82.1173 240.966 82.7539 239.154 83.9958Z" fill="#FF9D00"/>
<path d="M258.346 82.4257C256.67 83.9185 255.818 84.6515 254.088 86.0899C255.671 87.8138 256.477 88.6638 258.118 90.3403C259.851 88.8505 260.703 88.0915 262.382 86.549C260.739 84.9239 259.932 84.0991 258.346 82.4257Z" fill="#FF9D00"/>
<path d="M247.379 85.3722C248.617 86.8275 249.246 87.5475 250.523 88.9737C251.966 87.839 252.679 87.2613 254.088 86.0899C252.809 84.6973 252.179 83.9934 250.938 82.571C249.532 83.7103 248.82 84.2712 247.379 85.3722Z" fill="#FF9D00"/>
<path d="M232.527 82.5321C233.665 84.1213 234.245 84.9094 235.426 86.4733C236.932 85.5031 237.679 85.0073 239.154 83.9958C237.969 82.4655 237.387 81.6942 236.242 80.1387C234.772 81.1166 234.028 81.5956 232.527 82.5321Z" fill="#FF9D00"/>
<path d="M223.181 78.2916C222.821 79.3177 222.512 80.3621 222.253 81.4241C222.927 81.0691 223.558 80.7271 224.439 80.242C223.936 79.4699 223.553 78.8762 223.181 78.2916Z" fill="#FF9D00"/>
<path d="M224.439 80.2428C225.776 82.2934 226.46 83.311 227.861 85.3263C229.749 84.2414 230.683 83.6821 232.527 82.5321C231.118 80.5665 230.43 79.5748 229.084 77.5732C227.248 78.6735 226.319 79.2083 224.439 80.2428Z" fill="#FF9D00"/>
<path d="M269.117 86.5245C270.804 88.067 271.661 88.826 273.403 90.315C275.034 88.6394 275.836 87.7893 277.41 86.0662C275.671 84.6278 274.815 83.8948 273.13 82.402C271.553 84.0746 270.751 84.8994 269.117 86.5245Z" fill="#FF9D00"/>
<path d="M309.235 81.2849C308.972 80.2252 308.664 79.1816 308.299 78.1586C307.924 78.7523 307.555 79.3277 307.046 80.1127C307.936 80.5986 308.534 80.9192 309.235 81.2849Z" fill="#FF9D00"/>
<path d="M298.96 82.4089C300.812 83.5566 301.749 84.1144 303.645 85.1963C305.037 83.1801 305.717 82.1633 307.046 80.1119C305.159 79.0821 304.226 78.5503 302.384 77.4539C301.046 79.4532 300.361 80.4448 298.96 82.4089Z" fill="#FF9D00"/>
<path d="M277.41 86.0663C278.814 87.2285 279.525 87.8008 280.964 88.9256C282.244 87.4886 282.874 86.7625 284.115 85.2958C282.679 84.2047 281.97 83.6492 280.567 82.5206C279.324 83.9537 278.692 84.663 277.41 86.0663Z" fill="#FF9D00"/>
<path d="M284.115 85.2957C285.893 86.647 286.794 87.308 288.622 88.5996C290.14 86.7487 290.884 85.813 292.34 83.9216C290.519 82.6813 289.62 82.0454 287.848 80.7455C286.385 82.5864 285.639 83.4969 284.115 85.2957Z" fill="#FF9D00"/>
<path d="M292.34 83.9215C293.812 84.9238 294.555 85.4143 296.058 86.3753C297.24 84.8014 297.82 84.008 298.961 82.4088C297.464 81.4807 296.723 81.0063 295.257 80.0369C294.11 81.6039 293.527 82.3805 292.34 83.9215Z" fill="#FF9D00"/>
<path d="M221.14 87.6554C221.054 88.5759 220.945 89.4933 220.824 90.4099C220.79 91.2049 220.73 91.999 220.667 92.7925C221.656 93.1965 222.386 93.4796 223.582 93.9287C223.694 91.843 223.751 90.8001 223.864 88.7143C222.744 88.2935 222.04 88.0211 221.14 87.6554Z" fill="white"/>
<path d="M236.698 92.7313C234.655 92.2156 233.639 91.9348 231.616 91.3288C231.523 93.4214 231.477 94.4681 231.385 96.5608C233.422 97.1714 234.446 97.4537 236.501 97.9725C236.58 95.876 236.619 94.8278 236.698 92.7313Z" fill="white"/>
<path d="M241.667 93.8752C240.296 93.5898 239.611 93.4375 238.246 93.1124C238.172 95.2096 238.135 96.2586 238.061 98.3558C239.434 98.6833 240.123 98.8371 241.504 99.124C241.569 97.0237 241.601 95.9739 241.667 93.8752Z" fill="white"/>
<path d="M243.695 94.2784C243.008 94.1476 242.664 94.0802 241.978 93.9395C241.914 96.039 241.881 97.0887 241.816 99.1883C242.507 99.3298 242.852 99.3979 243.545 99.5295C243.605 97.4292 243.635 96.3787 243.695 94.2784Z" fill="white"/>
<path d="M245.415 94.5921C245.36 96.6932 245.332 97.7444 245.276 99.8455C247.42 100.22 248.495 100.384 250.649 100.662C250.69 98.5585 250.711 97.5065 250.752 95.4031C248.612 95.1269 247.544 94.9647 245.415 94.5921Z" fill="white"/>
<path d="M256.271 95.987C254.502 95.8408 253.619 95.7521 251.855 95.5409C251.817 97.645 251.798 98.6971 251.759 100.8C253.535 101.013 254.424 101.103 256.205 101.25C256.231 99.1447 256.244 98.0919 256.271 95.987Z" fill="white"/>
<path d="M262.439 96.3366C260.666 96.2815 259.78 96.2379 258.009 96.1178C257.988 98.2234 257.976 99.2763 257.955 101.381C259.737 101.502 260.629 101.546 262.414 101.602C262.425 99.4951 262.429 98.4423 262.439 96.3366Z" fill="white"/>
<path d="M279.364 95.6671C278.355 95.7788 277.85 95.8285 276.84 95.9188C276.868 98.0237 276.882 99.0765 276.911 101.181C277.928 101.091 278.437 101.04 279.452 100.928C279.416 98.824 279.398 97.7719 279.364 95.6671Z" fill="white"/>
<path d="M287.375 94.5095C285.56 94.8346 284.651 94.9793 282.827 95.2348C282.871 97.3382 282.893 98.3895 282.938 100.493C284.773 100.236 285.689 100.09 287.516 99.7629C287.46 97.661 287.432 96.6105 287.375 94.5095Z" fill="white"/>
<path d="M304.978 89.9607C303.398 90.4993 302.604 90.7541 301.011 91.2362C301.105 93.3288 301.15 94.3747 301.244 96.4674C302.848 95.9823 303.646 95.7252 305.236 95.1827C305.133 93.0939 305.082 92.0495 304.978 89.9607Z" fill="white"/>
<path d="M308.909 88.5437C307.886 88.9324 307.372 89.1214 306.342 89.4863C306.449 91.5736 306.503 92.618 306.61 94.7061C307.647 94.3388 308.163 94.1491 309.193 93.7573C309.079 91.6716 309.023 90.6287 308.909 88.5437Z" fill="white"/>
<path d="M310.587 87.8926C310.397 87.9676 310.196 88.0472 309.961 88.139C310.078 90.2233 310.136 91.2654 310.253 93.3496C310.425 93.2823 310.579 93.2218 310.724 93.1652C310.646 91.4084 310.598 89.6517 310.587 87.8926Z" fill="white"/>
<path d="M299.785 91.6004C298.494 91.9761 297.848 92.1544 296.55 92.4933C296.631 94.589 296.672 95.6372 296.753 97.7329C298.059 97.3917 298.71 97.2119 300.009 96.8347C299.919 94.7405 299.875 93.6938 299.785 91.6004Z" fill="white"/>
<path d="M295.005 92.8858C293.209 93.3296 292.307 93.5339 290.499 93.9072C290.564 96.0068 290.596 97.0566 290.661 99.1561C292.481 98.7804 293.389 98.5746 295.197 98.1277C295.12 96.0313 295.081 94.9823 295.005 92.8858Z" fill="white"/>
<path d="M275.576 96.0251C274.375 96.1193 273.774 96.159 272.572 96.2233C272.589 98.329 272.597 99.3818 272.615 101.487C273.825 101.423 274.43 101.383 275.638 101.288C275.613 99.1828 275.601 98.13 275.576 96.0251Z" fill="white"/>
<path d="M271.781 96.2624C269.312 96.3779 268.076 96.404 265.606 96.3925C265.604 98.4989 265.604 99.5517 265.602 101.658C268.089 101.67 269.333 101.644 271.818 101.527C271.803 99.4216 271.796 98.368 271.781 96.2624Z" fill="white"/>
<path d="M230.238 90.9065C228.466 90.3518 227.583 90.0572 225.827 89.4321C225.72 91.5194 225.666 92.5638 225.558 94.6511C227.326 95.28 228.214 95.5769 229.999 96.1354C230.095 94.0443 230.143 92.9984 230.238 90.9065Z" fill="white"/>
<path d="M310.973 97.3902C282.04 108.548 249.247 108.436 220.387 97.0275C220.371 97.2387 220.354 97.4507 220.338 97.6618C234.937 103.406 250.529 106.286 266.123 106.286C281.403 106.286 296.681 103.528 311.021 98.023C311.005 97.8118 310.989 97.6006 310.973 97.3902Z" fill="white"/>
<path d="M304.561 70.9073C292.59 74.7169 280.723 77.9749 268.551 79.1517C252.48 80.7034 237.922 78.2029 226.361 71.938C226.257 72.114 226.157 72.2923 226.056 72.4698C235.474 77.5763 246.852 80.2106 259.408 80.2106C262.412 80.2106 265.483 80.0606 268.611 79.7577C280.931 78.5663 292.923 75.2579 305.02 71.4001C304.866 71.2356 304.714 71.0711 304.561 70.9073Z" fill="white"/>
<defs>
<filter id="filter0_f_158_5034" x="0" y="30" width="343" height="147" filterUnits="userSpaceOnUse" color-interpolation-filters="sRGB">
<feFlood flood-opacity="0" result="BackgroundImageFix"/>
<feBlend mode="normal" in="SourceGraphic" in2="BackgroundImageFix" result="shape"/>
<feGaussianBlur stdDeviation="27" result="effect1_foregroundBlur_158_5034"/>
</filter>
</defs>
</svg>
