<svg width="35" height="153" viewBox="0 0 35 153" fill="none" xmlns="http://www.w3.org/2000/svg">
<path d="M10.2998 146.66C10.8961 148.143 11.8133 149.475 12.9856 150.56C14.1579 151.646 15.5561 152.459 17.0798 152.94C18.6065 152.466 20.0087 151.659 21.1847 150.576C22.3608 149.493 23.2814 148.163 23.8798 146.68L10.2998 146.66Z" fill="#DDA11B"/>
<path d="M6.15039 143.35C6.41565 144.561 6.83226 145.733 7.39039 146.84C7.70408 147.444 8.17787 147.95 8.75991 148.303C9.34195 148.656 10.0098 148.841 10.6904 148.84H23.4904C24.1717 148.845 24.8409 148.66 25.4236 148.307C26.0062 147.954 26.4794 147.446 26.7904 146.84C27.3522 145.735 27.7786 144.567 28.0604 143.36L6.15039 143.35Z" fill="#C97520"/>
<path d="M31.5504 139.66L31.3704 142.01C31.2775 143.156 30.7569 144.225 29.9122 145.005C29.0674 145.785 27.9601 146.219 26.8104 146.22H7.13036C6.0899 146.225 5.0788 145.875 4.26421 145.228C3.44961 144.581 2.88029 143.675 2.65035 142.66C2.60088 142.47 2.57073 142.276 2.56036 142.08L2.36035 139.73L31.5504 139.66Z" fill="#DDA11B"/>
<path d="M31.5503 139.66L31.3703 142.01C31.2943 142.964 30.92 143.871 30.3003 144.6C28.2588 143.428 25.9629 142.769 23.6103 142.68H2.61031C2.56084 142.49 2.53069 142.296 2.52032 142.1L2.32031 139.75L31.5503 139.66Z" fill="#C97520"/>
<path d="M22.5201 97.0001V101.08H11.8501V97.0001C11.8492 96.777 11.8795 96.5548 11.9401 96.3401C12.0843 95.8314 12.3912 95.3839 12.8137 95.0661C13.2363 94.7482 13.7514 94.5775 14.2801 94.5801H20.0901C20.4175 94.5797 20.7414 94.646 21.0423 94.775C21.3432 94.9039 21.6146 95.0928 21.8401 95.3301C22.2789 95.7748 22.5234 96.3754 22.5201 97.0001Z" fill="#EFD122"/>
<path d="M22.5201 97.0001V101.08H11.8501V97.0001C11.8492 96.777 11.8795 96.5548 11.9401 96.3401H17.6701C19.2801 96.3401 20.7401 96.3401 21.8401 95.3401C22.2764 95.7823 22.5208 96.3788 22.5201 97.0001Z" fill="#DDA11B"/>
<path d="M32.1802 108.52H2.18018C2.26997 107.878 2.40362 107.243 2.58018 106.62C2.71018 106.14 2.88018 105.62 3.10018 105C4.28018 101.79 6.90018 97.55 12.4402 97.56H21.9802C23.5325 97.5499 25.061 97.9415 26.4172 98.6967C27.7734 99.4519 28.9113 100.545 29.7202 101.87C30.667 103.345 31.3726 104.962 31.8102 106.66C31.9724 107.272 32.096 107.893 32.1802 108.52Z" fill="#EFD122"/>
<path d="M1.62147 109.646L1.56543 138.835L32.6454 138.895L32.7014 109.705L1.62147 109.646Z" fill="#EFD122"/>
<path d="M1.57684 135.43L1.57031 138.83L32.6503 138.89L32.6568 135.49L1.57684 135.43Z" fill="#DDA11B"/>
<path d="M3.91715 108.772L3.90137 116.992L15.7713 117.015L15.7871 108.795L3.91715 108.772Z" fill="#C97520"/>
<path d="M18.5456 108.812L18.5298 117.032L30.3998 117.055L30.4155 108.835L18.5456 108.812Z" fill="#C97520"/>
<path d="M15.7702 117.02V137.73H3.91016V117.02C3.91341 116.644 4.06427 116.285 4.33015 116.02C4.46018 115.887 4.61571 115.781 4.7875 115.708C4.95929 115.636 5.14383 115.599 5.33015 115.6C5.33101 114.988 5.52473 114.392 5.88378 113.897C6.24283 113.401 6.74894 113.031 7.33015 112.84L9.82015 112.05L12.3102 112.85C12.8925 113.043 13.3997 113.414 13.7602 113.91C14.1253 114.405 14.3216 115.005 14.3202 115.62C14.5075 115.616 14.6937 115.649 14.8682 115.718C15.0426 115.786 15.2018 115.888 15.3366 116.018C15.4714 116.148 15.5791 116.304 15.6535 116.476C15.7279 116.648 15.7676 116.833 15.7702 117.02Z" fill="white"/>
<path d="M13.4 137.42H6.79004V120.6C6.79004 120.166 6.87573 119.736 7.04219 119.335C7.20866 118.934 7.45263 118.57 7.76012 118.263C8.06762 117.957 8.43258 117.714 8.83411 117.548C9.23564 117.383 9.66584 117.299 10.1 117.3C10.9762 117.303 11.8155 117.653 12.4341 118.273C13.0527 118.894 13.4 119.734 13.4 120.61V137.42Z" fill="#EDE0D1"/>
<path d="M30.4003 117.05V137.76H18.5303V117.05C18.5308 116.864 18.5682 116.68 18.6403 116.508C18.7124 116.336 18.8177 116.181 18.9503 116.05C19.2155 115.784 19.5747 115.633 19.9503 115.63C19.9496 115.018 20.1427 114.421 20.502 113.925C20.8613 113.429 21.3682 113.06 21.9503 112.87L24.4403 112.08L26.9303 112.88C27.5131 113.072 28.0204 113.443 28.3796 113.941C28.7388 114.438 28.9315 115.036 28.9303 115.65C29.1189 115.645 29.3067 115.677 29.4829 115.744C29.6591 115.812 29.8201 115.914 29.9568 116.044C30.0934 116.174 30.203 116.33 30.2791 116.503C30.3552 116.675 30.3964 116.861 30.4003 117.05Z" fill="white"/>
<path d="M27.6498 137.44H21.0498V120.66C21.0485 120.226 21.1333 119.795 21.2993 119.393C21.4653 118.992 21.7092 118.627 22.0169 118.32C22.3247 118.013 22.6902 117.771 23.0923 117.606C23.4945 117.441 23.9252 117.358 24.3598 117.36C25.236 117.363 26.0753 117.713 26.6939 118.333C27.3125 118.954 27.6598 119.794 27.6598 120.67L27.6498 137.44Z" fill="#EDE0D1"/>
<g style="mix-blend-mode:multiply">
<path d="M3.87988 128.78C7.69695 130.122 11.7043 130.845 15.7499 130.92V137.73H3.88988L3.87988 128.78Z" fill="#EDE0D1"/>
</g>
<g style="mix-blend-mode:multiply">
<path d="M30.3798 128.38V137.76H18.5098V130.94C22.5796 130.74 26.5892 129.875 30.3798 128.38Z" fill="#EDE0D1"/>
</g>
<path d="M23.4601 108.51C23.4601 108.51 22.9201 97.51 19.1901 97.51H15.1901C11.4501 97.51 10.8701 108.51 10.8701 108.51H23.4601Z" fill="#DDA11B"/>
<path d="M15.19 97.52C14.5147 97.5409 13.865 97.7832 13.3409 98.2096C12.8169 98.6361 12.4476 99.223 12.29 99.88C11.5075 102.573 10.9094 105.316 10.5 108.09H11.29C11.29 108.09 12.4 101.45 12.86 100.09C12.9934 99.4969 13.2781 98.9484 13.6864 98.4981C14.0948 98.0477 14.6128 97.7107 15.19 97.52Z" fill="#E0A351"/>
<path d="M19.1401 97.53C19.8155 97.5519 20.4648 97.7961 20.9874 98.2246C21.5099 98.6531 21.8764 99.242 22.0301 99.9C22.7992 102.598 23.3871 105.344 23.7901 108.12H23.0501C23.0501 108.12 21.9601 101.48 21.5101 100.12C21.3763 99.5187 21.087 98.963 20.6711 98.5085C20.2552 98.054 19.7273 97.7166 19.1401 97.53Z" fill="#E0A351"/>
<g style="mix-blend-mode:multiply" opacity="0.31">
<path d="M32.1802 108.52H2.18018C2.35903 107.318 2.66405 106.138 3.09018 105C8.93018 105.32 20.7702 105.42 29.7202 101.89C30.9887 103.907 31.8263 106.164 32.1802 108.52Z" fill="#C97520"/>
</g>
<g style="mix-blend-mode:multiply" opacity="0.31">
<path d="M32.1802 108.52H2.18018C2.26997 107.878 2.40362 107.244 2.58018 106.62L31.8102 106.68C31.9716 107.285 32.0952 107.9 32.1802 108.52Z" fill="#C97520"/>
</g>
<path d="M34.2798 110.47L0.0498117 110.4C0.048776 109.94 0.162174 109.486 0.379814 109.08C0.511049 108.827 0.683382 108.597 0.889808 108.4C1.15104 108.135 1.46255 107.926 1.80601 107.783C2.14947 107.641 2.51795 107.568 2.88981 107.57H31.4298C31.8083 107.57 32.1831 107.645 32.5321 107.792C32.8812 107.938 33.1976 108.152 33.463 108.422C33.7283 108.692 33.9371 109.013 34.0774 109.364C34.2176 109.716 34.2865 110.092 34.2798 110.47Z" fill="#EFD122"/>
<path d="M34.2798 110.47L0.0498117 110.4C0.048776 109.94 0.162174 109.486 0.379814 109.08H27.6298C28.2741 109.161 28.9282 109.072 29.5279 108.823C30.1276 108.574 30.6521 108.173 31.0498 107.66H31.4198C32.1705 107.657 32.892 107.951 33.4275 108.477C33.963 109.003 34.2693 109.72 34.2798 110.47Z" fill="#DDA11B"/>
<path d="M34.23 137.46C34.2247 138.213 33.9222 138.932 33.3882 139.463C32.8543 139.993 32.1324 140.29 31.38 140.29H2.83003C2.37649 140.287 1.93029 140.175 1.52852 139.965C1.12675 139.754 0.781007 139.451 0.520028 139.08C0.179489 138.601 -0.00237522 138.028 2.34254e-05 137.44L34.23 137.46Z" fill="#EFD122"/>
<path d="M34.23 137.46C34.2247 138.213 33.9221 138.932 33.3882 139.463C32.8543 139.993 32.1324 140.29 31.38 140.29H2.83002C2.37648 140.287 1.93028 140.175 1.52851 139.965C1.12674 139.754 0.780999 139.451 0.52002 139.08L29.52 139.14C31.35 139.14 32.16 138.61 32.52 137.5L34.23 137.46Z" fill="#DDA11B"/>
<path d="M17.2 89.25C16.6739 89.25 16.1597 89.406 15.7222 89.6983C15.2848 89.9906 14.9438 90.406 14.7425 90.8921C14.5412 91.3781 14.4885 91.913 14.5912 92.429C14.6938 92.945 14.9471 93.4189 15.3191 93.7909C15.6911 94.1629 16.1651 94.4163 16.6811 94.5189C17.1971 94.6215 17.7319 94.5689 18.218 94.3675C18.704 94.1662 19.1195 93.8253 19.4117 93.3878C19.704 92.9504 19.86 92.4361 19.86 91.91C19.8614 91.5603 19.7935 91.2138 19.6603 90.8905C19.527 90.5672 19.3312 90.2734 19.0839 90.0262C18.8366 89.7789 18.5429 89.583 18.2195 89.4498C17.8962 89.3166 17.5497 89.2487 17.2 89.25ZM17.2 93.33C16.9164 93.332 16.6385 93.2496 16.4018 93.0932C16.1651 92.9368 15.9803 92.7136 15.8708 92.4519C15.7614 92.1902 15.7322 91.9018 15.7871 91.6235C15.8419 91.3452 15.9783 91.0895 16.1789 90.8889C16.3795 90.6883 16.6352 90.5519 16.9135 90.4971C17.1919 90.4422 17.4802 90.4714 17.7419 90.5808C18.0036 90.6903 18.2268 90.8751 18.3832 91.1118C18.5396 91.3485 18.622 91.6264 18.62 91.91C18.6214 92.0969 18.5855 92.2821 18.5147 92.455C18.4438 92.6279 18.3392 92.785 18.2071 92.9171C18.075 93.0492 17.9179 93.1538 17.745 93.2246C17.5721 93.2955 17.3869 93.3314 17.2 93.33Z" fill="#EFD122"/>
<path d="M17.2002 91.45L17.3802 0" stroke="#DDA11B" stroke-width="1.35" stroke-miterlimit="10" stroke-linecap="round"/>
</svg>
