<svg width="10" height="10" viewBox="0 0 10 10" fill="none" xmlns="http://www.w3.org/2000/svg">
<path d="M5.0092 0C5.01163 0.654545 4.88384 1.30313 4.63319 1.90854C4.38253 2.51395 4.01397 3.06428 3.54858 3.52797C3.08319 3.99165 2.53015 4.35956 1.9212 4.6106C1.31225 4.86164 0.65937 4.99086 0 4.99086C0.660237 4.99325 1.31355 5.12472 1.9226 5.37775C2.53166 5.63078 3.08452 6.00042 3.54967 6.46556C4.01482 6.9307 4.38313 7.48224 4.63355 8.08868C4.88398 8.69512 5.01163 9.34459 5.0092 10C5.00435 9.34546 5.12973 8.69641 5.37814 8.09007C5.62655 7.48374 5.99311 6.93206 6.45679 6.46667C6.92047 6.00129 7.47215 5.63136 8.08018 5.3781C8.6882 5.12485 9.34062 4.99325 10 4.99086C9.34218 4.98846 8.69127 4.85747 8.08445 4.60536C7.47763 4.35324 6.92678 3.98495 6.46334 3.52151C5.9999 3.05806 5.63295 2.50854 5.38345 1.90432C5.13395 1.3001 5.00678 0.653009 5.0092 0Z" fill="#54290B"/>
</svg>
