<svg width="11" height="11" viewBox="0 0 11 11" fill="none" xmlns="http://www.w3.org/2000/svg">
<path d="M5.51012 0C5.51279 0.719999 5.37222 1.43344 5.0965 2.09939C4.82079 2.76535 4.41536 3.37071 3.90343 3.88076C3.39151 4.39082 2.78316 4.79552 2.11332 5.07166C1.44348 5.3478 0.725307 5.48995 0 5.48994C0.726261 5.49258 1.4449 5.63719 2.11487 5.91553C2.78483 6.19386 3.39298 6.60046 3.90464 7.11212C4.4163 7.62377 4.82144 8.23047 5.09691 8.89755C5.37237 9.56464 5.51279 10.279 5.51012 11C5.50479 10.28 5.6427 9.56605 5.91595 8.89908C6.18921 8.23211 6.59242 7.62526 7.10247 7.11334C7.61252 6.60141 8.21936 6.19449 8.8882 5.91591C9.55703 5.63733 10.2747 5.49257 11 5.48994C10.2764 5.48731 9.5604 5.34322 8.89289 5.06589C8.22539 4.78857 7.61945 4.38345 7.10967 3.87366C6.59989 3.36387 6.19625 2.7594 5.9218 2.09475C5.64735 1.43011 5.50746 0.71831 5.51012 0Z" fill="#EFD122"/>
</svg>
