<svg width="14" height="14" viewBox="0 0 14 14" fill="none" xmlns="http://www.w3.org/2000/svg">
<path d="M7.01288 0C7.01628 0.916363 6.83737 1.82438 6.48646 2.67196C6.13555 3.51953 5.61955 4.28999 4.96801 4.93915C4.31646 5.58831 3.54221 6.10339 2.68968 6.45484C1.83715 6.80629 0.923118 6.98721 0 6.9872C0.924332 6.99055 1.83897 7.17461 2.69165 7.52885C3.54432 7.8831 4.31833 8.40059 4.96954 9.05179C5.62075 9.70299 6.13638 10.4751 6.48697 11.3242C6.83757 12.1732 7.01628 13.0824 7.01288 14C7.00609 13.0836 7.18162 12.175 7.5294 11.3261C7.87717 10.4772 8.39036 9.70488 9.03951 9.05334C9.68866 8.4018 10.461 7.8839 11.3122 7.52934C12.1635 7.17479 13.0769 6.99054 14 6.9872C13.0791 6.98385 12.1678 6.80046 11.3182 6.4475C10.4687 6.09454 9.69749 5.57894 9.04867 4.93011C8.39986 4.28129 7.88613 3.51196 7.53683 2.66605C7.18753 1.82014 7.00949 0.914213 7.01288 0Z" fill="#54290B"/>
</svg>
