<svg width="375" height="340" viewBox="0 0 375 340" fill="none" xmlns="http://www.w3.org/2000/svg">
<path d="M374.108 5.02451C373.306 5.54385 372.543 6.12134 371.825 6.75234C364.826 12.8324 361.312 21.8732 357.202 30.1948C353.092 38.5164 347.434 47.0062 338.627 49.8828C328.301 53.2357 316.548 47.9214 306.296 51.5172C290.07 57.2237 286.873 81.2826 270.973 87.8484C254.579 94.6103 232.938 79.1905 219.312 90.5475C212.444 96.2821 210.552 107.228 202.453 111.02C194.997 114.513 186.077 109.843 180.448 103.782C174.819 97.7204 170.783 90.0992 164.101 85.2333C145.256 71.504 114.817 85.2333 97.3882 69.6921C87.6581 61.0343 85.1231 45.4091 73.6968 39.1235C60.7233 32.016 44.2549 41.2156 29.9766 37.349C17.6276 34.0054 10.0691 22.032 1.41084 12.6083C-4.30232 6.39743 -12.5412 0.532144 -21.2274 -0.000215209C-23.5668 -0.14031 -46 4.36139 -46 4.51083V339.962H420V4.51083C420 2.03582 398.424 2.53083 395.395 2.38139C387.585 1.99847 380.679 0.756295 374.108 5.02451Z" fill="url(#paint0_linear_158_4960)"/>
<defs>
<linearGradient id="paint0_linear_158_4960" x1="187" y1="-0.00341797" x2="187" y2="339.962" gradientUnits="userSpaceOnUse">
<stop stop-color="#FFCE80"/>
<stop offset="1" stop-color="#FFE3C3" stop-opacity="0"/>
</linearGradient>
</defs>
</svg>
