<?xml version="1.0" encoding="UTF-8"?>
<!--Generator: Apple Native CoreSVG 326-->
<!DOCTYPE svg
PUBLIC "-//W3C//DTD SVG 1.1//EN"
       "http://www.w3.org/Graphics/SVG/1.1/DTD/svg11.dtd">
<svg version="1.1" xmlns="http://www.w3.org/2000/svg" xmlns:xlink="http://www.w3.org/1999/xlink" viewBox="0 0 30.8496 36.653">
 <g>
  <rect height="36.653" opacity="0" width="30.8496" x="0" y="0"/>
  <path d="M28.4912 8.73907L28.4912 30.5213C28.4912 33.5828 26.9678 35.1063 23.9502 35.1063L13.7132 35.1063C16.2074 34.7571 18.7989 34.2394 21.6943 33.4363C24.668 32.5867 26.0303 30.6824 26.0303 27.2693L26.0303 5.82403C26.0303 5.32703 25.9924 4.85813 25.915 4.42256C27.6285 4.99409 28.4912 6.43524 28.4912 8.73907Z" fill="#55bef0"/>
  <path d="M24.0381 5.82403L24.0381 27.2693C24.0381 29.8328 23.2324 30.9315 21.1523 31.5174C15.5566 33.0555 11.2061 33.5096 6.28418 33.7733C3.57422 33.9344 1.99219 32.616 1.99219 30.0672L1.99219 8.25568C1.99219 5.60431 3.55957 4.25665 5.93262 4.11017C11.2061 3.80255 15.5566 3.07013 19.6582 2.14728C22.4707 1.4881 24.0381 2.909 24.0381 5.82403ZM12.8906 23.7244C11.4404 23.9588 9.84375 24.1785 7.41211 24.3104C6.79688 24.369 6.5332 24.7205 6.5332 25.1893C6.5332 25.6727 6.88477 26.0535 7.41211 26.0242C9.8877 25.8777 11.5283 25.6434 13.1689 25.3797C13.667 25.2918 13.9307 24.8963 13.9307 24.5008C13.9307 24.0467 13.5645 23.6072 12.8906 23.7244ZM18.4717 17.8504C15.1172 18.5975 11.6895 19.1981 7.41211 19.4764C6.79688 19.5203 6.5332 19.8865 6.5332 20.3406C6.5332 20.824 6.88477 21.2049 7.41211 21.1756C11.6895 20.8973 15.1172 20.2967 18.6328 19.5203C19.3359 19.3738 19.4971 19.0223 19.4971 18.5975C19.4971 18.1287 19.1455 17.7186 18.4717 17.8504ZM18.4717 12.9871C15.1172 13.7342 11.6895 14.3348 7.41211 14.6131C6.79688 14.657 6.5332 15.0233 6.5332 15.4774C6.5332 15.9608 6.88477 16.3416 7.41211 16.3123C11.6895 16.034 15.1172 15.4334 18.6328 14.657C19.3359 14.5106 19.4971 14.159 19.4971 13.7342C19.4971 13.2654 19.1455 12.8553 18.4717 12.9871ZM18.4717 8.13849C15.1172 8.87091 11.6895 9.4715 7.41211 9.74982C6.79688 9.79376 6.5332 10.16 6.5332 10.6287C6.5332 11.1121 6.88477 11.4783 7.41211 11.449C11.6895 11.1707 15.1172 10.5848 18.6328 9.79376C19.3359 9.64728 19.4971 9.29571 19.4971 8.87091C19.4971 8.40216 19.1455 7.992 18.4717 8.13849Z" fill="#55bef0"/>
 </g>
</svg>
