<?xml version="1.0" encoding="UTF-8"?>
<!--Generator: Apple Native CoreSVG 326-->
<!DOCTYPE svg
PUBLIC "-//W3C//DTD SVG 1.1//EN"
       "http://www.w3.org/Graphics/SVG/1.1/DTD/svg11.dtd">
<svg version="1.1" xmlns="http://www.w3.org/2000/svg" xmlns:xlink="http://www.w3.org/1999/xlink" viewBox="0 0 29.5752 34.9951">
 <g>
  <rect height="34.9951" opacity="0" width="29.5752" x="0" y="0"/>
  <path d="M29.209 13.7549C29.209 17.2852 27.876 20.5078 25.5762 22.5146L25.5762 29.6631C25.5762 32.9736 22.251 34.8926 16.8457 34.8926C11.7188 34.8926 8.48145 33.1201 8.26172 30.0439L8.27637 29.9414L6.75293 30.0879C4.36523 30.3662 2.49023 29.0332 2.49023 26.3965L2.49023 23.584C0.922852 23.1738 0 21.9287 0 20.4199C0 19.6289 0.249023 18.7646 0.74707 17.8857L2.53418 14.6631C2.49023 14.2822 2.47559 13.9014 2.47559 13.4473C2.47559 5.37598 7.82227 0 15.8057 0C23.8184 0 29.209 5.50781 29.209 13.7549ZM17.9883 15.8496C17.9883 16.6992 18.5742 17.2998 19.5703 17.2998L19.8193 17.2998C20.0684 18.6914 20.9619 19.6436 22.0752 19.6436C23.6865 19.6436 24.8438 17.8125 24.8438 15.2637C24.8438 15.0586 24.8438 14.8242 24.8291 14.6045C24.2285 14.8682 23.5254 14.9854 22.7197 14.9414C22.3242 14.8975 22.0459 14.5898 22.0459 14.2236C22.0459 13.8281 22.3828 13.4912 22.749 13.5205C24.4043 13.6377 25.4736 12.7295 25.4736 11.25C25.4736 9.90234 24.7998 8.78906 23.7158 8.15918C23.3057 12.334 17.9883 12.9053 17.9883 15.8496ZM13.623 6.09375C13.623 6.5332 13.3301 6.81152 12.9199 6.81152C12.4805 6.81152 12.1729 6.47461 12.2021 6.0498C12.2168 5.43457 12.3926 5.00977 12.5684 4.61426C12.3047 4.58496 12.0703 4.55566 11.8066 4.55566C10.0049 4.55566 8.61328 5.66895 8.61328 7.13379C8.61328 8.05664 9.27246 8.75977 10.1221 8.75977C10.5322 8.75977 10.8691 9.08203 10.8691 9.47754C10.8691 9.8584 10.5176 10.1953 10.1221 10.1953C8.8916 10.1953 7.93945 9.60938 7.5 8.68652C7.00195 9.41895 6.72363 10.2979 6.72363 11.1768C6.72363 13.667 8.32031 15.5713 10.7812 15.5713C12.5684 15.5713 13.8281 14.3994 13.8281 12.7588C13.8281 12.1875 13.6377 11.7041 13.3301 11.3965C13.0811 11.1621 12.9932 10.9131 12.9932 10.708C12.9932 10.3418 13.3008 10.0635 13.6816 10.0635C13.8574 10.0635 14.0625 10.1074 14.2236 10.2686C14.3115 10.3418 14.3994 10.4883 14.4287 10.5762C15.6152 10.415 16.2012 9.72656 16.2012 8.59863C16.2012 8.20312 16.5234 7.88086 16.9043 7.88086C17.2852 7.88086 17.6074 8.21777 17.6074 8.59863C17.6221 10.3271 16.7432 11.4258 15.1025 11.792C15.1904 12.1143 15.2197 12.4512 15.2197 12.7881C15.2197 14.2676 14.502 15.4541 13.2715 16.1133C13.96 16.4795 14.7656 16.6699 15.6445 16.6699C16.0254 16.6699 16.4502 16.626 16.8604 16.5527C16.7871 16.333 16.7432 16.1133 16.7432 15.8789C16.7432 12.0264 22.4414 11.3672 22.4414 7.89551C22.4414 6.19629 21.1084 4.84863 19.4385 4.84863C18.8379 4.84863 18.6621 4.86328 18.501 4.90723C17.8857 4.21875 16.9775 3.80859 16.1279 3.80859C14.6777 3.80859 13.6377 4.7168 13.623 6.09375Z" fill="#55bef0"/>
 </g>
</svg>
