<?xml version="1.0" encoding="UTF-8"?>
<!--Generator: Apple Native CoreSVG 326-->
<!DOCTYPE svg
PUBLIC "-//W3C//DTD SVG 1.1//EN"
       "http://www.w3.org/Graphics/SVG/1.1/DTD/svg11.dtd">
<svg version="1.1" xmlns="http://www.w3.org/2000/svg" xmlns:xlink="http://www.w3.org/1999/xlink" viewBox="0 0 33.6438 33.2922">
 <g>
  <rect height="33.2922" opacity="0" width="33.6438" x="0" y="0"/>
  <path d="M7.76185 29.339L10.9406 29.339C11.2335 29.339 11.4533 29.4269 11.673 29.6466L13.9288 31.8878C15.7745 33.7482 17.4884 33.7335 19.3341 31.8878L21.59 29.6466C21.8243 29.4269 22.0294 29.339 22.337 29.339L25.5011 29.339C28.1232 29.339 29.339 28.1378 29.339 25.5011L29.339 22.337C29.339 22.0294 29.4269 21.8243 29.6466 21.59L31.8878 19.3341C33.7482 17.4884 33.7335 15.7745 31.8878 13.9288L29.6466 11.673C29.4269 11.4533 29.339 11.2335 29.339 10.9406L29.339 7.76185C29.339 5.15442 28.1378 3.92396 25.5011 3.92396L22.337 3.92396C22.0294 3.92396 21.8243 3.85071 21.59 3.63099L19.3341 1.38978C17.4884-0.470576 15.7745-0.455927 13.9288 1.38978L11.673 3.63099C11.4533 3.85071 11.2335 3.92396 10.9406 3.92396L7.76185 3.92396C5.13978 3.92396 3.92396 5.12513 3.92396 7.76185L3.92396 10.9406C3.92396 11.2335 3.85071 11.4533 3.63099 11.673L1.38978 13.9288C-0.470576 15.7745-0.455927 17.4884 1.38978 19.3341L3.63099 21.59C3.85071 21.8243 3.92396 22.0294 3.92396 22.337L3.92396 25.5011C3.92396 28.1232 5.13978 29.339 7.76185 29.339Z" fill="#007aff"/>
  <path d="M14.9982 23.7872C14.5001 23.7872 14.09 23.5968 13.7091 23.0841L10.0324 18.5724C9.81263 18.2794 9.68079 17.9425 9.68079 17.6202C9.68079 16.9464 10.1935 16.4044 10.8673 16.4044C11.2775 16.4044 11.5997 16.5509 11.9659 17.0343L14.9396 20.8722L21.1945 10.8234C21.4728 10.3693 21.8536 10.1495 22.2492 10.1495C22.879 10.1495 23.4796 10.589 23.4796 11.2628C23.4796 11.5997 23.2892 11.9367 23.1134 12.2296L16.2286 23.0841C15.921 23.5529 15.4962 23.7872 14.9982 23.7872Z" fill="white"/>
 </g>
</svg>
