<?xml version="1.0" encoding="UTF-8"?>
<!--Generator: Apple Native CoreSVG 326-->
<!DOCTYPE svg
PUBLIC "-//W3C//DTD SVG 1.1//EN"
       "http://www.w3.org/Graphics/SVG/1.1/DTD/svg11.dtd">
<svg version="1.1" xmlns="http://www.w3.org/2000/svg" xmlns:xlink="http://www.w3.org/1999/xlink" viewBox="0 0 37.9395 30.5127">
 <g>
  <rect height="30.5127" opacity="0" width="37.9395" x="0" y="0"/>
  <path d="M6.26953 23.4375L6.70898 25.1953C7.26562 27.4805 8.48145 28.6523 10.8984 28.6523L26.6748 28.6523C29.1064 28.6523 30.3076 27.5098 30.8789 25.1953L31.3184 23.4375ZM5.78613 21.4307L31.8164 21.4307L34.5703 10.1514L33.3691 9.46289L26.6162 14.3848C26.1182 14.7363 25.7812 14.6045 25.5029 14.209L19.1455 4.59961L18.4424 4.57031L12.0264 14.2529C11.7773 14.6338 11.4844 14.751 10.9863 14.3994L4.36523 9.56543L2.95898 9.93164ZM3.50098 13.0811C5.43457 13.0811 6.9873 11.5137 6.9873 9.56543C6.9873 7.66113 5.43457 6.0791 3.50098 6.0791C1.56738 6.0791 0 7.64648 0 9.56543C0 11.5137 1.58203 13.0811 3.50098 13.0811ZM18.7939 6.9873C20.7129 6.9873 22.2803 5.41992 22.2803 3.48633C22.2803 1.58203 20.7129 0 18.7939 0C16.8457 0 15.293 1.56738 15.293 3.48633C15.293 5.41992 16.8604 6.9873 18.7939 6.9873ZM34.0723 13.0811C35.9912 13.0811 37.5732 11.5137 37.5732 9.56543C37.5732 7.64648 36.0059 6.0791 34.0723 6.0791C32.1533 6.0791 30.5859 7.66113 30.5859 9.56543C30.5859 11.5137 32.1533 13.0811 34.0723 13.0811Z" fill="#ffd60a"/>
 </g>
</svg>
