<?xml version="1.0" encoding="UTF-8"?>
<!--Generator: Apple Native CoreSVG 326-->
<!DOCTYPE svg
PUBLIC "-//W3C//DTD SVG 1.1//EN"
       "http://www.w3.org/Graphics/SVG/1.1/DTD/svg11.dtd">
<svg version="1.1" xmlns="http://www.w3.org/2000/svg" xmlns:xlink="http://www.w3.org/1999/xlink" viewBox="0 0 25.0049 31.4209">
 <g>
  <rect height="31.4209" opacity="0" width="25.0049" x="0" y="0"/>
  <path d="M6.73828 20.3906C6.21094 20.3906 5.81543 19.9805 5.81543 19.4678C5.81543 18.9697 6.21094 18.5889 6.73828 18.5889L17.9297 18.5889C18.457 18.5889 18.8379 18.9697 18.8379 19.4678C18.8379 19.9805 18.457 20.3906 17.9297 20.3906ZM6.73828 24.7852C6.21094 24.7852 5.81543 24.4043 5.81543 23.9062C5.81543 23.3936 6.21094 22.9834 6.73828 22.9834L12.0264 22.9834C12.5537 22.9834 12.9346 23.3936 12.9346 23.9062C12.9346 24.4043 12.5537 24.7852 12.0264 24.7852ZM11.9824 13.1104C11.3525 13.1104 10.9863 12.7734 10.9863 12.1289C10.9863 12.0703 10.9863 12.0117 10.9863 11.9678C10.9863 10.7812 11.6309 10.1367 12.4805 9.53613C13.5059 8.83301 13.9746 8.45215 13.9746 7.70508C13.9746 6.84082 13.3301 6.26953 12.2607 6.26953C11.4697 6.26953 10.8838 6.66504 10.5029 7.35352L10.2979 7.61719C10.0781 7.9248 9.8291 8.11523 9.38965 8.11523C8.97949 8.11523 8.52539 7.80762 8.52539 7.25098C8.52539 7.0752 8.54004 6.91406 8.58398 6.75293C8.90625 5.41992 10.6055 4.55566 12.3486 4.55566C14.3555 4.55566 16.1279 5.63965 16.1279 7.61719C16.1279 9.03809 15.293 9.77051 14.1504 10.5176C13.3447 11.0596 12.9932 11.4404 12.9932 12.0557C12.9932 12.1143 12.9932 12.1582 12.9932 12.2168C12.9932 12.7148 12.5977 13.1104 11.9824 13.1104ZM11.9678 16.5967C11.2354 16.5967 10.6201 16.0107 10.6201 15.3223C10.6201 14.6045 11.2207 14.0186 11.9678 14.0186C12.6855 14.0186 13.2861 14.5898 13.2861 15.3223C13.2861 16.0254 12.6562 16.5967 11.9678 16.5967ZM0 26.8213C0 29.8828 1.50879 31.4062 4.54102 31.4062L20.0977 31.4062C23.1299 31.4062 24.6387 29.8828 24.6387 26.8213L24.6387 4.59961C24.6387 1.55273 23.1299 0 20.0977 0L4.54102 0C1.50879 0 0 1.55273 0 4.59961Z" fill="#5ac8f5"/>
 </g>
</svg>
