<?xml version="1.0" encoding="UTF-8"?>
<!--Generator: Apple Native CoreSVG 326-->
<!DOCTYPE svg
PUBLIC "-//W3C//DTD SVG 1.1//EN"
       "http://www.w3.org/Graphics/SVG/1.1/DTD/svg11.dtd">
<svg version="1.1" xmlns="http://www.w3.org/2000/svg" xmlns:xlink="http://www.w3.org/1999/xlink" viewBox="0 0 25.0049 31.3916">
 <g>
  <rect height="31.3916" opacity="0" width="25.0049" x="0" y="0"/>
  <path d="M8.75977 9.36035C8.21777 9.36035 7.76367 8.90625 7.76367 8.36426C7.76367 7.80762 8.21777 7.36816 8.75977 7.36816L20.0684 7.36816C20.6104 7.36816 21.0645 7.80762 21.0645 8.36426C21.0645 8.90625 20.6104 9.36035 20.0684 9.36035ZM8.75977 13.5205C8.21777 13.5205 7.76367 13.0664 7.76367 12.5098C7.76367 11.9678 8.21777 11.5283 8.75977 11.5283L17.3438 11.5283C17.9004 11.5283 18.3398 11.9678 18.3398 12.5098C18.3398 13.0664 17.9004 13.5205 17.3438 13.5205ZM4.49707 31.3916L23.4668 31.3916C24.1113 31.3916 24.6387 30.8789 24.6387 30.2197C24.6387 29.707 24.2871 29.2529 23.8184 29.0918C21.9727 28.3594 21.5918 25.9717 23.4082 24.1406C23.9648 23.584 24.6387 22.8662 24.6387 21.4014L24.6387 4.59961C24.6387 1.55273 23.1299 0 20.0977 0L4.54102 0C1.50879 0 0 1.53809 0 4.59961L0 26.8652C0 29.8828 1.52344 31.3916 4.49707 31.3916ZM4.62891 29.0332C3.14941 29.0332 2.3584 28.2422 2.3584 26.8506C2.3584 25.5322 3.2959 24.6826 4.76074 24.6826L19.79 24.6826C19.9805 24.6826 20.1562 24.668 20.3027 24.6387C19.6143 26.1621 19.7314 27.7734 20.5078 29.0332ZM4.18945 22.4561C3.73535 22.4561 3.35449 22.0752 3.35449 21.6064L3.35449 3.10547C3.35449 2.63672 3.73535 2.27051 4.18945 2.27051C4.64355 2.27051 5.03906 2.63672 5.03906 3.10547L5.03906 21.6064C5.03906 22.0752 4.64355 22.4561 4.18945 22.4561Z" fill="#55bef0"/>
 </g>
</svg>
