<?xml version="1.0" encoding="UTF-8"?>
<!--Generator: Apple Native CoreSVG 326-->
<!DOCTYPE svg
PUBLIC "-//W3C//DTD SVG 1.1//EN"
       "http://www.w3.org/Graphics/SVG/1.1/DTD/svg11.dtd">
<svg version="1.1" xmlns="http://www.w3.org/2000/svg" xmlns:xlink="http://www.w3.org/1999/xlink" viewBox="0 0 25.0049 31.4209">
 <g>
  <rect height="31.4209" opacity="0" width="25.0049" x="0" y="0"/>
  <path d="M6.5918 8.27637C6.0498 8.27637 5.6543 7.85156 5.6543 7.32422C5.6543 6.81152 6.0498 6.41602 6.5918 6.41602L18.0615 6.41602C18.5889 6.41602 18.9844 6.81152 18.9844 7.32422C18.9844 7.85156 18.5889 8.27637 18.0615 8.27637ZM6.5918 13.5498C6.0498 13.5498 5.6543 13.125 5.6543 12.5977C5.6543 12.085 6.0498 11.6895 6.5918 11.6895L18.0615 11.6895C18.5889 11.6895 18.9844 12.085 18.9844 12.5977C18.9844 13.125 18.5889 13.5498 18.0615 13.5498ZM6.5918 18.8232C6.0498 18.8232 5.6543 18.4131 5.6543 17.9004C5.6543 17.373 6.0498 16.9629 6.5918 16.9629L12.0117 16.9629C12.5684 16.9629 12.9492 17.373 12.9492 17.9004C12.9492 18.4131 12.5684 18.8232 12.0117 18.8232ZM0 26.8213C0 29.8828 1.50879 31.4062 4.54102 31.4062L20.0977 31.4062C23.1299 31.4062 24.6387 29.8828 24.6387 26.8213L24.6387 4.59961C24.6387 1.55273 23.1299 0 20.0977 0L4.54102 0C1.50879 0 0 1.55273 0 4.59961Z" fill="#34C759"/>
 </g>
</svg>
