<?xml version="1.0" encoding="UTF-8"?>
<!--Generator: Apple Native CoreSVG 326-->
<!DOCTYPE svg
PUBLIC "-//W3C//DTD SVG 1.1//EN"
       "http://www.w3.org/Graphics/SVG/1.1/DTD/svg11.dtd">
<svg version="1.1" xmlns="http://www.w3.org/2000/svg" xmlns:xlink="http://www.w3.org/1999/xlink" viewBox="0 0 35.182 35.2296">
 <g>
  <rect height="35.2296" opacity="0" width="35.182" x="0" y="0"/>
  <path d="M27.5592 26.0157L29.112 26.0889C29.5954 26.1036 30.0934 26.4258 30.3571 26.9092L33.0085 31.7872C33.2575 32.2559 33.3161 32.6075 33.0378 32.8858L31.3239 34.5997C31.0309 34.8926 30.6794 34.8194 30.2399 34.5997L25.3327 31.919C24.8346 31.67 24.527 31.1573 24.5124 30.7032L24.4391 29.1505L17.8832 22.5945C18.6861 21.5769 19.6313 20.4601 20.7581 19.2276ZM9.71745 3.12018L18.4568 11.8719C18.5422 12.1176 18.6431 12.3595 18.7555 12.5977C15.1112 16.1928 12.3299 18.3731 10.11 19.8579L1.54362 11.2794C-0.507158 9.22858-0.507158 7.03131 1.49968 5.02448L3.44792 3.07624C5.45476 1.0694 7.65202 1.0694 9.71745 3.12018ZM4.48796 7.98346C4.26823 8.23249 4.25358 8.5987 4.48796 8.83307L10.3034 14.6192C10.5378 14.8536 10.9186 14.8536 11.1384 14.6192C11.3581 14.3995 11.3727 14.0479 11.1384 13.8135L5.30827 7.98346C5.10319 7.79303 4.72233 7.76374 4.48796 7.98346ZM6.42155 6.07917C6.18718 6.31354 6.20183 6.6651 6.42155 6.88483L12.2223 12.7296C12.4421 12.9639 12.8522 12.9346 13.0426 12.7296C13.277 12.4659 13.277 12.0997 13.0573 11.8799L7.24187 6.07917C7.00749 5.84479 6.62663 5.85944 6.42155 6.07917Z" fill="#55bef0"/>
  <path d="M2.29069 33.3253C4.83952 35.8448 8.25261 35.8741 10.7575 33.3546C13.9069 30.1758 13.4089 26.6016 23.0182 16.8458C26.153 18.3253 29.9469 17.8272 32.4665 15.3223C35.1032 12.6856 35.5573 8.52545 33.5944 5.15631L29.61 9.14069C29.2145 9.5362 28.7165 9.56549 28.2917 9.14069L26.5046 7.33893C26.0798 6.89948 26.0358 6.38678 26.4313 5.99127L30.4303 2.02155C27.0905 0.0733061 22.945 0.512759 20.3083 3.16413C17.7887 5.68366 17.276 9.46295 18.7555 12.5977C9.01433 22.2071 5.44011 21.709 2.2614 24.8438C-0.272783 27.3487-0.243486 30.7764 2.29069 33.3253ZM21.8903 13.7256C19.2829 11.1182 19.1803 6.98737 21.6706 4.52643C23.0768 3.10553 25.0837 2.53424 27.0026 2.84186L24.8786 4.96588C23.7946 6.03522 23.8239 7.41217 24.9518 8.51081L27.1198 10.6641C28.2038 11.7481 29.5954 11.7774 30.6208 10.7374L32.7741 8.5694C33.0964 10.5176 32.5104 12.5245 31.0895 13.96C28.6139 16.4356 24.5124 16.3184 21.8903 13.7256ZM3.74089 31.8751C2.05632 30.1612 2.08562 27.9786 3.69694 26.3526C7.24187 22.837 9.35124 24.3311 19.737 14.1798C19.9714 14.502 20.235 14.795 20.5134 15.088C20.7917 15.3663 21.0993 15.6446 21.4216 15.879C11.2848 26.2647 12.779 28.3741 9.26335 31.8897C7.63737 33.5303 5.44011 33.545 3.74089 31.8751ZM6.4655 30.9962C7.46159 30.9962 8.2819 30.1758 8.2819 29.1798C8.2819 28.1837 7.46159 27.378 6.4655 27.378C5.4694 27.378 4.66374 28.1837 4.66374 29.1798C4.66374 30.1758 5.4694 30.9962 6.4655 30.9962Z" fill="#55bef0"/>
 </g>
</svg>
