<?xml version="1.0" encoding="UTF-8"?>
<!--Generator: Apple Native CoreSVG 326-->
<!DOCTYPE svg
PUBLIC "-//W3C//DTD SVG 1.1//EN"
       "http://www.w3.org/Graphics/SVG/1.1/DTD/svg11.dtd">
<svg version="1.1" xmlns="http://www.w3.org/2000/svg" xmlns:xlink="http://www.w3.org/1999/xlink" viewBox="0 0 35.3467 30.835">
 <g>
  <rect height="30.835" opacity="0" width="35.3467" x="0" y="0"/>
  <path d="M13.5352 28.4473L13.5352 19.834C13.5352 19.1602 13.9893 18.7207 14.6631 18.7207L20.332 18.7207C21.0205 18.7207 21.4453 19.1602 21.4453 19.834L21.4453 28.4473ZM4.57031 27.583C4.57031 29.6191 5.80078 30.8057 7.86621 30.8057L27.1289 30.8057C29.1943 30.8057 30.4102 29.6191 30.4102 27.583L30.4102 15.9521L18.3691 5.85938C17.8125 5.39062 17.1533 5.40527 16.6113 5.85938L4.57031 15.9521ZM1.25977 15.6445C1.66992 15.6445 2.00684 15.4248 2.31445 15.1758L16.9775 2.85645C17.1387 2.72461 17.3291 2.65137 17.4902 2.65137C17.666 2.65137 17.8418 2.72461 18.0029 2.85645L32.6807 15.1758C32.9736 15.4248 33.3105 15.6445 33.7207 15.6445C34.5117 15.6445 34.9805 15.0732 34.9805 14.4727C34.9805 14.1357 34.8486 13.7842 34.5117 13.5205L19.248 0.703125C18.6914 0.234375 18.0908 0 17.4902 0C16.8896 0 16.2891 0.234375 15.7324 0.703125L0.46875 13.5205C0.146484 13.7842 0 14.1357 0 14.4727C0 15.0732 0.46875 15.6445 1.25977 15.6445ZM27.0264 7.86621L30.7031 10.9717L30.7031 4.36523C30.7031 3.7207 30.293 3.31055 29.6484 3.31055L28.0811 3.31055C27.4512 3.31055 27.0264 3.7207 27.0264 4.36523Z"  fill-opacity="1"/>
 </g>
</svg>
