<svg id="Calque_1" data-name="Calque 1" xmlns="http://www.w3.org/2000/svg" viewBox="0 0 60 60"><circle cx="30" cy="30" r="27.93382" /><path d="M45.889,24.01372l-.005.028c-.45666.45789-.91937.90974-1.37318,1.37047-.42986.43643-.87329.85934-1.29649,1.30237a5.04548,5.04548,0,0,1-.58605.50237,5.35537,5.35537,0,0,1-1.34877.76976,6.35211,6.35211,0,0,1-1.22951.31337,5.25342,5.25342,0,0,1-1.59652-.012c-.07938-.01093-.12531-.04055-.13-.13646-.02107-.43042-.01018-.86089-.01429-1.29131-.00123-.12769.04766-.16049.17122-.13741a4.10218,4.10218,0,0,0,.8884.08263,3.82389,3.82389,0,0,0,1.29366-.24469A3.582,3.582,0,0,0,42.025,25.705q2.21858-2.21447,4.43355-4.43256c.1604-.16044.3215-.31974.46648-.49543.06342-.07685.067-.12626-.00344-.19566-.30747-.303-.61032-.61069-.91736-.91414a8.58188,8.58188,0,0,0-.6457-.6193.17815.17815,0,0,1-.03439-.03136c-.36247-.38386-.73193-.76071-1.12144-1.11752-.25193-.27332-.529-.52152-.78668-.789-.49281-.51148-1.00559-1.00293-1.5079-1.50487a3.7386,3.7386,0,0,0-.94348-.62706A3.00816,3.00816,0,0,0,40.33,14.749a3.474,3.474,0,0,0-2.12463.01078c-.12649.04043-.256.07065-.38068.11759-.16422.06183-.213.03095-.21365-.14513-.00165-.45446-.00536-.909.00193-1.36332.00778-.10339.10473-.09159.16477-.12731a1.96694,1.96694,0,0,1,.19454-.08054,6.85558,6.85558,0,0,1,1.9304-.10034,5.48492,5.48492,0,0,1,2.25371.79366,5.8638,5.8638,0,0,1,1.11451.90586c.31841.31984.65253.62588.96042.955.4637.49569.96869.94877,1.43863,1.4382.34588.36023.70623.70963,1.0611,1.0624.46959.46681.939.93447,1.40282,1.40737.298.30386.59633.60814.90038.9063.16352.16036.16594.15789.00844.32546-.2454.23745-.49751.47066-.72007.72819-.21.243-.45879.44236-.67858.67366-.38373.40381-.78631.78989-1.175,1.18937a1.47827,1.47827,0,0,1-.17133.18589,1.89141,1.89141,0,0,0-.31937.3169C45.95613,23.98089,45.9119,23.98257,45.889,24.01372Z" fill="#fff" stroke="#fff" stroke-miterlimit="10" stroke-width="0.25"/><path d="M26.70327,19.81284a2.58954,2.58954,0,0,0-.3012-.86462,2.15836,2.15836,0,0,0-.53781-.84748q-2.49095-2.51244-5-5.00689c-.1387-.13862-.20352-.14165-.33488-.01107q-.68435.68021-1.36514,1.364a.28942.28942,0,0,0-.08973.13733c-.45751.452-.91652.90255-1.37213,1.35649-.67951.677-1.36262,1.35061-2.03311,2.03649a3.69642,3.69642,0,0,0-1.0935,2.61413,4.049,4.049,0,0,0,.24982,1.5151c.08171.21627.06144.23888-.16837.23939-.36606.0008-.73249-.00937-1.098.00448a.27147.27147,0,0,1-.30847-.22985,6.64509,6.64509,0,0,1-.1706-.96366,5.578,5.578,0,0,1,.17713-1.94032c.0465-.2059.16044-.39024.19332-.60062a6.65818,6.65818,0,0,0,.33094-.66578c.10076-.0533.13115-.16187.19149-.24642a9.71039,9.71039,0,0,1,1.10528-1.25863c.32241-.31829.65286-.63036.962-.96382.39487-.4259.81812-.82547,1.229-1.2365.446-.44614.88981-.89452,1.33843-1.338.44438-.43933.89585-.8715,1.33961-1.31146.20062-.1989.38819-.41089.5852-.61353.15036-.15465.16444-.15321.31808.00038q2.60174,2.60089,5.20268,5.20257A11.011,11.011,0,0,1,27.372,17.63457a5.20281,5.20281,0,0,1,.73524,1.57089,6.1661,6.1661,0,0,1,.2281,1.6725c.00047.21859-.081.4245-.07755.64269a.11938.11938,0,0,1-.13193.12217c-.41057.00191-.82116.00369-1.23172.00106-.1445-.00092-.13382-.11374-.12049-.20576a3.92209,3.92209,0,0,0,.06043-.861A2.021,2.021,0,0,0,26.70327,19.81284Z" fill="#fff" stroke="#fff" stroke-miterlimit="10" stroke-width="0.25"/><path d="M50.1485,32.45567q.00012,2.13918-.00007,4.27836c0,.253-.01051.26282-.26212.26281-2.80232-.00014-5.6048.01743-8.40689-.008a5.21328,5.21328,0,0,1-3.66716-1.53357c-.19264-.18561-.35878-.39188-.53362-.59165-.15087-.17237-.14732-.21752.00966-.37488q.388-.38892.77772-.77611c.14-.139.16522-.14241.27577.02662a3.92612,3.92612,0,0,0,.97907,1.009,3.65325,3.65325,0,0,0,1.33193.61634,6.52114,6.52114,0,0,0,1.46817.13133c.80456.00723,1.60923.00154,2.41386.00157q1.921.00008,3.84206.00037c.2664,0,.27217-.00536.27219-.26868.00008-2.28068.01771-4.56156-.00788-6.842A3.79188,3.79188,0,0,0,47.24877,25.446a3.833,3.833,0,0,0-.99966-.61695c-.1289-.05483-.14944-.11718-.05384-.22a10.773,10.773,0,0,1,.91976-.91164.17488.17488,0,0,1,.21522-.01419,4.79335,4.79335,0,0,1,.96089.65048,5.62061,5.62061,0,0,1,1.3003,1.68754,5.53626,5.53626,0,0,1,.46675,1.41443,6.85766,6.85766,0,0,1,.09048,1.37433Q50.14753,30.63279,50.1485,32.45567Z" fill="#fff" stroke="#fff" stroke-miterlimit="10" stroke-width="0.25"/><path d="M28.76675,36.63282c-.03123-.12216-.14245-.18-.21587-.26823-.03831-.046-.10656-.088-.08406-.1519.02543-.07224.10558-.04343.16269-.04352q1.60625-.00257,3.2125-.00182,2.44683,0,4.89365.00061c.24557.00007.25666.00985.25668.25081q.00029,3.55368-.00087,7.10738a.89638.89638,0,0,1-.00347.11635c-.01339.10148-.07073.11335-.13266.04528-.369-.40553-.78546-.76324-1.16573-1.15817a.73092.73092,0,0,1-.19791-.57808q.00538-1.99608.002-3.99218c0-.27219-.02111-.29342-.29438-.29344-1.6867-.00015-3.37342-.00307-5.06009.00467a.61031.61031,0,0,1-.49488-.20711c-.23323-.25247-.48376-.489-.72714-.73208a.28106.28106,0,0,0-.15035-.09842Z" fill="#fff" stroke="#fff" stroke-miterlimit="10" stroke-width="0.25"/><path d="M39.65782,46.65618a.29066.29066,0,0,0,.14974-.09926q1.68118-1.68051,3.362-3.36137c.03114-.03115.05715-.06743.08556-.1013a10.16745,10.16745,0,0,0,1.64626-1.79666,3.66635,3.66635,0,0,0,.51917-1.66462,4.1952,4.1952,0,0,0-.26413-1.82784c-.03335-.08461-.038-.17306.08065-.15886.18461.02209.3638-.02768.54694-.01479.24853.01749.49784.02719.747.03143.13108.00222.17079.09414.20163.1875a3.43861,3.43861,0,0,1,.15065.71359,5.78651,5.78651,0,0,1-.07032,1.90238,5.39669,5.39669,0,0,1-.61344,1.57162,7.78514,7.78514,0,0,1-1.23616,1.49281q-.98568.99154-1.97651,1.978c-.04685.04693-.08856.099-.13267.14866-.05344.04824-.10911.09423-.16.145q-1.6079,1.60621-3.21491,3.21333c-.16993.16984-.17142.17024-.34139.00035q-2.92639-2.92493-5.852-5.85066a5.3706,5.3706,0,0,1-1.53228-2.909,5.01436,5.01436,0,0,1-.02013-1.7689.16333.16333,0,0,1,.18121-.15362q.59939-.00109,1.19877-.00042c.11686.0001.15535.06164.13839.173-.02671.17535-.06057.35076-.07056.52732a3.62318,3.62318,0,0,0,.51431,2.1961,2.91946,2.91946,0,0,0,.62488.83273c.66.67294,1.33089,1.3353,1.99732,2.002q1.29246,1.293,2.58492,2.58594c.09011.09009.18476.1757.27382.26678a.16532.16532,0,0,0,.2613.00729A.96564.96564,0,0,0,39.65782,46.65618Z" fill="#fff" stroke="#fff" stroke-miterlimit="10" stroke-width="0.25"/><path d="M35.4284,35.43347a.30785.30785,0,0,1-.24856.06757q-.64921,0-1.29843.00048a2.08811,2.08811,0,0,0-.43134.02181.10035.10035,0,0,1-.11924-.03575c-.02892-.05094.01523-.08129.0435-.11358.0219-.025.0464-.04774.06994-.07128q2.84839-2.84868,5.6969-5.69726c.162-.162.17141-.16215.33068-.003q1.87782,1.877,3.75517,3.75455.6516.65163,1.30155,1.30492c.03207.03232.09937.0593.07053.11665-.02077.04132-.08106.01961-.124.0236-.34291.03193-.68578-.01668-1.02883-.00041a7.03169,7.03169,0,0,1-.86141.01015,1.01488,1.01488,0,0,1-.32042-.283c-.9361-.93953-1.87654-1.87475-2.80992-2.817-.12981-.131-.20568-.08469-.31145.02143q-1.78041,1.78631-3.56637,3.56709C35.5298,35.34736,35.47794,35.38926,35.4284,35.43347Z" fill="#fff" stroke="#fff" stroke-miterlimit="10" stroke-width="0.25"/><path d="M24.60855,11.39223c.17146-.03376.25973-.18413.38112-.28352a5.50377,5.50377,0,0,1,2.51741-1.16509,5.40059,5.40059,0,0,1,.97275-.082c1.60823-.00875,3.21665-.01432,4.82475.003a8.06033,8.06033,0,0,1,1.20944.01621,2.0439,2.0439,0,0,0,.44609-.02429,5.255,5.255,0,0,0,.9031,0l.6956,0a.46991.46991,0,0,0,.24473.03077c.11384-.002.15791.05122.15816.162.00185.83667.0658,1.67285.01275,2.51017-.01149.18149.01583.36508.01608.54771.00166,1.24274-.00622,2.48553.00374,3.72819.00528.66022-.02013,1.31961-.04112,1.97855a5.02713,5.02713,0,0,1-.53453,1.97246,5.83624,5.83624,0,0,1-1.21442,1.627,5.52253,5.52253,0,0,1-.44777.367.12337.12337,0,0,1-.18893-.01327c-.29337-.295-.59034-.58648-.884-.88122-.09677-.09714-.0256-.166.05653-.21009a2.765,2.765,0,0,0,.66115-.55176,3.86859,3.86859,0,0,0,1.02706-1.9765l.0009-.09805a3.2797,3.2797,0,0,0,.05084-.52443q-.00385-3.47127-.00251-6.94254a.42735.42735,0,0,0-.01505-.19667.45734.45734,0,0,0-.24428-.032q-3.45467-.00087-6.90933.00121a3.62726,3.62726,0,0,0-1.93523.57607,3.80093,3.80093,0,0,0-1.5524,1.80936c-.06045.14672-.11217.156-.22042.03423-.27637-.31089-.62059-.55322-.88005-.882a.186.186,0,0,1-.01228-.24994,5.45233,5.45233,0,0,1,.73955-1.0198A.705.705,0,0,0,24.60855,11.39223Z" fill="#fff" stroke="#fff" stroke-miterlimit="10" stroke-width="0.25"/><path d="M30.63207,22.77806q.43218.44868.8646.89711c.03428.03548.08708.06691.06239.12328-.02417.05518-.0855.04245-.13375.04255q-.73252.00153-1.46506.0007-3.338,0-6.676,0c-.27466,0-.27761-.00263-.27761-.27934q0-3.571.00048-7.14206c0-.03329-.00107-.06669.00121-.09984.00259-.038-.001-.08366.04549-.09721.03651-.01064.06047.02157.08369.04454.15379.15207.298.3134.447.46977a6.37341,6.37341,0,0,0,.71618.69455c.26787.2049.23884.50325.22623.77749-.01326.28836-.01717.57626-.01806.86431q-.00409,1.32353.00037,2.64707c.00045.14933.01874.29857.02772.44792a.13492.13492,0,0,0,.14942.14179c.04438.00086.08876.00209.13314.00209q2.42235-.00033,4.84468-.0012a2.17216,2.17216,0,0,0,.28254-.0087.3197.3197,0,0,1,.28369.10245c.1306.12767.26751.24888.40174.37283Z" fill="#fff" stroke="#fff" stroke-miterlimit="10" stroke-width="0.25"/><path d="M13.113,34.80234a2.29268,2.29268,0,0,0,.56619.331c.0388.02045.08021.036.12058.05343.1091.04707.13609.10485.03356.19234a.636.636,0,0,0-.08748.1182c-.28815.2452-.51568.55-.79427.80579a.24019.24019,0,0,1-.32343.04247,5.74774,5.74774,0,0,1-.81956-.5572,5.62069,5.62069,0,0,1-.9759-1.03046.67225.67225,0,0,1-.08188-.16008,8.34361,8.34361,0,0,1-.4992-.97265,5.31669,5.31669,0,0,1-.39876-1.89151q-.00282-4.2376-.00157-8.47522c0-.23086.01578-.24656.24526-.2466q4.2876-.00078,8.5752.00172a5.11867,5.11867,0,0,1,1.56106.31039c.05807.01878.11639.03677.1746.05514a5.51616,5.51616,0,0,1,2.31347,1.74956.858.858,0,0,0,.08249.081.24279.24279,0,0,1-.06822.29856c-.268.25768-.53038.5212-.795.78237-.14565.14372-.17874.14956-.28723-.02724a3.68257,3.68257,0,0,0-.96182-1.00317,3.60816,3.60816,0,0,0-1.20361-.5858,7.64154,7.64154,0,0,0-2.28119-.14829c-.14527.00376-.28671-.01682-.43067-.01657q-2.5724.00452-5.14482.00226c-.27628,0-.27882.00248-.27887.2782q-.00037,1.94817,0,3.89635c0,.93161-.007,1.86327.00184,2.79479a3.97405,3.97405,0,0,0,.87274,2.52954A2.97277,2.97277,0,0,0,13.113,34.80234Z" fill="#fff" stroke="#fff" stroke-miterlimit="10" stroke-width="0.25"/><path d="M16.24174,36.94411c.39708-.43861.81987-.82336,1.21232-1.23691a.73266.73266,0,0,1,.60707-.21167c1.32649.00628,2.653.003,3.97954.00263.28906-.00008.29741-.00874.29747-.30053q.0003-1.54019,0-3.08037c0-.69251.00094-1.385-.0009-2.07753a.36423.36423,0,0,1,.10167-.28614c.41473-.40916.8247-.82316,1.23765-1.23414.0332-.033.06388-.0944.12-.07019.05916.0255.024.08644.025.13389.00257.116.01432.23186.01435.34778q.00125,3.88794.00041,7.77587c0,.28913-.00069.28983-.28466.28984q-3.47169,0-6.94339-.00137A.66844.66844,0,0,1,16.24174,36.94411Z" fill="#fff" stroke="#fff" stroke-miterlimit="10" stroke-width="0.25"/><path d="M33.59728,48.05759a2.00847,2.00847,0,0,0,.62744-.4533,3.45517,3.45517,0,0,0,.92544-1.30337c.08208-.19911.12728-.21172.2773-.06487.28926.28313.57122.5737.8569.8605a.16826.16826,0,0,1,.03545.22323,4.84178,4.84178,0,0,1-.92777,1.25171,5.49375,5.49375,0,0,1-3.79921,1.579q-4.06263.00272-8.12526.00123c-.38437.00005-.38437.001-.46047-.364q.0007-4.04979.00073-8.09959a5.45242,5.45242,0,0,1,1.27707-3.58469.36922.36922,0,0,0,.08945-.138q.37223-.33154.7443-.66321c.19135-.171.23448-.17085.41121.00586q.37668.3766.75292.75367c.14869.14955.14312.1659-.02809.2809A3.87779,3.87779,0,0,0,24.68732,40.447a.80742.80742,0,0,0-.01886.14782,2.49556,2.49556,0,0,0-.1553.97856c-.01133,2.26367-.00675,4.52742-.00628,6.79114.00006.26053.029.28786.28556.28815q.78233.00089,1.56464-.00024c1.73557,0,3.47128.01332,5.20662-.00613A3.61336,3.61336,0,0,0,33.59728,48.05759Z" fill="#fff" stroke="#fff" stroke-miterlimit="10" stroke-width="0.25"/><path d="M21.57219,27.573c.405-.41006.80756-.8225,1.21546-1.22961q.88857-.88683,1.78316-1.76762a.37417.37417,0,0,1,.29057-.09838c.54934.00018,1.09869-.00053,1.648.00077.05854.00014.13569-.018.16208.052.02645.07011-.0468.106-.08748.14687q-1.13905,1.143-2.28047,2.28354-1.70082,1.70065-3.4023,3.40063c-.21538.21525-.24663.22-.46037-.01111-.79894-.864-1.65405-1.6722-2.48084-2.5085-.82312-.83259-1.65482-1.65671-2.481-2.48624-.03906-.03922-.12043-.071-.08558-.143.02713-.05609.09965-.03539.1531-.03553.56477-.00141,1.12957.00174,1.6943-.00325a.46139.46139,0,0,1,.34778.1625q1.45695,1.46225,2.91807,2.92034c.184.18391.17562.17315.36889.00522C21.12305,28.04647,21.32082,27.78287,21.57219,27.573Z" fill="#fff" stroke="#fff" stroke-miterlimit="10" stroke-width="0.25"/><path d="M27.56829,38.431c-.44937-.4442-.90109-.886-1.3475-1.33319-.55189-.55282-1.09936-1.11005-1.64873-1.66538a.45294.45294,0,0,1-.09887-.342q-.00182-.799,0-1.59792c.00014-.05813-.02374-.13655.04567-.16395.06815-.0269.10663.04505.14785.08621q1.47227,1.4702,2.94355,2.94138c.51492.51243,1.04627,1.00863,1.55329,1.52866.42192.43274.83971.8696,1.27039,1.29365.10571.10407.09291.17641-.006.2751q-2.55126,2.5451-5.099,5.09369c-.03259.03255-.06087.09593-.11945.06737-.04885-.02383-.01634-.07969-.01943-.12175-.0407-.55406-.0057-1.109-.02046-1.66324a.48635.48635,0,0,1,.16018-.38239q1.48712-1.47886,2.9675-2.9645c.167-.16708.16782-.17319-.00347-.34246C28.05317,38.9025,27.81021,38.66725,27.56829,38.431Z" fill="#fff" stroke="#fff" stroke-miterlimit="10" stroke-width="0.25"/><path d="M21.40638,45.39631a2.29278,2.29278,0,0,0,.63441-.1663c.0419-.013.08218-.03126.123-.04749.11042-.04386.17036-.02208.15973.11228a.63618.63618,0,0,0,.02172.14544c-.03037.37713.02429.75356.00815,1.13141a.2402.2402,0,0,1-.19867.25873,5.74811,5.74811,0,0,1-.97352.18552,5.62125,5.62125,0,0,1-1.4187-.03858.67235.67235,0,0,1-.17109-.0553,8.34375,8.34375,0,0,1-1.04076-.33478,5.31641,5.31641,0,0,1-1.61947-1.05553q-2.99844-2.99445-5.994-5.99178c-.16324-.16324-.16319-.1855-.00095-.3478q3.03125-3.03234,6.0648-6.06235a5.11827,5.11827,0,0,1,1.32331-.88436c.05434-.02779.1083-.05631.16245-.08448a5.51635,5.51635,0,0,1,2.873-.39875.857.857,0,0,0,.1156-.001.24278.24278,0,0,1,.16288.25935c-.0073.37171-.00649.74358-.009,1.11538-.00136.20462-.02063.23214-.22236.18384a3.68256,3.68256,0,0,0-1.38946-.02923,3.6079,3.6079,0,0,0-1.26529.43685,7.64159,7.64159,0,0,0-1.71791,1.50819c-.10006.10539-.21463.19084-.31625.29281q-1.81576,1.82216-3.63633,3.63954c-.19533.1954-.1954.19891-.00048.39391q1.3773,1.37784,2.75517,2.7551c.65876.65873,1.31261,1.32246,1.97752,1.97492a3.97406,3.97406,0,0,0,2.40577,1.17153A2.97272,2.97272,0,0,0,21.40638,45.39631Z" fill="#fff" stroke="#fff" stroke-miterlimit="10" stroke-width="0.25"/><path d="M35.44742,24.6146a.30781.30781,0,0,1,.06757.24856q0,.64921.00049,1.29843a2.08735,2.08735,0,0,0,.02181.43134.10036.10036,0,0,1-.03575.11924c-.05094.02892-.08129-.01522-.11359-.0435-.025-.0219-.04773-.0464-.07127-.06994q-2.84869-2.84839-5.69726-5.6969c-.162-.162-.16215-.17141-.003-.33068q1.877-1.87782,3.75454-3.75517.65165-.6516,1.30493-1.30155c.03231-.03207.0593-.09937.11665-.07053.04132.02078.0196.08106.0236.124.03193.34291-.01668.68578-.00042,1.02883a7.0297,7.0297,0,0,1,.01015.86141,1.01485,1.01485,0,0,1-.283.32042c-.93954.9361-1.87475,1.87655-2.817,2.80992-.131.12981-.08468.20568.02143.31145q1.78632,1.78041,3.56709,3.56637C35.36132,24.5132,35.40322,24.56506,35.44742,24.6146Z" fill="#fff" stroke="#fff" stroke-miterlimit="10" stroke-width="0.25"/><path d="M37.70681,29.96584a.30782.30782,0,0,1-.128.22353q-.45907.45906-.91779.91848a2.08713,2.08713,0,0,0-.28958.32043c-.02409.03695-.05859.07309-.1096.059-.05647-.01557-.04671-.06825-.04955-.11108-.0022-.03316-.00095-.06656-.00095-.09985q-.00021-4.02845-.00025-8.05689c0-.22913.00654-.23586.23174-.23591q2.65507-.00056,5.31016-.00044.92154,0,1.84306.00239c.04553.00017.1122-.02834.13236.0326.01453.04392-.04346.07119-.071.10437-.21989.26505-.49671.47312-.72779.7272a7.03073,7.03073,0,0,1-.60192.61628,1.01478,1.01478,0,0,1-.42669.02646c-1.32627-.00243-2.65257.00127-3.97882-.005-.18445-.00087-.20532.08556-.20507.23538q.00417,2.52206.0005,5.04412C37.71763,29.83325,37.71059,29.89955,37.70681,29.96584Z" fill="#fff" stroke="#fff" stroke-miterlimit="10" stroke-width="0.25"/></svg>