<svg id="Calque_1" data-name="Calque 1" xmlns="http://www.w3.org/2000/svg" viewBox="0 0 60 60"><defs><style>.cls-1{fill:#fd2064;}.cls-2{fill:#fff;stroke:#fff;stroke-miterlimit:10;stroke-width:0.25px;}</style></defs><circle class="cls-1" cx="30" cy="30" r="27.93"/><path class="cls-2" d="M45.89,24v0l-1.37,1.37c-.43.44-.87.86-1.3,1.3a4.7,4.7,0,0,1-.58.51,5.82,5.82,0,0,1-1.35.77,6.52,6.52,0,0,1-1.23.31,5.37,5.37,0,0,1-1.6,0c-.08,0-.12,0-.13-.14,0-.43,0-.86,0-1.29,0-.13,0-.16.17-.14a3.79,3.79,0,0,0,2.18-.16A3.68,3.68,0,0,0,42,25.71l4.43-4.44c.16-.16.32-.32.47-.49s.06-.13,0-.2L46,19.67c-.21-.21-.41-.43-.64-.62l0,0c-.36-.39-.73-.76-1.12-1.12s-.53-.52-.78-.79c-.5-.51-1-1-1.51-1.5A3.57,3.57,0,0,0,41,15a2.8,2.8,0,0,0-.63-.23,3.41,3.41,0,0,0-2.12,0l-.39.12c-.16.06-.21,0-.21-.15V13.37c0-.1.11-.09.17-.13l.19-.08a6.94,6.94,0,0,1,1.93-.1,5.51,5.51,0,0,1,2.26.79,6.48,6.48,0,0,1,1.11.91c.32.32.65.63,1,1,.47.49,1,.94,1.44,1.43l1.06,1.07c.47.46.94.93,1.4,1.4l.9.91c.17.16.17.16,0,.32s-.49.48-.72.73-.46.45-.68.68c-.38.4-.78.79-1.17,1.19a1.45,1.45,0,0,1-.17.18A1.62,1.62,0,0,0,46,24S45.91,24,45.89,24Z"/><path class="cls-2" d="M26.7,19.81a2.38,2.38,0,0,0-.3-.86,2.06,2.06,0,0,0-.54-.85l-5-5c-.13-.13-.2-.14-.33,0l-1.37,1.37a.38.38,0,0,0-.09.13c-.45.46-.91.91-1.37,1.36-.68.68-1.36,1.35-2,2a3.64,3.64,0,0,0-1.09,2.61,4,4,0,0,0,.25,1.52c.08.21.06.24-.17.24s-.74,0-1.1,0a.27.27,0,0,1-.31-.23,6.44,6.44,0,0,1-.17-1,5.52,5.52,0,0,1,.18-1.94c0-.21.16-.39.19-.6s.23-.44.33-.67c.1-.05.13-.16.19-.25a11,11,0,0,1,1.11-1.26c.32-.31.65-.63,1-1s.82-.82,1.23-1.24l1.34-1.33L20,11.6c.2-.2.39-.42.58-.62s.17-.15.32,0l5.2,5.2a10.61,10.61,0,0,1,1.32,1.45,5.19,5.19,0,0,1,.74,1.58,6.66,6.66,0,0,1,.23,1.67c0,.22-.09.42-.08.64a.12.12,0,0,1-.13.12H26.89c-.14,0-.13-.11-.12-.2a3.12,3.12,0,0,0,.06-.86A2,2,0,0,0,26.7,19.81Z"/><path class="cls-2" d="M50.15,32.46v4.27c0,.26,0,.27-.26.27-2.81,0-5.61,0-8.41,0a5.24,5.24,0,0,1-3.67-1.53c-.19-.19-.36-.4-.53-.6s-.15-.21,0-.37l.78-.78c.14-.14.16-.14.27,0a3.92,3.92,0,0,0,1,1,3.66,3.66,0,0,0,1.33.61,6.66,6.66,0,0,0,1.47.14h6.26c.26,0,.27,0,.27-.27,0-2.28,0-4.56,0-6.84a3.78,3.78,0,0,0-1.39-2.94,3.71,3.71,0,0,0-1-.62c-.13-.06-.15-.12,0-.22a8.79,8.79,0,0,1,.92-.91.17.17,0,0,1,.21,0,4.5,4.5,0,0,1,1,.65A5.62,5.62,0,0,1,49.59,26a5.39,5.39,0,0,1,.47,1.42,7,7,0,0,1,.09,1.37Z"/><path class="cls-2" d="M28.77,36.63c0-.12-.15-.18-.22-.27s-.11-.08-.08-.15.1,0,.16,0h8.11c.24,0,.25,0,.25.25v7.22c0,.1-.07.12-.13,0-.37-.41-.79-.77-1.17-1.16a.72.72,0,0,1-.2-.58c0-1.33,0-2.66,0-4,0-.27,0-.29-.29-.29-1.69,0-3.37,0-5.06,0a.62.62,0,0,1-.5-.21c-.23-.25-.48-.49-.72-.73-.05,0-.09-.09-.15-.1Z"/><path class="cls-2" d="M39.66,46.66a.49.49,0,0,0,.15-.1l3.36-3.36.09-.11A10.32,10.32,0,0,0,44.9,41.3a3.67,3.67,0,0,0,.52-1.67,4.18,4.18,0,0,0-.26-1.82c0-.09,0-.18.08-.16s.36,0,.54,0l.75,0c.13,0,.17.1.2.19a2.9,2.9,0,0,1,.15.71,5.83,5.83,0,0,1-.07,1.91A5.28,5.28,0,0,1,46.2,42,7.67,7.67,0,0,1,45,43.53l-2,2-.14.15-.16.14L39.48,49c-.17.17-.17.17-.34,0l-5.85-5.85a5.48,5.48,0,0,1-1.54-2.91,5.26,5.26,0,0,1,0-1.77.17.17,0,0,1,.18-.16h1.2c.12,0,.16.07.14.18s-.06.35-.07.52a3.6,3.6,0,0,0,.52,2.2,3,3,0,0,0,.62.83c.66.68,1.33,1.34,2,2l2.58,2.59.28.27a.16.16,0,0,0,.26,0A1.12,1.12,0,0,0,39.66,46.66Z"/><path class="cls-2" d="M35.43,35.43c-.07.08-.16.07-.25.07h-1.3a2.07,2.07,0,0,0-.43,0,.11.11,0,0,1-.12,0c0-.05,0-.08,0-.12a.23.23,0,0,0,.07-.07l5.7-5.69c.16-.17.17-.17.33,0l3.76,3.76,1.3,1.3s.1.06.07.12-.08,0-.12,0c-.35,0-.69,0-1,0a6.32,6.32,0,0,1-.87,0c-.14-.05-.21-.18-.32-.28l-2.81-2.82c-.13-.13-.2-.08-.31,0L35.58,35.3Z"/><path class="cls-2" d="M24.61,11.39c.17,0,.26-.18.38-.28a5.51,5.51,0,0,1,2.52-1.17,5.29,5.29,0,0,1,1-.08H33.3a9.74,9.74,0,0,1,1.21,0,2.26,2.26,0,0,0,.45,0,6.76,6.76,0,0,0,.9,0h.7a.5.5,0,0,0,.24,0c.12,0,.16,0,.16.16,0,.84.07,1.67,0,2.51,0,.18,0,.36,0,.55,0,1.24,0,2.48,0,3.73,0,.66,0,1.32,0,2a5.07,5.07,0,0,1-.53,2,5.71,5.71,0,0,1-1.22,1.62,3.91,3.91,0,0,1-.44.37.12.12,0,0,1-.19,0l-.89-.88c-.09-.1,0-.17.06-.21a2.73,2.73,0,0,0,.66-.56,3.8,3.8,0,0,0,1-2v-.1a3.05,3.05,0,0,0,0-.52v-7a.41.41,0,0,0,0-.19.4.4,0,0,0-.24,0H28.31a3.6,3.6,0,0,0-1.94.57,3.86,3.86,0,0,0-1.55,1.81c-.06.15-.11.16-.22,0-.28-.31-.62-.55-.88-.88a.18.18,0,0,1,0-.25,5.2,5.2,0,0,1,.74-1A.79.79,0,0,0,24.61,11.39Z"/><path class="cls-2" d="M30.63,22.78l.87.9s.08.06.06.12-.09,0-.13,0H23.28c-.27,0-.27,0-.27-.28V16.32s0-.08,0-.1.06,0,.09.05.3.31.44.47a6.69,6.69,0,0,0,.72.69.83.83,0,0,1,.23.78c0,.29,0,.58,0,.86v2.65c0,.15,0,.3,0,.45s.05.14.15.14h5a1.41,1.41,0,0,0,.29,0,.34.34,0,0,1,.28.11l.4.37Z"/><path class="cls-2" d="M13.11,34.8a2.17,2.17,0,0,0,.57.33l.12.06c.11,0,.14.1,0,.19a.5.5,0,0,0-.08.12c-.29.24-.52.55-.8.8a.24.24,0,0,1-.32.05,6.59,6.59,0,0,1-.82-.56,5.62,5.62,0,0,1-1-1l-.08-.16a8.89,8.89,0,0,1-.5-1,5.38,5.38,0,0,1-.4-1.9V23.26c0-.23,0-.25.25-.25h8.57a5.21,5.21,0,0,1,1.56.31l.18.06a5.46,5.46,0,0,1,2.31,1.75s.06.05.08.08a.24.24,0,0,1-.06.3l-.8.78c-.15.14-.18.15-.29,0a3.81,3.81,0,0,0-1-1,3.73,3.73,0,0,0-1.2-.59,7.94,7.94,0,0,0-2.28-.14l-.43,0H11.63c-.28,0-.28,0-.28.28v3.9c0,.93,0,1.86,0,2.79A3.94,3.94,0,0,0,12.23,34,2.89,2.89,0,0,0,13.11,34.8Z"/><path class="cls-2" d="M16.24,36.94c.4-.43.82-.82,1.21-1.23a.71.71,0,0,1,.61-.21h4c.29,0,.3,0,.3-.3V30a.36.36,0,0,1,.1-.29l1.24-1.23s.06-.09.12-.07,0,.09,0,.13,0,.24,0,.35v7.78c0,.29,0,.29-.29.29H16.61A.63.63,0,0,1,16.24,36.94Z"/><path class="cls-2" d="M33.6,48.06a2,2,0,0,0,.62-.46,3.28,3.28,0,0,0,.93-1.3c.08-.2.13-.21.28-.06s.57.57.85.86a.16.16,0,0,1,0,.22,4.79,4.79,0,0,1-.93,1.25,5.55,5.55,0,0,1-2.26,1.35,5.74,5.74,0,0,1-1.54.23H23.47c-.39,0-.39,0-.46-.36v-8.1a5.51,5.51,0,0,1,1.27-3.59.28.28,0,0,0,.09-.13l.75-.67c.19-.17.23-.17.41,0l.75.75c.15.15.15.17,0,.28a3.94,3.94,0,0,0-1.56,2.11.34.34,0,0,0,0,.14,2.59,2.59,0,0,0-.16,1c0,2.27,0,4.53,0,6.79,0,.27,0,.29.28.29h1.57c1.73,0,3.47,0,5.2,0A3.7,3.7,0,0,0,33.6,48.06Z"/><path class="cls-2" d="M21.57,27.57l1.22-1.23,1.78-1.76a.35.35,0,0,1,.29-.1h1.65c.06,0,.14,0,.16.05s-.05.11-.09.15L24.3,27c-1.13,1.13-2.26,2.27-3.4,3.4-.21.22-.25.22-.46,0-.8-.86-1.65-1.67-2.48-2.51l-2.48-2.48s-.12-.08-.09-.15.1,0,.16,0h1.69a.47.47,0,0,1,.35.17l2.92,2.92c.18.18.17.17.37,0S21.32,27.78,21.57,27.57Z"/><path class="cls-2" d="M27.57,38.43,26.22,37.1l-1.65-1.67a.46.46,0,0,1-.1-.34v-1.6c0-.06,0-.13.05-.16s.11,0,.15.08l2.94,3c.52.51,1.05,1,1.55,1.52s.84.87,1.27,1.3c.11.1.1.17,0,.27l-5.1,5.1s-.06.09-.12.06,0-.08,0-.12c0-.55,0-1.11,0-1.66a.49.49,0,0,1,.16-.38l3-3c.16-.16.16-.17,0-.34Z"/><path class="cls-2" d="M21.41,45.4a2.8,2.8,0,0,0,.63-.17l.12,0c.11,0,.17,0,.16.11a.8.8,0,0,0,0,.15c0,.38,0,.75,0,1.13a.23.23,0,0,1-.2.26,5.45,5.45,0,0,1-2.39.15.58.58,0,0,1-.17-.06,7.84,7.84,0,0,1-1-.33,5.4,5.4,0,0,1-1.62-1.06l-6-6c-.17-.16-.17-.19,0-.35L17,33.13a5.07,5.07,0,0,1,1.32-.88l.17-.09a5.53,5.53,0,0,1,2.87-.4h.12a.25.25,0,0,1,.16.26c0,.37,0,.74,0,1.12,0,.2,0,.23-.22.18a3.62,3.62,0,0,0-1.39,0,3.5,3.5,0,0,0-1.27.44A7.5,7.5,0,0,0,17,35.24l-.31.29-3.64,3.64c-.19.19-.19.2,0,.39l2.76,2.76c.66.66,1.31,1.32,2,2a4,4,0,0,0,2.41,1.17A3,3,0,0,0,21.41,45.4Z"/><path class="cls-2" d="M35.45,24.61a.32.32,0,0,1,.06.25c0,.44,0,.87,0,1.3a2,2,0,0,0,0,.43c0,.05,0,.1,0,.12s-.08,0-.11,0l-.07-.07-5.7-5.7c-.16-.16-.16-.17,0-.33l3.75-3.75,1.31-1.31s.06-.09.11-.07,0,.08,0,.13c0,.34,0,.68,0,1a8.19,8.19,0,0,1,0,.86,1.11,1.11,0,0,1-.29.32c-.94.93-1.87,1.88-2.81,2.81-.14.13-.09.2,0,.31l3.56,3.57S35.4,24.57,35.45,24.61Z"/><path class="cls-2" d="M37.71,30a.32.32,0,0,1-.13.22l-.92.92a2.21,2.21,0,0,0-.29.32.1.1,0,0,1-.11.06s0-.07,0-.11V23.22c0-.23,0-.24.23-.24H43.6s.11,0,.13,0,0,.07-.07.1c-.22.27-.5.48-.73.73a7,7,0,0,1-.6.62,1,1,0,0,1-.43,0h-4c-.18,0-.2.08-.2.23v5.05C37.72,29.83,37.71,29.9,37.71,30Z"/></svg>