<?xml version="1.0" encoding="UTF-8"?>
<!--Generator: Apple Native CoreSVG 326-->
<!DOCTYPE svg
PUBLIC "-//W3C//DTD SVG 1.1//EN"
       "http://www.w3.org/Graphics/SVG/1.1/DTD/svg11.dtd">
<svg version="1.1" xmlns="http://www.w3.org/2000/svg" xmlns:xlink="http://www.w3.org/1999/xlink" viewBox="0 0 35.3467 30.835">
 <g>
  <rect height="30.835" opacity="0" width="35.3467" x="0" y="0"/>
  <path d="M13.2422 29.2969L21.7383 29.2969L21.7383 19.834C21.7383 19.1602 21.2988 18.7207 20.625 18.7207L14.3701 18.7207C13.6963 18.7207 13.2422 19.1602 13.2422 19.834ZM1.25977 15.6445C1.66992 15.6445 2.00684 15.4248 2.31445 15.1758L16.9775 2.85645C17.1387 2.72461 17.3291 2.65137 17.4902 2.65137C17.666 2.65137 17.8418 2.72461 18.0029 2.85645L32.6807 15.1758C32.9736 15.4248 33.3105 15.6445 33.7207 15.6445C34.5117 15.6445 34.9805 15.0732 34.9805 14.4727C34.9805 14.1357 34.8486 13.7842 34.5117 13.5205L19.248 0.703125C18.6914 0.234375 18.0908 0 17.4902 0C16.8896 0 16.2891 0.234375 15.7324 0.703125L0.46875 13.5205C0.146484 13.7842 0 14.1357 0 14.4727C0 15.0732 0.46875 15.6445 1.25977 15.6445ZM27.0264 7.86621L30.7031 10.9717L30.7031 4.36523C30.7031 3.7207 30.293 3.31055 29.6484 3.31055L28.0811 3.31055C27.4512 3.31055 27.0264 3.7207 27.0264 4.36523ZM7.58789 30.8057L27.4072 30.8057C29.4873 30.8057 30.7031 29.6191 30.7031 27.5684L30.7031 11.3379L28.3447 9.74121L28.3447 26.9824C28.3447 27.9346 27.832 28.4473 26.9092 28.4473L8.08594 28.4473C7.14844 28.4473 6.63574 27.9346 6.63574 26.9824L6.63574 9.75586L4.27734 11.3379L4.27734 27.5684C4.27734 29.6338 5.49316 30.8057 7.58789 30.8057Z" fill="black" fill-opacity="0.85"/>
 </g>
</svg>
