<svg id="Calque_1" data-name="Calque 1" xmlns="http://www.w3.org/2000/svg" xmlns:xlink="http://www.w3.org/1999/xlink" viewBox="0 0 1024 1024"><defs><style>.cls-1{fill:url(#Dégradé_sans_nom_7);}.cls-2{fill:#fff;}</style><linearGradient id="Dégradé_sans_nom_7" x1="918.54" y1="105.46" x2="105.46" y2="918.54" gradientUnits="userSpaceOnUse"><stop offset="0" stop-color="#e63458"/><stop offset="1" stop-color="#df1242"/></linearGradient></defs><rect class="cls-1" x="43.88" y="43.88" width="936.24" height="936.24" rx="210.24"/><g id="aFdZwx"><path class="cls-2" d="M630.39,254.3c0,21.84.56,43.7-.15,65.51-.89,27.46-11.84,50.55-33,68.37-11.92,10-14.81-4.07-20.74-8.56-7-5.3-.91-8.87,3.23-12.31,14.29-11.85,22.38-27.14,22.62-45.65.47-36.51,0-73,.28-109.54.06-8.12-2.63-11.64-11.15-11.57-35.44.29-70.89-.28-106.32.31-25.37.41-44.32,12.84-56.53,34.88-3.67,6.62-6,7.34-11.57,2-14.48-13.92-14.95-15.11-2.3-30.43,19-23,44.2-33.87,73.45-34.35,42.95-.7,85.92,0,128.87-.36,10.42-.09,13.76,4,13.54,14.05-.49,22.54-.15,45.1-.15,67.65Z"/><path class="cls-2" d="M260,393.9c21.71,1.31,49.42-2.93,76.73,2.18,19.13,3.57,35.21,13.45,48.95,27.3,7.27,7.32,7.52,13-.85,20.15-10.53,9-9.8,9.38-18.69-.55-11.75-13.13-26.56-20.83-44.3-21-36.52-.38-73,0-109.57-.26-8.12-.06-11.64,2.64-11.57,11.15.28,35.09-.37,70.19.3,105.27.48,25.12,11.76,44.8,34.25,56.91,7.72,4.15,7.74,7.21,1.7,13.14-13.21,13-13.47,13.31-28.15,2-23.88-18.34-34.88-43.63-35.6-72.73-1.09-43.66-.17-87.37-.43-131-.06-9.23,3.45-12.78,12.69-12.63C208.36,394.15,231.28,393.9,260,393.9Z"/><path class="cls-2" d="M394.05,769.93c0-22.17-.53-44.37.14-66.52.81-27.12,11.73-49.71,32.69-67.3,12-10.05,14.88,3.6,20.83,8.15,7.14,5.47.83,8.74-3.1,12.28-14.53,13.08-22.73,29.11-22.69,49,.07,35.06.28,70.12-.18,105.17-.12,9.91,3.4,13.07,13.11,12.94q48.81-.64,97.65-.08c27.84.29,49.34-10.46,63-35,4-7.18,6.77-7.25,12.4-1.61,13.72,13.76,14.34,14.48,1.86,29.69-16.14,19.7-37,31.19-62.64,33.1-46.44,3.46-92.95.77-139.42,1.71-9.95.2-14.13-3.59-13.89-13.92.51-22.53.16-45.07.16-67.61Z"/><path class="cls-2" d="M796.31,668.76c.22,25.29-8.84,46.61-26.83,64.45Q722.59,779.7,676.2,826.7c-6.19,6.31-10,6.56-16.34.13-31.59-32.19-63.85-63.73-95.43-95.94C545,711.06,537.58,686.6,540,659.12c.78-8.74,6.1-10.74,20.08-9.42,8.38.78,7.07,5.65,6.59,11.36-1.64,19.54,3.75,37,17.67,51,25.16,25.47,50.73,50.53,75.77,76.11,6.22,6.35,9.88,6.32,16.25-.29,24.32-25.26,49.53-49.66,74.1-74.69,16.78-17.09,22.67-37.48,17.19-61.14-1-4.19-6.7-10.57,2.47-13,11.4-3.05,21.76.19,24.17,7.29C796.81,653.64,796,661.24,796.31,668.76Z"/><path class="cls-2" d="M228,356.37c-.68-26.24,9-47.93,27.61-66.27q46.66-45.92,92.55-92.62c6.2-6.32,10-6.61,16.35-.17,31.58,32.17,63.74,63.79,95.41,95.88,19.59,19.85,26.84,44.25,24.48,71.73-1.14,13.33-11.48,8.83-18.89,9.3-8.4.52-8.26-4.79-7.83-11.42,1.28-19.37-3.79-36.91-17.83-51-25.24-25.37-50.76-50.46-75.76-76.06-6.07-6.21-9.79-5.67-15.56.23-24,24.54-48.35,48.76-72.76,72.91-18,17.78-25,38.57-19.13,63.52,1.09,4.58,5.05,10.75-3.94,12.72-11.79,2.6-20.52-.1-22.75-7.42a23.64,23.64,0,0,1-1.11-5.24C228.45,367.09,228.26,361.73,228,356.37Z"/><path class="cls-2" d="M668.46,228.2c25.33-.67,46.67,8.15,64.54,26.24q46.79,47.37,94.22,94.08c6,5.89,6.14,9.58.07,15.54-32.16,31.61-63.77,63.78-95.91,95.41-19.81,19.5-44.09,27.06-71.66,24.88-13.43-1.07-9.17-11.16-9.65-18.62-.52-8.08,4.15-8.84,11.14-8.17,20.42,2,38.06-4.74,52.61-19.21,24.87-24.74,49.47-49.75,74.58-74.24,6.46-6.31,6.14-10.05-.33-16.3-24.47-23.59-48.69-47.47-72.27-71.94q-27.75-28.78-65.48-18.68c-9.84,2.62-11.72-.25-11.53-9.3.36-17,2-19.12,18.93-19.67C661.3,228.11,664.88,228.2,668.46,228.2Z"/><path class="cls-2" d="M356.94,796c-27.1,1.24-48.57-9-66.87-27.57-30.41-30.83-60.95-61.54-91.95-91.78-7.32-7.14-6.54-11.18.32-17.9,31.19-30.54,61.9-61.58,92.75-92.48,20.26-20.29,44.75-28.58,73.17-26.52,13.38,1,9.62,10.75,10,18.33.51,8.87-4.65,9.13-11.89,8.48-19.53-1.75-36.77,4.11-50.84,18.1-25.37,25.24-50.52,50.71-76.09,75.75-5.7,5.59-5.72,9.26-.05,14.85,25.73,25.35,50.73,51.45,76.76,76.49,17.2,16.56,38.2,22.35,61.45,15,9.56-3,11.94-.34,11.82,9-.21,17.12-2.13,19.52-19.67,20.25C362.67,796.11,359.45,796,356.94,796Z"/><path class="cls-2" d="M850,548c0,24-.36,48,.2,71.9.19,8.34-2.9,10.52-10.52,10.49-45.8-.2-91.61.59-137.38-.41-27-.59-49.77-12.14-66.76-33.66-5.19-6.57-2.26-11.88,9.49-20.82,6.56-5,8.59.43,11.77,4,12.37,14.09,27.52,22.69,46.66,22.76,35.78.13,71.56-.2,107.33.25,9.92.12,13.07-3.43,13-13.13-.44-33.27-.08-66.55-.22-99.82-.1-27.29-11.36-48.46-35.66-61.62-6.72-3.64-6-6.1-1.46-10.91,14-15,14.05-15.35,30.14-2.33,21.49,17.4,33.33,39.74,33.37,67.77q0,32.75,0,65.48Z"/><path class="cls-2" d="M737.39,593.9c-10.83,2.71-19.69-3.21-28-12.33-10.56-11.64-22.55-22-33.08-33.65-6.71-7.44-10.91-5.95-17.1.55-15.78,16.57-32.76,32-48.22,48.85-11.8,12.86-26.2,8.56-40.09,8.62-3.31,0-4-2.62-2-5.34a36.54,36.54,0,0,1,3.6-4c29.57-29.59,59.28-59.06,88.65-88.86,5.46-5.54,8.9-4.81,14,.32,25.1,25.47,50.51,50.64,75.75,76,2.2,2.21,6.4,4.27,5.43,7.39-1.35,4.3-6.16,2-9.47,2.38C744.4,594.14,741.86,593.9,737.39,593.9Z"/><path class="cls-2" d="M287.33,430.23c10.55-2.54,19.15,3,27.21,11.91,10.79,11.91,22.86,22.64,33.88,34.34,5.54,5.88,9.38,6.85,15.51.42,16.28-17.06,33.28-33.43,49.93-50.13,8-8.08,28.44-12.62,38.85-8.24,7.18,3,1.81,6.19-.48,8.52-12.5,12.77-25.22,25.33-37.86,38-16.95,16.93-34.09,33.66-50.72,50.89-5.62,5.83-9.25,5.48-14.76-.13-24.77-25.27-49.95-50.14-74.88-75.26-2.38-2.39-7.14-4.47-5.7-8.2s6.34-1.64,9.71-2C280.49,430,283,430.23,287.33,430.23Z"/><path class="cls-2" d="M422.6,568.34a45.11,45.11,0,0,1,4.45,3.56q45.22,45.14,90.42,90.28c4.29,4.26,4.15,7.42-.08,11.61C491,700,464.7,726.38,438.32,752.64c-1.66,1.66-3.18,4.65-6,3.49s-1.65-4.35-1.93-6.71c-2.09-18.06,1.47-33.32,17.24-45.27,11-8.34,19.73-19.69,29.89-29.25,5.42-5.1,5.47-8.71.06-14-17.71-17.2-35.07-34.77-52.44-52.33-6.86-6.94-10.16-28.83-6-37.44C419.72,569.9,420,568.36,422.6,568.34Z"/><path class="cls-2" d="M594,286.68c2.61,10.75-3,19.76-12.23,28.07-11.43,10.29-21.58,22-32.92,32.37-7,6.46-7.89,10.84-.33,17.91,16.74,15.63,32.3,32.51,48.84,48.36,11.91,11.42,10,25.52,8.1,39.13-1.08,7.5-5.77,2-8.16-.3-13-12.8-25.83-25.81-38.74-38.72-16.45-16.47-32.65-33.19-49.52-49.22-6.66-6.33-6-10.3.24-16.38,24.86-24.25,49.22-49,73.91-73.44,2.6-2.57,4.89-8,9-6.08,3.71,1.76,1.36,7.16,1.8,10.94C594.19,281.08,594,282.89,594,286.68Z"/><path class="cls-2" d="M409.39,558.3c0,20-.28,40.09.13,60.12.17,8.8-3.1,12.06-11.9,12-35.43-.27-70.86,0-106.29-.11-3,0-7.33,1.32-8.63-2.33s3.69-4.62,5.23-7.22c10.76-18,27.53-20.07,46.35-18.56,12.44,1,25-.15,37.56.26,8.42.28,11.34-3.13,11.21-11.4-.35-22.9.89-45.87-.44-68.69-1-17.76,12.36-24.79,22.17-34.32,4.4-4.27,4.43,2.25,4.46,4.76.21,16.82.14,33.64.15,50.46Z"/><path class="cls-2" d="M466.68,409.22c-20.77,0-41.53-.12-62.3.09-7.16.07-10.46-2.63-10.43-10.05.13-36.52,0-73,.06-109.55,0-2.39-.79-5.57,1.84-6.82,3.3-1.57,5,1.85,7,3.58,14.13,12,22.09,26.08,19.3,45.74-1.69,11.93.25,24.33-.46,36.46-.62,10.57,2.76,14.72,13.89,14.36,22.53-.72,45.14.54,67.65-.43,17.21-.75,24,12.65,33,22.45,3.88,4.26-3.51,4-6.18,4.05C508.92,409.31,487.8,409.22,466.68,409.22Z"/><path class="cls-2" d="M615,467c0-20.4.27-40.8-.12-61.18-.17-8.66,2.81-12.19,11.76-12.11,35.77.3,71.56.09,107.34.18,2.64,0,6.43-1.25,7.42,2.34.7,2.51-2.53,4-4,6-11.23,15.26-25.41,22.44-45.07,19.88-13-1.7-26.44,0-39.67-.4-8.23-.23-11.55,2.86-11.43,11.27.33,22.9-1,45.86.43,68.68,1.07,17.76-12.17,24.86-22,34.39-4.47,4.33-4.52-2-4.55-4.62C615,514.6,615,497.78,615,481V467Z"/><path class="cls-2" d="M558.43,614.89c20,0,40.06.29,60.07-.12,8.77-.18,12.11,3,12,11.85-.27,35.76-.09,71.52-.12,107.28,0,2.42.84,5.63-1.56,7-3.38,1.85-4.77-2-6.88-3.62-15.07-11.35-22.3-25.6-19.77-45.22,1.67-13,0-26.43.38-39.65.24-8.42-3.24-11.33-11.46-11.21-22.89.33-45.84-.93-68.64.44-17.78,1.07-24.8-12.26-34.28-22.1-4.23-4.39,2.24-4.44,4.78-4.47,17.16-.2,34.33-.13,51.49-.14Q551.45,614.87,558.43,614.89Z"/></g></svg>