<?xml version="1.0" encoding="UTF-8"?>
<!--Generator: Apple Native CoreSVG 326-->
<!DOCTYPE svg
PUBLIC "-//W3C//DTD SVG 1.1//EN"
       "http://www.w3.org/Graphics/SVG/1.1/DTD/svg11.dtd">
<svg version="1.1" xmlns="http://www.w3.org/2000/svg" xmlns:xlink="http://www.w3.org/1999/xlink" viewBox="0 0 29.8798 30.0204">
 <g>
  <rect height="30.0204" opacity="0" width="29.8798" x="0" y="0"/>
  <path d="M14.6425 17.9689C15.3759 17.9689 15.8205 17.5057 15.8205 16.9243C15.8205 16.8616 15.8205 16.7989 15.8205 16.7362C15.8205 15.9227 16.2906 15.4085 17.3161 14.7258C18.7277 13.8001 19.7511 12.9403 19.7511 11.1817C19.7511 8.75103 17.5787 7.44265 15.0936 7.44265C12.5743 7.44265 10.9241 8.63633 10.523 9.9735C10.4422 10.2194 10.3956 10.4557 10.3956 10.7079C10.3956 11.3577 10.9146 11.7091 11.4028 11.7091C11.9066 11.7091 12.2145 11.4851 12.4753 11.1211L12.7393 10.7821C13.264 9.91473 14.0226 9.42288 14.9941 9.42288C16.3354 9.42288 17.1993 10.1838 17.1993 11.2999C17.1993 12.2937 16.5891 12.7803 15.3019 13.6686C14.2515 14.4073 13.4613 15.186 13.4613 16.618C13.4613 16.6715 13.4613 16.7498 13.4613 16.8001C13.4613 17.5678 13.8779 17.9689 14.6425 17.9689ZM14.6082 22.3378C15.4421 22.3378 16.1762 21.6563 16.1762 20.8164C16.1762 19.9546 15.4577 19.295 14.6082 19.295C13.7465 19.295 13.0247 19.9701 13.0247 20.8164C13.0247 21.6407 13.762 22.3378 14.6082 22.3378Z" fill="black"/>
 </g>
</svg>
