<?xml version="1.0" encoding="UTF-8"?>
<!--Generator: Apple Native CoreSVG 326-->
<!DOCTYPE svg
PUBLIC "-//W3C//DTD SVG 1.1//EN"
       "http://www.w3.org/Graphics/SVG/1.1/DTD/svg11.dtd">
<svg version="1.1" xmlns="http://www.w3.org/2000/svg" xmlns:xlink="http://www.w3.org/1999/xlink" viewBox="0 0 30.249 29.8975">
 <g>
  <rect height="29.8975" opacity="0" width="30.249" x="0" y="0"/>
  <path d="M29.8828 14.9414C29.8828 23.1738 23.1885 29.8828 14.9414 29.8828C6.70898 29.8828 0 23.1738 0 14.9414C0 6.69434 6.70898 0 14.9414 0C23.1885 0 29.8828 6.69434 29.8828 14.9414ZM12.9639 21.0059C12.9639 21.8701 13.7256 22.5732 14.6045 22.5732C15.4834 22.5732 16.2451 21.8848 16.2451 21.0059C16.2451 20.127 15.498 19.4238 14.6045 19.4238C13.7109 19.4238 12.9639 20.1416 12.9639 21.0059ZM10.3857 9.8291C10.3125 10.0635 10.2539 10.3125 10.2539 10.5762C10.2539 11.25 10.7959 11.6162 11.2939 11.6162C11.8066 11.6162 12.1436 11.3672 12.4219 11.0156L12.6855 10.6494C13.2275 9.77051 14.0039 9.27246 15.0146 9.27246C16.377 9.27246 17.2705 10.0488 17.2705 11.1914C17.2705 12.2168 16.6406 12.7148 15.3223 13.6377C14.2383 14.3994 13.418 15.1904 13.418 16.6846C13.418 16.7432 13.418 16.8164 13.418 16.875C13.418 17.666 13.8574 18.0762 14.6338 18.0762C15.3955 18.0762 15.8643 17.5928 15.8643 16.9922C15.8643 16.9336 15.8643 16.8604 15.8643 16.8164C15.8643 15.9668 16.3477 15.4248 17.4023 14.7363C18.8672 13.7695 19.9219 12.8906 19.9219 11.0742C19.9219 8.55469 17.6807 7.22168 15.1025 7.22168C12.4951 7.22168 10.7959 8.4375 10.3857 9.8291Z" fill="#ff375f"/>
 </g>
</svg>
