<?xml version="1.0" encoding="UTF-8"?>
<!--Generator: Apple Native CoreSVG 326-->
<!DOCTYPE svg
PUBLIC "-//W3C//DTD SVG 1.1//EN"
       "http://www.w3.org/Graphics/SVG/1.1/DTD/svg11.dtd">
<svg version="1.1" xmlns="http://www.w3.org/2000/svg" xmlns:xlink="http://www.w3.org/1999/xlink" viewBox="0 0 30.249 29.8975">
 <g>
  <rect height="29.8975" opacity="0" width="30.249" x="0" y="0"/>
  <path d="M14.9414 29.8828C23.1885 29.8828 29.8828 23.1738 29.8828 14.9414C29.8828 6.69434 23.1885 0 14.9414 0C6.70898 0 0 6.69434 0 14.9414C0 23.1738 6.70898 29.8828 14.9414 29.8828Z" fill="#FF2D55"/>
  <path d="M14.9561 7.32422C15.2637 7.32422 15.5127 7.41211 15.835 7.71973L20.8008 12.5244C21.0352 12.7441 21.167 12.9932 21.167 13.3301C21.167 13.9307 20.6836 14.3848 20.0684 14.3848C19.7607 14.3848 19.4531 14.2676 19.248 14.0186L16.9336 11.5723L16.0693 10.6494L16.1572 12.9053L16.1572 21.3867C16.1572 22.0312 15.6152 22.5586 14.9561 22.5586C14.2969 22.5586 13.7402 22.0312 13.7402 21.3867L13.7402 12.9053L13.8428 10.6494L12.9639 11.5723L10.6641 14.0186C10.4443 14.2676 10.1221 14.3848 9.81445 14.3848C9.19922 14.3848 8.73047 13.9307 8.73047 13.3301C8.73047 12.9932 8.8623 12.7441 9.09668 12.5244L14.0771 7.71973C14.3848 7.41211 14.6338 7.32422 14.9561 7.32422Z" fill="white"/>
 </g>
</svg>
