<svg width="24" height="24" viewBox="0 0 24 24" fill="none" xmlns="http://www.w3.org/2000/svg">
<path d="M21.66 12C21.6608 12.3787 21.5541 12.7498 21.3523 13.0702C21.1505 13.3906 20.8619 13.6472 20.52 13.81L5.86998 20.75C5.60185 20.8962 5.30482 20.9815 4.99998 21C4.6664 20.9993 4.33828 20.9152 4.04552 20.7553C3.75275 20.5954 3.50462 20.3648 3.32373 20.0845C3.14284 19.8043 3.03493 19.4832 3.00982 19.1505C2.98472 18.8179 3.04321 18.4843 3.17998 18.18L5.45998 13H11C11.2652 13 11.5196 12.8946 11.7071 12.7071C11.8946 12.5196 12 12.2652 12 12C12 11.7348 11.8946 11.4804 11.7071 11.2929C11.5196 11.1054 11.2652 11 11 11H5.45998L3.17998 5.87C3.01477 5.49721 2.96746 5.08283 3.04438 4.68239C3.1213 4.28195 3.31878 3.91459 3.61036 3.62955C3.90193 3.3445 4.27367 3.15539 4.67574 3.08755C5.07782 3.01971 5.49103 3.0764 5.85998 3.25L20.51 10.19C20.8537 10.3514 21.1444 10.6073 21.3481 10.9278C21.5517 11.2484 21.6599 11.6203 21.66 12Z" fill="#FF2D55"/>
</svg>
