<?xml version="1.0" encoding="UTF-8"?>
<!--Generator: Apple Native CoreSVG 326-->
<!DOCTYPE svg
PUBLIC "-//W3C//DTD SVG 1.1//EN"
       "http://www.w3.org/Graphics/SVG/1.1/DTD/svg11.dtd">
<svg version="1.1" xmlns="http://www.w3.org/2000/svg" xmlns:xlink="http://www.w3.org/1999/xlink" viewBox="0 0 30.249 29.8975">
 <g>
  <rect height="29.8975" opacity="0" width="30.249" x="0" y="0"/>
  <path d="M14.9414 29.8828C23.1885 29.8828 29.8828 23.1738 29.8828 14.9414C29.8828 6.69434 23.1885 0 14.9414 0C6.70898 0 0 6.69434 0 14.9414C0 23.1738 6.70898 29.8828 14.9414 29.8828Z" fill="#007aff"/>
  <path d="M15.2783 24.4629C14.502 24.4629 14.2676 23.8477 14.0039 22.9834L12.6416 18.5449C12.4951 17.959 12.5244 17.6953 12.8613 17.3438L21.46 8.07129C21.5625 7.9541 21.5625 7.82227 21.46 7.74902C21.3721 7.67578 21.2549 7.64648 21.1377 7.74902L11.9092 16.4062C11.543 16.7285 11.25 16.7432 10.708 16.5674L6.1377 15.1904C5.31738 14.9414 4.74609 14.6777 4.74609 13.916C4.74609 13.3008 5.28809 12.8613 5.99121 12.6123L20.5078 7.0459C20.9033 6.89941 21.2256 6.82617 21.5186 6.82617C22.0605 6.82617 22.3828 7.14844 22.3828 7.69043C22.3828 7.9834 22.3096 8.30566 22.1631 8.70117L16.6406 23.1445C16.333 23.9502 15.8936 24.4629 15.2783 24.4629Z" fill="white" fill-opacity="0.85"/>
 </g>
</svg>
