<svg width="136" height="61" viewBox="0 0 136 61" fill="none" xmlns="http://www.w3.org/2000/svg">
<path d="M0.918274 23.7015L1.15281 33.4104L31.7721 60.1565L31.4905 49.3465L0.918274 23.7015Z" fill="#F1F1F1"/>
<path d="M0.067338 23.1667L0 20.3926L31.4652 48.3629L150.696 45.5188L151 58.1445L31.3351 61L0.314116 33.4377L0.254048 30.9335L31.2203 57.9496L31.047 50.7388L0.067338 23.1667Z" fill="#5E4A46"/>
<path d="M49.5565 57.902L45.8541 57.9903L45.6785 50.7167L49.3809 50.6284L49.5565 57.902ZM46.2019 57.6268L49.1911 57.556L49.0331 50.9915L46.0438 51.0627L46.2019 57.6268Z" fill="#FFC23D"/>
<path d="M136.759 55.8222L133.057 55.9105L132.881 48.637L136.584 48.5486L136.759 55.8222ZM133.405 55.547L136.394 55.4762L136.236 48.9118L133.246 48.983L133.405 55.547Z" fill="#FFC23D"/>
<path d="M127.368 56.0456L57.6417 57.709L57.4645 50.4343L127.191 48.7705L127.368 56.0456ZM57.9895 57.3459L127.003 55.6992L126.845 49.1352L57.8326 50.7814L57.9906 57.3459H57.9895Z" fill="#FFC23D"/>
<path d="M65.3484 51.9759L63.3796 54.0313L65.4456 55.9901L67.4149 53.9346L65.3484 51.9759Z" fill="#FFC23D"/>
<path d="M74.4448 51.7596L72.4759 53.8151L74.5419 55.7738L76.5112 53.7184L74.4448 51.7596Z" fill="#FFC23D"/>
<path d="M83.5404 51.5427L81.5711 53.5982L83.6372 55.5569L85.606 53.5015L83.5404 51.5427Z" fill="#FFC23D"/>
<path d="M92.6348 51.3257L90.6656 53.3812L92.7316 55.3403L94.7005 53.2849L92.6348 51.3257Z" fill="#FFC23D"/>
<path d="M101.73 51.1092L99.7612 53.1646L101.827 55.1238L103.796 53.0683L101.73 51.1092Z" fill="#FFC23D"/>
<path d="M110.825 50.8937L108.856 52.9492L110.922 54.9079L112.892 52.8525L110.825 50.8937Z" fill="#FFC23D"/>
<path d="M119.921 50.6768L117.952 52.7322L120.018 54.6909L121.987 52.6355L119.921 50.6768Z" fill="#FFC23D"/>
<path d="M150.696 45.5188L115.669 15.9681L0 20.3926L31.4652 48.3629L150.696 45.5188Z" fill="#503E3A"/>
<path d="M126.354 21.4553L126.075 24.6569L100.161 45.1564L100.079 41.7855L126.354 21.4553Z" fill="#F1F1F1"/>
<path d="M100.054 40.7216L15.9163 23.4853L47.5498 3.79572L126.672 19.8494L100.054 40.7216Z" fill="#CEA247"/>
<path d="M98.1236 38.118L98.0062 38.0948L22.9944 23.057L49.5305 6.33948L49.6357 6.36079L121.486 20.7827L98.1225 38.1207L98.1236 38.118ZM24.41 22.797L97.9959 37.5486L120.207 21.0671L49.6392 6.90282L24.41 22.797Z" fill="#F1F1F1"/>
<path d="M126.711 21.4462L126.672 19.8312L100.054 40.7216L15.9163 23.4853L16.098 29.4103L100.203 46.143L126.442 25.0029L126.415 23.9371L100.163 45.1545L100.081 41.7836L126.711 21.4462Z" fill="#D9AC51"/>
<path d="M34.373 20.6879L51.5564 9.5509L67.5109 12.6165L50.9243 23.8659L34.373 20.6879Z" fill="#F1F1F1"/>
<path d="M104.585 13.6092L91.4774 7.44293L80.5951 11.1062L93.2975 17.4103L104.585 13.6092Z" fill="#F1F1F1"/>
<path d="M83.8744 9.85847C84.2037 9.85847 84.5256 9.76132 84.7994 9.57929C85.0733 9.39727 85.2867 9.13856 85.4127 8.83587C85.5387 8.53318 85.5717 8.2001 85.5075 7.87877C85.4432 7.55743 85.2846 7.26227 85.0518 7.0306C84.8189 6.79893 84.5222 6.64116 84.1992 6.57724C83.8762 6.51332 83.5414 6.54613 83.2372 6.67151C82.9329 6.79689 82.6729 7.00921 82.4899 7.28162C82.3069 7.55404 82.2093 7.87431 82.2093 8.20194C82.2092 8.41949 82.2523 8.63492 82.3359 8.83593C82.4196 9.03693 82.5422 9.21956 82.6969 9.37339C82.8515 9.52723 83.0351 9.64924 83.2371 9.73248C83.4392 9.81571 83.6557 9.85852 83.8744 9.85847Z" fill="#E0940E"/>
</svg>
