<svg width="94" height="70" viewBox="0 0 94 70" fill="none" xmlns="http://www.w3.org/2000/svg">
<path d="M85.1345 10.1152L79.9459 2.77018C79.9459 2.77018 51.9637 2.95709 43.6613 14.8484C43.6613 14.8484 30.1458 3.91154 6.80733 8.15651L4.03734 13.7987L39.4247 27.2586L66.0495 22.4686L85.342 10.7347L85.1345 10.1152Z" fill="white"/>
<path d="M87.5528 7.80828L87.1066 57.8101L48.5735 63.8495L43.3565 63.9294L6.52364 60.4611L2.13625 12.0393C2.13625 12.0393 31.0993 9.92166 40.1607 15.7438L46.808 16.2575C46.808 16.2575 62.9884 4.40082 87.5528 7.80828Z" fill="#5E4A46"/>
<path d="M46.9817 16.0865L47.3574 16.0688L49.5889 63.2787L49.2133 63.2964L46.9817 16.0865Z" fill="#FAB76C"/>
<path d="M39.9704 15.7476L40.3459 15.7283L42.8089 63.7475L42.4333 63.7668L39.9704 15.7476Z" fill="#FAB76C"/>
<path d="M51.0726 52.9915L51.0644 52.678C51.1292 52.6934 51.1931 52.701 51.2657 52.7154C51.3229 52.7318 51.3867 52.7394 51.4439 52.7558L51.4521 53.0693L51.5714 56.9317L51.1929 56.8616L51.0726 52.9915ZM71.5252 58.487L71.6042 58.8624L71.3565 58.8937C71.2257 58.7923 71.0939 58.6832 70.9621 58.574L71.5252 58.487ZM51.0726 52.9915L51.0644 52.678C51.1292 52.6934 51.1931 52.701 51.2657 52.7154C51.3229 52.7318 51.3867 52.7394 51.4439 52.7558L51.4521 53.0693L51.5714 56.9317L51.1929 56.8616L51.0726 52.9915ZM71.6042 58.8624L71.3565 58.8937C71.2257 58.7923 71.094 58.6839 70.9622 58.5748L71.5253 58.4878L71.6042 58.8624ZM51.2182 57.6213L51.1929 56.8616L51.0726 52.9915L51.0644 52.678L51.053 52.2154L50.2281 25.3192L49.9863 17.3825L49.9851 17.2489L50.1128 17.2013C61.3154 12.9361 69.3141 10.8854 74.9008 9.97371C79.9099 9.15873 82.9819 9.25748 84.6943 9.48902C85.8869 9.65266 86.4263 9.87538 86.5019 9.91301L86.6104 9.9622L86.5257 22.7143L86.4916 27.4769L86.2874 56.6191L71.6042 58.8624L71.3565 58.8937L70.8089 58.9796L70.3154 59.0578L51.5579 61.9198L51.3498 61.954L51.2182 57.6213ZM69.8891 58.7342L70.399 58.6618L70.4068 58.6608L70.9622 58.5748L71.5253 58.4878L85.9075 56.2897L86.114 27.4146L86.1465 22.2038L86.2333 10.2144C86.0532 10.1586 85.6688 10.0421 85.0115 9.94437C83.4626 9.7 80.437 9.53245 75.3069 10.3234C69.7384 11.1935 61.6874 13.2036 50.3717 17.5067L50.6044 25.2479L51.4325 52.2932L51.4429 52.748L51.4439 52.7558L51.4521 53.0693L51.5714 56.9317L51.5967 57.6914L51.7111 61.5151L69.8891 58.7342ZM71.5252 58.487L71.6042 58.8624L71.3565 58.8937C71.2257 58.7923 71.0939 58.6832 70.9621 58.574L71.5252 58.487ZM51.0726 52.9915L51.0644 52.678C51.1292 52.6934 51.1931 52.701 51.2657 52.7154C51.3229 52.7318 51.3867 52.7394 51.4439 52.7558L51.4521 53.0693L51.5714 56.9317L51.1929 56.8616L51.0726 52.9915Z" fill="#FAB76C"/>
<path d="M4.99076 15.0237C4.99076 15.0237 5.71557 14.9713 7.00851 14.9335L7.01625 14.9325C11.9567 14.7554 25.1198 14.67 37.0724 17.8209L37.5564 26.5528L39.1982 55.9882L39.1992 55.996L39.2101 56.144L39.2638 57.0653C39.256 57.0663 39.256 57.0663 39.2648 57.0731L39.3138 58.0814L39.3406 58.5421L39.3416 58.5498L39.3793 59.1585L39.4809 61.0175C39.4809 61.0175 20.4384 58.6461 8.51346 58.3231L4.99076 15.0237ZM22.6466 55.5186L34.5193 48.905L33.963 32.8915L21.0923 21.9288L9.67381 30.4528L11.4098 46.4035L22.6466 55.5186Z" fill="#D9AC51"/>
<path d="M34.8098 19.9415L36.4377 57.3869L10.6004 55.5366L7.73733 17.8456C7.73733 17.8456 21.3392 17.4302 34.8098 19.9415Z" stroke="#341C17" stroke-width="0.5" stroke-miterlimit="10" stroke-linecap="round" stroke-linejoin="round"/>
<path d="M12.7146 36.407C12.7124 36.3837 12.718 36.3594 12.7316 36.3428C14.115 33.5832 16.6939 33.2599 17.3804 33.2218C17.7246 30.1124 19.65 29.0633 20.6103 28.7152C20.7469 28.6696 20.8537 28.6435 20.9457 28.6185C20.9525 28.6098 20.96 28.6009 20.9678 28.6007C20.9948 28.5588 21.047 28.5302 21.0947 28.5406C21.1025 28.5397 21.29 28.5364 21.5944 28.5922C22.5749 28.752 24.7174 29.4608 25.5891 32.4941C26.2695 32.4017 28.8714 32.3035 30.6987 34.7849C30.7086 34.8072 30.7186 34.8303 30.7293 34.8526C30.7324 34.8836 31.514 37.9575 29.3982 39.2926C29.6165 39.8981 30.3317 42.1623 29.255 43.6907C29.1914 43.7601 27.7781 45.3697 24.9759 45.0409C24.8444 45.5248 24.3494 46.908 22.9806 47.5642C22.9438 47.5838 22.9051 47.5949 22.8682 47.6146C22.8425 47.6721 22.791 47.7006 22.7289 47.7069C22.7133 47.7081 22.6901 47.711 22.6735 47.7045C22.5372 47.6714 22.4 47.6376 22.2773 47.5879C20.9516 47.1179 20.2899 45.9298 20.0817 45.4961C17.3701 46.2877 15.7115 44.934 15.6256 44.8647C14.3247 43.5531 14.6434 41.1997 14.7591 40.5605C12.4575 39.6013 12.7099 36.4383 12.7146 36.407ZM15.0351 40.2739C15.1246 40.3043 15.1729 40.3933 15.159 40.4887C15.1456 40.5132 14.5529 43.256 15.8793 44.588C15.889 44.6025 17.5272 45.9194 20.1344 45.0985C20.2254 45.0658 20.3249 45.1185 20.3654 45.2085C20.3673 45.224 21.0287 46.8824 22.6331 47.3164C22.6408 47.3154 22.6476 47.3067 22.6554 47.3064C24.2516 46.6506 24.6471 44.823 24.6526 44.7987C24.6685 44.7188 24.7332 44.665 24.8109 44.6576L24.8575 44.6525C27.563 45.0375 28.9562 43.4612 28.9562 43.4612C30.054 41.9073 29.0069 39.3075 28.9959 39.2767C28.9641 39.1934 28.9936 39.0968 29.0748 39.0488C30.9971 37.9686 30.4527 35.3021 30.3725 34.9725C28.4117 32.3319 25.609 32.8502 25.4945 32.8781C25.41 32.8943 25.3028 32.8426 25.2769 32.7436C24.3567 29.3075 21.8349 28.9511 21.2265 28.9101C21.2043 28.9279 21.1752 28.9465 21.1451 28.9574C20.638 29.0641 18.0754 29.7778 17.7304 33.4205C17.7252 33.5226 17.6462 33.5939 17.5432 33.5881C17.4255 33.5841 14.573 33.5354 13.0821 36.4706C13.0614 36.8107 12.9678 39.5257 15.0351 40.2739Z" fill="#FAB76C"/>
<path d="M20.7077 23.5442C20.7599 23.5156 20.83 23.5161 20.8797 23.5429C20.9382 23.5764 22.3322 24.3366 23.0755 25.7911C23.0942 25.8203 23.0973 25.8513 23.1005 25.8824C23.099 25.9455 23.0691 27.4303 21.5943 28.5914C21.4785 28.6894 21.3392 28.7818 21.1991 28.8743C21.177 28.892 21.1469 28.9029 21.1158 28.906C21.1003 28.9072 21.077 28.9102 21.0527 28.9046C21.0284 28.899 20.8591 28.8536 20.6101 28.7136C20.105 28.4512 19.2646 27.8143 18.7851 26.4121C18.7742 26.382 18.7701 26.3432 18.7747 26.3112C18.7992 26.231 19.224 24.3062 20.7077 23.5442ZM21.0692 28.5187C22.5529 27.5215 22.7072 26.1807 22.7277 25.9201C22.1268 24.7889 21.0927 24.1011 20.7921 23.9197C19.6497 24.5684 19.2274 26.0541 19.1548 26.3441C19.7253 27.9495 20.7846 28.4147 21.0692 28.5187Z" fill="#FAB76C"/>
<path d="M22.2765 47.588C22.3644 47.5242 22.4602 47.4672 22.5649 47.4178C22.6248 47.3882 22.6879 47.3897 22.737 47.4165C22.7534 47.4223 22.8374 47.4769 22.979 47.5644C23.4155 47.8497 24.365 48.5537 24.9405 49.6638C24.9514 49.6939 24.9545 49.7249 24.9577 49.756C24.9572 49.8268 24.9196 51.5556 23.0563 52.7479C23.0342 52.7656 23.0041 52.7765 22.9808 52.7787C22.9575 52.7808 22.9342 52.7838 22.9177 52.7772C22.8534 52.7602 21.3544 52.3632 20.6423 50.2857C20.6315 50.2557 20.6283 50.2246 20.6319 50.1848C20.6574 50.1124 21.0287 48.4357 22.2765 47.588ZM22.9349 52.3912C24.4101 51.3952 24.5652 50.0542 24.5856 49.7929C23.9924 48.6607 22.9506 47.9738 22.65 47.7924C21.5076 48.4412 21.0853 49.9269 21.0127 50.2168C21.5832 51.8222 22.6418 52.2875 22.9349 52.3912Z" fill="#FAB76C"/>
<path d="M20.9382 34.0455C22.1501 33.852 23.3493 34.1548 24.332 34.8782C25.3225 35.6015 25.9638 36.6662 26.1487 37.8784C26.3335 39.0836 26.0395 40.2895 25.3162 41.28C24.592 42.2628 23.528 42.904 22.315 43.089C22.2384 43.105 22.1607 43.1125 22.0831 43.1208C20.9493 43.2352 19.8366 42.9324 18.9135 42.2573C17.9307 41.533 17.2894 40.4683 17.1045 39.2561C16.7188 36.7622 18.4433 34.4235 20.9382 34.0455ZM17.4684 39.2038C17.8177 41.4978 19.9619 43.077 22.2637 42.7267C23.3756 42.5513 24.3516 41.9669 25.0124 41.0605C25.6818 40.1539 25.9533 39.0436 25.7858 37.9315C25.4439 35.7151 23.4126 34.1641 21.208 34.3873L20.9906 34.4093C18.7665 34.7522 17.2145 36.7757 17.4387 38.9881C17.4461 39.065 17.4611 39.1339 17.4684 39.2038Z" fill="#FAB76C"/>
<path d="M21.0426 34.7645C23.1357 34.443 25.1167 35.8895 25.4306 37.9835C25.7531 40.0843 24.3056 42.0576 22.2048 42.3802L22.0107 42.4001C19.9846 42.6046 18.1312 41.1844 17.816 39.1543C17.4933 37.0527 18.9407 35.0786 21.0426 34.7645ZM22.1781 42.194C24.1782 41.8897 25.5572 40.0092 25.2531 38.017C24.9551 36.079 23.1875 34.7282 21.2624 34.9231L21.0683 34.943C19.076 35.2463 17.6977 37.1267 18.0012 39.1198C18.3046 41.1192 20.1695 42.4994 22.1781 42.194Z" fill="#FAB76C"/>
<path d="M40.2978 55.4173L40.2679 54.8705L40.178 53.1044C40.2306 53.2708 40.3073 53.4419 40.414 53.6015C40.4635 53.6817 40.512 53.7542 40.5769 53.8325L40.5789 53.848C40.5799 53.8557 40.5799 53.8557 40.5886 53.8625L40.5867 53.9099L40.6477 55.137L40.6605 55.3006L40.6666 55.4728C40.5418 55.4808 40.4266 55.5032 40.3047 55.5344L40.2978 55.4173ZM40.2978 55.4173L40.2679 54.8705L40.178 53.1044C40.2306 53.2708 40.3073 53.4419 40.414 53.6015C40.4557 53.6827 40.513 53.762 40.5779 53.8403L40.5789 53.848C40.5799 53.8557 40.5799 53.8557 40.5886 53.8625L40.5867 53.9099L40.6477 55.137L40.6605 55.3006L40.6666 55.4728C40.5418 55.4808 40.4266 55.5032 40.3047 55.5344L40.2978 55.4173ZM3.36685 13.8765C3.36871 13.8291 3.37831 13.7807 3.41212 13.7371C3.4469 13.7012 3.48463 13.6886 3.53783 13.674C3.55331 13.672 3.75556 13.6543 4.12135 13.6237C7.3806 13.3999 23.7285 12.5024 38.512 16.3331C38.5924 16.3466 38.6486 16.4181 38.6507 16.4965L39.2006 27.1783L40.474 51.7763L40.4749 51.784L40.5576 53.3072L40.5885 53.8617L40.5866 53.9092L40.6476 55.1362L40.6605 55.3006L40.6665 55.472L40.6965 56.0817L40.8621 59.254L40.886 59.6914L40.9119 60.1443L41.0287 62.4339C41.0346 62.4804 41.0105 62.5385 40.9757 62.5744C40.9477 62.6015 40.9109 62.6219 40.8645 62.6278C40.8567 62.6287 40.8403 62.623 40.8248 62.6249L7.78378 59.6424C7.69666 59.6377 7.62495 59.5681 7.61319 59.4752L3.36685 13.8765ZM40.6501 62.2388L40.5313 59.9337L40.5035 59.4653L40.4883 59.0347L40.3338 56.1992C40.3338 56.1992 40.3426 56.206 40.3416 56.1982L40.3047 55.5344L40.2978 55.4173L40.2679 54.8705L40.178 53.1044L40.1421 52.3854C40.1334 52.3786 40.1411 52.3776 40.1411 52.3776L40.1332 52.2528C40.1322 52.245 40.1322 52.245 40.1322 52.245L38.8289 27.0374L38.2929 16.6526C24.0671 13.003 8.42838 13.7242 4.50429 13.9771C4.49655 13.9781 4.4888 13.9791 4.4888 13.9791C4.15398 14.0057 3.91205 14.0206 3.75625 14.0325L7.96721 59.2896L40.6501 62.2388ZM40.2978 55.4173L40.2679 54.8705L40.178 53.1044C40.2306 53.2708 40.3073 53.4419 40.414 53.6015C40.4635 53.6817 40.512 53.7542 40.5769 53.8325L40.5789 53.848C40.5799 53.8557 40.5799 53.8557 40.5886 53.8625L40.5867 53.9099L40.6477 55.137L40.6605 55.3006L40.6666 55.4728C40.5418 55.4808 40.4266 55.5032 40.3047 55.5344L40.2978 55.4173Z" fill="#FAB76C"/>
</svg>
