<?xml version="1.0" encoding="UTF-8"?>
<!--Generator: Apple Native CoreSVG 326-->
<!DOCTYPE svg
PUBLIC "-//W3C//DTD SVG 1.1//EN"
       "http://www.w3.org/Graphics/SVG/1.1/DTD/svg11.dtd">
<svg version="1.1" xmlns="http://www.w3.org/2000/svg" xmlns:xlink="http://www.w3.org/1999/xlink" viewBox="0 0 29.3555 29.0186">
 <g>
  <rect height="29.0186" opacity="0" width="29.3555" x="0" y="0"/>
  <path d="M14.502 3.04688C15.3369 3.04688 16.0254 2.37305 16.0254 1.52344C16.0254 0.673828 15.3369 0 14.502 0C13.6523 0 12.9785 0.673828 12.9785 1.52344C12.9785 2.37305 13.6523 3.04688 14.502 3.04688ZM23.6865 6.84082C24.5215 6.84082 25.1953 6.16699 25.1953 5.31738C25.1953 4.46777 24.5215 3.79395 23.6865 3.79395C22.8369 3.79395 22.1631 4.46777 22.1631 5.31738C22.1631 6.16699 22.8369 6.84082 23.6865 6.84082ZM27.4805 16.0254C28.3154 16.0254 28.9893 15.3516 28.9893 14.502C28.9893 13.6523 28.3154 12.9785 27.4805 12.9785C26.6309 12.9785 25.957 13.6523 25.957 14.502C25.957 15.3516 26.6309 16.0254 27.4805 16.0254ZM23.6865 25.21C24.5215 25.21 25.1953 24.5361 25.1953 23.6865C25.1953 22.8369 24.5215 22.1631 23.6865 22.1631C22.8369 22.1631 22.1631 22.8369 22.1631 23.6865C22.1631 24.5361 22.8369 25.21 23.6865 25.21ZM14.502 29.0039C15.3369 29.0039 16.0254 28.3301 16.0254 27.4805C16.0254 26.6309 15.3369 25.957 14.502 25.957C13.6523 25.957 12.9785 26.6309 12.9785 27.4805C12.9785 28.3301 13.6523 29.0039 14.502 29.0039ZM5.31738 25.21C6.16699 25.21 6.84082 24.5361 6.84082 23.6865C6.84082 22.8369 6.16699 22.1631 5.31738 22.1631C4.46777 22.1631 3.79395 22.8369 3.79395 23.6865C3.79395 24.5361 4.46777 25.21 5.31738 25.21ZM1.52344 16.0254C2.37305 16.0254 3.04688 15.3516 3.04688 14.502C3.04688 13.6523 2.37305 12.9785 1.52344 12.9785C0.673828 12.9785 0 13.6523 0 14.502C0 15.3516 0.673828 16.0254 1.52344 16.0254ZM5.31738 6.84082C6.16699 6.84082 6.84082 6.16699 6.84082 5.31738C6.84082 4.46777 6.16699 3.79395 5.31738 3.79395C4.46777 3.79395 3.79395 4.46777 3.79395 5.31738C3.79395 6.16699 4.46777 6.84082 5.31738 6.84082Z" fill="#ff9f0a"/>
  <path d="M14.502 21.958C18.6182 21.958 21.958 18.6182 21.958 14.502C21.958 10.3857 18.6182 7.03125 14.502 7.03125C10.3857 7.03125 7.03125 10.3857 7.03125 14.502C7.03125 18.6182 10.3857 21.958 14.502 21.958Z" fill="#ff9f0a"/>
 </g>
</svg>
