<?xml version="1.0" encoding="UTF-8"?>
<!--Generator: Apple Native CoreSVG 326-->
<!DOCTYPE svg
PUBLIC "-//W3C//DTD SVG 1.1//EN"
       "http://www.w3.org/Graphics/SVG/1.1/DTD/svg11.dtd">
<svg version="1.1" xmlns="http://www.w3.org/2000/svg" xmlns:xlink="http://www.w3.org/1999/xlink" viewBox="0 0 32.0508 31.8018">
 <g>
  <rect height="31.8018" opacity="0" width="32.0508" x="0" y="0"/>
  <path d="M15.8496 5.69824C16.5381 5.69824 17.1094 5.12695 17.1094 4.42383L17.1094 1.27441C17.1094 0.571289 16.5381 0 15.8496 0C15.1465 0 14.5752 0.571289 14.5752 1.27441L14.5752 4.42383C14.5752 5.12695 15.1465 5.69824 15.8496 5.69824ZM23.0273 8.70117C23.5254 9.18457 24.3311 9.19922 24.8291 8.70117L27.0703 6.45996C27.5537 5.97656 27.5537 5.15625 27.0703 4.6582C26.5869 4.1748 25.7666 4.1748 25.2832 4.6582L23.0273 6.91406C22.5439 7.39746 22.5439 8.21777 23.0273 8.70117ZM26.001 15.8936C26.001 16.582 26.5869 17.1533 27.2754 17.1533L30.4248 17.1533C31.1133 17.1533 31.6846 16.582 31.6846 15.8936C31.6846 15.2051 31.1133 14.6191 30.4248 14.6191L27.2754 14.6191C26.5869 14.6191 26.001 15.2051 26.001 15.8936ZM23.0273 23.0859C22.5439 23.584 22.5439 24.3896 23.0273 24.873L25.2832 27.1436C25.7666 27.627 26.5869 27.5977 27.0703 27.1289C27.5537 26.6309 27.5537 25.8252 27.0703 25.3418L24.8145 23.0859C24.3311 22.6025 23.5254 22.6172 23.0273 23.0859ZM15.8496 26.0889C15.1465 26.0889 14.5752 26.6602 14.5752 27.3486L14.5752 30.5127C14.5752 31.2012 15.1465 31.7725 15.8496 31.7725C16.5381 31.7725 17.1094 31.2012 17.1094 30.5127L17.1094 27.3486C17.1094 26.6602 16.5381 26.0889 15.8496 26.0889ZM8.65723 23.0859C8.15918 22.6172 7.33887 22.6025 6.85547 23.0859L4.61426 25.3271C4.13086 25.8105 4.13086 26.6162 4.59961 27.1143C5.08301 27.583 5.91797 27.6123 6.40137 27.1289L8.64258 24.873C9.12598 24.3896 9.12598 23.584 8.65723 23.0859ZM5.68359 15.8936C5.68359 15.2051 5.09766 14.6191 4.40918 14.6191L1.25977 14.6191C0.571289 14.6191 0 15.2051 0 15.8936C0 16.582 0.571289 17.1533 1.25977 17.1533L4.40918 17.1533C5.09766 17.1533 5.68359 16.582 5.68359 15.8936ZM8.64258 8.70117C9.12598 8.23242 9.12598 7.38281 8.65723 6.91406L6.41602 4.6582C5.94727 4.18945 5.1123 4.1748 4.62891 4.6582C4.14551 5.15625 4.14551 5.97656 4.61426 6.44531L6.85547 8.70117C7.33887 9.18457 8.14453 9.18457 8.64258 8.70117Z" fill="#ffd60a"/>
  <path d="M15.835 23.3496C19.9512 23.3496 23.291 20.0098 23.291 15.8936C23.291 11.7773 19.9512 8.42285 15.835 8.42285C11.7188 8.42285 8.37891 11.7773 8.37891 15.8936C8.37891 20.0098 11.7188 23.3496 15.835 23.3496Z" fill="#ffd60a"/>
 </g>
</svg>
