<?xml version="1.0" encoding="UTF-8"?>
<!--Generator: Apple Native CoreSVG 326-->
<!DOCTYPE svg
PUBLIC "-//W3C//DTD SVG 1.1//EN"
       "http://www.w3.org/Graphics/SVG/1.1/DTD/svg11.dtd">
<svg version="1.1" xmlns="http://www.w3.org/2000/svg" xmlns:xlink="http://www.w3.org/1999/xlink" viewBox="0 0 29.1357 29.3115">
 <g>
  <rect height="29.3115" opacity="0" width="29.1357" x="0" y="0"/>
  <path d="M22.6611 19.8779C14.7363 19.8779 9.66797 14.9121 9.66797 6.97266C9.66797 5.15625 10.0635 2.94434 10.5908 1.72852C10.7227 1.3916 10.752 1.17188 10.752 1.04004C10.752 0.65918 10.459 0.219727 9.87305 0.219727C9.71191 0.219727 9.36035 0.249023 9.02344 0.380859C3.63281 2.53418 0 8.21777 0 14.165C0 22.5293 6.78223 29.3115 15.1465 29.3115C21.46 29.3115 26.748 25.4883 28.6084 20.7422C28.7402 20.3906 28.7695 20.0244 28.7695 19.8926C28.7695 19.3359 28.3301 18.9844 27.9199 18.9844C27.7295 18.9844 27.5684 19.0283 27.29 19.1162C26.1475 19.4824 24.4629 19.8779 22.6611 19.8779Z" fill="white"/>
 </g>
</svg>
