<?xml version="1.0" encoding="UTF-8"?>
<!--Generator: Apple Native CoreSVG 326-->
<!DOCTYPE svg
PUBLIC "-//W3C//DTD SVG 1.1//EN"
       "http://www.w3.org/Graphics/SVG/1.1/DTD/svg11.dtd">
<svg version="1.1" xmlns="http://www.w3.org/2000/svg" xmlns:xlink="http://www.w3.org/1999/xlink" viewBox="0 0 41.9092 35.3467">
 <g>
  <rect height="35.3467" opacity="0" width="41.9092" x="0" y="0"/>
  <path d="M28.7109 25.8838C28.7109 26.942 28.4963 27.9575 28.1057 28.8867L13.4372 28.8867C13.0467 27.9575 12.832 26.942 12.832 25.8838C12.832 21.5625 16.4355 17.9443 20.7715 17.9443C25.1074 17.9443 28.7109 21.5625 28.7109 25.8838ZM10.0928 25.5322C10.1074 26.1914 9.53613 26.7188 8.77441 26.7188L5.1709 26.7188C4.42383 26.7188 3.86719 26.1914 3.86719 25.5322C3.86719 24.873 4.42383 24.3457 5.1709 24.3457L8.77441 24.3457C9.53613 24.3457 10.0781 24.873 10.0928 25.5322ZM37.6758 25.5322C37.6758 26.1914 37.1338 26.7188 36.3721 26.7188L32.7686 26.7188C32.0068 26.7188 31.4648 26.1914 31.4502 25.5322C31.4355 24.873 32.0068 24.3457 32.7686 24.3457L36.3721 24.3457C37.1338 24.3457 37.6758 24.873 37.6758 25.5322ZM10.5908 14.0332L13.1396 16.582C13.667 17.1094 13.667 17.8857 13.2129 18.3545C12.7588 18.8232 11.9824 18.8086 11.4404 18.2666L8.8916 15.7178C8.34961 15.1758 8.34961 14.4141 8.81836 13.96C9.28711 13.5059 10.0342 13.4912 10.5908 14.0332ZM32.7246 13.96C33.1787 14.4287 33.1934 15.1758 32.6514 15.7178L30.1025 18.2666C29.5605 18.8086 28.7988 18.8086 28.3301 18.3545C27.8613 17.9004 27.876 17.1094 28.4033 16.582L30.9668 14.0332C31.5088 13.4912 32.2705 13.4912 32.7246 13.96Z" fill="#ff9f0a"/>
  <path d="M3.28125 32.9443L38.2764 32.9443C38.9648 32.9443 39.5508 32.417 39.5508 31.7725C39.5508 31.1279 38.9648 30.6006 38.2764 30.6006L3.28125 30.6006C2.57812 30.6006 2.00684 31.1279 2.00684 31.7725C2.00684 32.417 2.57812 32.9443 3.28125 32.9443Z" fill="#ff9f0a"/>
  <path d="M20.7715 2.37305C20.127 2.37305 19.585 2.95898 19.585 3.67676L19.585 9.15527L19.7461 11.3672L18.8232 10.2686L16.8311 8.27637C16.626 8.05664 16.3477 7.93945 16.0547 7.93945C15.4688 7.93945 15.0586 8.33496 15.0586 8.9209C15.0586 9.22852 15.1611 9.46289 15.4102 9.68262L19.9805 13.9453C20.2881 14.2236 20.5078 14.3262 20.7715 14.3262C21.0352 14.3262 21.2549 14.2236 21.5625 13.9453L26.1328 9.68262C26.3818 9.46289 26.4844 9.22852 26.4844 8.9209C26.4844 8.33496 26.0742 7.93945 25.4883 7.93945C25.1953 7.93945 24.917 8.05664 24.7119 8.27637L22.8662 10.1221L21.7969 11.3672L21.9727 9.15527L21.9727 3.67676C21.9727 2.95898 21.416 2.37305 20.7715 2.37305Z" fill="#ff9f0a"/>
 </g>
</svg>
