<svg width="148" height="116" viewBox="0 0 148 116" fill="none" xmlns="http://www.w3.org/2000/svg">
<path d="M78.6006 111.837L78.4434 112.105L85.1877 115.991L85.345 115.723L78.6006 111.837Z" fill="#587178"/>
<path d="M80.2673 111.417L80.1108 111.687L86.9112 115.561L87.0677 115.291L80.2673 111.417Z" fill="#587178"/>
<path d="M80.9915 111.099L80.8369 111.369L87.6468 115.204L87.8014 114.934L80.9915 111.099Z" fill="#587178"/>
<path d="M82.184 110.715L82.0308 110.985L88.877 114.795L89.0302 114.524L82.184 110.715Z" fill="#587178"/>
<path d="M90.1085 114.407L83.2271 110.623L83.3816 110.351L90.2592 114.135L90.1085 114.407Z" fill="#587178"/>
<path d="M84.5763 109.987L84.4258 110.259L91.3397 114.019L91.4902 113.747L84.5763 109.987Z" fill="#587178"/>
<path d="M85.7718 109.614L85.6226 109.887L92.5685 113.62L92.7177 113.347L85.7718 109.614Z" fill="#587178"/>
<path d="M86.9672 109.242L86.8193 109.516L93.8007 113.225L93.9485 112.951L86.9672 109.242Z" fill="#587178"/>
<path d="M88.1621 108.862L88.0156 109.136L95.0288 112.818L95.1753 112.544L88.1621 108.862Z" fill="#587178"/>
<path d="M96.2556 112.419L89.208 108.762L89.3548 108.486L96.4025 112.143L96.2556 112.419Z" fill="#587178"/>
<path d="M90.5461 108.104L90.4023 108.379L97.4824 112.009L97.6262 111.734L90.5461 108.104Z" fill="#587178"/>
<path d="M91.747 107.747L91.6045 108.023L98.7189 111.629L98.8614 111.353L91.747 107.747Z" fill="#587178"/>
<path d="M92.9375 107.358L92.7964 107.635L99.9457 111.215L100.087 110.938L92.9375 107.358Z" fill="#587178"/>
<path d="M94.13 106.99L93.9902 107.267L101.174 110.822L101.314 110.544L94.13 106.99Z" fill="#587178"/>
<path d="M95.3284 106.623L95.1899 106.901L102.408 110.43L102.546 110.152L95.3284 106.623Z" fill="#587178"/>
<path d="M96.5234 106.247L96.3862 106.526L103.638 110.03L103.775 109.751L96.5234 106.247Z" fill="#587178"/>
<path d="M97.7183 105.875L97.5825 106.154L104.868 109.633L105.004 109.353L97.7183 105.875Z" fill="#587178"/>
<path d="M98.9084 105.494L98.7739 105.774L106.094 109.227L106.228 108.947L98.9084 105.494Z" fill="#587178"/>
<path d="M100.106 105.131L99.9727 105.412L107.326 108.84L107.459 108.559L100.106 105.131Z" fill="#587178"/>
<path d="M101.295 104.742L101.164 105.024L108.55 108.425L108.682 108.144L101.295 104.742Z" fill="#587178"/>
<path d="M102.498 104.381L102.368 104.663L109.787 108.039L109.918 107.757L102.498 104.381Z" fill="#587178"/>
<path d="M103.693 104.015L103.563 104.297L111.016 107.648L111.145 107.366L103.693 104.015Z" fill="#587178"/>
<path d="M104.891 103.644L104.763 103.927L112.248 107.252L112.376 106.969L104.891 103.644Z" fill="#587178"/>
<path d="M106.085 103.27L105.958 103.554L113.48 106.855L113.607 106.571L106.085 103.27Z" fill="#587178"/>
<path d="M107.277 102.892L107.152 103.176L114.706 106.451L114.832 106.166L107.277 102.892Z" fill="#587178"/>
<path d="M108.468 102.515L108.344 102.799L115.932 106.047L116.056 105.763L108.468 102.515Z" fill="#587178"/>
<path d="M109.658 102.13L109.536 102.416L117.159 105.639L117.282 105.353L109.658 102.13Z" fill="#587178"/>
<path d="M110.858 101.768L110.736 102.054L118.392 105.252L118.513 104.966L110.858 101.768Z" fill="#587178"/>
<path d="M112.057 101.404L111.937 101.691L119.628 104.864L119.748 104.577L112.057 101.404Z" fill="#587178"/>
<path d="M113.244 101.016L113.125 101.303L120.848 104.449L120.967 104.162L113.244 101.016Z" fill="#587178"/>
<path d="M122.081 104.055L114.323 100.934L114.443 100.646L122.201 103.768L122.081 104.055Z" fill="#587178"/>
<path d="M115.634 100.266L115.518 100.554L123.308 103.649L123.424 103.361L115.634 100.266Z" fill="#587178"/>
<path d="M116.838 99.913L116.723 100.201L124.547 103.272L124.662 102.984L116.838 99.913Z" fill="#587178"/>
<path d="M118.028 99.5317L117.915 99.8207L125.774 102.866L125.888 102.577L118.028 99.5317Z" fill="#587178"/>
<path d="M119.217 99.1475L119.104 99.437L126.998 102.456L127.111 102.167L119.217 99.1475Z" fill="#587178"/>
<path d="M120.421 98.7852L120.31 99.0751L128.235 102.068L128.346 101.779L120.421 98.7852Z" fill="#587178"/>
<path d="M121.615 98.4184L121.504 98.7087L129.464 101.677L129.574 101.387L121.615 98.4184Z" fill="#587178"/>
<path d="M122.801 98.0271L122.692 98.3179L130.686 101.26L130.795 100.969L122.801 98.0271Z" fill="#587178"/>
<path d="M123.996 97.655L123.889 97.9463L131.917 100.863L132.025 100.572L123.996 97.655Z" fill="#587178"/>
<path d="M125.126 97.3006L125.02 97.5922L133.079 100.482L133.185 100.19L125.126 97.3006Z" fill="#587178"/>
<path d="M126.398 96.9272L126.292 97.2193L134.388 100.086L134.494 99.794L126.398 96.9272Z" fill="#587178"/>
<path d="M127.586 96.5435L127.482 96.8361L135.612 99.6769L135.716 99.3844L127.586 96.5435Z" fill="#587178"/>
<path d="M128.776 96.1612L128.673 96.4542L136.837 99.2689L136.94 98.9759L128.776 96.1612Z" fill="#587178"/>
<path d="M129.974 95.7919L129.873 96.0853L138.069 98.8749L138.171 98.5815L129.974 95.7919Z" fill="#587178"/>
<path d="M131.178 95.4365L131.077 95.7303L139.307 98.4946L139.408 98.2008L131.178 95.4365Z" fill="#587178"/>
<path d="M132.37 95.0585L132.271 95.3527L140.534 98.0916L140.633 97.7974L132.37 95.0585Z" fill="#587178"/>
<path d="M133.552 94.6671L133.454 94.9617L141.75 97.6735L141.848 97.3788L133.552 94.6671Z" fill="#587178"/>
<path d="M134.76 94.3113L134.663 94.6063L142.996 97.2947L143.093 96.9997L134.76 94.3113Z" fill="#587178"/>
<path d="M135.953 93.938L135.857 94.2334L144.223 96.8957L144.319 96.6003L135.953 93.938Z" fill="#587178"/>
<path d="M137.138 93.5515L137.044 93.8472L145.442 96.4831L145.537 96.1874L137.138 93.5515Z" fill="#587178"/>
<path d="M138.342 93.1892L138.249 93.4853L146.684 96.0972L146.777 95.8011L138.342 93.1892Z" fill="#587178"/>
<path d="M139.526 92.8036L139.434 93.1001L147.901 95.6852L147.993 95.3887L139.526 92.8036Z" fill="#587178"/>
<path d="M8.21063 86.8363L0 83.3741L0.150689 83.1176L8.36132 86.5797L8.21063 86.8363Z" fill="#587178"/>
<path d="M9.55506 86.5107L1.58398 82.8457L1.73467 82.5891L9.70188 86.2541L9.55506 86.5107Z" fill="#587178"/>
<path d="M10.8997 86.1852L3.14502 82.5431L3.29184 82.2865L11.0465 85.9248L10.8997 86.1852Z" fill="#587178"/>
<path d="M12.2446 85.8558L4.45508 82.2405L4.6019 81.9801L12.3914 85.5992L12.2446 85.8558Z" fill="#587178"/>
<path d="M13.5889 85.5303L5.76465 81.9341L5.90761 81.6737L13.7357 85.2699L13.5889 85.5303Z" fill="#587178"/>
<path d="M14.9376 85.2048L7.0708 81.6316L7.21763 81.3712L15.0805 84.9443L14.9376 85.2048Z" fill="#587178"/>
<path d="M16.2824 84.8792L8.38086 81.3252L8.52382 81.0648L16.4253 84.6188L16.2824 84.8792Z" fill="#587178"/>
<path d="M17.6267 84.5537L9.69043 81.0226L9.83339 80.7622L17.7658 84.2894L17.6267 84.5537Z" fill="#587178"/>
<path d="M18.9716 84.2244L11.0005 80.7163L11.1396 80.4559L19.1107 83.9639L18.9716 84.2244Z" fill="#587178"/>
<path d="M20.3159 83.8988L12.3101 80.4137L12.4453 80.1495L20.455 83.6384L20.3159 83.8988Z" fill="#587178"/>
<path d="M21.6607 83.5733L13.6162 80.1112L13.7553 79.8469L21.7998 83.309L21.6607 83.5733Z" fill="#587178"/>
<path d="M23.0089 83.2477L14.9258 79.8048L15.061 79.5405L23.1441 82.9835L23.0089 83.2477Z" fill="#587178"/>
<path d="M24.3537 82.9184L16.2358 79.5022L16.3711 79.238L24.489 82.6541L24.3537 82.9184Z" fill="#587178"/>
<path d="M25.6981 82.5928L17.5454 79.1958L17.6768 78.9316L25.8333 82.3286L25.6981 82.5928Z" fill="#587178"/>
<path d="M27.0429 82.2674L18.8555 78.8933L18.9868 78.6252L27.1743 82.0031L27.0429 82.2674Z" fill="#587178"/>
<path d="M28.3877 81.9418L20.1616 78.5869L20.293 78.3227L28.5191 81.6737L28.3877 81.9418Z" fill="#587178"/>
<path d="M29.7321 81.6125L21.4712 78.2844L21.6026 78.0163L29.8634 81.3482L29.7321 81.6125Z" fill="#587178"/>
<path d="M31.0807 81.2869L22.7812 77.978L22.9088 77.7137L31.2083 81.0227L31.0807 81.2869Z" fill="#587178"/>
<path d="M32.4251 80.9614L24.0908 77.6754L24.2145 77.4073L32.5526 80.6933L32.4251 80.9614Z" fill="#587178"/>
<path d="M33.7699 80.6358L25.4009 77.369L25.5245 77.101L33.8936 80.3677L33.7699 80.6358Z" fill="#587178"/>
<path d="M35.1142 80.3103L26.7065 77.0665L26.8302 76.7984L35.2379 80.0422L35.1142 80.3103Z" fill="#587178"/>
<path d="M36.4591 79.981L28.0166 76.764L28.1402 76.4921L36.5827 79.7129L36.4591 79.981Z" fill="#587178"/>
<path d="M37.8039 79.6554L29.3267 76.4575L29.4464 76.1895L37.9275 79.3873L37.8039 79.6554Z" fill="#587178"/>
<path d="M39.1521 79.3299L30.6362 76.1512L30.756 75.8831L39.2719 79.058L39.1521 79.3299Z" fill="#587178"/>
<path d="M40.4969 79.0044L31.9424 75.8486L32.0622 75.5767L40.6167 78.7325L40.4969 79.0044Z" fill="#587178"/>
<path d="M41.8412 78.675L33.252 75.5461L33.3717 75.2742L41.9572 78.4069L41.8412 78.675Z" fill="#587178"/>
<path d="M43.1861 78.3495L34.562 75.2397L34.6779 74.9678L43.302 78.0814L43.1861 78.3495Z" fill="#587178"/>
<path d="M44.5304 78.0239L35.8716 74.9371L35.9875 74.6652L44.6463 77.752L44.5304 78.0239Z" fill="#587178"/>
<path d="M45.8791 77.6984L37.1816 74.6308L37.2937 74.3589L45.9912 77.4265L45.8791 77.6984Z" fill="#587178"/>
<path d="M47.2239 77.3729L38.4878 74.3282L38.6037 74.0563L47.336 77.0971L47.2239 77.3729Z" fill="#587178"/>
<path d="M49.0592 77.3231L40.6167 74.1023L40.7365 73.8342L49.1789 77.055L49.0592 77.3231Z" fill="#587178"/>
<path d="M50.4035 76.9976L41.9224 73.7997L42.046 73.5316L50.5232 76.7295L50.4035 76.9976Z" fill="#587178"/>
<path d="M52.0265 76.6146L43.2324 73.4933L43.3522 73.2252L52.1463 76.3427L52.0265 76.6146Z" fill="#587178"/>
<path d="M53.5679 76.3006L44.542 73.1908L44.6618 72.9189L53.6877 76.0287L53.5679 76.3006Z" fill="#587178"/>
<path d="M55.0752 75.9636L46.0918 72.8844L46.2077 72.6163L55.1911 75.6916L55.0752 75.9636Z" fill="#587178"/>
<path d="M56.5587 75.4005L47.498 72.4708L47.614 72.1989L56.6746 75.1286L56.5587 75.4005Z" fill="#587178"/>
<path d="M57.6174 74.9027L48.6108 72.1108L48.7268 71.8389L57.7333 74.6308L57.6174 74.9027Z" fill="#587178"/>
<path d="M6.34033 86.2924L57.4472 74.4814C57.4472 74.4814 83.8835 83.2899 102.345 85.1358C120.806 86.9818 141.91 93.2396 141.91 93.2396C141.91 93.2396 124.218 99.5741 115.69 102.542C107.163 105.51 80.6881 111.979 78.5552 112.668C62.9995 104.767 55.353 104.453 42.923 100.076C30.4931 95.6983 6.34033 86.2924 6.34033 86.2924Z" fill="#587178"/>
<path d="M14.0874 86.4303L56.6745 75.8295C56.6745 75.8295 78.2192 84.3277 96.6806 86.1699C115.142 88.012 132.143 92.9524 132.143 92.9524C132.143 92.9524 118.299 97.1 109.771 100.057C101.244 103.013 79.8575 107.716 77.7246 108.39C62.1727 100.489 58.8112 102.542 46.3813 98.1647C33.9513 93.7873 14.0874 86.4303 14.0874 86.4303Z" fill="#3E5C65"/>
<g style="mix-blend-mode:multiply" opacity="0.58">
<path d="M53.232 84.3507C53.232 84.3507 41.6753 86.7213 39.9791 88.8852C38.2829 91.049 40.3075 92.6575 45.9912 94.6758C51.6749 96.6941 56.7983 99.1528 65.8436 101.765C72.8255 103.783 81.9596 106.743 84.0036 106.843C92.218 107.226 99.3661 104.874 108.469 102.511C111.383 101.581 114.443 100.646 114.443 100.646C114.443 100.646 129.172 100.47 125.536 95.6907C122.147 91.2405 103.562 92.2439 103.562 92.2439L53.232 84.3507Z" fill="#BC5050"/>
</g>
<path d="M104.841 20.9412C104.841 20.9412 102.469 18.2604 102.214 16.2306C101.959 14.2008 103.315 12.7034 101.619 7.32254C99.9225 1.94171 96.136 0.765968 90.2282 2.19447C84.3204 3.62298 82.5392 6.98552 82.1992 10.8536C81.8591 14.7217 82.2842 16.2153 82.9719 17.8276C83.6597 19.4399 85.4216 24.051 85.7771 25.2267C86.1325 26.4025 90.6455 27.3714 96.1398 24.8438C101.634 22.3161 104.841 20.9412 104.841 20.9412Z" fill="#ECB67B"/>
<path d="M103.021 18.3829C102.622 17.7242 102.349 16.9986 102.214 16.2421C101.959 14.2276 103.315 12.7148 101.619 7.33401C99.9225 1.95318 96.136 0.765952 90.2282 2.19446C84.3204 3.62296 82.5392 6.9855 82.1992 10.8536C81.8591 14.7216 82.2842 16.2153 82.9719 17.8276C83.2694 18.5361 83.7833 19.8267 84.2933 21.1557L85.0661 20.1408C85.0661 20.1408 83.9804 17.5863 83.907 16.2727C83.8335 14.6565 84.8536 14.9706 86.2523 15.6025C87.651 16.2344 90.6068 18.3791 91.453 18.8004C92.2992 19.2216 98.1877 16.7744 103.021 18.3829Z" fill="#EAA260"/>
<path d="M84.0922 21.416L85.0389 20.1407C85.0389 20.1407 83.9531 17.5863 83.8797 16.2727C83.8449 14.6565 85.9005 14.5531 87.3224 15.1965C88.7443 15.8399 90.7998 17.1114 91.6305 17.5365C92.4613 17.9616 97.8127 16.0046 102.654 17.6169C103.334 14.9705 103.377 12.6612 102.909 9.19142C102.442 5.72164 100.305 2.29782 97.8011 1.63527C95.2973 0.972723 89.5363 0.386768 84.6641 4.0442C79.7918 7.70163 81.2716 14.7178 81.6503 16.0237C82.0289 17.3297 84.0922 21.416 84.0922 21.416Z" fill="#5B2D00"/>
<path d="M83.9224 16.7093C83.9224 16.7093 83.3582 14.7485 84.6603 14.8595C85.9625 14.9706 87.365 18.4442 87.2027 20.1829C87.0405 21.9216 86.1866 21.4161 86.0165 21.0791C85.8465 20.7421 84.6603 17.6629 83.9224 16.7093Z" fill="#ECB67B"/>
<path d="M84.6603 14.8595C83.7948 14.7867 83.7562 15.6254 83.8258 16.1999C83.886 16.1181 83.9685 16.0549 84.0635 16.0176C84.1586 15.9803 84.2624 15.9705 84.3628 15.9893C85.522 16.108 86.5652 19.3709 86.3991 21.1058C86.3991 21.2054 86.3759 21.2973 86.3604 21.3816C86.6773 21.5003 87.0907 21.3395 87.2027 20.1829C87.3727 18.4441 85.9586 14.9705 84.6603 14.8595Z" fill="#F7C694"/>
<path d="M103.199 12.1136C103.199 12.1136 101.788 10.5434 95.1157 10.8804C88.4428 11.2174 83.8449 13.1782 82.2182 17.4714C80.8697 16.2612 80.4524 12.3242 81.1363 9.1991C82.0791 4.88678 85.2745 0.620409 91.1591 0.344665C97.1519 0.0650919 103.307 2.53913 103.199 12.1136Z" fill="#F9EEE5"/>
<path d="M92.1679 -2.05968e-06C89.0305 -0.03447 85.6535 1.76935 83.9805 3.58467C89.5521 0.0229763 94.5287 3.32041 95.4638 10.8612C101.835 10.597 103.191 12.1097 103.191 12.1097C103.307 2.53914 99.3894 0.0842529 92.1679 -2.05968e-06Z" fill="#F9E9DE"/>
<path d="M71.1756 79.9848C71.1756 79.9848 62.9302 79.6018 59.1669 79.6937C55.4035 79.7856 52.3356 82.2826 51.2537 83.1175C50.1719 83.9524 48.8659 85.1473 48.6341 89.2451C48.352 94.2238 58.68 97.3145 64.3058 98.8617C69.2244 100.217 78.4821 102.354 78.4821 102.354L79.6413 83.1405C79.6413 83.1405 76.7705 79.7703 71.1756 79.9848Z" fill="#513210"/>
<path d="M72.377 99.8996C72.377 99.8996 73.7911 101.171 79.1039 102.351C84.4166 103.53 91.4681 103.58 99.3851 102.351C107.302 101.121 111.85 98.766 113.681 96.1349C115.513 93.5039 111.63 91.0184 111.63 91.0184L72.377 99.8996Z" fill="#513210"/>
<path d="M62.1419 78.4797C62.1419 78.4797 61.0832 79.9886 58.6258 80.4482C56.1684 80.9077 53.4521 81.2907 52.1384 82.5507C50.8247 83.8107 50.1447 82.9337 50.9793 80.9116C51.8138 78.8895 53.7805 77.6333 55.2295 76.3158C56.6784 74.9984 60.6118 74.0869 60.6118 74.0869L62.1419 78.4797Z" fill="#ECB67B"/>
<path d="M60.6156 74.1022C60.6156 74.1022 59.7501 74.3052 58.6837 74.6575C57.6791 76.0822 59.4024 78.2575 58.2007 78.8512C55.7317 79.7703 53.823 81.2448 51.4583 82.2635C51.3801 82.2972 51.2947 82.311 51.2098 82.3038C51.1248 82.2966 51.043 82.2686 50.9717 82.2222C50.9004 82.1759 50.8419 82.1127 50.8014 82.0383C50.7609 81.9639 50.7397 81.8808 50.7397 81.7962V81.6392C50.3533 83.1213 50.9947 83.646 52.1384 82.5507C53.4521 81.2907 56.1645 80.9116 58.6257 80.4482C61.087 79.9848 62.1418 78.4797 62.1418 78.4797L60.6156 74.1022Z" fill="#EAA260"/>
<path d="M50.6162 82.1793C50.6162 82.1793 50.6664 81.5014 52.3008 80.3448C53.2475 79.6746 54.3641 79.4984 54.6191 79.1001C54.7621 78.8857 54.6191 78.8627 54.1284 79.1959C53.6377 79.5291 52.8031 79.7895 52.409 80.0997C52.0149 80.4099 50.6703 81.3329 50.6162 82.1793Z" fill="#EAA260"/>
<path d="M51.1416 80.5899C51.1416 80.5899 51.1957 80.0231 52.8301 78.8626C53.7767 78.1924 54.9281 78.0967 55.2257 77.7137C55.5232 77.3307 55.0982 77.4418 54.619 77.7712C54.1399 78.1005 53.3401 78.3265 52.9421 78.6367C52.5442 78.9469 51.5975 79.5405 51.1416 80.5899Z" fill="#EAA260"/>
<path d="M108.744 23.714C108.744 23.714 105.973 21.0791 105.575 19.9569C103.091 18.7276 96.1476 18.134 91.5574 19.9569C88.7522 21.0638 86.5344 23.5952 86.2407 25.2344C96.8701 25.1156 108.744 23.714 108.744 23.714Z" fill="#F2DDCE"/>
<path d="M110.185 23.3616C110.185 23.3616 100.846 20.8569 95.0889 21.6114C89.3318 22.3659 83.7254 25.8969 82.0292 27.4097C83.5554 33.5373 75.4993 65.8529 74.1431 70.7819C72.7869 75.7108 71.7707 78.6291 66.9062 78.518C62.0416 78.4069 61.2534 78.518 61.2534 78.518C61.2534 78.518 59.7852 79.1882 59.7852 82.1027C66.6821 85.9324 74.5952 83.4469 74.5952 83.4469C75.0473 90.6201 72.2228 96.8971 74.8232 100.145C77.4235 103.392 79.3438 103.507 79.3438 103.507C79.3438 103.507 81.6042 100.593 92.3456 101.267C103.087 101.941 114.849 97.2341 116.093 91.7422C117.337 86.2503 117.171 85.8865 117.963 83.3167C118.755 80.7469 120.049 76.9554 119.257 73.9299C118.465 70.9044 116.715 67.8482 117.901 65.1597C119.087 62.4712 119.172 60.5372 118.674 58.3504C118.175 56.1636 120.285 46.6658 120.606 41.4573C120.926 36.2488 119.674 32.8824 119.674 32.8824C119.674 32.8824 116.301 26.2339 110.185 23.3616Z" fill="#EAD4C1"/>
<path d="M110.185 23.3616C110.185 23.3616 100.846 20.8569 95.0889 21.6114C89.3318 22.3659 84.1504 27.8616 82.4542 29.3743C83.9804 35.502 75.4993 65.8529 74.1431 70.7819C72.7869 75.7108 71.7707 78.6291 66.9062 78.518C62.0416 78.4069 61.2534 78.518 61.2534 78.518C61.2534 78.518 59.7852 79.1882 59.7852 82.1027C66.6821 85.9324 74.5952 83.4469 74.5952 83.4469C75.0473 90.6201 72.2228 96.8971 74.8232 100.145C77.4235 103.392 79.3438 103.507 79.3438 103.507C79.3438 103.507 81.6042 100.593 92.3456 101.267C103.087 101.941 114.849 97.2341 116.093 91.7422C117.337 86.2503 117.171 85.8865 117.963 83.3167C118.755 80.7469 120.049 76.9554 119.257 73.9299C118.465 70.9044 116.715 67.8482 117.901 65.1597C119.087 62.4712 119.172 60.5372 118.674 58.3504C118.175 56.1636 120.285 46.6658 120.606 41.4573C120.926 36.2488 119.674 32.8824 119.674 32.8824C119.674 32.8824 116.301 26.2339 110.185 23.3616Z" fill="#E5CCB3"/>
<path d="M61.2534 79.5252C61.2534 79.5252 65.778 82.8877 71.2028 80.7584C76.6276 78.629 74.4754 79.0618 77.1956 75.8256C84.618 67.0172 100.943 65.627 107.612 66.6342C105.351 65.401 89.7453 64.4742 79.6568 71.2835C85.2516 63.804 95.344 59.0972 99.8376 58.4232C104.331 57.7491 107.217 58.4232 107.217 58.4232C107.217 58.4232 95.769 54.7236 83.8104 64.8112C87.9679 60.5257 88.335 61.9274 90.2283 55.8725C92.1215 49.8177 95.6376 47.47 100.035 43.5445C104.432 39.619 105.691 33.3458 105.691 33.3458C103.203 38.3896 102.129 40.7717 98.3114 43.3032C94.4939 45.8347 88.8411 52.464 88.2654 54.4823C87.6897 56.5006 87.7284 49.856 90.2167 46.5815C92.705 43.307 94.2312 36.9152 94.4669 32.4573C93.1068 38.0066 91.6965 43.3032 88.2461 46.5815C91.0744 39.7722 91.4415 34.3071 90.1973 31.2816C90.3944 35.8198 89.5173 43.8892 84.4016 49.6913C79.2859 55.4934 61.2534 79.5252 61.2534 79.5252Z" fill="#E5C4A5"/>
<path d="M119.427 78.5716C119.427 78.5716 116.885 78.1887 115.641 81.038C114.397 83.8874 115.478 83.784 114.397 88.4907C113.315 93.1975 111.456 95.6065 110.44 96.112C114.849 96.449 117.619 92.8069 117.673 92.5809C117.727 92.355 119.427 78.5716 119.427 78.5716Z" fill="#E5C4A5"/>
<path d="M117.963 79.9848C117.963 79.9848 115.753 86.5873 94.6098 84.0061C98.3384 85.4652 110.904 87.7554 117.963 82.2942C116.494 88.9924 103.995 91.5316 93.8911 90.7886C98.2997 91.6273 113.21 93.3047 118.851 83.129C119.172 82.8878 117.963 79.9848 117.963 79.9848Z" fill="#E5C4A5"/>
<path d="M93.1377 98.1839C86.4378 97.8507 84.3205 97.1766 79.6568 98.9498C78.3006 97.9694 77.4506 96.0698 77.7906 93.546C78.1306 91.0222 78.3818 88.5673 78.8068 84.6379C79.029 82.3384 79.784 80.1208 81.013 78.158L77.1956 75.8295C77.1956 75.8295 74.9932 79.4448 69.5645 79.9886C67.0007 80.228 64.4231 79.704 62.1614 78.4835C61.4389 78.4835 61.2534 78.5218 61.2534 78.5218C61.2534 78.5218 59.7852 79.192 59.7852 82.1065C66.6821 85.9362 74.5952 83.4507 74.5952 83.4507C75.0473 90.6239 72.2228 96.9009 74.8232 100.149C77.4235 103.396 79.3438 103.511 79.3438 103.511C79.3438 103.511 81.6042 100.597 92.3456 101.271C103.087 101.945 114.849 97.2379 116.093 91.746C116.139 91.543 116.182 91.363 116.22 91.1639C109.242 96.8051 99.3005 98.4941 93.1377 98.1839Z" fill="#DBB393"/>
<path d="M88.4466 43.2151C88.4466 43.2151 89.4087 35.3986 87.3725 31.1092C85.3363 26.8199 83.1223 26.5709 82.0288 27.4096C80.9354 28.2484 77.1102 34.9773 76.094 38.5926C75.0778 42.2079 73.2116 48.4236 72.0215 49.787C70.8314 51.1504 68.5441 59.9551 67.7713 61.5521C66.9985 63.1491 63.3627 69.2116 63.3627 69.2116C61.6665 68.7099 59.9702 69.6329 59.3752 71.9882C58.7802 74.3435 59.3752 78.7095 61.2414 79.552C63.1077 80.3946 68.7025 80.1418 72.0949 78.292C75.4874 76.4422 75.8274 72.7427 76.1674 72.241C76.5074 71.7393 79.8148 68.4572 80.661 66.1133C81.5072 63.7695 83.4584 61.4065 84.4785 59.0551C85.4985 56.7036 87.5966 48.1747 88.4466 43.2151Z" fill="#EAD4C1"/>
<path d="M62.1417 71.4827C62.1417 71.4827 60.9555 72.5052 61.508 74.9869C62.0606 77.4686 64.0929 79.6056 67.7829 78.6214C65.8316 78.5601 61.5505 76.6261 63.3318 72.172C62.4392 71.498 62.1417 71.4827 62.1417 71.4827Z" fill="#E5CCB3"/>
<path d="M61.7634 72.6316C61.1954 75.098 65.38 72.9687 67.4162 69.5678C69.4524 66.167 71.6664 58.5266 71.3728 55.053C71.0791 51.5794 72.0219 49.787 72.0219 49.787C70.8357 51.1313 68.5444 59.9551 67.7717 61.5521C66.9989 63.1491 63.363 69.2117 63.363 69.2117C62.8917 71.6819 62.3275 70.1653 61.7634 72.6316Z" fill="#F4DFD0"/>
<path d="M71.0056 66.8334C72.4496 62.7634 73.3586 58.526 73.7103 54.2258C74.3015 47.0794 74.8347 41.3003 76.3493 37.7577C77.8639 34.2152 79.1351 36.919 78.0339 40.4386C76.9327 43.9581 76.0827 46.4092 75.9977 49.7717C75.9127 53.1343 78.7951 51.3688 80.3213 47.5007C81.1468 45.3016 82.3843 43.2771 83.9688 41.5339C82.1025 44.8964 81.1714 50.1892 79.6452 52.2917C78.1189 54.3943 76.2527 53.5058 76.2527 53.5058C75.4799 61.7053 73.7065 69.5908 67.5166 71.6244C70.0745 69.2691 70.5265 68.2159 71.0056 66.8334Z" fill="#F4DFD0"/>
<path d="M123.187 97.5979C123.187 97.5979 122.955 99.3635 121.831 99.5932C120.706 99.823 120.304 99.3826 120.749 98.5937C120.262 99.2984 119.589 99.9264 118.797 99.6545C118.005 99.3826 118.651 98.6588 118.651 98.6588C118.013 99.6775 117.464 99.7809 117.039 99.4247C116.614 99.0686 117.039 98.2758 117.039 98.2758C116.383 99.4707 115.598 99.5549 115.216 98.9269C114.833 98.2988 115.768 97.349 115.83 97.349L123.187 97.5979Z" fill="#DD9A58"/>
<path d="M114.084 94.2124C114.318 92.8803 114.845 91.6157 115.629 90.509C116.877 88.8315 117.047 87.4873 117.005 85.3005C116.962 83.1137 116.367 81.2256 117.217 79.5022C118.067 77.7788 121.583 77.3576 122.812 80.7201C124.041 84.0826 123.534 88.2035 124.087 90.3443C124.639 92.4851 124.86 96.2728 123.662 97.5749C122.464 98.877 119.083 99.5473 115.934 98.203C115.594 99.2983 114.238 99.8 112.712 99.5472C111.186 99.2945 111.128 97.6936 111.862 96.6902C112.596 95.6868 113.666 95.7634 114.084 94.2124Z" fill="#EAA260"/>
<path d="M114.084 94.2124C114.318 92.8803 114.845 91.6157 115.629 90.509C116.877 88.8315 117.047 87.4873 117.005 85.3005C116.962 83.1137 116.367 81.2256 117.217 79.5022C118.067 77.7788 121.583 77.3576 122.812 80.7201C124.041 84.0826 122.785 87.5447 123.337 89.6856C123.89 91.8264 125.231 95.6256 123.662 97.5749C122.557 98.946 119.083 99.5473 115.934 98.203C115.594 99.2983 114.238 99.8 112.712 99.5472C111.186 99.2945 111.128 97.6936 111.862 96.6902C112.596 95.6868 113.666 95.7634 114.084 94.2124Z" fill="#ECB67B"/>
<path d="M114.211 95.5796C114.041 94.7371 114.319 93.1822 115.524 92.6805C116.73 92.1788 119.597 90.4516 119.427 88.0848C119.257 85.718 117.197 86.4609 116.8 82.6771C116.865 83.4967 116.977 84.3546 116.997 85.266C117.039 87.4528 116.869 88.7971 115.621 90.4745C114.837 91.5813 114.31 92.8458 114.076 94.1779C113.658 95.7481 112.592 95.6524 111.858 96.6558C111.715 96.8513 111.603 97.0669 111.525 97.2954C111.749 96.9124 112.205 96.6941 112.847 96.5945C113.654 96.4681 114.269 97.4754 114.926 98.0422C115.582 98.609 115.312 99.0494 114.319 99.486C114.776 99.3392 115.2 99.105 115.567 98.7966C115.73 98.6161 115.852 98.4033 115.926 98.1724C115.095 97.5074 114.495 96.6006 114.211 95.5796Z" fill="#EAA260"/>
<path d="M117.518 67.5917C117.518 67.5917 115.725 63.5551 107.611 62.881C111.278 60.5296 117.46 63.1415 117.518 67.5917Z" fill="#E5C4A5"/>
</svg>
