<?xml version="1.0" encoding="UTF-8"?>
<!--Generator: Apple Native CoreSVG 326-->
<!DOCTYPE svg
PUBLIC "-//W3C//DTD SVG 1.1//EN"
       "http://www.w3.org/Graphics/SVG/1.1/DTD/svg11.dtd">
<svg version="1.1" xmlns="http://www.w3.org/2000/svg" xmlns:xlink="http://www.w3.org/1999/xlink" viewBox="0 0 18.4131 25.4443">
 <g>
  <rect height="25.4443" opacity="0" width="18.4131" x="0" y="0"/>
  <path d="M0 12.7148C0 13.0811 0.131836 13.4033 0.410156 13.6816L12.0264 25.0342C12.2754 25.2979 12.5977 25.4297 12.9785 25.4297C13.7402 25.4297 14.3262 24.8584 14.3262 24.0967C14.3262 23.7158 14.165 23.3936 13.9307 23.1445L3.2666 12.7148L13.9307 2.28516C14.165 2.03613 14.3262 1.69922 14.3262 1.33301C14.3262 0.571289 13.7402 0 12.9785 0C12.5977 0 12.2754 0.131836 12.0264 0.380859L0.410156 11.748C0.131836 12.0117 0 12.3486 0 12.7148Z" fill="black"/>
 </g>
</svg>
