<?xml version="1.0" encoding="UTF-8"?>
<!--Generator: Apple Native CoreSVG 326-->
<!DOCTYPE svg
PUBLIC "-//W3C//DTD SVG 1.1//EN"
       "http://www.w3.org/Graphics/SVG/1.1/DTD/svg11.dtd">
<svg version="1.1" xmlns="http://www.w3.org/2000/svg" xmlns:xlink="http://www.w3.org/1999/xlink" viewBox="0 0 30.249 29.8975">
 <g>
  <rect height="29.8975" opacity="0" width="30.249" x="0" y="0"/>
  <path d="M29.8828 14.9414C29.8828 23.1738 23.1885 29.8828 14.9414 29.8828C6.70898 29.8828 0 23.1738 0 14.9414C0 6.69434 6.70898 0 14.9414 0C23.1885 0 29.8828 6.69434 29.8828 14.9414ZM12.5537 12.2314C11.9385 12.2314 11.4551 12.7148 11.4551 13.3008C11.4551 13.9307 11.9385 14.3848 12.5537 14.3848L14.165 14.3848L14.165 21.2695L12.3047 21.2695C11.6748 21.2695 11.1914 21.7529 11.1914 22.3389C11.1914 22.9688 11.6748 23.4229 12.3047 23.4229L18.4424 23.4229C19.0723 23.4229 19.5557 22.9688 19.5557 22.3389C19.5557 21.7529 19.0723 21.2695 18.4424 21.2695L16.582 21.2695L16.582 13.6084C16.582 12.7881 16.1719 12.2314 15.3955 12.2314ZM12.832 7.74902C12.832 8.8623 13.7109 9.74121 14.8096 9.74121C15.9082 9.74121 16.7725 8.8623 16.7725 7.74902C16.7725 6.63574 15.9082 5.75684 14.8096 5.75684C13.7109 5.75684 12.832 6.63574 12.832 7.74902Z" fill="#55bef0"/>
 </g>
</svg>
