<?xml version="1.0" encoding="UTF-8"?>
<!--Generator: Apple Native CoreSVG 326-->
<!DOCTYPE svg
PUBLIC "-//W3C//DTD SVG 1.1//EN"
       "http://www.w3.org/Graphics/SVG/1.1/DTD/svg11.dtd">
<svg version="1.1" xmlns="http://www.w3.org/2000/svg" xmlns:xlink="http://www.w3.org/1999/xlink" viewBox="0 0 27.7002 5.58105">
 <g>
  <rect height="5.58105" opacity="0" width="27.7002" x="0" y="0"/>
  <path d="M24.5508 5.55176C26.0889 5.55176 27.334 4.32129 27.334 2.7832C27.334 1.24512 26.0889 0 24.5508 0C23.0127 0 21.7676 1.24512 21.7676 2.7832C21.7676 4.32129 23.0127 5.55176 24.5508 5.55176Z" fill="#ff375f"/>
  <path d="M13.667 5.55176C15.2051 5.55176 16.4355 4.32129 16.4355 2.7832C16.4355 1.24512 15.2051 0 13.667 0C12.1289 0 10.8838 1.24512 10.8838 2.7832C10.8838 4.32129 12.1289 5.55176 13.667 5.55176Z" fill="#ff375f"/>
  <path d="M2.7832 5.55176C4.32129 5.55176 5.55176 4.32129 5.55176 2.7832C5.55176 1.24512 4.32129 0 2.7832 0C1.24512 0 0 1.24512 0 2.7832C0 4.32129 1.24512 5.55176 2.7832 5.55176Z" fill="#ff375f"/>
 </g>
</svg>
