<?xml version="1.0" encoding="UTF-8"?>
<!--Generator: Apple Native CoreSVG 326-->
<!DOCTYPE svg
PUBLIC "-//W3C//DTD SVG 1.1//EN"
       "http://www.w3.org/Graphics/SVG/1.1/DTD/svg11.dtd">
<svg version="1.1" xmlns="http://www.w3.org/2000/svg" xmlns:xlink="http://www.w3.org/1999/xlink" viewBox="0 0 18.2373 24.2432">
 <g>
  <rect height="24.2432" opacity="0" width="18.2373" x="0" y="0"/>
  <path d="M1.94824 24.2285L5.28809 24.2285C6.5625 24.2285 7.23633 23.5547 7.23633 22.2656L7.23633 1.94824C7.23633 0.600586 6.5625 0 5.28809 0L1.94824 0C0.673828 0 0 0.65918 0 1.94824L0 22.2656C0 23.5547 0.673828 24.2285 1.94824 24.2285ZM12.5977 24.2285L15.9229 24.2285C17.2119 24.2285 17.8711 23.5547 17.8711 22.2656L17.8711 1.94824C17.8711 0.600586 17.2119 0 15.9229 0L12.5977 0C11.3086 0 10.6348 0.65918 10.6348 1.94824L10.6348 22.2656C10.6348 23.5547 11.3086 24.2285 12.5977 24.2285Z" fill="#ff2d55"/>
 </g>
</svg>
