<svg xmlns="http://www.w3.org/2000/svg" viewBox="0 0 536.19 604.77"><defs><style>.cls-1{fill:#fff;}.cls-2{fill:#45b172;}</style></defs><g id="Calque_2" data-name="Calque 2"><g id="Calque_4" data-name="Calque 4"><path class="cls-1" d="M303.11,495.56a198.14,198.14,0,0,0,75.78-22.09,204.16,204.16,0,0,0,42.41-29.89,200.72,200.72,0,0,0,45.49-60.15,198.39,198.39,0,0,0,20-72.71,230.6,230.6,0,0,0-.19-37.26,27.25,27.25,0,0,0-.92-5.07c-.65-2.43-2.14-4.07-4.78-3.91a4.83,4.83,0,0,0-4.64,4.19c-.36,1.68-.63,3.39-.88,5.09-4.3,29.33-16.25,55.17-35.35,77.79a153.44,153.44,0,0,1-35.71,30.69c-1.83,1.15-3.87,3.09-6,2.16-.25.14-.47.3-.73.44v-.91c-1.47-1.34-.67-3.85-.74-5.78-.13-3.44,0-6.89-.05-10.33a11.63,11.63,0,0,0-.66-4.3c-.85-2.15-2.34-3.62-4.73-3.61s-3.8,1.65-4.65,3.74a12.26,12.26,0,0,0-.52,4.71c0,6.09-.09,12.18,0,18.28.07,3.5-1.33,5.7-4.59,7a157.83,157.83,0,0,1-43.82,10.81c-4.15.44-5.37-.65-5.38-4.79q-.11-38.74,0-77.49c0-3.87.84-4.7,4.74-4.72q22-.17,44.11,0c4,0,4.76.87,4.87,5,.11,3.71,0,7.42,0,11.13a11.3,11.3,0,0,0,.44,3.93c.8,2.11,2.11,3.8,4.52,3.91,2.59.12,4.12-1.48,5-3.79a13.35,13.35,0,0,0,.62-4.7c0-2.91.1-5.83,0-8.74-.15-3.56.26-6.29,4.58-7.45,3.65-1,4.61-4.6,2.27-7.61-1.88-2.42-1.71-4.5-.41-6.92,10.24-19.11,3.21-39.62-12.49-53.08a70.27,70.27,0,0,0-21.7-13c-3.51-1.28-5-3.46-4.85-7.17s.13-7.16,0-10.73-2-5.74-4.69-5.83-4.73,2-5,5.58c-.26,3.84-.14,7.68-.07,11.52.05,3.2-1.22,5.2-4.24,6.38a77.27,77.27,0,0,0-22.05,13.2C313,262,305,282.73,315.84,302.89a4.91,4.91,0,0,1-.44,6.1c-2.68,3.54-1.38,7.23,3,8.14,3.59.74,4.32,2.71,4.32,5.87,0,25.3,0,50.6,0,75.9,0,5-.72,5.67-5.82,5.7-3.17,0-6.35.25-9.49-.54-2.24-.57-3.42-1.85-3.45-4.18,0-1.06-.05-2.12-.05-3.18v-149c0-1.06,0-2.12,0-3.17,0-2.28,1-3.55,3.3-4.29,5.75-1.86,6.75-4.54,3.33-9.3-1.66-2.32-.52-3.9.45-5.78,5.33-10.43,6.31-21.19,2.41-32.32a31.33,31.33,0,0,0-2-4.34c-2-3.73-4.48-5-7.22-3.64s-3.53,4-1.74,7.87c5.49,11.9,3.75,22.87-3.86,33.25a8.37,8.37,0,0,1-7.34,3.83q-24-.09-48.09,0a8.67,8.67,0,0,1-7.69-4c-11.51-16.17-8.32-31.7,5.44-45.26,6.39-6.31,14.42-10.25,22.77-13.46a9.23,9.23,0,0,1,6.95,0,122.44,122.44,0,0,1,12.21,5.76c3.62,1.86,6.34,1.27,7.92-1.55,1.39-2.49.32-5.19-3.07-7.15a69.35,69.35,0,0,0-11.08-5.35c-3.36-1.21-4.75-3.42-4.6-7s.13-7.15,0-10.72c-.15-3.86-2-6-4.93-6s-4.66,2.1-4.78,6.08c-.1,3.44-.17,6.9,0,10.33.18,3.67-1.21,5.76-4.73,7.22-12,5-22.81,11.84-30.52,22.69-9.65,13.57-11.44,27.92-4.1,43.09,1.24,2.56,1.67,4.7-.07,7.37-2.27,3.49-1.21,6.6,2.7,7.87,3.34,1.09,4.12,3.13,4.12,6.25q-.06,59.81,0,119.61c0,.4,0,.8,0,1.2-.14,1.14-.05,2.48-1.08,3.15a3.47,3.47,0,0,1-.16.41l-.2-.16h0c-1.2.42-2.3-.39-3.22-1.17a134.21,134.21,0,0,1-14.13-13.37c-9.66-11-18.15-22.77-24.57-36a11.45,11.45,0,0,0-2.29-3.22,4.32,4.32,0,0,0-5.46-.85A4.52,4.52,0,0,0,176.1,321a14.67,14.67,0,0,0,1.52,3.66c26.11,49.67,66.67,80,122.15,88.55,48.28,7.43,91.63-5.57,129.31-36.65,17.8-14.69,31.47-32.79,41.73-53.47.88-1.78,1.32-5.21,3.56-4.52a.91.91,0,0,1,.17.09s0,0,0,0a.43.43,0,0,0,0,0c2.23.93.75,4,.46,5.91a186.24,186.24,0,0,1-13.73,46.76,193,193,0,0,1-111.73,104,199,199,0,0,1-52.38,10.59c-31.87,2.15-62.17-3.63-91.26-16.52a186.83,186.83,0,0,1-62.14-44.69c-26.66-28.93-43.17-62.9-49-101.91a179.78,179.78,0,0,1-2.35-32.43c.85-25.68,6-50.41,16.36-74a191,191,0,0,1,45.34-63.61,188.84,188.84,0,0,1,85.5-45.91,7.31,7.31,0,0,1,.78-.18c1.42-.22,3.34-.86,3.92.71s-1.3,2.4-2.52,3.13a165.61,165.61,0,0,0-35.46,27.94,161.75,161.75,0,0,0-44.19,89.78,159.72,159.72,0,0,0,3.1,63.05,14.24,14.24,0,0,0,1.57,4.48c1.29,2,3.08,3,5.43,2.28a4.61,4.61,0,0,0,3.46-4.77,20.34,20.34,0,0,0-.93-5.06,143.16,143.16,0,0,1-4.39-41.34c1.88-37.71,15-70.89,40.79-98.85,21.67-23.51,48.17-38.56,79.24-45.74a18,18,0,0,0,4.52-1.49,4.55,4.55,0,0,0,2.73-4.84,4.86,4.86,0,0,0-3.8-4.13,8.93,8.93,0,0,0-2.36-.29c-40.38-1.1-77.9,8.58-112.42,29.72a194.08,194.08,0,0,0-38.18,30.31C109,184.39,89.56,223.41,84.12,269.15c-.22,1.84-.56,3.66-.78,5.5-.13,1.06,0,2.52-1.76,2.52v4.77c.94.53.81,1.06,0,1.59V304.2c.82.53.94,1.06,0,1.59v4.77c1.72,4.71,1.52,9.73,2.28,14.59a199.21,199.21,0,0,0,47.53,102.19q43.2,49.5,107.26,64.8a175.25,175.25,0,0,0,27.72,4.41c.73.06,1.63-.22,2,.8h31.79C300.28,495.34,301.93,495.67,303.11,495.56ZM293,398.64c0,.64-.08,1.29-.14,2.17-14.34-2.81-27.47-8.31-40.55-14.3-8.7-4-11.54-9.17-11.38-18.91.68-40.62.36-81.27.18-121.91,0-4,1.13-4.64,4.79-4.59,14.69.23,29.39.15,44.08,0,2.39,0,3.1.51,3.09,3Q293,321.4,293,398.64Zm36.5-94.9c-10.41-12.94-10-29,1-41.48,7.37-8.32,16.69-13.58,27-17.29a4.84,4.84,0,0,1,3.45-.14c11,4,20.89,9.53,28.39,18.72,10.23,12.54,10,28.28-.34,40.51a5.87,5.87,0,0,1-5,2.39c-8.21-.14-16.41-.05-24.61-.05s-16.15-.12-24.21.06A6.45,6.45,0,0,1,329.53,303.74Z"/><path class="cls-1" d="M81.58,281.94v1.59A1,1,0,0,0,81.58,281.94Z"/><path class="cls-1" d="M81.58,304.2v1.59A1,1,0,0,0,81.58,304.2Z"/><path class="cls-1" d="M406.12,194.34a26.93,26.93,0,0,1-8.56,8.69c3.74,2.08,6.2,5.14,8.73,8.39,2.11-3.66,5.16-6.1,8.28-8.58A28.31,28.31,0,0,1,406.12,194.34Z"/><path class="cls-1" d="M395.8,140.52a30.38,30.38,0,0,1,8.34-8.52,31.53,31.53,0,0,1-8.41-8.47,34.64,34.64,0,0,1-8.46,8.61A27,27,0,0,1,395.8,140.52Z"/><path class="cls-1" d="M363.78,356c0-2.38-.09-4.77,0-7.15.15-3.11-1.05-5.49-4.22-5.55-3.45-.07-4.58,2.51-4.56,5.69,0,4.5.25,9-.07,13.5-.24,3.28,1,3.64,3.93,3.86,4.29.33,5.54-1.2,4.94-5.19A35.52,35.52,0,0,1,363.78,356Z"/><path class="cls-1" d="M345.33,157.32c-2.2,1.19-3.66,3.22-5.32,5-.25.27,4.52,5.23,5.06,5.29s5.22-4.34,5.26-5.05C350.36,162,345.77,157.08,345.33,157.32Z"/><path class="cls-1" d="M267.34,316.66c-8.66-.13-16.16,6.45-16.45,14.9-.28,8.2-.19,16.42-.07,24.63.07,4.47,3.05,7.41,7.53,7.53,5.82.14,11.65.15,17.48,0,4.67-.12,7.54-3.19,7.62-7.86.07-3.84,0-7.68,0-11.53,0-4.1.09-8.21,0-12.31C283.21,323.61,276,316.79,267.34,316.66Zm4.21,25v4c0,6.77,0,6.7-6.81,6.07-1.59-.14-2-.69-2-2.16.05-5.43,0-10.86.05-16.29,0-2.59,1.46-4.24,4.13-4.38s4.25,1.6,4.5,4.05c.29,2.89.07,5.82.07,8.74Z"/><path class="cls-1" d="M257.9,301.93c6.07.24,12.17.25,18.25,0,4.78-.18,7.25-3.15,7.31-8.08,0-3.83,0-7.67,0-11.51s.08-7.95,0-11.92c-.21-8.31-7.55-15.35-16-15.48s-16.21,6.55-16.5,14.91c-.29,8.2-.2,16.42-.08,24.62C250.88,299,253.47,301.75,257.9,301.93Zm4.79-16.59a128.88,128.88,0,0,0,.07-13c-.05-3,1.25-5,4.23-5.09s4.46,1.92,4.53,4.84c.07,2.63,0,5.27,0,7.91a37.7,37.7,0,0,0,.06,5.92c.62,3.72-1.11,4.05-4.31,4.21C263.37,290.29,262.38,289.08,262.69,285.34Z"/><path class="cls-2" d="M74,554.68a35.49,35.49,0,0,0-20.27,9c-5.39,4.81-9.39,11.18-12.11,19A72.57,72.57,0,0,0,38,599.87c-.15,1.56-.25,3.13-.33,4.9a6.11,6.11,0,0,1-.47-2.54A73.23,73.23,0,0,0,33.09,582c-4.34-11.82-11.32-19.74-20.64-24.12a37.41,37.41,0,0,0-11-3.16c-.4-.48-1.16.39-1.42-.64a37.09,37.09,0,0,0,16.34-5.46c8.51-5.37,14.42-13.93,17.9-25.48a73.74,73.74,0,0,0,2.66-13.68c.07-.76.18-1.52.27-2.27.35-.24-.21-1.2.53-1.13a85.86,85.86,0,0,0,2.61,15.68A52.23,52.23,0,0,0,48.4,539a36.12,36.12,0,0,0,23.86,14.65,28.48,28.48,0,0,0,3.17.36C75.2,555.18,74.41,554.17,74,554.68Z"/><path class="cls-2" d="M534.77,48.65a35.43,35.43,0,0,0-20.27,9c-5.39,4.81-9.4,11.19-12.12,19a73.17,73.17,0,0,0-3.66,17.28c-.15,1.56-.24,3.13-.33,4.9a6.1,6.1,0,0,1-.46-2.54,73.24,73.24,0,0,0-4.09-20.26C489.5,64.12,482.53,56.2,473.2,51.82a37.41,37.41,0,0,0-11-3.16c-.4-.48-1.16.4-1.42-.64a37.05,37.05,0,0,0,16.34-5.46c8.51-5.36,14.43-13.93,17.9-25.48A72.93,72.93,0,0,0,497.65,3.4c.08-.76.18-1.51.28-2.27.34-.24-.21-1.2.52-1.13a86.72,86.72,0,0,0,2.61,15.68A52.43,52.43,0,0,0,509.15,33,36.17,36.17,0,0,0,533,47.65a28.39,28.39,0,0,0,3.18.36C536,49.15,535.16,48.14,534.77,48.65Z"/></g></g></svg>