<svg xmlns="http://www.w3.org/2000/svg" viewBox="0 0 81.2 55.36"><defs><style>.cls-1{fill:#010101;}</style></defs><g id="Calque_2" data-name="Calque 2"><g id="Calque_4" data-name="Calque 4"><path class="cls-1" d="M81.17,9.41A1.36,1.36,0,0,0,79,8.25c-.55.34-1.07.71-1.63,1.07l-2.76-4c-.9-1.29-1.41-1.42-2.69-.53-.48.33-.63.18-.89-.21-.78-1.17-1.59-2.32-2.39-3.47C67.68-.2,67.15-.29,65.79.63A25.41,25.41,0,0,1,51.55,5.35a11.43,11.43,0,0,0-9.66,5.14c-.46.67-.86,1.39-1.33,2.16a14,14,0,0,0-2.31-3.5,12.42,12.42,0,0,0-8.89-3.84,27.37,27.37,0,0,1-4.52-.45A27.23,27.23,0,0,1,15.1.44c-1-.7-1.63-.58-2.33.43C11.91,2.09,11,3.29,10.23,4.55c-.36.56-.6.53-1.08.19-1.09-.75-1.7-.62-2.46.47L3.83,9.33c-.58-.39-1.13-.78-1.7-1.12A1.35,1.35,0,0,0,0,9.41c0,1.94,0,3.89,0,5.83A4.66,4.66,0,0,0,.1,16a7.35,7.35,0,0,0,3.51,4.74q9.18,6.16,18.33,12.34c2.1,1.41,4.19,2.84,6.3,4.24a1.38,1.38,0,0,0,2.3-.78c.18-.77-.31-1.19-.87-1.57l-9.45-6.35L4.36,17.9a3.41,3.41,0,0,1-1.61-2.64c-.07-1.08,0-2.16,0-3.36L38.08,35.23l-.66.45Q24.61,44.14,11.8,52.58c-.71.47-1.2,1-.92,1.86s1,.92,1.79.91q6.26,0,12.51,0A3,3,0,0,0,27,54.8C31.31,51.87,35.65,49,40,46a.93.93,0,0,1,1.25,0c4.32,2.94,8.67,5.85,13,8.78a2.9,2.9,0,0,0,1.72.54q6.38,0,12.76,0c.76,0,1.36-.19,1.6-1s-.16-1.31-.82-1.75q-8.2-5.38-16.39-10.81c-1-.62-1.7-.52-2.18.26s-.23,1.44.68,2L63.34,51.9c.31.2.61.41,1.09.74-2.89,0-5.53,0-8.18,0a1.45,1.45,0,0,1-.83-.35q-5.91-4-11.81-8c-.17-.11-.41-.18-.45-.44L60.59,32.18c5.78-3.9,11.56-7.78,17.33-11.69a6.54,6.54,0,0,0,3.23-5.17C81.25,13.35,81.19,11.38,81.17,9.41ZM12.47,6.1c.58-.76,1.09-1.57,1.65-2.35.1-.14.15-.37.4-.38l.49.31A25.72,25.72,0,0,0,28.86,8c6.25.09,9.42,4,10.22,9.5.06.44.11.89.15,1.34a1.31,1.31,0,0,0,1.38,1.28,1.29,1.29,0,0,0,1.33-1.32,13.25,13.25,0,0,1,2.28-6.95,9,9,0,0,1,6.62-3.73c2.53-.28,5.11-.18,7.6-.91a28.07,28.07,0,0,0,7.68-3.54c.52-.35.76-.34,1.09.22a17.34,17.34,0,0,0,1.48,2.14c.39.48.27.7-.21,1Q57.92,14,47.37,21c-2.08,1.38-4.18,2.75-6.25,4.15a.79.79,0,0,1-1,0Q26.37,16.09,12.65,7.05C12.16,6.73,12.14,6.53,12.47,6.1Zm-3.4,6.69c-.82-.54-1.63-1.11-2.47-1.61-.44-.26-.42-.46-.14-.83A25.73,25.73,0,0,0,8,8.13c.31-.5.54-.53,1-.2Q18.2,14,27.39,20.06c4,2.63,8,5.24,12,7.91a2,2,0,0,0,2.53,0C51.92,21.28,62,14.66,72,8c.57-.37.87-.41,1.22.23a14,14,0,0,0,1.35,1.94c.4.49.4.74-.19,1.13q-9.24,6-18.44,12.15-7.36,4.85-14.71,9.71l-.66.41c-.22-.14-.44-.26-.65-.4Zm69.34,2.56a3.29,3.29,0,0,1-1.59,2.56L60.32,29,25.9,52.22a2.35,2.35,0,0,1-1.41.43c-2.5,0-5,0-7.5,0l0-.15L78.43,11.92C78.43,13.14,78.48,14.25,78.41,15.35Z"/></g></g></svg>