<svg xmlns="http://www.w3.org/2000/svg" viewBox="0 0 86.51 86.49"><defs><style>.cls-1{fill:#44b172;}</style></defs><g id="Calque_2" data-name="Calque 2"><g id="Calque_6" data-name="Calque 6"><path class="cls-1" d="M56,78.81c-.14-1.55,0-3.14,0-5,1.17,1.19,2.3,2.16,3.22,3.3a2.38,2.38,0,0,0,3.15.74c3.59-1.32,7.26-2.46,10.9-3.65a1.44,1.44,0,0,0,1-1q1.95-6,4-12A1.12,1.12,0,0,0,78,59.87c-1.32-1.22-2.58-2.52-3.86-3.78.19-.31.44-.18.63-.18,1.69,0,3.38,0,5.07,0a.85.85,0,0,0,.9-.55c1.86-3.89,3.75-7.78,5.64-11.66a1,1,0,0,0,0-1C84.49,38.82,82.6,34.93,80.74,31a.82.82,0,0,0-.89-.56c-1.88,0-3.76,0-5.9,0,1.2-1.18,2.18-2.29,3.31-3.23A2.34,2.34,0,0,0,78,24.19c-1.36-3.68-2.53-7.43-3.75-11.15a1.12,1.12,0,0,0-.83-.82q-6.11-2-12.18-4.06a1,1,0,0,0-1.23.3c-1.27,1.32-2.58,2.61-3.87,3.91-.28-.19-.15-.43-.15-.63q0-2.58,0-5.16a.78.78,0,0,0-.52-.82C51.56,3.89,47.65,2,43.75.09A.9.9,0,0,0,43.54,0h-.49a1.17,1.17,0,0,0-.24.09C38.93,2,35.05,3.88,31.15,5.74a.88.88,0,0,0-.57,1c0,1.86,0,3.72,0,5.58-.31.08-.39-.18-.53-.32-1.21-1.19-2.41-2.38-3.59-3.59a.8.8,0,0,0-.95-.28Q19.27,10.19,13,12.26a1,1,0,0,0-.66.68Q10.3,19.17,8.2,25.37a.88.88,0,0,0,.28,1c1.34,1.29,2.65,2.61,4,3.91-.19.31-.44.17-.63.17-1.61,0-3.21,0-4.82,0a1.15,1.15,0,0,0-1.27.76C4,35,2.14,38.72.33,42.45A6.65,6.65,0,0,1,0,43v.34c1.68,3.44,3.49,6.83,5,10.35.76,1.76,1.69,2.5,3.6,2.22a29.7,29.7,0,0,1,4,0c-1.3,1.29-2.4,2.48-3.62,3.54a1.86,1.86,0,0,0-.58,2.37c1.36,3.82,2.62,7.68,3.88,11.54a1.12,1.12,0,0,0,.83.82q6.1,2,12.18,4.06a1,1,0,0,0,1.24-.3c1.27-1.32,2.57-2.6,4-4.07,0,1.3,0,2.41,0,3.51s-.39,2.21.16,3,1.67.94,2.55,1.36l9.16,4.43c.22.11.43.24.65.37h.34c3.7-1.81,7.37-3.65,11.1-5.39C55.63,80.6,56.14,80.07,56,78.81ZM72.53,62.36q-1.19,3.54-2.36,7.08a.92.92,0,0,1-.68.65c-2.34.77-4.67,1.56-7,2.35a.79.79,0,0,1-.94-.24c-1.72-1.75-3.46-3.48-5.2-5.2a1.14,1.14,0,0,1-.36-.89c0-1.6,0-3.21,0-4.81s0-3.16,0-4.74c0-.5.1-.67.65-.67,3.21,0,6.42,0,9.63,0a1,1,0,0,1,.81.33c1.75,1.76,3.5,3.52,5.27,5.25A.73.73,0,0,1,72.53,62.36ZM56.29,48.21c.33-.35.69-.67,1-1s.45-.3.73,0c1.16,1.18,2.34,2.33,3.66,3.64H56.49c-.16,0-.35,0-.47-.12A5,5,0,0,1,56.29,48.21ZM76.68,35.58a.75.75,0,0,1,.81.52q1.56,3.3,3.18,6.57a1.11,1.11,0,0,1,0,1.1c-1.06,2.16-2.12,4.32-3.15,6.5a.81.81,0,0,1-.88.55q-3.59,0-7.18,0a1.22,1.22,0,0,1-1-.4c-2.24-2.26-4.48-4.52-6.75-6.75-.35-.35-.41-.54,0-.92,2.29-2.25,4.55-4.53,6.81-6.81a1.13,1.13,0,0,1,.88-.36c1.21,0,2.42,0,3.64,0S75.47,35.6,76.68,35.58ZM56,20.23a1.05,1.05,0,0,1,.34-.81q2.64-2.61,5.25-5.26a.73.73,0,0,1,.87-.22c2.36.81,4.73,1.59,7.09,2.37a1,1,0,0,1,.65.69c.77,2.33,1.56,4.67,2.35,7a.81.81,0,0,1-.22.95c-1.76,1.71-3.48,3.45-5.21,5.19a1.13,1.13,0,0,1-.89.36c-1.6,0-3.21,0-4.81,0s-3.16,0-4.74,0c-.48,0-.69-.07-.68-.63C56,26.66,56,23.44,56,20.23Zm0,15.59c.07-.23.2-.23.37-.23h5.28c-1.32,1.31-2.52,2.51-3.71,3.71-.12.12-.22.23-.43.12A3.7,3.7,0,0,1,56,35.82ZM14.05,24Q15.24,20.5,16.41,17a.92.92,0,0,1,.68-.64c2.34-.77,4.67-1.56,7-2.35a.8.8,0,0,1,.95.23q2.55,2.6,5.14,5.14a1.29,1.29,0,0,1,.42,1c0,1.58,0,3.16,0,4.73s0,3.16,0,4.74c0,.49-.09.68-.64.67-3.21,0-6.42,0-9.63,0a1.05,1.05,0,0,1-.82-.33c-1.74-1.76-3.49-3.52-5.26-5.25A.73.73,0,0,1,14.05,24ZM9.93,50.82a.75.75,0,0,1-.83-.5c-1-2.2-2.11-4.39-3.18-6.58a1.11,1.11,0,0,1,0-1.1C7,40.46,8.06,38.26,9.11,36.06a.69.69,0,0,1,.75-.48q3.68,0,7.35,0a1.1,1.1,0,0,1,.87.39c2.24,2.25,4.48,4.51,6.75,6.74.41.4.37.6,0,1-2.25,2.21-4.48,4.45-6.69,6.69a1.39,1.39,0,0,1-1.11.44c-1.15,0-2.3,0-3.46,0S11.14,50.79,9.93,50.82ZM30.6,66.14a1.15,1.15,0,0,1-.37.88c-1.75,1.73-3.49,3.45-5.2,5.2a.8.8,0,0,1-1,.21q-3.49-1.19-7-2.34a1,1,0,0,1-.67-.66Q15.25,65.88,14,62.34a.75.75,0,0,1,.22-.87c1.75-1.72,3.48-3.46,5.2-5.2a1.18,1.18,0,0,1,1-.37c1.58,0,3.15,0,4.73,0s3.21,0,4.82,0c.47,0,.62.13.62.61Q30.57,61.33,30.6,66.14ZM28.82,50.81H24.89l3.68-3.64c.12-.11.21-.28.41-.25a6.11,6.11,0,0,1,1.61,1.94v.08C30.66,50.81,30.66,50.81,28.82,50.81Zm.43-11.53c-.32.24-.45.18-.68-.05-1.17-1.17-2.35-2.33-3.68-3.64,1.89,0,3.54,0,5.19,0,.41,0,.47.14.53.52A3.15,3.15,0,0,1,29.25,39.28ZM36.19,9c2.2-1,4.39-2.1,6.57-3.18a1.11,1.11,0,0,1,1.1,0Q47.1,7.44,50.37,9a.81.81,0,0,1,.54.89q0,3.59,0,7.18a1.22,1.22,0,0,1-.4.95c-2.26,2.24-4.51,4.48-6.75,6.75-.35.35-.53.42-.92,0C40.59,22.48,38.32,20.22,36,18a1.1,1.1,0,0,1-.37-.88c0-1.21,0-2.42,0-3.63s0-2.42,0-3.64A.76.76,0,0,1,36.19,9ZM50.9,30.12c0,.14,0,.28-.15.36a4.68,4.68,0,0,1-2.55-.37c-1.31-1.25-1.31-1.25,0-2.56L50.76,25s.05,0,.14.05Zm-15.22-5.3c1.29,1.3,2.43,2.46,3.59,3.6.3.29.32.44,0,.8a3.12,3.12,0,0,1-3.13,1.29c-.39-.05-.51-.14-.51-.54C35.69,28.32,35.68,26.68,35.68,24.82ZM50.9,73c0,1.21,0,2.43,0,3.64a.7.7,0,0,1-.47.76Q47.1,79,43.78,80.6a1,1,0,0,1-1,0c-2.18-1.07-4.37-2.14-6.57-3.18a.74.74,0,0,1-.52-.81q0-3.63,0-7.26a1.12,1.12,0,0,1,.37-.88c2.28-2.27,4.55-4.53,6.8-6.82.39-.39.58-.32.92,0Q47.12,65,50.51,68.4a1.17,1.17,0,0,1,.4.95C50.88,70.56,50.9,71.77,50.9,73Zm-15.1-17a5.58,5.58,0,0,1,2.43.2c.39.37.75.76,1.14,1.12s.23.38,0,.61c-1.19,1.18-2.37,2.38-3.69,3.7V56.48C35.68,56.3,35.61,56.08,35.8,55.94Zm15.1,5.62c-1.29-1.29-2.43-2.45-3.59-3.59-.3-.29-.31-.44,0-.8a3.09,3.09,0,0,1,3.12-1.28c.31,0,.51,0,.51.45C50.89,58,50.9,59.69,50.9,61.56Zm-2.1-13.1c-.88.67-1.49,1.85-2.45,2.25s-2.18,0-3.26.12a4.89,4.89,0,0,1-5-2.06c-.69-.91-1.89-1.53-2.31-2.52s0-2.23-.13-3.33a4.66,4.66,0,0,1,2-4.85,1.09,1.09,0,0,0,.24-.24C39.27,36,41,35,43.33,35.72c2.3-.73,3.73.48,5.32,2A6.83,6.83,0,0,1,51,43.32C51,45.47,50.56,47.14,48.8,48.46Z"/></g></g></svg>