<svg xmlns="http://www.w3.org/2000/svg" viewBox="0 0 86.76 86.74"><defs><style>.cls-1{fill:#fff;stroke:#1d1d1b;stroke-miterlimit:10;stroke-width:0.25px;}</style></defs><g id="Calque_2" data-name="Calque 2"><g id="Calque_6" data-name="Calque 6"><path class="cls-1" d="M56.15,78.94c-.14-1.56,0-3.14,0-5,1.17,1.18,2.29,2.16,3.22,3.29a2.39,2.39,0,0,0,3.15.75c3.59-1.33,7.25-2.47,10.89-3.65a1.42,1.42,0,0,0,1.05-1c1.3-4,2.64-8,4-12A1.12,1.12,0,0,0,78.11,60c-1.32-1.23-2.58-2.52-3.85-3.78.19-.32.43-.18.63-.18,1.69,0,3.38,0,5.07,0a.81.81,0,0,0,.89-.54q2.81-5.85,5.65-11.66a1.06,1.06,0,0,0,0-1Q83.66,37,80.86,31.16A.84.84,0,0,0,80,30.6c-1.88,0-3.77,0-5.9,0,1.19-1.19,2.18-2.3,3.31-3.23a2.35,2.35,0,0,0,.74-3.08c-1.36-3.68-2.53-7.42-3.75-11.15a1.13,1.13,0,0,0-.83-.82q-6.09-2-12.17-4.06a1,1,0,0,0-1.24.31c-1.27,1.32-2.57,2.6-3.86,3.9-.29-.18-.16-.43-.16-.63,0-1.71,0-3.43,0-5.15a.75.75,0,0,0-.52-.82Q49.74,3.07,43.88.21L43.66.13a2.69,2.69,0,0,0-.49,0l-.23.09Q37.12,3.07,31.28,5.86a.89.89,0,0,0-.57,1c0,1.86,0,3.71,0,5.58-.31.08-.4-.19-.54-.33C29,10.9,27.78,9.71,26.6,8.5a.8.8,0,0,0-1-.28q-6.25,2.1-12.52,4.17a1,1,0,0,0-.66.68C11.1,17.22,9.73,21.36,8.33,25.5a.85.85,0,0,0,.28,1q2,1.95,4,3.92c-.18.3-.43.17-.62.17-1.61,0-3.22,0-4.82,0a1.14,1.14,0,0,0-1.27.77C4.09,35.12,2.27,38.85.46,42.58a6.59,6.59,0,0,1-.34.57v.34c1.69,3.45,3.5,6.84,5,10.35.75,1.77,1.68,2.51,3.6,2.22a29.8,29.8,0,0,1,4,0c-1.31,1.29-2.41,2.48-3.62,3.53a1.83,1.83,0,0,0-.58,2.37c1.35,3.83,2.61,7.69,3.88,11.55a1.12,1.12,0,0,0,.82.81q6.11,2,12.19,4.07a1,1,0,0,0,1.24-.3c1.26-1.32,2.57-2.61,4-4.07,0,1.3,0,2.4,0,3.51s-.38,2.21.16,3,1.68.94,2.56,1.37l9.16,4.42c.22.11.43.25.65.37h.33c3.7-1.8,7.38-3.65,11.11-5.39A2,2,0,0,0,56.15,78.94ZM72.66,62.49c-.79,2.36-1.58,4.71-2.36,7.08a1,1,0,0,1-.68.65c-2.34.77-4.68,1.56-7,2.34a.8.8,0,0,1-1-.23c-1.71-1.75-3.45-3.48-5.19-5.2a1.12,1.12,0,0,1-.36-.89c0-1.61,0-3.21,0-4.82s0-3.15,0-4.73c0-.5.11-.68.65-.67,3.21,0,6.42,0,9.64,0a1.08,1.08,0,0,1,.81.33c1.74,1.76,3.49,3.52,5.26,5.26A.73.73,0,0,1,72.66,62.49ZM56.42,48.33c.33-.34.68-.66,1-1s.44-.31.73,0c1.15,1.17,2.33,2.33,3.65,3.63H56.61c-.16,0-.34,0-.46-.11A5.1,5.1,0,0,1,56.42,48.33ZM76.8,35.7a.74.74,0,0,1,.81.52c1,2.21,2.11,4.4,3.19,6.58a1.13,1.13,0,0,1,0,1.1c-1.07,2.16-2.13,4.32-3.15,6.5a.82.82,0,0,1-.88.55c-2.4,0-4.79,0-7.18,0a1.17,1.17,0,0,1-.95-.4q-3.36-3.39-6.75-6.75c-.36-.35-.42-.53,0-.92q3.43-3.37,6.82-6.8a1.12,1.12,0,0,1,.88-.37c1.21,0,2.42,0,3.63,0S75.59,35.73,76.8,35.7ZM56.11,20.36a1,1,0,0,1,.33-.81c1.76-1.75,3.52-3.5,5.26-5.26a.72.72,0,0,1,.87-.22q3.54,1.2,7.09,2.37a1,1,0,0,1,.65.68q1.16,3.51,2.34,7a.78.78,0,0,1-.22.95c-1.75,1.72-3.48,3.46-5.2,5.2a1.11,1.11,0,0,1-.89.35c-1.61,0-3.21,0-4.82,0s-3.16,0-4.73,0c-.49,0-.69-.08-.69-.64C56.13,26.78,56.12,23.57,56.11,20.36Zm0,15.58c.07-.22.21-.22.38-.23h5.27l-3.71,3.72c-.12.12-.21.22-.42.12A3.74,3.74,0,0,1,56.11,35.94ZM14.17,24.16q1.2-3.54,2.36-7.08a1,1,0,0,1,.69-.65c2.34-.77,4.67-1.56,7-2.34a.8.8,0,0,1,1,.22c1.69,1.73,3.41,3.44,5.13,5.14a1.3,1.3,0,0,1,.43,1c0,1.58,0,3.16,0,4.74s0,3.15,0,4.73c0,.49-.09.68-.64.68-3.22,0-6.43,0-9.64,0a1,1,0,0,1-.81-.33c-1.75-1.76-3.5-3.51-5.27-5.25A.75.75,0,0,1,14.17,24.16ZM10.05,50.94a.75.75,0,0,1-.83-.49c-1-2.21-2.1-4.4-3.18-6.58a1.13,1.13,0,0,1,0-1.1c1.07-2.19,2.14-4.38,3.18-6.58A.72.72,0,0,1,10,35.7q3.67,0,7.35,0a1.13,1.13,0,0,1,.87.39c2.25,2.26,4.49,4.52,6.76,6.75.41.4.37.6,0,1q-3.36,3.32-6.69,6.69a1.35,1.35,0,0,1-1.1.43c-1.16,0-2.31,0-3.46,0S11.26,50.92,10.05,50.94ZM30.72,66.27a1.13,1.13,0,0,1-.37.88c-1.74,1.72-3.48,3.45-5.2,5.2a.78.78,0,0,1-.95.2q-3.49-1.18-7-2.34a.93.93,0,0,1-.67-.66c-.78-2.36-1.57-4.73-2.36-7.09a.72.72,0,0,1,.22-.87Q17,59,19.59,56.39a1.23,1.23,0,0,1,1-.37c1.58,0,3.16,0,4.74,0s3.21,0,4.81,0c.48,0,.63.12.63.61Q30.7,61.45,30.72,66.27ZM29,50.93H25L28.7,47.3c.11-.11.2-.29.41-.26a6.14,6.14,0,0,1,1.61,2,.21.21,0,0,0,0,.08C30.78,50.93,30.78,50.93,29,50.93Zm.42-11.53c-.31.24-.44.19-.68,0C27.53,38.18,26.35,37,25,35.71c1.9,0,3.55,0,5.2,0,.41,0,.47.14.52.53A3.13,3.13,0,0,1,29.37,39.4ZM36.31,9.13q3.31-1.56,6.58-3.19A1.13,1.13,0,0,1,44,6c2.16,1.06,4.32,2.12,6.5,3.15A.81.81,0,0,1,51,10c0,2.39,0,4.79,0,7.18a1.24,1.24,0,0,1-.4.95c-2.26,2.24-4.52,4.49-6.75,6.75-.35.36-.54.42-.92,0-2.25-2.29-4.53-4.55-6.81-6.82a1.11,1.11,0,0,1-.36-.88c0-1.21,0-2.42,0-3.63s0-2.42,0-3.63A.75.75,0,0,1,36.31,9.13ZM51,30.25c0,.14,0,.27-.15.36a4.72,4.72,0,0,1-2.56-.37C47,29,47,29,48.32,27.68c.85-.86,1.71-1.71,2.57-2.55l.14,0ZM35.8,24.94c1.3,1.31,2.43,2.47,3.59,3.6.3.3.32.44,0,.8a3.14,3.14,0,0,1-3.12,1.3c-.4-.06-.52-.15-.51-.54C35.81,28.45,35.8,26.8,35.8,24.94ZM51,73.11c0,1.21,0,2.42,0,3.63a.72.72,0,0,1-.47.76q-3.34,1.59-6.66,3.22a1,1,0,0,1-1,0c-2.19-1.08-4.37-2.15-6.58-3.19a.75.75,0,0,1-.52-.8c0-2.43,0-4.85,0-7.27a1.12,1.12,0,0,1,.36-.88C38.44,66.3,40.72,64,43,61.75c.39-.4.57-.33.92,0,2.23,2.27,4.49,4.51,6.75,6.75a1.19,1.19,0,0,1,.4,1C51,70.69,51,71.9,51,73.11Zm-15.1-17a5.77,5.77,0,0,1,2.43.21c.38.36.74.76,1.14,1.12.24.23.22.38,0,.61-1.19,1.18-2.36,2.37-3.69,3.7,0-1.84,0-3.47,0-5.09C35.81,56.42,35.73,56.21,35.93,56.06ZM51,61.69c-1.29-1.3-2.43-2.46-3.59-3.59-.31-.3-.31-.44,0-.8A3.08,3.08,0,0,1,50.52,56c.32,0,.52,0,.51.45C51,58.14,51,59.82,51,61.69Zm-2.1-13.1c-.89.67-1.5,1.84-2.46,2.25s-2.17,0-3.25.12a4.93,4.93,0,0,1-5-2.06c-.68-.92-1.89-1.54-2.3-2.52s0-2.23-.13-3.34a4.61,4.61,0,0,1,2-4.84A1,1,0,0,0,38,38c1.37-1.82,3-2.85,5.42-2.12,2.3-.73,3.74.49,5.33,2a6.89,6.89,0,0,1,2.34,5.62C51.08,45.59,50.68,47.26,48.93,48.59Z"/></g></g></svg>