<svg xmlns="http://www.w3.org/2000/svg" viewBox="0 0 303.97 199.4"><defs><style>.cls-1{fill:#fff;}</style></defs><g id="Calque_2" data-name="Calque 2"><g id="Calque_6" data-name="Calque 6"><path class="cls-1" d="M0,56H17.22v73.5H0Z"/><path class="cls-1" d="M33.39,56H50.61v58h37V129.5H33.39Z"/><path class="cls-1" d="M163.06,56H178.5v73.5H161.38v-46L139.75,110h-3.36L114.55,83.41V129.5H97.44V56h15.43L138,87.29Z"/><path class="cls-1" d="M193.77,128a9,9,0,0,1,0-12.81,9.65,9.65,0,0,1,6.88-2.52,9.48,9.48,0,0,1,6.77,2.52,9,9,0,0,1,0,12.81,9.48,9.48,0,0,1-6.77,2.52A9.65,9.65,0,0,1,193.77,128Z"/><path class="cls-1" d="M273.63,77.63V129.5H259.35l-1.05-6.19q-6.62,7.24-17.22,7.24a24.27,24.27,0,0,1-12.87-3.41,23.37,23.37,0,0,1-8.76-9.56,30.24,30.24,0,0,1-3.15-14,30.28,30.28,0,0,1,3.15-14A23.43,23.43,0,0,1,228.21,80a24.36,24.36,0,0,1,12.87-3.41,25,25,0,0,1,9.66,1.84,20.93,20.93,0,0,1,7.56,5.3l1.05-6.09Zm-19.74,35.44a13.17,13.17,0,0,0,3.46-9.5,13.2,13.2,0,0,0-3.46-9.51A11.83,11.83,0,0,0,245,90.44a11.54,11.54,0,0,0-8.87,3.68,13.31,13.31,0,0,0-3.41,9.45,13.31,13.31,0,0,0,3.41,9.45,11.53,11.53,0,0,0,8.87,3.67A11.83,11.83,0,0,0,253.89,113.07Z"/><path class="cls-1" d="M287.33,70a9.07,9.07,0,0,1,.05-12.92,10.79,10.79,0,0,1,13.86,0A9.07,9.07,0,0,1,301.29,70a10.93,10.93,0,0,1-14,0ZM286,77.63H302.5V129.5H286Z"/><g id="P8KRIR.tif"><path class="cls-1" d="M2.23,163.07c3.85.27,7.63,1.12,11.45,1.64,4.43.6,8.87,1,13.32,1.18,5.89.21,11.8.22,17.68,0,6.45-.23,12.87-.92,19.29-1.57,5.34-.54,10.63-1.38,16-2,7.58-.81,15.11-2.09,22.68-3,5.53-.65,11.06-1.35,16.64-1.71,7.57-.49,15.13-.56,22.71-.56a102.79,102.79,0,0,1,16.42,1.65,101.23,101.23,0,0,1,15.36,3.32c6,1.94,12,3.77,17.62,6.52,4.6,2.24,9.1,4.68,13.55,7.2,2.6,1.47,5,3.25,7.67,4.71-10.24-10.42-22.62-17.36-36.46-22.16a14.94,14.94,0,0,1,9.8-.75,70.57,70.57,0,0,1,15.3,5.31,120.22,120.22,0,0,1,15,8.56c3.81,2.69,7.81,5.15,11.21,8.38a42.05,42.05,0,0,1,3.52,3.67,2,2,0,0,0,2.12.79c7.12-1.57,14.35-2.52,21.47-4.08,8.52-1.87,17-3.74,25.34-6.33,3.89-1.2,7.67-2.7,11.56-3.85s7.4-3,11.57-4.1A6.06,6.06,0,0,1,300.4,168,179.1,179.1,0,0,1,279,177.27c-6.74,2.54-13.6,4.73-20.5,6.79-3.95,1.17-7.88,2.46-11.89,3.39-8.65,2-17.3,4-26,5.64-8.88,1.63-17.79,3.18-26.79,4-4.53.4-9,1.05-13.56,1.35-7.32.47-14.65,1.08-22,1s-14.52-.12-21.77-.37c-6-.2-11.87-.8-17.79-1.29-6.07-.5-12.1-1.27-18.12-2.27-6.4-1.05-12.87-1.85-19.15-3.43-7.49-1.88-15.14-3.11-22.45-5.78-4-1.45-8.2-2.21-12.18-3.68-7.18-2.64-14.48-5-21.48-8.1-5.1-2.26-10.26-4.39-15.24-6.88-2.74-1.37-5.53-2.67-8.21-4.18C1.78,163.09,1.85,162.89,2.23,163.07Z"/><path class="cls-1" d="M2.23,163.07l-.41.34-1.16-.47C1.36,162.67,1.82,162.64,2.23,163.07Z"/></g><path class="cls-1" d="M142,30.88a3.4,3.4,0,0,1-2,2.74,16.11,16.11,0,0,1-3.75.24h-7.35A5.69,5.69,0,0,0,124.57,36a6.64,6.64,0,0,0-1.94,4.48q0,3.26,5,7.76-7.48-8.44-7.49-8.76a7.71,7.71,0,0,1,2.27-5.19,9.83,9.83,0,0,1,5-3.06Q122.59,24.73,123,22q.24-1.76,6.91-6.35,2.41-1.66,7.46-5a7.77,7.77,0,0,1-.48,2.56,3.69,3.69,0,0,1-1.47,2.08l-4.12,1.85c-2,1-2.95,1.94-2.95,2.77a2.65,2.65,0,0,0,.26,1.05q4.55,10,7.94,10Z"/><path class="cls-1" d="M161.89,30.82q0,2.93-3.64,7.52-4.25,5.4-9.22,5.4c-1.87,0-4.15-1.1-6.86-3.29q-3.76-3.09-3.77-4.38,1.35.87,4.09,2.48a13.92,13.92,0,0,0,6.69,1.9,8.73,8.73,0,0,0,6.65-2.72,8.6,8.6,0,0,0,2.37-6.14V9.94a6.08,6.08,0,0,0-.74-3.14A14.54,14.54,0,0,0,156,5.12L161.89,0Z"/><path class="cls-1" d="M179.27,31.11q-1.59,4.7-3.85,4.7a12.53,12.53,0,0,1-4.8-1.16,18.22,18.22,0,0,1-4.32-2.46,9.4,9.4,0,0,1-2.64,4.8,9.57,9.57,0,0,1-2.87,1.3,19.06,19.06,0,0,1-4.43,1A56,56,0,0,0,162,35.2a17.84,17.84,0,0,0,3.24-3.82,5.55,5.55,0,0,1-2-3.91q0-2,10.52-10.46a3.77,3.77,0,0,0,.05,2.42,70.73,70.73,0,0,0,3.09,6.91Zm-6.33.06q-1.08-2.28-2.9-6.54a2.16,2.16,0,0,0-1.48,2,4.19,4.19,0,0,0,1.85,3.27A4.47,4.47,0,0,0,172.94,31.17Z"/></g></g></svg>