<svg width="18" height="18" viewBox="0 0 18 18" fill="none" xmlns="http://www.w3.org/2000/svg">
<path d="M14.625 6.75H13.5V4.5C13.5 2.01487 11.4851 0 9 0C6.51487 0 4.5 2.01487 4.5 4.5V6.75H3.375C2.75316 6.75 2.25 7.25316 2.25 7.875V16.875C2.25 17.4968 2.75316 18 3.375 18H14.625C15.2468 18 15.75 17.4968 15.75 16.875V7.875C15.75 7.25316 15.2468 6.75 14.625 6.75ZM9 13.5C8.37816 13.5 7.875 12.9968 7.875 12.375C7.875 11.7532 8.37816 11.25 9 11.25C9.62184 11.25 10.125 11.7532 10.125 12.375C10.125 12.9968 9.62184 13.5 9 13.5ZM11.25 6.75H6.75V4.5C6.75 3.25744 7.75744 2.25 9 2.25C10.2426 2.25 11.25 3.25744 11.25 4.5V6.75Z" fill="#6C6C6C"/>
</svg>
