<svg width="231" height="205" viewBox="0 0 231 205" fill="none" xmlns="http://www.w3.org/2000/svg">
<path opacity="0.4" d="M302.795 142.07C300.997 132.058 290.692 124.308 278.275 124.308H277.698L277.225 112.467C278.982 113.084 280.892 113.102 282.66 112.52C284.429 111.937 285.955 110.785 287.004 109.244C286.078 109.824 285.048 110.217 283.972 110.402C282.31 110.691 280.6 110.482 279.056 109.802C277.512 109.121 276.203 107.999 275.292 106.576C274.381 105.154 273.909 103.493 273.936 101.803C273.962 100.112 274.485 98.4673 275.44 97.0736C274.1 97.9038 273.015 99.0892 272.304 100.499C271.594 101.908 271.287 103.487 271.416 105.061C271.545 106.635 272.105 108.142 273.036 109.417C273.966 110.691 275.229 111.683 276.687 112.283L276.175 124.308H275.65C275.494 124.315 275.346 124.375 275.23 124.479C271.149 124.868 267.204 126.157 263.679 128.256H260.975C258.604 124.171 255.311 120.7 251.361 118.121C247.411 115.541 242.913 113.925 238.227 113.401V112.27C238.227 112.142 238.202 112.015 238.153 111.897C238.104 111.779 238.033 111.672 237.943 111.581C237.852 111.491 237.745 111.419 237.627 111.37C237.51 111.321 237.383 111.296 237.256 111.296H236.494L235.878 95.5869C238.19 96.4147 240.711 96.4548 243.048 95.7007C245.386 94.9466 247.41 93.4406 248.807 91.4161C247.58 92.1851 246.216 92.7079 244.79 92.9555C242.594 93.3347 240.335 93.0571 238.296 92.1573C236.256 91.2575 234.526 89.7754 233.322 87.8961C232.118 86.0167 231.493 83.8234 231.525 81.5901C231.557 79.3567 232.244 77.1823 233.502 75.3383C231.754 76.4438 230.341 78.0087 229.419 79.8627C228.496 81.7167 228.099 83.7888 228.269 85.8536C228.44 87.9183 229.172 89.8967 230.386 91.5734C231.6 93.2501 233.25 94.5609 235.156 95.3632L234.552 111.323H233.764C233.514 111.323 233.273 111.422 233.096 111.6C232.919 111.778 232.819 112.019 232.819 112.27V113.428C228.127 113.941 223.62 115.549 219.66 118.124C215.701 120.7 212.398 124.169 210.019 128.256H209.441V118.796C210.019 118.796 210.4 118.625 210.4 118.493V117.296H210.019V116.598H209.507V96.4157C210.085 96.4157 210.465 96.2447 210.465 96.1131V94.9027H210.019V94.2975H209.507V74.0358C210.085 73.9568 210.465 73.8647 210.465 73.72V72.5227H210.019V71.8254H209.507V63.4971C209.507 63.4971 209.507 63.4971 209.507 63.4313C209.507 63.4313 207.893 47.7482 207.105 47.7482C206.317 47.7482 204.768 63.4313 204.768 63.4313V71.7859H204.125V72.4833H203.81V73.6805C203.81 73.8253 204.191 73.9174 204.768 73.9963V94.258H204.125V94.8632H203.81V96.0737C203.81 96.2052 204.191 96.3105 204.768 96.3763V108.849H202.734V104.468H201.539C200.581 99.205 195.239 95.0737 188.689 94.8632V93.5475C188.776 93.4855 188.846 93.4035 188.895 93.3085C188.944 93.2136 188.969 93.1083 188.969 93.0015C188.969 92.8947 188.944 92.7895 188.895 92.6945C188.846 92.5995 188.776 92.5176 188.689 92.4555L188.426 84.5613H188.229L187.796 92.4555C187.715 92.5202 187.65 92.6021 187.604 92.6955C187.559 92.7888 187.535 92.8911 187.534 92.9949C187.54 93.178 187.615 93.352 187.744 93.4817L187.665 94.8764C184.983 94.9542 182.369 95.7442 180.091 97.1657C175.786 81.6931 163.329 70.194 148.26 68.7335V67.4178C148.26 67.1073 148.137 66.8094 147.918 66.5898C147.699 66.3702 147.402 66.2469 147.092 66.2469H146.186L145.438 47.4851C148.231 48.4318 151.257 48.4391 154.054 47.5059C156.852 46.5727 159.27 44.7499 160.94 42.3144C158.289 44.0266 155.125 44.7598 151.993 44.3882C148.861 44.0165 145.956 42.5631 143.777 40.2777C141.598 37.9923 140.281 35.0176 140.052 31.8646C139.824 28.7116 140.698 25.5773 142.524 23C140.402 24.319 138.685 26.1996 137.562 28.4345C136.438 30.6694 135.952 33.1718 136.157 35.6659C136.362 38.16 137.25 40.5489 138.723 42.5694C140.197 44.5899 142.198 46.1635 144.506 47.1167L143.771 66.2074H142.839C142.536 66.2074 142.246 66.328 142.032 66.5427C141.817 66.7573 141.697 67.0485 141.697 67.3521V68.6677C126.838 70.115 114.526 81.3247 110.063 96.4684C108.023 95.4392 105.783 94.8732 103.5 94.8106V93.4949C103.587 93.4328 103.657 93.3509 103.706 93.2559C103.755 93.161 103.78 93.0557 103.78 92.9489C103.78 92.8421 103.755 92.7368 103.706 92.6419C103.657 92.5469 103.587 92.465 103.5 92.4029L103.237 84.5087H103.041L102.607 92.4029C102.526 92.4675 102.461 92.5495 102.415 92.6428C102.37 92.7362 102.346 92.8385 102.345 92.9423C102.351 93.1254 102.426 93.2993 102.555 93.4291L102.384 94.8632C95.8211 95.1 90.5707 99.1787 89.6124 104.468H88.418V120.506C83.5959 115.322 77.0721 112.052 70.0413 111.296V110.178C70.0413 109.92 69.939 109.672 69.7568 109.489C69.5747 109.307 69.3276 109.204 69.07 109.204H68.2562L67.6392 93.416C69.9631 94.2403 72.4941 94.269 74.836 93.4976C77.1779 92.7263 79.1985 91.1984 80.5816 89.1531C78.3753 90.5014 75.7754 91.0532 73.2132 90.7167C70.6511 90.3803 68.2807 89.1759 66.4953 87.3034C64.71 85.4309 63.617 83.0029 63.3977 80.4221C63.1784 77.8413 63.8459 75.263 65.2896 73.1148C63.517 74.2131 62.0818 75.7812 61.1427 77.6459C60.2036 79.5107 59.7972 81.5993 59.9683 83.6811C60.1395 85.7629 60.8815 87.7567 62.1125 89.4422C63.3435 91.1277 65.0154 92.4392 66.9435 93.2318L66.3397 109.191H65.5522C65.3015 109.191 65.0611 109.291 64.8839 109.469C64.7066 109.646 64.6071 109.887 64.6071 110.138V111.283C54.3162 112.283 45.5085 118.888 40.6912 128.256H38.4597V118.901C39.3392 118.796 39.9167 118.638 39.9167 118.44V116.612H39.2473V115.691H38.4597V84.8376C39.3392 84.7324 39.9167 84.5745 39.9167 84.364V82.5615H39.2473V81.5089H38.4597V68.8388C38.4675 68.8086 38.4675 68.7769 38.4597 68.7467C38.4597 68.7467 35.9789 44.8932 34.7844 44.8932C33.5899 44.8932 31.2928 68.7467 31.2928 68.7467V81.4563H30.3215V82.5089H29.8227V84.3377C29.8227 84.5482 30.4134 84.7061 31.2928 84.8113V115.691H30.3215V116.612H29.8227V118.44C29.8227 118.638 30.4134 118.796 31.2928 118.901V128.256H26.3442C25.051 126.493 23.3657 125.057 21.4222 124.061C19.4786 123.065 17.3303 122.537 15.1476 122.519C15.2396 122.412 15.2948 122.278 15.3051 122.138C15.3024 122.027 15.2721 121.918 15.2171 121.821C15.1622 121.725 15.0841 121.644 14.9901 121.585L14.7276 113.691H14.5307L14.0975 121.585C14.0218 121.651 13.9606 121.731 13.9176 121.822C13.8747 121.912 13.851 122.011 13.8481 122.111C13.861 122.251 13.9159 122.384 14.0056 122.493C7.44255 122.716 2.19207 126.795 1.19448 132.097H0V205H305V142.07H302.795Z" fill="white"/>
<path d="M205.646 33.3515C204.655 32.7822 203.868 31.9049 203.399 30.8469C202.93 29.789 202.802 28.6056 203.036 27.4687C203.269 26.3317 203.851 25.3005 204.697 24.5248C205.543 23.7492 206.608 23.2694 207.739 23.1554C206.58 22.8916 205.372 22.9648 204.252 23.3667C203.132 23.7686 202.144 24.4832 201.401 25.4296C200.657 26.3759 200.188 27.5162 200.046 28.7212C199.904 29.9263 200.094 31.148 200.596 32.248C201.098 33.348 201.891 34.2823 202.886 34.9452C203.88 35.608 205.036 35.9729 206.223 35.9986C207.41 36.0242 208.58 35.7095 209.601 35.0901C210.622 34.4708 211.453 33.5715 212 32.4942C211.175 33.3215 210.109 33.8524 208.963 34.007C207.817 34.1617 206.653 33.9316 205.646 33.3515Z" fill="white"/>
<path d="M91.5071 15.1314C91.6256 14.6134 92.3635 14.6134 92.482 15.1314L93.3437 18.8996C93.3995 19.1437 93.6273 19.3089 93.8767 19.2861L97.766 18.93C98.2982 18.8813 98.5254 19.5893 98.0643 19.8594L94.727 21.8142C94.5085 21.9422 94.4202 22.2134 94.5214 22.4455L96.0638 25.9826C96.2766 26.4704 95.6812 26.9087 95.2785 26.5607L92.3219 24.0049C92.134 23.8425 91.8553 23.8426 91.6675 24.0053L88.7241 26.5553C88.3216 26.9039 87.7255 26.4656 87.9384 25.9775L89.4786 22.4455C89.5798 22.2134 89.4915 21.9422 89.273 21.8142L85.9364 19.8598C85.4752 19.5896 85.7025 18.8816 86.2348 18.9304L90.1124 19.286C90.3618 19.3089 90.5896 19.1437 90.6454 18.8996L91.5071 15.1314Z" fill="white" fill-opacity="0.5"/>
<path d="M151.009 2.09698C151.128 1.58114 151.863 1.58114 151.983 2.09698L152.573 4.63682C152.629 4.87986 152.856 5.04408 153.104 5.02169L155.737 4.78437C156.271 4.73626 156.496 5.44773 156.032 5.71548L153.794 7.00629C153.572 7.134 153.483 7.40817 153.587 7.64189L154.629 9.99668C154.845 10.4828 154.253 10.9245 153.848 10.5799L151.82 8.85369C151.633 8.69457 151.358 8.69472 151.171 8.85404L149.154 10.5745C148.75 10.9198 148.157 10.4781 148.373 9.99166L149.413 7.64189C149.517 7.40817 149.428 7.134 149.206 7.00629L146.969 5.71588C146.504 5.44811 146.73 4.73659 147.263 4.78478L149.887 5.02162C150.135 5.04405 150.362 4.87982 150.419 4.63676L151.009 2.09698Z" fill="white"/>
<path opacity="0.4" d="M97.5006 62C97.3558 61.9993 97.2142 62.0428 97.0947 62.1246C96.9752 62.2065 96.8836 62.3229 96.8321 62.4583L95.691 65.4257C95.6678 65.4855 95.6325 65.5398 95.5872 65.5851C95.5418 65.6304 95.4875 65.6658 95.4277 65.6889L92.4595 66.8309C92.3243 66.8828 92.208 66.9744 92.1259 67.0938C92.0439 67.2132 92 67.3546 92 67.4994C92 67.6442 92.0439 67.7856 92.1259 67.905C92.208 68.0244 92.3243 68.116 92.4595 68.1679L95.4269 69.309C95.4867 69.3322 95.541 69.3675 95.5863 69.4128C95.6316 69.4582 95.667 69.5125 95.6901 69.5723L96.8321 72.5405C96.884 72.6757 96.9756 72.792 97.095 72.8741C97.2143 72.9561 97.3558 73 97.5006 73C97.6454 73 97.7868 72.9561 97.9062 72.8741C98.0255 72.792 98.1172 72.6757 98.1691 72.5405L99.3102 69.5731C99.3333 69.5133 99.3687 69.459 99.414 69.4137C99.4594 69.3684 99.5137 69.333 99.5735 69.3099L102.524 68.1748C102.664 68.1226 102.786 68.0284 102.871 67.9049C102.956 67.7814 103.001 67.6346 103 67.4845C102.998 67.3422 102.953 67.2038 102.871 67.0873C102.79 66.9708 102.675 66.8814 102.542 66.8309L99.5743 65.6898C99.5145 65.6666 99.4602 65.6313 99.4149 65.586C99.3696 65.5406 99.3342 65.4863 99.3111 65.4265L98.1691 62.4583C98.1176 62.3229 98.0259 62.2065 97.9065 62.1246C97.787 62.0428 97.6454 61.9993 97.5006 62Z" fill="white"/>
</svg>
