<svg width="54" height="51" viewBox="0 0 54 51" fill="none" xmlns="http://www.w3.org/2000/svg">
<path d="M10.0009 6.00001C9.7902 5.99894 9.58422 6.06219 9.41047 6.18131C9.23671 6.30042 9.10344 6.46973 9.02847 6.66661L7.36865 10.9828C7.33504 11.0698 7.28361 11.1488 7.21768 11.2147C7.15174 11.2806 7.07276 11.3321 6.98578 11.3657L2.66835 13.0267C2.47168 13.1022 2.30252 13.2356 2.1832 13.4092C2.06388 13.5828 2 13.7885 2 13.9991C2 14.2098 2.06388 14.4155 2.1832 14.5891C2.30252 14.7627 2.47168 14.896 2.66835 14.9715L6.98453 16.6313C7.07151 16.665 7.15049 16.7164 7.21643 16.7823C7.28236 16.8483 7.33379 16.9272 7.3674 17.0142L9.02847 21.3317C9.10395 21.5283 9.23729 21.6975 9.4109 21.8168C9.5845 21.9361 9.79021 22 10.0009 22C10.2115 22 10.4172 21.9361 10.5908 21.8168C10.7644 21.6975 10.8978 21.5283 10.9733 21.3317L12.6331 17.0155C12.6667 16.9285 12.7181 16.8495 12.784 16.7836C12.85 16.7176 12.929 16.6662 13.0159 16.6326L17.3071 14.9815C17.5118 14.9057 17.6881 14.7686 17.8121 14.5889C17.9361 14.4092 18.0017 14.1957 18 13.9775C17.9968 13.7705 17.9316 13.5692 17.8127 13.3997C17.6939 13.2302 17.5269 13.1003 17.3334 13.0267L13.0172 11.3669C12.9302 11.3333 12.8512 11.2819 12.7853 11.2159C12.7194 11.15 12.6679 11.071 12.6343 10.984L10.9733 6.66661C10.8983 6.46973 10.765 6.30042 10.5913 6.18131C10.4175 6.06219 10.2115 5.99894 10.0009 6.00001Z" fill="#45B172"/>
<path d="M19.0004 6.67572e-06C18.8951 -0.000528336 18.7921 0.031096 18.7052 0.0906534C18.6184 0.150211 18.5517 0.234865 18.5142 0.333303L17.6843 2.4914C17.6675 2.53489 17.6418 2.57438 17.6088 2.60735C17.5759 2.64031 17.5364 2.66603 17.4929 2.68284L15.3342 3.51337C15.2358 3.55111 15.1513 3.61778 15.0916 3.70458C15.0319 3.79138 15 3.89424 15 3.99957C15 4.10489 15.0319 4.20775 15.0916 4.29455C15.1513 4.38135 15.2358 4.44802 15.3342 4.48576L17.4923 5.31567C17.5358 5.33248 17.5752 5.35819 17.6082 5.39116C17.6412 5.42413 17.6669 5.46362 17.6837 5.50711L18.5142 7.66583C18.552 7.76416 18.6186 7.84874 18.7054 7.9084C18.7922 7.96806 18.8951 8 19.0004 8C19.1058 8 19.2086 7.96806 19.2954 7.9084C19.3822 7.84874 19.4489 7.76416 19.4866 7.66583L20.3165 5.50773C20.3333 5.46424 20.3591 5.42475 20.392 5.39178C20.425 5.35882 20.4645 5.3331 20.508 5.31629L22.6536 4.49076C22.7559 4.45283 22.8441 4.38428 22.9061 4.29445C22.968 4.20462 23.0008 4.09787 23 3.98873C22.9984 3.88524 22.9658 3.7846 22.9064 3.69985C22.8469 3.6151 22.7634 3.55014 22.6667 3.51337L20.5086 2.68346C20.4651 2.66665 20.4256 2.64094 20.3926 2.60797C20.3597 2.575 20.334 2.53551 20.3172 2.49202L19.4866 0.333303C19.4491 0.234865 19.3825 0.150211 19.2956 0.0906534C19.2087 0.031096 19.1058 -0.000528336 19.0004 6.67572e-06Z" fill="#45B172"/>
<path d="M37.3233 16.0168C29.3083 16.3767 22.7369 22.7141 22.1707 30.6492C21.9189 34.0564 22.7927 37.4522 24.6599 40.3237C24.8942 40.6796 24.9982 41.1044 24.9545 41.5272C24.9108 41.9499 24.722 42.345 24.4197 42.6463L22.1569 44.8892C21.9335 45.1104 21.7813 45.3922 21.7196 45.699C21.6578 46.0059 21.6892 46.3241 21.8099 46.6132C21.9305 46.9024 22.135 47.1496 22.3974 47.3235C22.6598 47.4975 22.9684 47.5904 23.2841 47.5906H38.2367C40.3373 47.5443 42.4079 47.0868 44.3294 46.2442C46.2509 45.4016 47.9853 44.1906 49.4327 42.681C50.8802 41.1714 52.0121 39.3929 52.7634 37.4479C53.5146 35.5029 53.8704 33.4299 53.8102 31.3481C53.7499 29.2663 53.2749 27.2169 52.4125 25.3178C51.55 23.4186 50.3171 21.7074 48.7848 20.2824C47.2524 18.8575 45.4509 17.747 43.4838 17.015C41.5168 16.2829 39.4231 15.9437 37.3233 16.0168Z" fill="url(#paint0_linear_3692_469)"/>
<path d="M33.0803 30.0228C32.7268 30.0228 32.3811 30.1267 32.0872 30.3214C31.7932 30.5161 31.5641 30.7929 31.4288 31.1166C31.2935 31.4404 31.2581 31.7967 31.3271 32.1404C31.396 32.4841 31.5663 32.7998 31.8163 33.0476C32.0663 33.2954 32.3848 33.4642 32.7316 33.5325C33.0783 33.6009 33.4377 33.5658 33.7644 33.4317C34.091 33.2976 34.3702 33.0705 34.5666 32.7791C34.763 32.4877 34.8679 32.1451 34.8679 31.7947C34.8679 31.3248 34.6796 30.8741 34.3443 30.5418C34.0091 30.2095 33.5544 30.0228 33.0803 30.0228Z" fill="white"/>
<path d="M38.0642 30.0228C37.7107 30.023 37.3652 30.1271 37.0713 30.322C36.7775 30.5168 36.5486 30.7936 36.4134 31.1174C36.2783 31.4411 36.243 31.7974 36.3121 32.141C36.3812 32.4847 36.5516 32.8003 36.8016 33.048C37.0516 33.2957 37.3702 33.4643 37.7169 33.5326C38.0636 33.6009 38.423 33.5657 38.7496 33.4316C39.0761 33.2975 39.3553 33.0704 39.5516 32.779C39.748 32.4876 39.8528 32.1451 39.8528 31.7947C39.8525 31.3247 39.664 30.874 39.3286 30.5417C38.9932 30.2095 38.5384 30.0228 38.0642 30.0228Z" fill="white"/>
<path d="M43.0491 30.0228C42.6955 30.0228 42.3499 30.1267 42.0559 30.3214C41.762 30.5161 41.5328 30.7929 41.3975 31.1166C41.2622 31.4404 41.2268 31.7967 41.2958 32.1404C41.3648 32.4841 41.535 32.7998 41.785 33.0476C42.035 33.2954 42.3536 33.4642 42.7003 33.5325C43.0471 33.6009 43.4065 33.5658 43.7331 33.4317C44.0598 33.2976 44.339 33.0705 44.5354 32.7791C44.7318 32.4877 44.8366 32.1451 44.8366 31.7947C44.8366 31.3248 44.6483 30.8741 44.3131 30.5418C43.9778 30.2095 43.5232 30.0228 43.0491 30.0228Z" fill="white"/>
<path d="M20.0032 47.6577C19.7992 47.4529 19.6723 47.185 19.6434 46.8987C19.6145 46.6123 19.6854 46.3248 19.8444 46.0841C21.1056 44.1422 21.6952 41.8464 21.524 39.5431C21.1409 34.1793 16.6979 29.8917 11.279 29.6504C8.42324 29.5688 5.65168 30.615 3.57406 32.5588C1.49645 34.5027 0.282975 37.185 0.200591 40.0157C0.118206 42.8464 1.17366 45.5937 3.13476 47.653C5.09587 49.7124 7.80198 50.9152 10.6578 50.9968H20.7652C20.9786 50.997 21.1873 50.9344 21.3649 50.817C21.5424 50.6995 21.6808 50.5325 21.7625 50.3371C21.8442 50.1416 21.8656 49.9265 21.8239 49.719C21.7822 49.5115 21.6793 49.321 21.5283 49.1715L20.0032 47.6577Z" fill="url(#paint1_linear_3692_469)"/>
<path d="M7.7028 39.1235C7.46375 39.1235 7.23007 39.1938 7.0313 39.3254C6.83254 39.4571 6.67762 39.6442 6.58614 39.8631C6.49466 40.082 6.47073 40.3229 6.51737 40.5553C6.564 40.7877 6.67911 41.0012 6.84815 41.1687C7.01718 41.3363 7.23254 41.4504 7.467 41.4966C7.70146 41.5428 7.94448 41.5191 8.16533 41.4284C8.38618 41.3377 8.57495 41.1842 8.70776 40.9872C8.84056 40.7901 8.91145 40.5585 8.91145 40.3216C8.91145 40.0038 8.78411 39.6991 8.55744 39.4744C8.33078 39.2498 8.02335 39.1235 7.7028 39.1235Z" fill="white"/>
<path d="M11.0726 41.5196C11.7401 41.5196 12.2813 40.9832 12.2813 40.3216C12.2813 39.6599 11.7401 39.1235 11.0726 39.1235C10.4051 39.1235 9.86395 39.6599 9.86395 40.3216C9.86395 40.9832 10.4051 41.5196 11.0726 41.5196Z" fill="white"/>
<path d="M15.2979 41.1691C15.7699 40.7012 15.7699 39.9427 15.2979 39.4748C14.8259 39.007 14.0606 39.007 13.5886 39.4748C13.1166 39.9427 13.1166 40.7012 13.5886 41.1691C14.0606 41.637 14.8259 41.637 15.2979 41.1691Z" fill="white"/>
<defs>
<linearGradient id="paint0_linear_3692_469" x1="27.0434" y1="12.61" x2="52.0429" y2="44.005" gradientUnits="userSpaceOnUse">
<stop stop-color="#389960"/>
<stop offset="1" stop-color="#FFCD6E"/>
</linearGradient>
<linearGradient id="paint1_linear_3692_469" x1="11.0204" y1="29.646" x2="11.0204" y2="50.9968" gradientUnits="userSpaceOnUse">
<stop stop-color="#3A3A3A"/>
<stop offset="1" stop-color="#3A3A3A"/>
</linearGradient>
</defs>
</svg>
