<svg width="112" height="109" viewBox="0 0 112 109" fill="none" xmlns="http://www.w3.org/2000/svg">
<g style="mix-blend-mode:multiply" opacity="0.7">
<path opacity="0.01" d="M42.2849 108.767L84.2301 95.6355L111.936 77.2476L29.7084 73.6271L0.316406 95.6413L42.2849 108.767Z" fill="#F4EFE8"/>
<path opacity="0.01" d="M42.4544 108.657L84.3995 95.519L111.93 77.201L29.7081 73.6038L0.474121 95.5307L42.4544 108.657Z" fill="#F3EEE7"/>
<path opacity="0.02" d="M42.6243 108.54L84.5694 95.4026L111.924 77.1603L29.7082 73.5805L0.632324 95.4201L42.6243 108.54Z" fill="#F3EDE6"/>
<path opacity="0.02" d="M42.7942 108.424L84.7393 95.2862L111.924 77.1137L29.7083 73.5514L0.790527 95.3037L42.7942 108.424Z" fill="#F2ECE5"/>
<path opacity="0.03" d="M42.9583 108.307L84.9092 95.1698L111.918 77.0672L29.7143 73.5281L0.95459 95.1931L42.9583 108.307Z" fill="#F1EBE4"/>
<path opacity="0.03" d="M43.1277 108.191L85.0787 95.0534L111.912 77.0206L29.7139 73.5049L1.1123 95.0825L43.1277 108.191Z" fill="#F0EAE3"/>
<path opacity="0.04" d="M43.2976 108.074L85.2427 94.937L111.906 76.9799L29.714 73.4816L1.27051 94.9719L43.2976 108.074Z" fill="#EFEAE2"/>
<path opacity="0.04" d="M43.4675 107.958L85.4126 94.8264L111.906 76.9333L29.7141 73.4583L1.42871 94.8555L43.4675 107.958Z" fill="#EEE9E1"/>
<path opacity="0.05" d="M43.6374 107.847L85.5825 94.71L111.901 76.8867L29.7143 73.435L1.58691 94.7449L43.6374 107.847Z" fill="#EDE8E0"/>
<path opacity="0.05" d="M43.8068 107.731L85.752 94.5935L111.894 76.846L29.7139 73.4059L1.74463 94.6343L43.8068 107.731Z" fill="#ECE7DF"/>
<path opacity="0.06" d="M43.9767 107.615L85.9219 94.4771L111.889 76.7994L29.7199 73.3826L1.90283 94.5237L43.9767 107.615Z" fill="#ECE6DE"/>
<path opacity="0.06" d="M44.176 107.498L86.1211 94.3607L111.918 76.7528L29.7493 73.3593L2.09619 94.4131L44.176 107.498Z" fill="#EBE5DD"/>
<path opacity="0.07" d="M44.3459 107.382L86.291 94.2443L111.912 76.7063L29.7553 73.336L2.25439 94.2967L44.3459 107.382Z" fill="#EAE4DC"/>
<path opacity="0.07" d="M44.5153 107.265L86.4663 94.1337L111.912 76.6655L29.7549 73.3127L2.41797 94.1861L44.5153 107.265Z" fill="#E9E3DB"/>
<path opacity="0.08" d="M44.6911 107.155L86.6362 94.0173L111.906 76.619L29.7609 73.2895L2.57617 94.0755L44.6911 107.155Z" fill="#E8E2DA"/>
<path opacity="0.08" d="M44.861 107.038L86.8061 93.9009L111.906 76.5724L29.761 73.2662L2.73438 93.9649L44.861 107.038Z" fill="#E7E1D9"/>
<path opacity="0.09" d="M45.0309 106.922L86.976 93.7845L111.907 76.5258L29.767 73.2429L2.89844 93.8543L45.0309 106.922Z" fill="#E6E0D8"/>
<path opacity="0.09" d="M45.2003 106.806L87.1513 93.668L111.9 76.4851L29.7724 73.2138L3.05615 93.7379L45.2003 106.806Z" fill="#E5DFD7"/>
<path opacity="0.1" d="M45.3761 106.689L87.3212 93.5516L111.9 76.4385L29.7726 73.1905L3.22021 93.6273L45.3761 106.689Z" fill="#E5DED6"/>
<path opacity="0.1" d="M45.546 106.573L87.4911 93.441L111.895 76.392L29.7786 73.1672L3.38428 93.5167L45.546 106.573Z" fill="#E4DDD5"/>
<path opacity="0.11" d="M45.7159 106.462L87.661 93.3246L111.895 76.3512L29.7787 73.144L3.54248 93.4061L45.7159 106.462Z" fill="#E3DCD4"/>
<path opacity="0.11" d="M45.8912 106.346L87.8363 93.2082L111.889 76.3046L29.7842 73.1207L3.70605 93.2955L45.8912 106.346Z" fill="#E2DCD3"/>
<path opacity="0.12" d="M46.0611 106.229L88.0062 93.0918L111.889 76.2581L29.7901 73.0974L3.86426 93.1791L46.0611 106.229Z" fill="#E1DBD2"/>
<path opacity="0.12" d="M46.231 106.113L88.1762 92.9754L111.889 76.2173L29.7903 73.0683L4.02832 93.0685L46.231 106.113Z" fill="#E0DAD1"/>
<path opacity="0.13" d="M46.401 105.996L88.3519 92.859L111.883 76.1708L29.7962 73.045L4.18652 92.9579L46.401 105.996Z" fill="#DFD9D0"/>
<path opacity="0.13" d="M46.5763 105.88L88.5214 92.7425L111.883 76.1242L29.7959 73.0217L4.3501 92.8473L46.5763 105.88Z" fill="#DED8CF"/>
<path opacity="0.13" d="M46.7462 105.764L88.6913 92.6261L111.877 76.0776L29.8018 72.9984L4.5083 92.7309L46.7462 105.764Z" fill="#DED7CE"/>
<path opacity="0.14" d="M46.9161 105.647L88.8612 92.5155L111.877 76.0369L29.802 72.9752L4.67236 92.6203L46.9161 105.647Z" fill="#DDD6CD"/>
<path opacity="0.14" d="M47.086 105.537L89.037 92.3991L111.877 75.9903L29.8079 72.9519L4.83057 92.5097L47.086 105.537Z" fill="#DCD5CC"/>
<path opacity="0.15" d="M47.2613 105.42L89.2064 92.2827L111.871 75.9438L29.8134 72.9286L4.99414 92.3991L47.2613 105.42Z" fill="#DBD4CB"/>
<path opacity="0.15" d="M47.4312 105.304L89.3763 92.1663L111.871 75.8972L29.8135 72.8995L5.15234 92.2827L47.4312 105.304Z" fill="#DAD3CA"/>
<path opacity="0.16" d="M47.6011 105.187L89.5462 92.0499L111.865 75.8564L29.8195 72.8762L5.31641 92.1721L47.6011 105.187Z" fill="#D9D2C9"/>
<path opacity="0.16" d="M47.771 105.071L89.722 91.9335L111.866 75.8099L29.8196 72.8529L5.47461 92.0615L47.771 105.071Z" fill="#D8D1C8"/>
<path opacity="0.17" d="M47.9463 104.955L89.8914 91.8229L111.865 75.7633L29.8251 72.8297L5.63818 91.9509L47.9463 104.955Z" fill="#D7D0C7"/>
<path opacity="0.17" d="M48.1162 104.844L90.0613 91.7065L111.859 75.7226L29.8311 72.8064L5.79639 91.8403L48.1162 104.844Z" fill="#D7CFC6"/>
<path opacity="0.18" d="M48.2861 104.728L90.2371 91.59L111.86 75.676L29.8312 72.7831L5.96045 91.7297L48.2861 104.728Z" fill="#D6CEC5"/>
<path opacity="0.18" d="M48.4619 104.611L90.407 91.4736L111.854 75.6294L29.8372 72.7598L6.11865 91.6133L48.4619 104.611Z" fill="#D5CEC4"/>
<path opacity="0.19" d="M48.6313 104.495L90.5764 91.3572L111.853 75.5829L29.8368 72.7307L6.28223 91.5027L48.6313 104.495Z" fill="#D4CDC3"/>
<path opacity="0.19" d="M48.8012 104.378L90.7464 91.2408L111.848 75.5421L29.8428 72.7074L6.44043 91.3921L48.8012 104.378Z" fill="#D3CCC2"/>
<path opacity="0.2" d="M48.9712 104.262L90.9221 91.1302L111.848 75.4955L29.8429 72.6841L6.60449 91.2815L48.9712 104.262Z" fill="#D2CBC1"/>
<path opacity="0.2" d="M49.1469 104.151L91.092 91.0138L111.848 75.449L29.8489 72.6608L6.7627 91.1651L49.1469 104.151Z" fill="#D1CAC0"/>
<path opacity="0.21" d="M49.3164 104.035L91.2615 90.8973L111.842 75.4024L29.8485 72.6375L6.92627 91.0545L49.3164 104.035Z" fill="#D0C9BF"/>
<path opacity="0.21" d="M49.4863 103.918L91.4314 90.7809L111.842 75.3617L29.8545 72.6143L7.08447 90.9439L49.4863 103.918Z" fill="#D0C8BE"/>
<path opacity="0.22" d="M49.6562 103.802L91.6072 90.6645L111.836 75.3151L29.8605 72.5852L7.24854 90.8333L49.6562 103.802Z" fill="#CFC7BD"/>
<path opacity="0.22" d="M49.832 103.686L91.7771 90.5481L111.836 75.2686L29.8606 72.5619L7.40674 90.7227L49.832 103.686Z" fill="#CEC6BC"/>
<path opacity="0.23" d="M50.0014 103.569L91.9465 90.4317L111.836 75.2278L29.8661 72.5386L7.57031 90.6063L50.0014 103.569Z" fill="#CDC5BB"/>
<path opacity="0.23" d="M50.1713 103.453L92.1223 90.3211L111.83 75.1812L29.8662 72.5153L7.72852 90.4957L50.1713 103.453Z" fill="#CCC4BA"/>
<path opacity="0.24" d="M50.3412 103.336L92.2922 90.2047L111.83 75.1347L29.8722 72.492L7.89258 90.3851L50.3412 103.336Z" fill="#CBC3B9"/>
<path opacity="0.24" d="M50.517 103.226L92.4621 90.0883L111.825 75.0881L29.8782 72.4688L8.05078 90.2745L50.517 103.226Z" fill="#CAC2B8"/>
<path opacity="0.25" d="M50.6864 103.109L92.6315 89.9719L111.824 75.0474L29.8778 72.4455L8.21436 90.1639L50.6864 103.109Z" fill="#C9C1B7"/>
<path opacity="0.25" d="M50.8563 102.993L92.8073 89.8554L111.824 75.0008L29.8838 72.4222L8.37256 90.0475L50.8563 102.993Z" fill="#C9C0B6"/>
<path opacity="0.26" d="M51.0321 102.877L92.9772 89.739L111.819 74.9542L29.8839 72.3931L8.53662 89.9369L51.0321 102.877Z" fill="#C8C0B5"/>
<path opacity="0.26" d="M51.202 102.76L93.1471 89.6226L111.819 74.9076L29.8899 72.3698L8.69482 89.8263L51.202 102.76Z" fill="#C7BFB4"/>
<path opacity="0.27" d="M51.3714 102.644L93.3166 89.512L111.812 74.8669L29.8895 72.3465L8.8584 89.7157L51.3714 102.644Z" fill="#C6BEB3"/>
<path opacity="0.27" d="M51.5414 102.533L93.4923 89.3956L111.813 74.8204L29.8955 72.3232L9.0166 89.6052L51.5414 102.533Z" fill="#C5BDB2"/>
<path opacity="0.27" d="M51.7171 102.417L93.6622 89.2792L111.813 74.7738L29.9015 72.3L9.18066 89.4887L51.7171 102.417Z" fill="#C4BCB1"/>
<path opacity="0.28" d="M51.887 102.3L93.8321 89.1628L111.807 74.7272L29.9016 72.2767L9.33887 89.3781L51.887 102.3Z" fill="#C3BBB0"/>
<path opacity="0.28" d="M52.0565 102.184L94.0074 89.0464L111.807 74.6865L29.9071 72.2534L9.50244 89.2675L52.0565 102.184Z" fill="#C2BAAF"/>
<path opacity="0.29" d="M52.2264 102.067L94.1774 88.9299L111.801 74.6399L29.9072 72.2243L9.66064 89.1569L52.2264 102.067Z" fill="#C2B9AE"/>
<path opacity="0.29" d="M52.4022 101.951L94.3473 88.8193L111.801 74.5933L29.9132 72.201L9.82471 89.0405L52.4022 101.951Z" fill="#C1B8AD"/>
<path opacity="0.3" d="M52.5721 101.84L94.5172 88.7029L111.801 74.5526L29.9191 72.1777L9.98291 88.9299L52.5721 101.84Z" fill="#C0B7AC"/>
<path opacity="0.3" d="M52.7415 101.724L94.6866 88.5865L111.795 74.506L29.9188 72.1544L10.1465 88.8193L52.7415 101.724Z" fill="#BFB6AB"/>
<path opacity="0.31" d="M52.9173 101.608L94.8624 88.4701L111.795 74.4594L29.9247 72.1311L10.3047 88.7087L52.9173 101.608Z" fill="#BEB5AA"/>
<path opacity="0.31" d="M53.0872 101.491L95.0323 88.3537L111.789 74.4129L29.9249 72.1078L10.4688 88.5981L53.0872 101.491Z" fill="#BDB4A9"/>
<path opacity="0.32" d="M53.2571 101.375L95.2022 88.2373L111.789 74.3722L29.9308 72.0788L10.627 88.4817L53.2571 101.375Z" fill="#BCB3A8"/>
<path opacity="0.32" d="M53.4265 101.258L95.3775 88.1208L111.789 74.3256L29.9363 72.0555L10.7905 88.3711L53.4265 101.258Z" fill="#BBB2A7"/>
<path opacity="0.33" d="M53.6023 101.142L95.5474 88.0102L111.783 74.279L29.9364 72.0322L10.9487 88.2605L53.6023 101.142Z" fill="#BBB2A6"/>
<path opacity="0.33" d="M53.7722 101.026L95.7173 87.8938L111.783 74.2383L29.9424 72.0089L11.1128 88.1499L53.7722 101.026Z" fill="#BAB1A5"/>
<path opacity="0.34" d="M53.9421 100.915L95.8872 87.7774L111.778 74.1917L29.9425 71.9856L11.271 88.0394L53.9421 100.915Z" fill="#B9B0A4"/>
<path opacity="0.34" d="M54.1116 100.799L96.0625 87.661L111.777 74.1451L29.948 71.9623L11.4346 87.9229L54.1116 100.799Z" fill="#B8AFA3"/>
<path opacity="0.35" d="M54.2873 100.682L96.2324 87.5446L111.777 74.0986L29.9482 71.9391L11.5928 87.8123L54.2873 100.682Z" fill="#B7AEA2"/>
<path opacity="0.35" d="M54.4572 100.566L96.4024 87.4282L111.772 74.0578L29.9541 71.9099L11.7568 87.7017L54.4572 100.566Z" fill="#B6ADA1"/>
<path opacity="0.36" d="M54.6272 100.449L96.5723 87.3117L111.772 74.0112L29.9601 71.8867L11.915 87.5911L54.6272 100.449Z" fill="#B5ACA0"/>
<path opacity="0.36" d="M54.7966 100.339L96.7475 87.2011L111.766 73.9647L29.9597 71.8634L12.0786 87.4747L54.7966 100.339Z" fill="#B4AB9F"/>
<path opacity="0.37" d="M54.9723 100.222L96.9175 87.0847L111.766 73.9239L29.9657 71.8401L12.2368 87.3641L54.9723 100.222Z" fill="#B4AA9E"/>
<path opacity="0.37" d="M55.1423 100.106L97.0874 86.9683L111.76 73.8774L29.9658 71.8168L12.4009 87.2535L55.1423 100.106Z" fill="#B3A99D"/>
<path opacity="0.38" d="M55.3122 99.9894L97.2631 86.8519L111.76 73.8308L29.9718 71.7935L12.5591 87.143L55.3122 99.9894Z" fill="#B2A89C"/>
<path opacity="0.38" d="M55.4875 99.873L97.4326 86.7355L111.76 73.7843L29.9773 71.7703L12.7227 87.0324L55.4875 99.873Z" fill="#B1A79B"/>
<path opacity="0.39" d="M55.6574 99.7566L97.6025 86.6191L111.754 73.7435L29.9774 71.7411L12.8809 86.9159L55.6574 99.7566Z" fill="#B0A69A"/>
<path opacity="0.39" d="M55.8273 99.6402L97.7724 86.5085L111.754 73.6969L29.9834 71.7179L13.0449 86.8053L55.8273 99.6402Z" fill="#AFA599"/>
<path opacity="0.4" d="M55.9972 99.5296L97.9482 86.3921L111.748 73.6504L29.9835 71.6946L13.2031 86.6947L55.9972 99.5296Z" fill="#AEA498"/>
<path opacity="0.4" d="M56.1725 99.4132L98.1176 86.2756L111.748 73.6038L29.989 71.6713L13.3667 86.5841L56.1725 99.4132Z" fill="#ADA497"/>
<path opacity="0.4" d="M56.3424 99.2967L98.2875 86.1592L111.748 73.563L29.9891 71.648L13.5249 86.4735L56.3424 99.2967Z" fill="#ADA396"/>
<path opacity="0.41" d="M56.5123 99.1803L98.4574 86.0428L111.742 73.5165L29.9951 71.6247L13.689 86.3571L56.5123 99.1803Z" fill="#ACA295"/>
<path opacity="0.41" d="M56.6822 99.0639L98.6332 85.9264L111.743 73.4699L29.9952 71.5956L13.8472 86.2466L56.6822 99.0639Z" fill="#ABA194"/>
<path opacity="0.42" d="M56.8575 98.9475L98.8026 85.8158L111.736 73.4234L30.0007 71.5724L14.0107 86.136L56.8575 98.9475Z" fill="#AAA093"/>
<path opacity="0.42" d="M57.0274 98.8311L98.9725 85.6994L111.736 73.3826L30.0067 71.5491L14.1689 86.0254L57.0274 98.8311Z" fill="#A99F92"/>
<path opacity="0.43" d="M57.1974 98.7205L99.1483 85.583L111.737 73.3361L30.0068 71.5258L14.333 85.9089L57.1974 98.7205Z" fill="#A89E91"/>
<path opacity="0.43" d="M57.3731 98.6041L99.3182 85.4666L111.731 73.2895L30.0128 71.5025L14.4912 85.7983L57.3731 98.6041Z" fill="#A79D90"/>
<path opacity="0.44" d="M57.5425 98.4877L99.4877 85.3501L111.73 73.2487L30.0183 71.4792L14.6548 85.6878L57.5425 98.4877Z" fill="#A79C8F"/>
<path opacity="0.44" d="M57.7125 98.3712L99.6576 85.2337L111.725 73.2022L30.0184 71.4559L14.813 85.5772L57.7125 98.3712Z" fill="#A69B8E"/>
<path opacity="0.45" d="M57.8824 98.2548L99.8333 85.1173L111.725 73.1556L30.0244 71.4326L14.9771 85.4666L57.8824 98.2548Z" fill="#A59A8D"/>
<path opacity="0.45" d="M58.0581 98.1384L100.003 85.0009L111.719 73.109L30.0245 71.4035L15.1353 85.3501L58.0581 98.1384Z" fill="#A4998C"/>
<path opacity="0.46" d="M58.2281 98.0278L100.173 84.8903L111.719 73.0683L30.0305 71.3802L15.2993 85.2395L58.2281 98.0278Z" fill="#A3988B"/>
<path opacity="0.46" d="M58.3975 97.9114L100.343 84.7739L111.719 73.0217L30.0301 71.357L15.457 85.1289L58.3975 97.9114Z" fill="#A2978A"/>
<path opacity="0.47" d="M58.5674 97.795L100.518 84.6575L111.713 72.9752L30.0361 71.3337L15.6211 85.0184L58.5674 97.795Z" fill="#A19689"/>
<path opacity="0.47" d="M58.7432 97.6786L100.688 84.5411L111.713 72.9344L30.0362 71.3104L15.7793 84.9078L58.7432 97.6786Z" fill="#A09588"/>
<path opacity="0.48" d="M58.9131 97.5622L100.858 84.4246L111.707 72.8879L30.0422 71.2871L15.9434 84.7914L58.9131 97.5622Z" fill="#A09587"/>
<path opacity="0.48" d="M59.0825 97.4457L101.033 84.3082L111.707 72.8413L30.0476 71.258L16.1011 84.6808L59.0825 97.4457Z" fill="#9F9486"/>
<path opacity="0.49" d="M59.2583 97.3293L101.203 84.1976L111.707 72.7947L30.0478 71.2347L16.2651 84.5702L59.2583 97.3293Z" fill="#9E9385"/>
<path opacity="0.49" d="M59.4282 97.2129L101.373 84.0812L111.702 72.754L30.0537 71.2115L16.4233 84.4596L59.4282 97.2129Z" fill="#9D9284"/>
<path opacity="0.5" d="M59.5981 97.1023L101.543 83.9648L111.702 72.7074L30.0539 71.1882L16.5874 84.349L59.5981 97.1023Z" fill="#9C9183"/>
<path opacity="0.5" d="M59.7675 96.9859L101.718 83.8484L111.701 72.6608L30.0594 71.1649L16.7451 84.2325L59.7675 96.9859Z" fill="#9B9082"/>
<path opacity="0.51" d="M59.9433 96.8695L101.888 83.732L111.696 72.6143L30.0653 71.1416L16.9092 84.122L59.9433 96.8695Z" fill="#9A8F81"/>
<path opacity="0.51" d="M60.1132 96.753L102.058 83.6155L111.696 72.5735L30.0654 71.1183L17.0674 84.0114L60.1132 96.753Z" fill="#998E80"/>
<path opacity="0.52" d="M60.2831 96.6366L102.228 83.5049L111.69 72.5269L30.0714 71.095L17.2314 83.9008L60.2831 96.6366Z" fill="#998D7F"/>
<path opacity="0.52" d="M60.4526 96.5202L102.404 83.3885L111.69 72.4804L30.0711 71.0659L17.3892 83.7844L60.4526 96.5202Z" fill="#988C7E"/>
<path opacity="0.53" d="M60.6283 96.4096L102.573 83.2721L111.684 72.4396L30.077 71.0427L17.5532 83.6738L60.6283 96.4096Z" fill="#978B7D"/>
<path opacity="0.53" d="M60.7983 96.2932L102.743 83.1557L111.684 72.3931L30.083 71.0194L17.7114 83.5632L60.7983 96.2932Z" fill="#968A7C"/>
<path opacity="0.53" d="M60.9682 96.1768L102.919 83.0393L111.684 72.3465L30.0831 70.9961L17.8755 83.4526L60.9682 96.1768Z" fill="#95897B"/>
<path opacity="0.54" d="M61.1435 96.0604L103.089 82.9229L111.678 72.2999L30.0886 70.9728L18.0332 83.342L61.1435 96.0604Z" fill="#94887A"/>
<path opacity="0.54" d="M61.3134 95.944L103.258 82.8065L111.678 72.2592L30.0887 70.9495L18.1973 83.2256L61.3134 95.944Z" fill="#938779"/>
<path opacity="0.55" d="M61.4833 95.8275L103.428 82.69L111.672 72.2126L30.0947 70.9204L18.3555 83.115L61.4833 95.8275Z" fill="#928778"/>
<path opacity="0.55" d="M61.6532 95.7169L103.604 82.5794L111.672 72.1661L30.0948 70.8971L18.5195 83.0044L61.6532 95.7169Z" fill="#928677"/>
<path opacity="0.56" d="M61.8285 95.6005L103.774 82.463L111.672 72.1253L30.1003 70.8738L18.6772 82.8938L61.8285 95.6005Z" fill="#918576"/>
<path opacity="0.56" d="M61.9984 95.4841L103.944 82.3466L111.666 72.0787L30.1063 70.8506L18.8413 82.7832L61.9984 95.4841Z" fill="#908475"/>
<path opacity="0.57" d="M62.1683 95.3677L104.113 82.2302L111.666 72.0322L30.1064 70.8273L18.9995 82.6668L62.1683 95.3677Z" fill="#8F8374"/>
<path opacity="0.57" d="M62.3382 95.2513L104.289 82.1138L111.661 71.9856L30.1124 70.804L19.1636 82.5562L62.3382 95.2513Z" fill="#8E8273"/>
<path opacity="0.58" d="M62.5135 95.1349L104.459 81.9974L111.66 71.9449L30.112 70.7807L19.3213 82.4456L62.5135 95.1349Z" fill="#8D8172"/>
<path opacity="0.58" d="M62.6834 95.0185L104.629 81.8868L111.66 71.8983L30.118 70.7516L19.4854 82.335L62.6834 95.0185Z" fill="#8C8071"/>
<path opacity="0.59" d="M62.8533 94.9079L104.804 81.7704L111.655 71.8517L30.124 70.7283L19.6436 82.2186L62.8533 94.9079Z" fill="#8B7F70"/>
<path opacity="0.59" d="M63.0233 94.7915L104.974 81.6539L111.655 71.8052L30.1241 70.705L19.8076 82.108L63.0233 94.7915Z" fill="#8B7E6F"/>
<path opacity="0.6" d="M63.1985 94.675L105.144 81.5375L111.649 71.7644L30.1296 70.6818L19.9653 81.9974L63.1985 94.675Z" fill="#8A7D6E"/>
<path opacity="0.6" d="M63.3685 94.5586L105.314 81.4211L111.649 71.7179L30.1297 70.6585L20.1294 81.8868L63.3685 94.5586Z" fill="#897C6D"/>
<path opacity="0.61" d="M63.5384 94.4422L105.489 81.3047L111.649 71.6713L30.1357 70.6352L20.2876 81.7762L63.5384 94.4422Z" fill="#887B6C"/>
<path opacity="0.61" d="M63.7141 94.3258L105.659 81.1941L111.643 71.6305L30.1358 70.6119L20.4517 81.6598L63.7141 94.3258Z" fill="#877A6B"/>
<path opacity="0.62" d="M63.8836 94.2094L105.829 81.0777L111.643 71.584L30.1413 70.5828L20.6094 81.5492L63.8836 94.2094Z" fill="#86796A"/>
<path opacity="0.62" d="M64.0535 94.0988L105.999 80.9613L111.637 71.5374L30.1473 70.5595L20.7734 81.4386L64.0535 94.0988Z" fill="#857969"/>
<path opacity="0.63" d="M64.2234 93.9824L106.174 80.8449L111.637 71.4909L30.1474 70.5363L20.9316 81.328L64.2234 93.9824Z" fill="#847868"/>
<path opacity="0.63" d="M64.3992 93.866L106.344 80.7284L111.631 71.4501L30.1534 70.513L21.0957 81.2174L64.3992 93.866Z" fill="#847767"/>
<path opacity="0.64" d="M64.5686 93.7495L106.514 80.612L111.631 71.4035L30.153 70.4897L21.2534 81.101L64.5686 93.7495Z" fill="#837666"/>
<path opacity="0.64" d="M64.7385 93.6331L106.689 80.4956L111.631 71.357L30.159 70.4664L21.4175 80.9904L64.7385 93.6331Z" fill="#827565"/>
<path opacity="0.65" d="M64.9084 93.5167L106.859 80.3792L111.625 71.3104L30.1649 70.4431L21.5757 80.8798L64.9084 93.5167Z" fill="#817464"/>
<path opacity="0.65" d="M65.0842 93.4061L107.029 80.2686L111.625 71.2697L30.1651 70.414L21.7397 80.7692L65.0842 93.4061Z" fill="#807363"/>
<path opacity="0.66" d="M65.2536 93.2897L107.199 80.1522L111.619 71.2231L30.1706 70.3907L21.8975 80.6528L65.2536 93.2897Z" fill="#7F7262"/>
<path opacity="0.66" d="M65.4235 93.1733L107.374 80.0358L111.619 71.1765L30.1707 70.3674L22.0615 80.5422L65.4235 93.1733Z" fill="#7E7161"/>
<path opacity="0.67" d="M65.5993 93.0568L107.544 79.9193L111.619 71.13L30.1767 70.3441L22.2197 80.4316L65.5993 93.0568Z" fill="#7D7060"/>
<path opacity="0.67" d="M65.7692 92.9404L107.714 79.8029L111.614 71.0892L30.1768 70.3209L22.3838 80.321L65.7692 92.9404Z" fill="#7D6F5F"/>
<path opacity="0.67" d="M65.9387 92.824L107.884 79.6924L111.613 71.0427L30.1823 70.2976L22.5415 80.2104L65.9387 92.824Z" fill="#7C6E5E"/>
<path opacity="0.68" d="M66.1086 92.7076L108.06 79.5759L111.608 70.9961L30.1824 70.2685L22.7056 80.094L66.1086 92.7076Z" fill="#7B6D5D"/>
<path opacity="0.68" d="M66.2843 92.597L108.229 79.4595L111.608 70.9553L30.1884 70.2452L22.8638 79.9834L66.2843 92.597Z" fill="#7A6C5C"/>
<path opacity="0.69" d="M66.4543 92.4806L108.399 79.3431L111.608 70.9088L30.1943 70.2219L23.0278 79.8728L66.4543 92.4806Z" fill="#796B5B"/>
<path opacity="0.69" d="M66.6237 92.3642L108.575 79.2267L111.602 70.8622L30.194 70.1986L23.1855 79.7622L66.6237 92.3642Z" fill="#786B5A"/>
<path opacity="0.7" d="M66.7936 92.2478L108.745 79.1103L111.602 70.8215L30.1999 70.1754L23.3496 79.6516L66.7936 92.2478Z" fill="#776A59"/>
<path opacity="0.7" d="M66.9694 92.1314L108.914 78.9938L111.596 70.7749L30.2059 70.1521L23.5078 79.5352L66.9694 92.1314Z" fill="#766958"/>
<path opacity="0.71" d="M67.1393 92.0149L109.084 78.8774L111.596 70.7283L30.206 70.1288L23.6719 79.4246L67.1393 92.0149Z" fill="#766857"/>
<path opacity="0.71" d="M67.3087 91.8985L109.254 78.7668L111.59 70.6818L30.2115 70.1055L23.8296 79.314L67.3087 91.8985Z" fill="#756756"/>
<path opacity="0.72" d="M67.4845 91.7879L109.43 78.6504L111.59 70.641L30.2116 70.0764L23.9937 79.2034L67.4845 91.7879Z" fill="#746655"/>
<path opacity="0.72" d="M67.6544 91.6715L109.6 78.534L111.59 70.5945L30.2176 70.0531L24.1519 79.0928L67.6544 91.6715Z" fill="#736554"/>
<path opacity="0.73" d="M67.8243 91.5551L109.769 78.4176L111.584 70.5479L30.2177 70.0298L24.3159 78.9764L67.8243 91.5551Z" fill="#726453"/>
<path opacity="0.73" d="M67.9937 91.4387L109.945 78.3012L111.584 70.5013L30.2232 70.0066L24.4736 78.8658L67.9937 91.4387Z" fill="#716352"/>
<path opacity="0.74" d="M68.1695 91.3223L110.115 78.1848L111.578 70.4606L30.2292 69.9833L24.6377 78.7552L68.1695 91.3223Z" fill="#706251"/>
<path opacity="0.74" d="M68.3394 91.2059L110.285 78.0742L111.578 70.414L30.2293 69.96L24.7959 78.6446L68.3394 91.2059Z" fill="#6F6150"/>
<path opacity="0.75" d="M68.5093 91.0952L110.454 77.9577L111.579 70.3674L30.2353 69.9309L24.96 78.5282L68.5093 91.0952Z" fill="#6F604F"/>
<path opacity="0.75" d="M68.6846 90.9788L110.63 77.8413L111.572 70.3209L30.2349 69.9076L25.1177 78.4176L68.6846 90.9788Z" fill="#6E5F4E"/>
<path opacity="0.76" d="M68.8545 90.8624L110.8 77.7249L111.573 70.2801L30.2409 69.8843L25.2817 78.307L68.8545 90.8624Z" fill="#6D5E4D"/>
<path opacity="0.76" d="M69.0245 90.746L110.97 77.6085L111.573 70.2336L30.241 69.861L25.4399 78.1964L69.0245 90.746Z" fill="#6C5D4C"/>
<path opacity="0.77" d="M69.1944 90.6296L111.139 77.4921L111.567 70.187L30.247 69.8378L25.604 78.0858L69.1944 90.6296Z" fill="#6B5D4B"/>
<path opacity="0.77" d="M69.3696 90.5132L111.315 77.3815L111.567 70.1463L30.2525 69.8145L25.7617 77.9752L69.3696 90.5132Z" fill="#6A5C4A"/>
<path opacity="0.78" d="M69.5396 90.3968L111.485 77.2651L111.561 70.0997L30.2526 69.7912L25.9258 77.8588L69.5396 90.3968Z" fill="#695B49"/>
<path opacity="0.78" d="M69.6626 90.2862L111.608 77.1487L111.514 70.0531L30.2059 69.7621L26.0371 77.7482L69.6626 90.2862Z" fill="#685A48"/>
<path opacity="0.79" d="M69.7446 90.1698L111.69 77.0322L111.42 70.0066L30.1239 69.7388L26.1133 77.6376L69.7446 90.1698Z" fill="#685947"/>
<path opacity="0.79" d="M69.8325 90.0533L111.778 76.9158L111.333 69.9658L30.042 69.7155L26.1895 77.527L69.8325 90.0533Z" fill="#675846"/>
<path opacity="0.8" d="M69.9145 89.9369L111.86 76.7994L111.245 69.9192L29.9601 69.6922L26.2598 77.4106L69.9145 89.9369Z" fill="#665745"/>
<path opacity="0.8" d="M26.3359 77.3L70.0024 89.8205L111.948 76.683L111.157 69.8727L29.8723 69.6689L26.3359 77.3Z" fill="#655644"/>
</g>
<mask id="mask0_3700_768" style="mask-type:luminance" maskUnits="userSpaceOnUse" x="28" y="40" width="84" height="49">
<path d="M28.0513 40.9725V75.8099L70.0022 88.9416L111.947 75.8099V40.9725L70.0022 48.621L28.0513 40.9725Z" fill="white"/>
</mask>
<g mask="url(#mask0_3700_768)">
<path d="M108.159 73.6213L111.948 72.5153V76.4618L108.218 77.7657L108.159 73.6213ZM103.546 74.8786L103.598 79.25L108.101 77.8064L108.042 73.6504L103.546 74.8786ZM98.3933 76.2814L98.4401 80.9089L103.47 79.2907L103.417 74.9135L98.3933 76.2814ZM92.6144 77.853L92.6612 82.7657L98.2937 80.9555L98.2469 76.2989L92.6144 77.8297M86.0685 79.6342L86.1095 84.8729L92.509 82.8181L92.4622 77.8996L86.0919 79.6458M78.6561 81.6714L78.6854 87.2769L85.9455 84.9485L85.9046 79.7098L78.6561 81.6831M70.0141 84.0114V90.0417L78.457 87.3118V81.7005L70.0258 83.9706M110.261 68.7493L110.32 72.7773L111.971 72.2592V68.3244L110.261 68.7493ZM70.0258 77.6085V83.6098L74.3117 82.4805V76.6597L70.0434 77.5852M105.893 69.6923L105.952 73.9356L110.22 72.7715L110.168 68.7377L105.893 69.6806M101.028 70.7517L101.081 75.2395L105.823 73.9589L105.771 69.7097L101.028 70.7517ZM95.577 71.9566L95.6238 76.7063L100.94 75.2744L100.887 70.7866L95.577 71.9507M89.4058 73.3419L89.4468 78.3943L95.4365 76.7994L95.3896 72.038L89.4058 73.3419ZM82.4501 74.8786L82.4853 80.2745L89.277 78.4409L89.2361 73.3826L82.4501 74.8786ZM74.4991 76.6248V82.4107L82.2686 80.3152L82.2335 74.9135L74.4756 76.6248M108.031 65.967L108.077 68.9647L111.948 68.1032V65.251L108.054 65.9902M103.446 66.8284L103.487 69.9949L107.978 69.0112L107.937 66.0077L103.446 66.8284ZM98.2996 67.7656L98.3347 71.1125L103.352 70.0182L103.317 66.8517L98.2996 67.7656ZM92.5324 68.8133L92.5675 72.3698L98.1883 71.1416L98.1532 67.7889L92.5324 68.8133ZM86.0158 69.9775V73.761L92.3802 72.3756L92.3451 68.8192L85.9924 69.9833M78.5741 71.3337V75.3792L85.8109 73.8076V70.0124L78.58 71.3337M78.3633 71.3687L69.9849 72.8762V77.2418L78.3868 75.4257L78.3633 71.3687Z" fill="url(#paint0_linear_3700_768)"/>
<path d="M108.054 65.9844H107.937L107.978 68.988L103.487 69.9717L103.446 66.8052H103.317L103.352 69.9717L98.364 71.1125L98.3288 67.7656H98.1825L98.2176 71.1184L92.5968 72.3466L92.5617 68.7901L92.3977 68.825L92.4329 72.3815L86.0685 73.7901V70.0008L85.8811 70.0357V73.8309L78.6444 75.4025V71.357L78.4277 71.3919V75.4665L70.0258 77.2826V77.6435L74.2941 76.718V82.5387L70.0083 83.668V84.0289L78.4395 81.7588V87.37L69.9849 90.0592V90.5016L111.93 76.7063V76.5026L108.2 77.8064L108.142 73.6621L111.93 72.5561V72.3174L110.279 72.8355L110.22 68.8075L111.93 68.3826V68.1032L108.077 68.988L108.054 65.9844ZM105.712 69.7621L105.765 74.0113L101.022 75.2919L100.969 70.804L105.712 69.7621ZM100.829 70.839L100.882 75.3268L95.5653 76.7587L95.5184 72.0089L100.829 70.839ZM95.3721 72.0381L95.4189 76.7995L89.4293 78.4118L89.4058 73.3419L95.3721 72.0381ZM89.2185 73.4001L89.2595 78.4584L82.4677 80.2919L82.4326 74.8961L89.2185 73.4001ZM74.5049 82.434V76.6481L82.2628 74.9368L82.2979 80.3385L74.5049 82.434ZM78.6561 87.2652L78.6268 81.6598L85.8753 79.6866L85.9163 84.9253L78.6561 87.2652ZM86.1036 84.8671L86.0627 79.6284L92.4329 77.8821L92.4797 82.8007L86.1036 84.8671ZM92.6437 82.7658L92.5968 77.853L98.2293 76.3221L98.2761 80.9788L92.6437 82.7658ZM98.4225 80.9089L98.3757 76.2814L103.399 74.9135L103.452 79.2907L98.4225 80.9089ZM103.581 79.25L103.528 74.8786L108.025 73.6504L108.083 77.8064L103.581 79.25ZM110.162 72.8471L105.893 74.0113L105.835 69.7679L110.109 68.825L110.162 72.8471Z" fill="url(#paint1_linear_3700_768)"/>
<path d="M70.0024 41.3974V72.8995L78.3809 71.3919L78.5976 71.357L85.8285 70.0357L86.0158 70.0066L92.3685 68.8482L92.5324 68.8133L98.1532 67.7889L98.2996 67.7656L103.317 66.8517L103.446 66.8284L107.937 66.0077L108.06 65.9844L111.948 65.2452V53.6909L70.0024 41.3974Z" fill="url(#paint2_linear_3700_768)"/>
<path d="M31.8394 73.6213L31.7809 77.7657L28.0513 76.4618V72.5153L31.8394 73.6213ZM36.4532 74.8786L31.9565 73.6504L31.898 77.8064L36.4005 79.25L36.4532 74.8786ZM41.6056 76.2814L36.5878 74.9135L36.5293 79.2907L41.5704 80.9089L41.6173 76.2814M47.3961 77.853L41.7636 76.3221L41.7168 80.9788L47.3493 82.789L47.3961 77.8763M53.9303 79.6575L47.5601 77.9112L47.5132 82.8298L53.8659 84.8671L53.901 79.6283M61.3369 81.654L54.106 79.6865L54.065 84.9253L61.3251 87.2536L61.3544 81.6482M70.0022 83.9765L61.5652 81.7064V87.3176L70.0257 90.0068V83.9881M29.7609 68.7668L28.0513 68.3418V72.2767L29.7082 72.7947L29.7609 68.7668ZM70.0022 77.626L65.7281 76.7005V82.5213L70.0198 83.6505V77.626M34.1463 69.733L29.8605 68.79L29.8078 72.8238L34.076 73.988L34.1346 69.7447M39.0001 70.8157L34.2576 69.7738L34.2049 74.0229L38.9474 75.3035L39.0001 70.8157ZM44.4511 72.0206L39.1406 70.8564L39.0879 75.3442L44.4042 76.7762L44.4511 72.0264M50.593 73.3419L44.6092 72.0206L44.5623 76.782L50.552 78.3943L50.593 73.3419ZM57.5487 74.8786L50.7686 73.4001L50.7276 78.4584L57.5136 80.2919L57.5487 74.896M65.4998 76.6423L57.7419 74.931L57.7068 80.3268L65.4763 82.4223V76.6365M31.9448 65.9902L28.0513 65.251V68.1032L31.9039 68.9879L31.9448 65.9902ZM36.5527 66.8284L32.0619 66.0077L32.0209 69.0112L36.5117 69.9949L36.5527 66.8284ZM41.6992 67.7656L36.6815 66.8517L36.6464 70.0182L41.6641 71.1125L41.6992 67.7656ZM47.4664 68.8133L41.8456 67.7889L41.8105 71.1416L47.4313 72.3698L47.4664 68.8133ZM53.9889 69.9775L47.6303 68.8133L47.5952 72.3698L53.9596 73.7552V69.9717M61.372 71.3221L54.1411 70.0008V73.7959L61.3778 75.3675V71.3221M61.5945 71.357V75.4316L69.9964 77.2476V72.8821L61.5945 71.357Z" fill="url(#paint3_linear_3700_768)"/>
<path d="M70.0022 77.626V77.2651L61.6003 75.449V71.3745L61.3837 71.3395V75.385L54.1469 73.8134V70.0182L53.9654 69.9833V73.7726L47.6011 72.3873L47.6362 68.8308L47.4723 68.7958L47.4254 72.3698L41.8046 71.1416L41.8398 67.7889H41.6934L41.6583 71.1358L36.6405 70.0415L36.6757 66.875H36.5469L36.5059 70.0415L32.0151 69.0578L32.0561 66.0543H31.939L31.898 69.0578L28.0513 68.1032V68.3418L29.7609 68.7667L29.7082 72.7947L28.0513 72.2767V72.5153L31.8394 73.6213L31.7809 77.7657L28.0513 76.4618V76.6656L70.0022 90.4608V90.0184L61.5418 87.3118V81.7005L69.9788 83.9706V83.6097L65.6871 82.4805V76.6597L70.0022 77.626ZM50.7686 73.4001L57.5487 74.896L57.5136 80.2919L50.7276 78.4583L50.7686 73.4001ZM44.6092 72.038L50.593 73.3419L50.552 78.3943L44.5623 76.782L44.6092 72.038ZM39.1523 70.8389L44.4628 72.0031L44.416 76.7529L39.0996 75.3209L39.1523 70.8389ZM34.2693 69.7621L39.0118 70.804L38.9591 75.2918L34.2166 74.0113L34.2693 69.7621ZM29.8195 72.8238L29.8722 68.79L34.1463 69.733L34.0878 73.9763L29.8195 72.8238ZM36.4005 79.2267L31.898 77.7831L31.9565 73.6271L36.4532 74.8553L36.4005 79.2267ZM41.5704 80.9089L36.541 79.2907L36.5995 74.9135L41.6173 76.2814L41.5704 80.9089ZM47.3493 82.7657L41.7168 80.9555L41.7636 76.2988L47.3961 77.8297L47.3493 82.7657ZM53.8659 84.867L47.484 82.8181L47.5308 77.8996L53.901 79.6458L53.8659 84.867ZM61.3076 87.2652L54.0474 84.9369L54.0884 79.6982L61.3369 81.6714L61.3076 87.2652ZM65.4588 82.4339L57.7068 80.3268L57.7419 74.9251L65.4998 76.6364L65.4588 82.4339Z" fill="url(#paint4_linear_3700_768)"/>
<path d="M28.0513 53.6909V65.2452L31.9448 65.9844L32.0619 66.0077L36.5527 66.8284L36.6815 66.8517L41.6992 67.7656L41.8456 67.7889L47.4664 68.8133L47.6303 68.8482L53.983 70.0066L54.1704 70.0357L61.4071 71.357L61.6179 71.3919L70.0022 72.8995V41.3974L28.0513 53.6909Z" fill="url(#paint5_linear_3700_768)"/>
</g>
<path d="M70.002 11.1934L112 24.9886V30.2273L70.002 19.098V11.1934ZM110.308 32.09L110.39 37.4567L112 37.707V32.4392L110.308 32.09ZM97.4267 28.9991L97.4911 35.1925L106.742 36.8165L106.666 31.2169L97.4267 28.9991ZM79.8032 24.7732L79.8442 32.1016L92.6022 34.3426L92.5436 27.835L79.8091 24.7791M70.002 22.4042V30.3612L72.9294 30.8676V23.0969L70.0371 22.3984M108.575 32.253L107.568 34.1855L108.633 36.5487L109.617 34.6104L108.575 32.253ZM95.1081 29.1156L93.6795 31.31L95.1023 34.0865L96.4372 31.8804L95.0496 29.1039M76.4541 24.7732L74.4869 27.3111L76.4776 30.6813L78.3863 28.126L76.4541 24.7732Z" fill="url(#paint6_linear_3700_768)"/>
<path d="M70.0022 11.1934V19.098L27.9985 30.2681V25.0294L70.0022 11.2341M29.6906 32.09L27.9985 32.4392V37.707L29.6087 37.4567L29.6906 32.09ZM42.5716 28.9991L33.3266 31.2169L33.2505 36.8165L42.5013 35.1925L42.5716 28.9991ZM60.1892 24.7732L47.4547 27.8292L47.4254 34.3426L60.1775 32.1074L60.2185 24.7791M70.0315 22.4042L67.104 23.1027V30.8734L70.0315 30.367V22.3984M31.4647 32.253L30.4459 34.6104L31.4296 36.5487L32.4952 34.1855L31.494 32.253M44.9604 29.1156L43.5611 31.8804L44.896 34.0865L46.3188 31.31L44.9487 29.1039M63.5441 24.7732L61.612 28.126L63.5207 30.6813L65.5114 27.3111L63.5441 24.7732Z" fill="url(#paint7_linear_3700_768)"/>
<path d="M70.0022 0V11.1934L27.9985 24.9886V17.538L70.0022 0ZM27.9985 37.707L29.6087 37.4567L29.6906 32.09L27.9985 32.4392V30.2681L70.0022 19.1271V22.4449L67.0747 23.1434V30.9142L70.0022 30.4078V71.8227C61.6471 71.8227 59.3637 53.5396 59.3637 53.5396C59.3637 53.5396 56.2078 69.0869 48.1924 67.3756C41.7519 66.0019 40.6863 54.3254 40.6863 54.3254C39.2284 65.9204 30.0126 68.5455 28.0512 56.6013L27.9985 37.707ZM61.612 28.1377L63.5207 30.693L65.5114 27.3228L63.5441 24.7849L61.612 28.1377ZM47.4254 34.3426L60.1775 32.1074L60.2185 24.7791L47.4547 27.8292L47.4254 34.3426ZM43.5611 31.8804L44.896 34.0865L46.3188 31.31L44.9487 29.1039L43.5611 31.8804ZM33.2505 36.8165L42.5013 35.1925L42.5716 28.9991L33.3266 31.2169L33.2505 36.8165ZM30.4459 34.6104L31.4296 36.5487L32.4952 34.1855L31.494 32.253L30.4459 34.6104Z" fill="url(#paint8_linear_3700_768)"/>
<path d="M112 17.538V24.9886L70.002 11.1934V0L112 17.538ZM70.002 30.3787L72.9294 30.8851V23.1143L70.0371 22.4158V19.098L112 30.2681V32.4683L110.308 32.1191L110.39 37.4859L112 37.7361L111.947 56.6304C109.98 68.5747 100.782 65.9437 99.3062 54.3545C99.3062 54.3545 98.2698 66.031 91.8059 67.4047C83.7904 69.116 80.6346 53.5396 80.6346 53.5396C80.6346 53.5396 78.3453 71.8227 70.002 71.8227V30.3787ZM107.532 34.1855L108.598 36.5487L109.582 34.6104L108.539 32.253L107.532 34.1855ZM97.4326 28.9991L97.497 35.1925L106.748 36.8165L106.672 31.2169L97.4326 28.9991ZM93.6795 31.3275L95.1023 34.104L96.4372 31.8979L95.0496 29.1039L93.6795 31.3275ZM79.8091 24.7733L79.85 32.1016L92.6022 34.3426L92.5436 27.835L79.8091 24.7733ZM74.4869 27.3228L76.4776 30.693L78.3863 28.1377L76.4541 24.7849L74.4869 27.3228Z" fill="#14110C"/>
<defs>
<linearGradient id="paint0_linear_3700_768" x1="124.026" y1="68.3302" x2="55.2409" y2="85.2451" gradientUnits="userSpaceOnUse">
<stop stop-color="#7B5E42"/>
<stop offset="1" stop-color="#423132"/>
</linearGradient>
<linearGradient id="paint1_linear_3700_768" x1="70.0024" y1="78.2255" x2="111.948" y2="78.2255" gradientUnits="userSpaceOnUse">
<stop stop-color="#5B4539"/>
<stop offset="1" stop-color="#8D745C"/>
</linearGradient>
<linearGradient id="paint2_linear_3700_768" x1="110.455" y1="48.8771" x2="47.1234" y2="63.5036" gradientUnits="userSpaceOnUse">
<stop stop-color="#E5E2DC"/>
<stop offset="0.19" stop-color="#D9D6CF"/>
<stop offset="0.53" stop-color="#B8B6AC"/>
<stop offset="0.84" stop-color="#969488"/>
<stop offset="0.86" stop-color="#918E81"/>
<stop offset="0.94" stop-color="#817D6E"/>
<stop offset="1" stop-color="#7C7767"/>
</linearGradient>
<linearGradient id="paint3_linear_3700_768" x1="58.4913" y1="60.2742" x2="43.0867" y2="88.8659" gradientUnits="userSpaceOnUse">
<stop stop-color="#7B5E42"/>
<stop offset="1" stop-color="#423132"/>
</linearGradient>
<linearGradient id="paint4_linear_3700_768" x1="28.0513" y1="78.2255" x2="70.0022" y2="78.2255" gradientUnits="userSpaceOnUse">
<stop stop-color="#5B4539"/>
<stop offset="1" stop-color="#8D745C"/>
</linearGradient>
<linearGradient id="paint5_linear_3700_768" x1="64.1063" y1="31.9037" x2="42.44" y2="77.5384" gradientUnits="userSpaceOnUse">
<stop stop-color="#C7C1B3"/>
<stop offset="0.36" stop-color="#D9D5CC"/>
<stop offset="0.74" stop-color="#E7E5DF"/>
<stop offset="1" stop-color="#ECEBE6"/>
</linearGradient>
<linearGradient id="paint6_linear_3700_768" x1="66.77" y1="18.8943" x2="112.037" y2="35.5088" gradientUnits="userSpaceOnUse">
<stop stop-color="#98652F"/>
<stop offset="0.55" stop-color="#BE7B2D"/>
<stop offset="1" stop-color="#BF7E46"/>
</linearGradient>
<linearGradient id="paint7_linear_3700_768" x1="24.8544" y1="28.9759" x2="67.0294" y2="21.2343" gradientUnits="userSpaceOnUse">
<stop offset="0.12" stop-color="#BE7B2E"/>
<stop offset="0.38" stop-color="#C27F31"/>
<stop offset="0.63" stop-color="#CD8A3B"/>
<stop offset="0.87" stop-color="#DF9C4C"/>
<stop offset="1" stop-color="#EDAA58"/>
</linearGradient>
<linearGradient id="paint8_linear_3700_768" x1="48.5495" y1="6.88599" x2="49.8805" y2="67.1198" gradientUnits="userSpaceOnUse">
<stop stop-color="#2B2620"/>
<stop offset="0.41" stop-color="#27221C"/>
<stop offset="0.85" stop-color="#1A1611"/>
<stop offset="1" stop-color="#14110C"/>
</linearGradient>
</defs>
</svg>
