<?xml version="1.0" encoding="UTF-8"?>
<!--Generator: Apple Native CoreSVG 326-->
<!DOCTYPE svg
PUBLIC "-//W3C//DTD SVG 1.1//EN"
       "http://www.w3.org/Graphics/SVG/1.1/DTD/svg11.dtd">
<svg version="1.1" xmlns="http://www.w3.org/2000/svg" xmlns:xlink="http://www.w3.org/1999/xlink" viewBox="0 0 26.3672 34.4092">
 <g>
  <rect height="34.4092" opacity="0" width="26.3672" x="0" y="0"/>
  <path d="M0 28.3594C0 31.3916 1.53809 32.9004 4.59961 32.9004L21.4014 32.9004C24.4629 32.9004 26.001 31.377 26.001 28.3594L26.001 13.916C26.001 10.8984 24.4629 9.375 21.4014 9.375L4.59961 9.375C1.53809 9.375 0 10.8838 0 13.916ZM12.9932 21.4307C12.3633 21.4307 11.8359 20.918 11.8359 20.3027L11.8359 5.39062L11.9238 3.20801L11.1035 4.07227L8.83301 6.48926C8.62793 6.72363 8.30566 6.84082 8.02734 6.84082C7.41211 6.84082 6.97266 6.40137 6.97266 5.81543C6.97266 5.49316 7.10449 5.25879 7.32422 5.03906L12.1436 0.380859C12.4512 0.0878906 12.7002 0 12.9932 0C13.3008 0 13.5498 0.0878906 13.8428 0.380859L18.6768 5.03906C18.8965 5.25879 19.0137 5.49316 19.0137 5.81543C19.0137 6.40137 18.5596 6.84082 17.9443 6.84082C17.666 6.84082 17.3584 6.72363 17.1533 6.48926L14.8975 4.07227L14.0771 3.20801L14.165 5.39062L14.165 20.3027C14.165 20.918 13.623 21.4307 12.9932 21.4307Z" fill="white" fill-opacity="0.85"/>
 </g>
</svg>
