<?xml version="1.0" encoding="UTF-8"?>
<!--Generator: Apple Native CoreSVG 326-->
<!DOCTYPE svg
PUBLIC "-//W3C//DTD SVG 1.1//EN"
       "http://www.w3.org/Graphics/SVG/1.1/DTD/svg11.dtd">
<svg version="1.1" xmlns="http://www.w3.org/2000/svg" xmlns:xlink="http://www.w3.org/1999/xlink" viewBox="0 0 26.3672 31.4209">
 <g>
  <rect height="31.4209" opacity="0" width="26.3672" x="0" y="0"/>
  <path d="M4.59961 31.4209L21.4014 31.4209C24.4629 31.4209 26.001 29.8975 26.001 26.8799L26.001 12.4219C26.001 9.4043 24.4629 7.88086 21.4014 7.88086L4.59961 7.88086C1.53809 7.88086 0 9.38965 0 12.4219L0 26.8799C0 29.9121 1.53809 31.4209 4.59961 31.4209ZM13.0078 0.0878906C13.6377 0.0878906 14.165 0.600586 14.165 1.21582L14.165 16.1133L14.0771 18.3105L14.8975 17.4463L17.168 15.0293C17.373 14.7949 17.666 14.6777 17.959 14.6777C18.5596 14.6777 19.0283 15.1025 19.0283 15.7031C19.0283 16.0254 18.8965 16.2598 18.6768 16.4795L13.8428 21.1377C13.5498 21.4307 13.3008 21.5186 13.0078 21.5186C12.7002 21.5186 12.4512 21.4307 12.1582 21.1377L7.32422 16.4795C7.10449 16.2598 6.97266 16.0254 6.97266 15.7031C6.97266 15.1025 7.41211 14.6777 8.02734 14.6777C8.32031 14.6777 8.62793 14.7949 8.83301 15.0293L11.1035 17.4463L11.9238 18.3105L11.8359 16.1133L11.8359 1.21582C11.8359 0.600586 12.3779 0.0878906 13.0078 0.0878906Z" fill="white" fill-opacity="0.85"/>
 </g>
</svg>
